<?xml version="1.0" encoding="UTF-8" standalone="no"?>
<!DOCTYPE svg PUBLIC "-//W3C//DTD SVG 1.1//EN" "http://www.w3.org/Graphics/SVG/1.1/DTD/svg11.dtd">
<svg width="100%" height="100%" viewBox="0 0 2018 2018" version="1.1" xmlns="http://www.w3.org/2000/svg" xmlns:xlink="http://www.w3.org/1999/xlink" xml:space="preserve" xmlns:serif="http://www.serif.com/" style="fill-rule:evenodd;clip-rule:evenodd;stroke-linejoin:round;stroke-miterlimit:2;">
    <g transform="matrix(1,0,0,1,0,-12.4724)">
        <g transform="matrix(5.36911,0,0,5.36911,-12426.5,-4250.21)">
            <path d="M2502.34,793.926C2606.05,793.926 2690.25,878.123 2690.25,981.831C2690.25,1085.54 2606.05,1169.74 2502.34,1169.74C2398.63,1169.74 2314.44,1085.54 2314.44,981.831C2314.44,878.123 2398.63,793.926 2502.34,793.926ZM2505.37,913.942L2494.84,913.942C2470.71,899.386 2433.71,903.719 2430.37,865.553C2430.37,858.629 2423.98,857.267 2423.15,866.297C2421.95,879.324 2422.84,892.861 2424.65,906.621C2412.24,903.223 2401.96,896.909 2395.99,884.746C2392.7,878.054 2388.72,878.893 2389.43,885.627C2390.38,894.657 2390.86,899.222 2391.95,909.602C2374.8,912.447 2361.78,919.022 2351.15,928.591L2352.33,935.947L2346.87,942.143L2342.81,942.143L2364.91,1097.4L2478.95,1091.46C2480.78,1099.8 2487.84,1103.8 2499.82,1103.72L2500.1,1103.72C2512.25,1103.86 2519.41,1099.87 2521.26,1091.46L2635.3,1097.4L2640.63,1059.93L2640.91,1060.53L2666.21,1033.25L2645.97,1022.45L2657.39,942.143L2653.34,942.143L2647.88,935.947L2649.06,928.591C2638.43,919.022 2626.16,912.447 2609.01,909.602C2609.76,899.47 2610.13,894.457 2610.78,885.627C2611.27,878.875 2606.11,878.863 2604.22,884.746C2600.08,897.652 2587.97,903.223 2575.55,906.621C2577.36,892.861 2578.26,879.324 2577.05,866.297C2576.22,857.267 2569.83,858.629 2569.83,865.553C2566.49,903.719 2529.5,899.386 2505.37,913.942ZM2629.74,1049.72L2634.39,1049.72L2628.78,1088.32C2605.97,1085 2569.26,1069.5 2555.14,1069.5C2534.7,1069.5 2526.1,1075.69 2519.34,1085.33C2514.28,1085.95 2509.5,1084.03 2504.98,1079.7C2537.34,1043.8 2595.49,1082.67 2625.16,1081.35L2629.74,1049.72ZM2496.97,1079.7C2492.45,1084.03 2487.67,1085.95 2482.61,1085.33C2475.86,1075.69 2467.25,1069.5 2446.82,1069.5C2432.69,1069.5 2395.99,1085 2373.18,1088.32L2352.33,944.985L2356.41,940.535L2376.79,1081.35C2406.47,1082.67 2464.61,1043.8 2496.97,1079.7ZM2579.32,1049.72L2625.29,1049.72L2620.97,1076.78C2596.6,1077.92 2566.99,1059.37 2537.19,1061.72C2523.55,1062.79 2512.51,1067.49 2504.38,1076.25L2504.38,1072.36C2509.94,1058.27 2546.72,1057.6 2566.95,1054.19C2571.05,1053.49 2575.33,1051.98 2579.32,1049.72ZM2497.57,1072.36L2497.57,1076.25C2489.44,1067.49 2478.41,1062.79 2464.76,1061.72C2434.96,1059.37 2405.36,1077.92 2380.99,1076.78L2357.65,930.824C2368.77,921.398 2382.04,916.31 2394.59,914.87L2405.96,1026.19C2407.56,1041.8 2422.2,1052.02 2435,1054.19C2455.23,1057.6 2492.01,1058.27 2497.57,1072.36ZM2497.84,1049.72L2497.65,1070.85C2492.01,1039.42 2441.77,1041.89 2437.27,1016.82L2428.48,878.597C2433.76,903.131 2461.37,904.932 2482.67,913.942L2431.14,913.942L2446.77,946.892L2498.73,946.892L2498.57,965.425L2455.5,965.425L2471.12,998.375L2498.28,998.375L2498.12,1016.77L2479.86,1016.77L2495.48,1049.72L2497.84,1049.72ZM2504.12,1049.72L2519.47,1049.72C2511.96,1054.75 2506.03,1061.2 2504.3,1070.85L2504.12,1049.72ZM2525.56,1049.72L2569.62,1049.72C2547.2,1057.44 2516.01,1054.8 2509.94,1063.88C2513.24,1057.22 2518.06,1053.58 2525.56,1049.72ZM2395.99,895.671L2408.95,1024C2412.99,1063.88 2482.61,1049.81 2492.01,1063.88C2486.45,1052.65 2476.55,1049.99 2456.81,1040.44C2434.4,1029.61 2434.4,1026.19 2432.28,993.246L2427.08,912.881C2415.84,910.293 2404.76,904.935 2395.99,895.671ZM2524.28,1048.71L2522.1,1048.71C2521.85,1048.69 2521.81,1048.63 2521.79,1048.4L2521.79,1041.4C2521.81,1041.15 2521.87,1041.11 2522.1,1041.09L2522.83,1041.09C2524.22,1038.81 2524.32,1035.82 2524.42,1032.92C2524.53,1029.09 2524.6,1025.25 2524.69,1021.42C2524.72,1021.17 2524.78,1021.14 2525.01,1021.12C2527.49,1021.12 2529.99,1020.9 2532.47,1021.12C2532.7,1021.18 2532.71,1021.22 2532.73,1021.43L2532.73,1041.09C2532.73,1041.09 2533.83,1041.1 2533.83,1041.1C2534.06,1041.16 2534.07,1041.2 2534.09,1041.4L2534.09,1048.4C2534.07,1048.66 2534.01,1048.69 2533.78,1048.71L2531.6,1048.71C2531.35,1048.69 2531.31,1048.63 2531.29,1048.4L2531.29,1044.85L2524.59,1044.85L2524.59,1048.4C2524.57,1048.66 2524.51,1048.69 2524.28,1048.71ZM2631.94,1020.69C2634.92,1020.76 2636.54,1024.4 2636.8,1027.01C2637.13,1030.31 2636.89,1033.8 2636.89,1037.21C2636.87,1040.4 2636.2,1044.03 2633.26,1045.05C2631.74,1045.58 2629.92,1045.14 2628.81,1043.95C2627.21,1042.23 2626.89,1039.71 2626.85,1037.44C2626.83,1033.08 2626.17,1028.5 2627.41,1024.57C2628.03,1022.6 2629.59,1020.67 2631.94,1020.69ZM2572.11,1034.55C2572.11,1037.54 2571.8,1041.58 2574.12,1041.45C2575.47,1041.38 2576.02,1039.59 2576.12,1037.85C2576.12,1037.85 2576.16,1037.58 2576.44,1037.56C2576.44,1037.56 2578.68,1037.56 2578.68,1037.56C2578.7,1037.57 2578.72,1037.57 2578.73,1037.57C2579.04,1037.7 2578.96,1037.71 2578.93,1038.31C2578.78,1040.75 2578.19,1043.38 2576.27,1044.61C2574.66,1045.65 2572.34,1045.37 2571.04,1043.97C2569.55,1042.37 2569.26,1040.03 2569.22,1037.96C2569.2,1033.26 2568.3,1028.29 2569.85,1023.99C2570.51,1022.17 2572.15,1020.66 2574.04,1020.69C2575.83,1020.71 2577.39,1022.06 2578.07,1023.72C2578.63,1025.1 2578.81,1026.61 2578.86,1028.09C2578.86,1028.09 2578.84,1028.39 2578.55,1028.41L2576.35,1028.41C2575.87,1028.37 2576.03,1027.96 2576,1027.63C2575.86,1026 2574.95,1023.84 2573.36,1024.61C2572.3,1025.12 2572.12,1026.74 2572.11,1028.23L2572.11,1031.05C2572.11,1031.05 2575.79,1031.06 2575.79,1031.06C2576.01,1031.12 2576.03,1031.16 2576.05,1031.37L2576.05,1034.24C2576.02,1034.49 2575.97,1034.53 2575.73,1034.55L2572.11,1034.55ZM2604.98,1028.41L2602.78,1028.41C2602.3,1028.37 2602.46,1027.96 2602.43,1027.63C2602.28,1025.99 2601.38,1023.84 2599.78,1024.61C2598.74,1025.11 2598.56,1026.67 2598.54,1028.1C2598.52,1031.36 2598.52,1034.61 2598.54,1037.86C2598.56,1039.49 2599.07,1041.49 2600.49,1041.45C2601.86,1041.42 2602.44,1039.66 2602.55,1037.85C2602.55,1037.85 2602.59,1037.58 2602.87,1037.56L2605.12,1037.56C2605.13,1037.57 2605.15,1037.57 2605.16,1037.57C2605.47,1037.7 2605.39,1037.71 2605.36,1038.31C2605.21,1040.75 2604.62,1043.38 2602.7,1044.61C2600.69,1045.9 2597.77,1045 2596.62,1042.74C2595.88,1041.28 2595.68,1039.6 2595.65,1037.96C2595.63,1033.7 2595.07,1029.34 2595.93,1025.23C2596.42,1022.9 2598.18,1020.66 2600.47,1020.69C2603.51,1020.73 2605.17,1024.43 2605.29,1028.09C2605.29,1028.09 2605.26,1028.39 2604.98,1028.41ZM2620.72,1021.12C2624.3,1021.2 2625.97,1026.58 2624.62,1030.78C2624.36,1031.58 2623.66,1032.61 2623.66,1032.61C2623.71,1032.65 2623.76,1032.69 2623.8,1032.73C2625.99,1034.71 2625.98,1038.49 2625.22,1041.1C2624.66,1042.98 2623.15,1044.77 2621.01,1044.85C2619.5,1044.88 2617.99,1044.85 2616.48,1044.85C2616.23,1044.83 2616.18,1044.77 2616.16,1044.54L2616.16,1021.43C2616.18,1021.18 2616.24,1021.13 2616.48,1021.12C2617.89,1021.12 2619.3,1021.11 2620.72,1021.12ZM2520.54,1044.85L2518.32,1044.85C2518.07,1044.83 2518.03,1044.77 2518.01,1044.54L2518.01,1021.43C2518.03,1021.18 2518.09,1021.13 2518.32,1021.12C2519.08,1021.12 2519.84,1021.06 2520.59,1021.12C2520.81,1021.17 2520.84,1021.22 2520.86,1021.43L2520.86,1044.54C2520.84,1044.79 2520.77,1044.83 2520.54,1044.85ZM2611.49,1044.85L2609.22,1044.85C2608.97,1044.83 2608.93,1044.77 2608.91,1044.54L2608.91,1024.91C2608.91,1024.91 2605.98,1024.91 2605.98,1024.91C2605.76,1024.85 2605.74,1024.81 2605.72,1024.6L2605.72,1021.43C2605.74,1021.18 2605.8,1021.13 2606.03,1021.12C2608.94,1021.12 2611.85,1020.89 2614.74,1021.12C2614.97,1021.17 2614.99,1021.22 2615.01,1021.43L2615.01,1024.6C2614.99,1024.85 2614.93,1024.89 2614.7,1024.91L2611.8,1024.91L2611.79,1044.59C2611.74,1044.81 2611.7,1044.84 2611.49,1044.85ZM2537.96,1044.85L2535.74,1044.85C2535.49,1044.83 2535.44,1044.77 2535.42,1044.54L2535.42,1021.43C2535.44,1021.18 2535.51,1021.13 2535.74,1021.12C2538.68,1021.12 2541.64,1020.89 2544.58,1021.12C2544.8,1021.17 2544.83,1021.22 2544.84,1021.43L2544.84,1044.54C2544.83,1044.79 2544.76,1044.83 2544.53,1044.85L2542.31,1044.85C2542.06,1044.83 2542.02,1044.77 2542,1044.54L2542,1024.91L2538.27,1024.91L2538.27,1044.54C2538.25,1044.79 2538.19,1044.83 2537.96,1044.85ZM2583.45,1044.85L2581.27,1044.85C2581.03,1044.83 2580.98,1044.77 2580.96,1044.54L2580.96,1021.43C2580.98,1021.18 2581.04,1021.13 2581.27,1021.12C2582.05,1021.12 2582.82,1021.06 2583.59,1021.12C2583.7,1021.15 2583.78,1021.17 2583.84,1021.35L2586.43,1030.72C2586.74,1031.88 2587.02,1033.05 2587.3,1034.21C2587.38,1033.85 2587.47,1033.49 2587.56,1033.12C2587.75,1032.32 2587.95,1031.52 2588.16,1030.72L2590.76,1021.35C2590.83,1021.14 2590.87,1021.13 2591.06,1021.12L2593.32,1021.12C2593.57,1021.14 2593.62,1021.2 2593.64,1021.43L2593.64,1044.54C2593.62,1044.79 2593.55,1044.83 2593.32,1044.85L2591.15,1044.85C2590.9,1044.83 2590.85,1044.77 2590.83,1044.54L2590.83,1035.52C2590.86,1033.94 2590.89,1032.36 2590.93,1030.78L2590.93,1030.57C2590.77,1031.24 2590.6,1031.9 2590.44,1032.57L2590.04,1034.15C2590.04,1034.15 2588.68,1039.45 2588.68,1039.45C2588.63,1039.55 2588.59,1039.62 2588.4,1039.64L2586.2,1039.64C2585.98,1039.62 2585.96,1039.59 2585.9,1039.4L2584.55,1034.15C2584.17,1032.59 2583.65,1030.52 2583.65,1030.52C2583.68,1031.54 2583.7,1032.56 2583.73,1033.58L2583.74,1034.54L2583.76,1035.52L2583.76,1044.54C2583.74,1044.79 2583.68,1044.83 2583.45,1044.85ZM2508.69,1044.85L2506.47,1044.85C2506.22,1044.83 2506.18,1044.77 2506.16,1044.54L2506.16,1021.43C2506.18,1021.18 2506.24,1021.13 2506.47,1021.12C2509.42,1021.12 2512.38,1020.89 2515.32,1021.12C2515.54,1021.17 2515.56,1021.22 2515.58,1021.43L2515.58,1044.54C2515.56,1044.79 2515.5,1044.83 2515.27,1044.85L2513.05,1044.85C2512.8,1044.83 2512.75,1044.77 2512.73,1044.54L2512.73,1024.91L2509,1024.91L2509,1044.54C2508.98,1044.79 2508.92,1044.83 2508.69,1044.85ZM2560.52,1044.85L2558.27,1044.85C2558.03,1044.83 2557.98,1044.77 2557.96,1044.54L2557.96,1021.43C2557.98,1021.18 2558.04,1021.13 2558.27,1021.12C2559.02,1021.12 2559.76,1021.06 2560.5,1021.12C2560.72,1021.17 2560.75,1021.22 2560.76,1021.43C2560.76,1026.03 2560.85,1030.66 2560.68,1035.2L2560.67,1035.48C2560.91,1034.61 2561.08,1034.08 2561.08,1034.08L2564.81,1021.34C2564.89,1021.14 2564.92,1021.13 2565.11,1021.12L2567.38,1021.12C2567.62,1021.14 2567.67,1021.2 2567.69,1021.43L2567.69,1044.54C2567.67,1044.79 2567.61,1044.83 2567.38,1044.85L2565.2,1044.85C2564.95,1044.83 2564.91,1044.77 2564.89,1044.54C2564.89,1039.91 2564.82,1035.27 2564.96,1030.67L2564.97,1030.38C2564.9,1030.66 2564.82,1030.93 2564.75,1031.21C2563.52,1035.7 2562.13,1040.16 2560.82,1044.63C2560.82,1044.63 2560.71,1044.84 2560.52,1044.85ZM2549.81,1044.85L2547.59,1044.85C2547.34,1044.83 2547.29,1044.77 2547.28,1044.54L2547.28,1021.43C2547.3,1021.18 2547.36,1021.13 2547.59,1021.12C2548.97,1021.12 2550.35,1021.11 2551.73,1021.12C2552.64,1021.14 2553.55,1021.41 2554.28,1021.96C2557.2,1024.17 2557.12,1029.22 2556.31,1032.45C2555.78,1034.57 2554.15,1036.68 2551.73,1036.73C2551.73,1036.73 2550.12,1036.73 2550.12,1036.73L2550.12,1044.54C2550.1,1044.79 2550.04,1044.83 2549.81,1044.85ZM2631.8,1024.58C2630.22,1024.66 2629.87,1026.77 2629.79,1027.87C2629.58,1031.01 2629.75,1034.18 2629.76,1037.34C2629.79,1039.37 2630.55,1042.15 2632.55,1041.25C2633.72,1040.72 2633.95,1038.94 2633.97,1037.34C2633.99,1033.68 2634.64,1029.85 2633.72,1026.42C2633.48,1025.53 2633.02,1024.56 2631.8,1024.58ZM2619.01,1034.65L2619.01,1041.09C2620.04,1041.09 2621.16,1041.33 2621.92,1040.65C2623.01,1039.68 2622.85,1037.9 2622.64,1036.78C2622.46,1035.76 2621.75,1034.69 2620.57,1034.65C2620.05,1034.64 2619.53,1034.65 2619.01,1034.65ZM2529.91,1024.88L2527.4,1024.88L2527.19,1033.52C2527.11,1036.05 2526.91,1038.62 2526.13,1041.03C2526.13,1041.03 2529.91,1041.09 2529.91,1041.09L2529.91,1024.88ZM2550.12,1024.91L2550.12,1032.94C2550.98,1032.94 2551.89,1033.1 2552.57,1032.71C2553.92,1031.95 2553.81,1030.11 2553.81,1028.89C2553.81,1027.13 2553.53,1024.99 2551.7,1024.91C2551.18,1024.9 2550.65,1024.91 2550.12,1024.91ZM2619.01,1024.88L2619.01,1030.89C2619.78,1030.89 2620.61,1031.04 2621.18,1030.71C2622.48,1029.98 2622.31,1027.7 2622.05,1026.44C2621.89,1025.7 2621.38,1024.93 2620.51,1024.88C2620.01,1024.86 2619.51,1024.88 2619.01,1024.88ZM2639.72,980.762L2645.54,940.535L2649.62,944.985L2638.9,1018.68L2634.56,1016.37L2639.13,984.839L2641.85,981.9L2639.72,980.762ZM2564.69,1016.77L2503.83,1016.77L2503.67,998.375L2565.86,998.375L2564.69,1016.77ZM2593.73,1016.77L2567.53,1016.77C2568.37,1012.07 2568.83,1006.16 2569.34,998.375L2595.59,998.375L2593.73,1016.77ZM2620.16,1016.77L2596.95,1016.77L2598.83,998.375L2611.43,998.375L2616.56,1009.19L2616.56,1009.18L2620.16,1016.77ZM2634.95,989.35L2630.93,1014.44L2618.06,1007.57L2634.95,989.35ZM2552.22,989.109C2551.96,988.159 2551.83,987.168 2551.81,986.239C2551.79,981.954 2551.16,977.459 2552.33,973.608C2552.91,971.702 2554.39,969.836 2556.57,969.719C2556.66,969.716 2556.76,969.714 2556.86,969.715C2557.53,969.731 2558.13,969.932 2558.66,970.263C2559.75,970.829 2560.57,971.922 2561.07,973.45C2561.39,974.26 2561.59,975.097 2561.67,975.843C2562.01,979.148 2561.75,982.61 2561.75,986.014C2561.73,989.599 2560.43,993.983 2556.64,993.866C2555.88,993.843 2555.21,993.588 2554.63,993.167C2553.46,992.43 2552.63,991.034 2552.22,989.109ZM2527.94,989.152C2527.68,988.189 2527.54,987.182 2527.53,986.239C2527.51,981.954 2526.87,977.46 2528.05,973.608C2528.65,971.625 2530.2,969.698 2532.57,969.715C2533.24,969.731 2533.85,969.932 2534.38,970.264C2535.46,970.829 2536.28,971.916 2536.78,973.435C2537.11,974.249 2537.3,975.092 2537.38,975.844C2537.74,979.366 2537.59,983.09 2537.45,986.682C2537.33,990.036 2535.96,993.978 2532.35,993.866C2531.59,993.843 2530.92,993.586 2530.34,993.161C2529.18,992.428 2528.35,991.049 2527.94,989.152ZM2514.6,993.44L2506.58,993.44C2506.52,993.433 2506.48,993.415 2506.47,993.336L2506.47,970.248C2506.48,970.169 2506.52,970.15 2506.58,970.143C2509.18,970.143 2511.81,969.806 2514.4,970.147C2514.44,970.165 2514.47,970.197 2514.48,970.248L2514.48,973.381C2514.47,973.46 2514.43,973.478 2514.37,973.485L2508.97,973.485L2508.97,979.972L2513.94,979.972C2514.02,979.983 2514.04,980.023 2514.05,980.076L2514.05,983.144C2514.04,983.223 2513.99,983.241 2513.94,983.248L2508.97,983.248L2508.97,990.098L2514.6,990.098C2514.68,990.109 2514.7,990.149 2514.71,990.202L2514.71,993.336C2514.7,993.414 2514.66,993.433 2514.6,993.44ZM2542.39,993.44L2540.09,993.44C2540.04,993.433 2540,993.415 2539.99,993.336L2539.99,970.248C2540,970.169 2540.04,970.15 2540.09,970.143L2542.39,970.143C2542.47,970.154 2542.49,970.194 2542.49,970.248L2542.49,979.972L2546.79,979.972L2546.79,970.248C2546.79,970.194 2546.81,970.154 2546.89,970.143L2549.19,970.143C2549.21,970.147 2549.21,970.147 2549.24,970.157C2549.27,970.183 2549.29,970.206 2549.29,970.248L2549.29,993.336C2549.28,993.389 2549.27,993.429 2549.19,993.44L2546.89,993.44C2546.81,993.43 2546.79,993.389 2546.79,993.336L2546.79,983.314L2542.49,983.314L2542.49,993.336C2542.48,993.414 2542.44,993.433 2542.39,993.44ZM2519.33,993.44L2517.06,993.44C2517,993.433 2516.96,993.415 2516.95,993.336L2516.95,970.248C2516.96,970.169 2517,970.15 2517.06,970.143C2517.82,970.143 2518.6,970.047 2519.36,970.147C2519.4,970.165 2519.43,970.197 2519.43,970.248L2519.43,979.716L2520.28,977.53L2523.47,970.206C2523.49,970.171 2523.52,970.15 2523.56,970.143L2526.24,970.143C2526.32,970.154 2526.37,970.184 2526.34,970.29L2521.81,980.31C2521.81,980.31 2527.01,993.325 2527.01,993.325C2527,993.382 2526.99,993.428 2526.9,993.44L2524.26,993.44C2524.22,993.434 2524.19,993.415 2524.17,993.373L2520.37,983.511L2519.43,985.542L2519.43,993.336C2519.43,993.414 2519.38,993.433 2519.33,993.44ZM2582.32,993.44L2580.02,993.44C2579.94,993.43 2579.92,993.389 2579.92,993.336L2579.92,970.248C2579.95,970.004 2581.36,970.018 2582.34,970.147C2582.39,970.165 2582.41,970.197 2582.42,970.248L2582.42,993.336C2582.41,993.389 2582.4,993.429 2582.32,993.44ZM2587.75,993.44L2585.48,993.44C2585.43,993.433 2585.38,993.415 2585.37,993.336L2585.37,970.248C2585.38,970.169 2585.43,970.15 2585.48,970.143C2586.24,970.143 2587.02,970.047 2587.78,970.147C2587.82,970.165 2587.85,970.197 2587.86,970.248L2587.86,979.716L2588.7,977.53L2591.89,970.206C2591.91,970.17 2591.94,970.149 2591.98,970.143L2594.66,970.143C2594.74,970.154 2594.79,970.184 2594.76,970.29L2590.23,980.31L2595.39,993.24L2599.38,970.23C2599.4,970.183 2599.43,970.151 2599.49,970.143C2600.32,970.143 2601.16,970.031 2601.99,970.147C2602.03,970.164 2602.05,970.192 2602.07,970.23L2606.07,993.318C2606.07,993.388 2606.04,993.429 2605.97,993.44L2603.58,993.44C2603.53,993.433 2603.49,993.406 2603.47,993.352L2602.74,988.789L2598.71,988.789L2598,993.352C2597.98,993.4 2597.95,993.432 2597.89,993.44L2595.48,993.44C2595.45,993.435 2595.42,993.423 2595.41,993.402C2595.39,993.421 2595.37,993.434 2595.32,993.44L2592.69,993.44C2592.64,993.434 2592.61,993.415 2592.59,993.373L2588.79,983.511L2587.86,985.542L2587.86,993.336C2587.85,993.389 2587.83,993.429 2587.75,993.44ZM2566.63,993.44L2564.38,993.44C2564.3,993.43 2564.28,993.389 2564.27,993.336L2564.27,970.248C2564.28,970.169 2564.32,970.15 2564.38,970.143C2565.17,970.143 2565.96,970.045 2566.74,970.147C2566.78,970.163 2566.8,970.181 2566.82,970.219L2569.5,979.587C2569.98,981.344 2570.56,983.729 2570.56,983.729L2570.61,983.942C2570.93,982.572 2571.28,981.206 2571.64,979.845L2571.71,979.587C2571.71,979.587 2574.41,970.194 2574.41,970.194C2574.43,970.162 2574.45,970.149 2574.49,970.143L2576.84,970.143C2576.92,970.154 2576.93,970.194 2576.94,970.248L2576.94,993.336C2576.93,993.389 2576.92,993.429 2576.84,993.44L2574.59,993.44C2574.51,993.43 2574.49,993.389 2574.48,993.336L2574.48,984.33C2574.52,982.146 2574.56,979.961 2574.63,977.777L2574.65,977.37C2574.45,978.172 2574.24,978.972 2574.04,979.772C2573.91,980.291 2573.77,980.809 2573.64,981.327L2573.23,982.906L2571.84,988.151C2571.83,988.194 2571.79,988.222 2571.74,988.229L2569.47,988.229C2569.42,988.222 2569.39,988.194 2569.37,988.151L2567.98,982.906C2567.52,981.119 2567.06,979.332 2566.61,977.541L2566.56,977.352C2566.59,978.406 2566.62,979.461 2566.65,980.515C2566.68,981.788 2566.71,983.059 2566.73,984.33L2566.73,993.336C2566.72,993.414 2566.68,993.433 2566.63,993.44ZM2559.26,976.877C2559.18,976.269 2559.05,975.671 2558.88,975.085C2558.59,974.111 2558,973.169 2556.71,973.189C2555.1,973.262 2554.53,975.313 2554.42,976.552C2554.16,979.717 2554.37,982.947 2554.39,986.148C2554.41,988.027 2554.85,990.456 2556.86,990.394C2558.48,990.344 2559.15,988.121 2559.18,986.148C2559.18,985.224 2559.23,984.289 2559.28,983.351L2559.28,977.57C2559.28,977.33 2559.28,977.099 2559.26,976.877ZM2534.98,976.897C2534.89,976.282 2534.77,975.677 2534.6,975.085C2534.31,974.126 2533.59,973.171 2532.42,973.189C2530.83,973.262 2530.24,975.297 2530.14,976.552C2529.88,979.718 2530.09,982.947 2530.1,986.148C2530.12,987.588 2530.26,989.193 2531.3,990.005C2532.09,990.624 2533.33,990.481 2533.98,989.723C2534.76,988.805 2534.88,987.426 2534.89,986.148C2534.9,985.22 2534.95,984.282 2535,983.341L2535,977.57C2535,977.337 2534.99,977.112 2534.98,976.897ZM2530.45,988.978C2530.61,989.361 2530.8,989.674 2531.04,989.914C2530.81,989.657 2530.61,989.339 2530.45,988.978ZM2600.69,975.521C2600.55,976.818 2600.41,978.113 2600.2,979.4L2599.24,985.48L2602.23,985.48L2601.25,979.4C2601.04,978.013 2600.88,976.621 2600.73,975.227C2600.73,975.227 2600.7,975.4 2600.69,975.521ZM2606.38,924.489L2607.36,914.87C2619.91,916.31 2633.18,921.398 2644.3,930.824L2636.59,979.092L2602.65,960.995L2604.32,944.63L2617.5,930.417L2606.38,924.489ZM2567.95,965.425L2503.38,965.425L2503.22,946.892L2569.13,946.892L2567.95,965.425ZM2595.81,965.425L2571.48,965.425L2572.67,946.892L2587.07,946.892L2590.75,954.652L2590.68,954.613L2595.81,965.425ZM2600.61,948.628L2599.53,959.334L2593.62,956.178L2600.61,948.628ZM2537.11,930.101L2539.72,918.891L2542.45,918.891L2538.06,937.071C2537.14,940.885 2535.87,942.233 2533.14,942.233L2532.49,942.233L2532.49,939.241L2533.21,939.241C2534.61,939.241 2535.2,938.321 2535.74,936.019L2535.95,935.164L2531.41,918.891L2534.17,918.891L2537.11,930.101ZM2509.48,928.688L2514.59,928.688L2514.59,918.891L2517.19,918.891L2517.19,941.904L2514.59,941.904L2514.59,931.811L2509.48,931.811L2509.48,941.904L2506.87,941.904L2506.87,918.891L2509.48,918.891L2509.48,928.688ZM2546.86,918.891L2546.86,928.885L2548.05,926.189L2551.66,918.891L2554.7,918.891L2549.55,928.918L2555.45,941.904L2552.46,941.904L2548.05,931.844L2546.86,934.112L2546.86,941.904L2544.28,941.904L2544.28,918.891L2546.86,918.891ZM2526.53,918.891L2531.07,941.904L2528.36,941.904L2527.51,937.269L2522.74,937.269L2521.91,941.904L2519.18,941.904L2523.72,918.891L2526.53,918.891ZM2562.99,918.891L2567.53,941.904L2564.82,941.904L2563.97,937.269L2559.19,937.269L2558.37,941.904L2555.63,941.904L2560.18,918.891L2562.99,918.891ZM2563.43,934.178L2562.29,927.997C2562.03,926.485 2561.75,924.282 2561.62,923.066L2561.54,923.066C2561.41,924.282 2561.16,926.485 2560.87,927.997L2559.76,934.178L2563.43,934.178ZM2526.97,934.178L2525.84,927.997C2525.58,926.485 2525.29,924.282 2525.16,923.066L2525.09,923.066C2524.96,924.282 2524.7,926.485 2524.42,927.997L2523.31,934.178L2526.97,934.178ZM2603.22,922.807L2581.26,911.094C2590.24,908.112 2598.86,903.172 2605.97,895.671L2603.22,922.807ZM2571.23,913.942L2519.28,913.942C2540.59,904.932 2568.19,903.131 2573.47,878.597L2571.73,906.013L2566.32,903.13L2571.25,913.526L2571.23,913.942ZM2471.6,815.616C2479.82,808.516 2490.43,804.049 2501.72,803.945C2501.92,803.944 2502.12,803.944 2502.32,803.945C2515.55,804.067 2528.46,810.203 2537.24,819.933C2537.51,820.249 2537.64,820.385 2537.89,820.673C2541.07,824.351 2543.67,828.515 2545.48,833.043C2550.33,845.122 2549.62,859.289 2543.61,870.818C2542.42,873.097 2541.03,875.252 2539.46,877.267C2539.37,877.435 2539.25,877.583 2539.12,877.708C2534.31,883.73 2527.93,888.479 2520.78,891.577C2520.03,891.903 2519.6,892.084 2518.5,892.497C2509.24,895.982 2498.89,896.751 2489.07,894.037C2488.33,893.833 2488.32,893.833 2487.43,893.55C2486.41,893.223 2485.39,892.856 2484.37,892.45C2476.96,889.469 2470.47,884.424 2465.52,878.159C2465.25,878.007 2465.03,877.707 2464.87,877.308C2464.02,876.185 2463.22,875.026 2462.47,873.834C2462.14,873.15 2461.94,872.949 2461.52,872.259C2457.22,864.79 2454.91,856.192 2455.36,847.531C2455.93,836.613 2460.88,826.368 2468.48,818.557C2468.88,818.185 2469.06,817.936 2470.18,816.892C2470.39,816.696 2470.6,816.501 2470.82,816.308C2471,816.069 2471.27,815.838 2471.6,815.616ZM2518.28,884.746C2514.12,885.707 2509.83,886.251 2505.61,886.438C2499.63,886.702 2493.61,886.249 2487.76,885.045C2488.17,886.799 2488.64,888.541 2489.18,890.268C2498.38,893.152 2508.55,893.19 2517.92,889.551L2518.01,889.517C2518.12,887.934 2518.21,886.343 2518.28,884.746ZM2470.38,878.863C2474.7,883.262 2479.99,886.735 2485.78,889.056C2485.35,887.492 2484.96,885.914 2484.63,884.324C2479.69,883.064 2474.89,881.251 2470.38,878.863ZM2533.76,878.597C2529.93,880.958 2525.67,882.731 2521.22,883.994C2521.16,885.396 2521.09,886.798 2521.01,888.198C2525.82,885.846 2530.14,882.547 2533.76,878.597ZM2518.53,875.328C2507.83,877.697 2496.2,877.378 2486.15,875.344C2486.38,877.562 2486.69,879.772 2487.11,881.966C2497.41,884.35 2508.31,884.279 2518.41,881.679C2518.48,879.567 2518.53,877.448 2518.53,875.328ZM2467.39,867.979C2467.28,869.859 2467.23,871.744 2467.25,873.625C2472.4,876.971 2478.09,879.493 2484.03,881.176C2483.68,879.029 2483.41,876.865 2483.22,874.692C2482.54,874.527 2481.87,874.353 2481.21,874.172C2476.37,872.847 2471.59,870.829 2467.39,867.979ZM2536.93,867.488C2532.32,870.773 2526.99,873.107 2521.34,874.638C2521.36,876.711 2521.35,878.784 2521.31,880.857C2521.95,880.656 2522.6,880.444 2523.23,880.222C2528.23,878.48 2533.04,875.97 2537.01,872.562C2537.06,870.872 2537.03,869.178 2536.93,867.488ZM2485.97,861.598C2485.71,865.154 2485.69,868.727 2485.91,872.289C2485.98,872.305 2486.06,872.321 2486.14,872.336C2496.16,874.33 2506.64,874.419 2516.42,872.616C2517.12,872.487 2517.82,872.345 2518.51,872.189C2518.46,868.719 2518.3,865.256 2518.01,861.826C2509.95,863.494 2501.43,863.39 2493.43,862.632C2490.96,862.399 2488.45,862.066 2485.97,861.598ZM2469.26,855.268C2468.54,858.271 2468.02,861.339 2467.69,864.433C2472.19,867.809 2477.61,870.185 2483.02,871.615C2482.86,868.09 2482.93,864.547 2483.21,861.017C2478.15,859.836 2473.3,858.025 2469.26,855.268ZM2534.76,854.71C2534.44,854.95 2534.11,855.183 2533.77,855.41C2529.71,858.15 2525.25,860.012 2520.59,861.223C2520.79,863.171 2520.95,865.106 2521.06,867.018C2521.15,868.511 2521.22,870.004 2521.27,871.498C2526.79,869.959 2532.11,867.519 2536.61,863.998C2536.24,860.862 2535.62,857.752 2534.76,854.71ZM2460.32,861.575C2461.05,864.152 2462.03,866.658 2463.26,869.047C2463.6,869.716 2463.96,870.374 2464.35,871.019C2464.38,869.31 2464.47,867.597 2464.61,865.887C2463.05,864.591 2461.61,863.157 2460.32,861.575ZM2543.62,861.404C2543.41,861.655 2543.19,861.903 2542.97,862.144C2541.94,863.275 2540.85,864.332 2539.7,865.318C2539.83,866.775 2539.92,868.237 2539.95,869.701C2540.11,869.52 2540.27,869.338 2540.43,869.153C2541.74,866.675 2542.81,864.078 2543.62,861.404ZM2459.45,841.778C2458.69,845.694 2458.49,849.719 2458.85,853.696L2458.86,853.706C2460.29,856.952 2462.42,859.775 2465.01,862.189C2465.4,859.196 2465.97,856.225 2466.71,853.311C2463.62,850.624 2461.19,847.216 2459.78,842.898C2459.66,842.527 2459.55,842.154 2459.45,841.778ZM2544.6,841.929C2542.99,846.01 2540.45,849.707 2537.2,852.7C2538.11,855.649 2538.8,858.662 2539.26,861.71C2541.53,859.531 2543.53,857.015 2545.14,854.133C2545.37,852.096 2545.45,850.038 2545.35,847.975C2545.26,845.932 2545.01,843.912 2544.6,841.929ZM2515.69,846.662C2513.05,847.238 2510.41,847.598 2507.89,847.808C2501.5,848.34 2494.62,848.276 2488.33,847.06C2487.31,851.073 2486.58,855.166 2486.17,859.293C2496.91,861.593 2508.82,860.701 2517.7,858.73C2517.25,854.633 2516.6,850.595 2515.69,846.662ZM2474.39,841.237C2472.61,844.695 2471.18,848.365 2470.08,852.165C2473.91,855.205 2478.5,857.287 2483.43,858.629C2483.87,854.528 2484.61,850.454 2485.62,846.453C2481.39,845.368 2477.53,843.692 2474.39,841.237ZM2529.1,841.057C2525.83,843.412 2522,845.012 2518.07,846.081C2519.02,850.075 2519.73,854.115 2520.24,858.118C2520.74,857.985 2521.24,857.849 2521.72,857.71C2526.08,856.447 2530.25,854.351 2533.76,851.476C2532.53,847.857 2530.97,844.359 2529.1,841.057ZM2467.52,831.358C2465.45,833.282 2463.49,835.339 2461.65,837.492C2462.01,841.473 2463.53,845.312 2466.19,848.425C2466.66,848.973 2467.14,849.499 2467.65,850.004C2468.81,846.254 2470.3,842.623 2472.12,839.19C2470.3,837.287 2468.84,835.02 2467.85,832.334C2467.73,832.012 2467.62,831.686 2467.52,831.358ZM2536.64,831.671C2536.12,832.972 2535.5,834.201 2534.8,835.248C2533.77,836.774 2532.58,838.124 2531.26,839.319C2532.91,842.065 2534.33,844.932 2535.5,847.875C2535.7,848.372 2535.89,848.871 2536.08,849.373C2539.16,846.26 2541.53,842.435 2542.81,837.947C2540.9,835.725 2538.84,833.624 2536.64,831.671ZM2510.25,830.824C2505.01,832.111 2499.37,832.221 2494.24,831.006C2492.1,835.361 2490.35,839.916 2489,844.594C2497.62,846.464 2507.36,845.721 2515,843.86C2513.79,839.333 2512.24,834.964 2510.25,830.824ZM2485.27,827.021C2484.55,827.654 2483.85,828.315 2483.17,829.005C2480.35,831.864 2477.93,835.065 2475.89,838.516C2478.82,841.022 2482.4,842.769 2486.31,843.91C2487.65,839.199 2489.38,834.605 2491.49,830.207C2489.25,829.431 2487.14,828.373 2485.27,827.021ZM2518.31,827.408C2516.89,828.393 2515.3,829.212 2513.64,829.804C2513.32,829.918 2513,830.029 2512.67,830.134C2514.6,834.34 2516.14,838.745 2517.35,843.233C2519.36,842.648 2521.18,841.987 2522.73,841.283C2524.42,840.519 2526.03,839.549 2527.5,838.399C2524.91,834.331 2521.83,830.616 2518.31,827.408ZM2523.05,822.468C2522.35,823.681 2521.4,824.824 2520.28,825.853C2523.75,829.047 2526.87,832.68 2529.53,836.609C2531.53,834.614 2533.13,832.233 2534.12,829.551C2530.68,826.796 2526.96,824.402 2523.05,822.468ZM2481.03,821.853C2477.08,823.825 2473.4,826.312 2470,829.165C2470.37,831.037 2471.11,832.837 2472.2,834.428C2472.67,835.115 2473.18,835.765 2473.72,836.38C2476.26,832.207 2479.36,828.382 2483.05,825.059C2482.2,824.104 2481.51,823.013 2481.03,821.853ZM2466.93,824.982C2465.25,827.2 2463.79,829.581 2462.6,832.097C2463.98,830.672 2465.42,829.304 2466.91,828.004C2466.84,827.003 2466.84,825.992 2466.93,824.982ZM2538.05,826.742C2537.94,827.348 2537.8,827.969 2537.64,828.593C2538.79,829.587 2539.91,830.621 2540.99,831.69C2540.12,829.981 2539.14,828.328 2538.05,826.742ZM2502.1,818.185C2499.61,821.484 2497.39,824.987 2495.45,828.647C2499.86,829.609 2504.71,829.493 2509.05,828.462C2507.11,824.822 2504.81,821.379 2502.1,818.185ZM2497.65,819.433C2494.02,820.918 2490.59,822.834 2487.47,825.219C2489,826.34 2490.76,827.218 2492.65,827.868C2494.15,824.953 2495.82,822.133 2497.65,819.433ZM2506.58,819.484C2508.44,822.105 2510.08,824.875 2511.53,827.753C2513.23,827.179 2514.81,826.453 2516.2,825.586C2513.26,823.18 2510.04,821.12 2506.58,819.484ZM2523.87,815.481C2523.91,815.59 2523.95,815.699 2523.98,815.809C2524.38,817.071 2524.41,818.34 2524.16,819.575C2527.96,821.455 2531.59,823.756 2534.97,826.394C2535.15,825.31 2535.24,824.189 2535.22,823.035C2532.92,820.337 2530.3,817.897 2527.42,815.787C2526.24,815.656 2525.06,815.553 2523.87,815.481ZM2480.44,816.075C2478.13,816.514 2475.85,817.139 2473.62,817.936C2472.65,818.758 2471.71,819.62 2470.81,820.52C2470.43,822.008 2469.89,823.763 2469.77,825.411C2469.77,825.497 2469.76,825.584 2469.76,825.67C2473.05,823.121 2476.58,820.898 2480.29,819.096C2480.17,818.088 2480.21,817.069 2480.44,816.075ZM2508.97,817.788C2512.24,819.537 2515.36,821.66 2518.26,824.083C2518.92,823.504 2519.52,822.881 2520.03,822.216C2520.24,821.93 2520.43,821.631 2520.59,821.323C2516.85,819.696 2512.95,818.49 2508.97,817.788ZM2494.15,817.61C2490.6,818.168 2487.05,819.178 2483.53,820.694C2483.72,821.219 2484.01,821.731 2484.38,822.216C2484.64,822.565 2484.92,822.899 2485.22,823.22C2486.72,822.02 2488.32,820.898 2490.01,819.864C2491.35,819.04 2492.74,818.289 2494.15,817.61ZM2520.29,815.356C2518.08,815.336 2515.87,815.423 2513.68,815.624C2516.22,816.291 2518.72,817.153 2521.15,818.189C2521.07,817.233 2520.77,816.269 2520.29,815.356ZM2490.57,815.365C2488.33,815.248 2486.08,815.318 2483.85,815.563C2483.51,816.272 2483.28,817.026 2483.19,817.792C2485.58,816.8 2488.05,815.983 2490.57,815.365ZM2506.87,808.226C2505.23,808.009 2503.58,807.917 2501.94,807.922C2500.02,807.943 2498.09,808.083 2496.19,808.4C2497.54,809.505 2499,810.81 2500.35,812.135C2500.88,812.658 2501.39,813.19 2501.9,813.732C2503.47,811.813 2505.12,809.974 2506.87,808.226ZM2510.37,808.898C2508.75,810.431 2507.2,812.039 2505.73,813.712C2509.69,812.867 2513.76,812.437 2517.84,812.373C2517.55,812.13 2517.23,811.901 2516.9,811.689C2514.91,810.398 2512.68,809.495 2510.37,808.898ZM2492.49,809.283C2490.31,809.981 2488.26,810.993 2486.45,812.421C2487.19,812.387 2487.9,812.371 2488.57,812.373C2491.62,812.4 2494.63,812.775 2497.57,813.459C2496.18,812.172 2494.7,810.937 2493.14,809.761C2492.93,809.608 2492.71,809.446 2492.49,809.283ZM2482.61,812.002C2482,812.312 2481.39,812.635 2480.78,812.973C2481.18,812.915 2481.58,812.861 2481.97,812.811C2482.18,812.533 2482.39,812.263 2482.61,812.002Z"/>
        </g>
    </g>
</svg>
