<svg width="1" height="1" viewBox="0 0 1 1" fill="none" xmlns="http://www.w3.org/2000/svg">
<g clip-path="url(#clip0)">
<path fill-rule="evenodd" clip-rule="evenodd" d="M0.499929 -2.86102e-06C0.775861 -2.86102e-06 0.999884 0.224012 0.999884 0.499939C0.999884 0.775868 0.775861 0.999891 0.499929 0.999891C0.223997 0.999891 0 0.775868 0 0.499939C0 0.224012 0.223997 -2.86102e-06 0.499929 -2.86102e-06ZM0.507991 0.319313H0.479974C0.415774 0.280585 0.317331 0.292113 0.308445 0.190569C0.308445 0.172146 0.291443 0.168523 0.289235 0.192548C0.286042 0.227208 0.28841 0.263224 0.293226 0.299834C0.260208 0.290794 0.232857 0.273995 0.216973 0.241634C0.208219 0.223829 0.19763 0.226061 0.199519 0.243978C0.202047 0.268003 0.203324 0.280149 0.206224 0.307766C0.160594 0.315335 0.125953 0.332829 0.0976709 0.358288L0.100811 0.37786L0.086284 0.394345H0.0754818L0.134281 0.807423L0.437697 0.791619C0.442566 0.813808 0.46135 0.824451 0.493224 0.824238H0.493969C0.526296 0.82461 0.545345 0.813995 0.550267 0.791619L0.853683 0.807423L0.867864 0.70773L0.868609 0.709326L0.935923 0.636745L0.882072 0.60801L0.912456 0.394345H0.901681L0.887154 0.37786L0.890294 0.358288C0.862011 0.332829 0.829365 0.315335 0.783736 0.307766C0.785731 0.280808 0.786716 0.267471 0.788445 0.243978C0.789749 0.226013 0.77602 0.225981 0.770992 0.241634C0.759977 0.275971 0.727757 0.290794 0.694712 0.299834C0.699528 0.263224 0.701922 0.227208 0.698703 0.192548C0.696495 0.168523 0.679493 0.172146 0.679493 0.190569C0.670607 0.292113 0.572191 0.280585 0.507991 0.319313ZM0.83889 0.680565H0.851262L0.836336 0.783264C0.775648 0.774431 0.677976 0.733192 0.640409 0.733192C0.586026 0.733192 0.563145 0.749661 0.545159 0.775309C0.531697 0.776959 0.518979 0.77185 0.506953 0.76033C0.59305 0.664814 0.747764 0.768232 0.826705 0.76472L0.83889 0.680565ZM0.485641 0.76033C0.473615 0.77185 0.460898 0.776959 0.447435 0.775309C0.429476 0.749661 0.406568 0.733192 0.352212 0.733192C0.314617 0.733192 0.216973 0.774431 0.156284 0.783264L0.100811 0.401906L0.111666 0.390066L0.165889 0.76472C0.244856 0.768232 0.399544 0.664814 0.485641 0.76033ZM0.704743 0.680565H0.827051L0.815557 0.752561C0.750718 0.755594 0.671937 0.70624 0.592651 0.712492C0.55636 0.715339 0.526987 0.727844 0.505356 0.751151V0.740801C0.520149 0.703313 0.618006 0.701531 0.671831 0.692458C0.682739 0.690595 0.694127 0.686578 0.704743 0.680565ZM0.487238 0.740801V0.751151C0.465607 0.727844 0.43626 0.715339 0.399943 0.712492C0.320657 0.70624 0.241903 0.755594 0.177064 0.752561L0.114965 0.364229C0.144551 0.33915 0.179858 0.325613 0.213248 0.321782L0.243499 0.617961C0.247756 0.659493 0.286707 0.686684 0.320763 0.692458C0.374587 0.701531 0.472445 0.703313 0.487238 0.740801ZM0.487956 0.680565L0.48745 0.736784C0.472444 0.653161 0.338776 0.659732 0.326803 0.593031L0.303416 0.225274C0.317464 0.290549 0.390923 0.295341 0.447594 0.319313H0.310493L0.352079 0.40698H0.490324L0.489898 0.456289H0.375306L0.416865 0.543956H0.489127L0.488701 0.592898H0.440118L0.481677 0.680565H0.487956ZM0.504665 0.680565H0.545505C0.525524 0.693948 0.509746 0.711109 0.505144 0.736784L0.504665 0.680565ZM0.561708 0.680565H0.678935C0.619284 0.701105 0.536299 0.694081 0.520149 0.718239C0.528929 0.70052 0.541754 0.690835 0.561708 0.680565ZM0.216973 0.270701L0.251454 0.612134C0.262203 0.718239 0.447435 0.680805 0.472445 0.718239C0.457652 0.688361 0.431312 0.681283 0.378791 0.655874C0.319167 0.62706 0.319167 0.617961 0.313526 0.53031L0.299691 0.31649C0.269786 0.309604 0.240306 0.295349 0.216973 0.270701ZM0.558303 0.677878H0.552503C0.551837 0.677825 0.551731 0.677665 0.551678 0.677053V0.658429C0.551731 0.657764 0.551891 0.657657 0.552503 0.657604H0.554445C0.558143 0.651538 0.558409 0.643583 0.558675 0.635867C0.558967 0.625677 0.559154 0.61546 0.559393 0.60527C0.559473 0.604605 0.559633 0.604525 0.560245 0.604472C0.566843 0.604472 0.573494 0.603886 0.580093 0.604472C0.580705 0.604631 0.580731 0.604738 0.580785 0.605296V0.657604L0.583712 0.657631C0.584323 0.65779 0.58435 0.657897 0.584403 0.658429V0.677053C0.58435 0.677745 0.58419 0.677825 0.583578 0.677878H0.577778C0.577113 0.677825 0.577007 0.677665 0.576953 0.677053V0.667608H0.559128V0.677053C0.559074 0.677745 0.558915 0.677825 0.558303 0.677878ZM0.844744 0.603328C0.852672 0.603514 0.856983 0.613198 0.857674 0.620143C0.858552 0.628923 0.857913 0.638208 0.857913 0.647281C0.85786 0.655768 0.856078 0.665426 0.848256 0.66814C0.844212 0.66955 0.839369 0.668379 0.836416 0.665213C0.832159 0.660637 0.831308 0.653932 0.831201 0.647893C0.831148 0.636292 0.829392 0.624107 0.832691 0.613651C0.83434 0.608409 0.838491 0.603274 0.844744 0.603328ZM0.68556 0.640204C0.68556 0.648159 0.684735 0.658908 0.690908 0.658562C0.694499 0.658375 0.695963 0.653613 0.696229 0.648984C0.696229 0.648984 0.696335 0.648265 0.69708 0.648212H0.703039C0.703093 0.648239 0.703146 0.648239 0.703173 0.648239C0.703997 0.648584 0.703784 0.648611 0.703705 0.650208C0.703306 0.6567 0.701736 0.663697 0.696628 0.666969C0.692344 0.669736 0.686171 0.668991 0.682713 0.665266C0.678748 0.661009 0.677977 0.654784 0.67787 0.649276C0.677817 0.636771 0.675423 0.623548 0.679547 0.612108C0.681303 0.607265 0.685666 0.603248 0.690695 0.603328C0.695457 0.603381 0.699608 0.606973 0.701417 0.611389C0.702907 0.615061 0.703386 0.619078 0.703519 0.623016C0.703519 0.623016 0.703465 0.623814 0.702694 0.623868H0.696841C0.695564 0.623761 0.695989 0.62267 0.695909 0.621792C0.695537 0.617455 0.693116 0.611708 0.688885 0.613757C0.686065 0.615114 0.685586 0.619424 0.68556 0.623389V0.630892L0.695351 0.630918C0.695936 0.631078 0.695989 0.631184 0.696042 0.631743V0.639379C0.695963 0.640044 0.695829 0.640151 0.695191 0.640204H0.68556ZM0.773014 0.623868H0.76716C0.765883 0.623761 0.766309 0.62267 0.766229 0.621792C0.76583 0.617429 0.763436 0.611708 0.759179 0.613757C0.756412 0.615087 0.755933 0.619238 0.755879 0.623043C0.755826 0.631716 0.755826 0.640363 0.755879 0.64901C0.755933 0.653347 0.757289 0.658668 0.761068 0.658562C0.764713 0.658482 0.766256 0.653799 0.766549 0.648984C0.766549 0.648984 0.766655 0.648265 0.7674 0.648212H0.773386C0.773413 0.648239 0.773466 0.648239 0.773492 0.648239C0.774317 0.648584 0.774105 0.648611 0.774025 0.650208C0.773626 0.6567 0.772056 0.663697 0.766947 0.666969C0.7616 0.670401 0.753831 0.668007 0.750771 0.661994C0.748802 0.658109 0.74827 0.65364 0.74819 0.649276C0.748137 0.637942 0.746647 0.626342 0.748935 0.615407C0.750239 0.609207 0.754921 0.603248 0.761014 0.603328C0.769103 0.603434 0.773519 0.613278 0.773839 0.623016C0.773839 0.623016 0.773759 0.623814 0.773014 0.623868ZM0.814892 0.604472C0.824417 0.604684 0.82886 0.618999 0.825268 0.630173C0.824577 0.632302 0.822714 0.635042 0.822714 0.635042C0.822847 0.635148 0.82298 0.635255 0.823086 0.635361C0.828913 0.640629 0.828886 0.650686 0.826864 0.657631C0.825374 0.662632 0.821357 0.667395 0.815663 0.667608C0.811646 0.667688 0.807628 0.667608 0.803611 0.667608C0.802945 0.667555 0.802812 0.667395 0.802759 0.666783V0.605296C0.802812 0.604631 0.802972 0.604498 0.803611 0.604472C0.807362 0.604472 0.811114 0.604445 0.814892 0.604472ZM0.548352 0.667608H0.542445C0.54178 0.667555 0.541674 0.667395 0.54162 0.666783V0.605296C0.541674 0.604631 0.541833 0.604498 0.542445 0.604472C0.544467 0.604472 0.54649 0.604312 0.548485 0.604472C0.54907 0.604605 0.54915 0.604738 0.549203 0.605296V0.666783C0.54915 0.667448 0.548964 0.667555 0.548352 0.667608ZM0.790334 0.667608H0.784295C0.783629 0.667555 0.783523 0.667395 0.78347 0.666783V0.614555H0.775674C0.775089 0.614396 0.775036 0.614289 0.774982 0.61373V0.605296C0.775036 0.604631 0.775195 0.604498 0.775807 0.604472C0.78355 0.604472 0.791292 0.60386 0.798981 0.604472C0.799593 0.604605 0.799646 0.604738 0.7997 0.605296V0.61373C0.799646 0.614396 0.799487 0.614502 0.798875 0.614555H0.791159L0.791133 0.666916C0.791 0.667501 0.790893 0.667581 0.790334 0.667608ZM0.5947 0.667608H0.588793C0.588128 0.667555 0.587995 0.667395 0.587941 0.666783V0.605296C0.587995 0.604631 0.588181 0.604498 0.588793 0.604472C0.596615 0.604472 0.604491 0.60386 0.612313 0.604472C0.612898 0.604605 0.612978 0.604738 0.613005 0.605296V0.666783C0.612978 0.667448 0.612792 0.667555 0.61218 0.667608H0.606273C0.605608 0.667555 0.605502 0.667395 0.605448 0.666783V0.614555H0.595524V0.666783C0.595471 0.667448 0.595311 0.667555 0.5947 0.667608ZM0.715731 0.667608H0.709931C0.709292 0.667555 0.709159 0.667395 0.709106 0.666783V0.605296C0.709159 0.604631 0.709319 0.604498 0.709931 0.604472C0.712006 0.604472 0.714055 0.604312 0.716103 0.604472C0.716396 0.604551 0.716609 0.604605 0.716769 0.605083L0.723659 0.630013C0.724484 0.6331 0.725229 0.636213 0.725974 0.639299C0.726187 0.638341 0.726427 0.637383 0.726666 0.636399C0.727172 0.63427 0.727703 0.632142 0.728262 0.630013L0.73518 0.605083C0.735366 0.604525 0.735473 0.604498 0.735978 0.604472H0.741991C0.742656 0.604525 0.742789 0.604684 0.742842 0.605296V0.666783C0.742789 0.667448 0.742603 0.667555 0.741991 0.667608H0.736217C0.735552 0.667555 0.735419 0.667395 0.735366 0.666783V0.642784C0.735446 0.638581 0.735526 0.634377 0.735632 0.630173V0.629614C0.735206 0.631397 0.734754 0.633153 0.734328 0.634935L0.733264 0.639139L0.729646 0.65324C0.729513 0.653507 0.729406 0.653693 0.728901 0.653746H0.723047C0.722462 0.653693 0.722409 0.653613 0.722249 0.653108L0.718658 0.639139C0.717647 0.634989 0.716263 0.629481 0.716263 0.629481C0.716342 0.632195 0.716396 0.634909 0.716476 0.637623L0.716502 0.640177L0.716556 0.642784V0.666783C0.716502 0.667448 0.716343 0.667555 0.715731 0.667608ZM0.516823 0.667608H0.510917C0.510252 0.667555 0.510145 0.667395 0.510092 0.666783V0.605296C0.510145 0.604631 0.510305 0.604498 0.510917 0.604472C0.518766 0.604472 0.526641 0.60386 0.534464 0.604472C0.535049 0.604605 0.535102 0.604738 0.535155 0.605296V0.666783C0.535102 0.667448 0.534942 0.667555 0.53433 0.667608H0.528424C0.527759 0.667555 0.527626 0.667395 0.527572 0.666783V0.614555H0.517648V0.666783C0.517595 0.667448 0.517435 0.667555 0.516823 0.667608ZM0.654723 0.667608H0.648737C0.648098 0.667555 0.647965 0.667395 0.647912 0.666783V0.605296C0.647965 0.604631 0.648125 0.604498 0.648737 0.604472C0.650732 0.604472 0.652701 0.604312 0.65467 0.604472C0.655255 0.604605 0.655335 0.604738 0.655362 0.605296C0.655362 0.617535 0.655601 0.629854 0.655148 0.641933L0.655122 0.642678C0.65576 0.640363 0.656213 0.638953 0.656213 0.638953L0.666137 0.605057C0.66635 0.604525 0.66643 0.604498 0.666935 0.604472H0.672974C0.673613 0.604525 0.673746 0.604684 0.673799 0.605296V0.666783C0.673746 0.667448 0.673586 0.667555 0.672974 0.667608H0.667175C0.666509 0.667555 0.666403 0.667395 0.66635 0.666783C0.66635 0.654465 0.666163 0.642119 0.666536 0.629881L0.666563 0.629109C0.666376 0.629854 0.666164 0.630572 0.665977 0.631317C0.662705 0.643263 0.659007 0.65513 0.655521 0.667023C0.655521 0.667023 0.655229 0.667581 0.654723 0.667608ZM0.626228 0.667608H0.620322C0.619656 0.667555 0.619523 0.667395 0.619497 0.666783V0.605296C0.61955 0.604631 0.61971 0.604498 0.620322 0.604472C0.623993 0.604472 0.627665 0.604445 0.631336 0.604472C0.633757 0.604525 0.636179 0.605243 0.638121 0.606707C0.64589 0.612587 0.645677 0.626022 0.643522 0.634616C0.642112 0.640257 0.637775 0.645871 0.631336 0.646004H0.627053V0.666783C0.627 0.667448 0.62684 0.667555 0.626228 0.667608ZM0.844371 0.613677C0.840168 0.61389 0.839236 0.619504 0.839024 0.622431C0.838465 0.630785 0.838917 0.639219 0.838944 0.647627C0.839023 0.653028 0.841046 0.660424 0.846367 0.65803C0.84948 0.65662 0.850091 0.651884 0.850145 0.647627C0.850198 0.637889 0.851927 0.627699 0.84948 0.618573C0.848841 0.616205 0.847617 0.613624 0.844371 0.613677ZM0.810342 0.64047V0.657604C0.813082 0.657604 0.816062 0.658243 0.818084 0.656433C0.820984 0.653853 0.820558 0.649117 0.82 0.646137C0.819521 0.643423 0.817632 0.640576 0.814493 0.64047C0.813109 0.640443 0.811726 0.64047 0.810342 0.64047ZM0.573281 0.614476H0.566603L0.566045 0.637463C0.565832 0.644195 0.5653 0.651032 0.563224 0.657444L0.573281 0.657604V0.614476ZM0.627053 0.614555V0.63592C0.629341 0.63592 0.631762 0.636346 0.633571 0.635308C0.637163 0.633286 0.63687 0.628391 0.63687 0.625145C0.63687 0.620462 0.636125 0.614768 0.631256 0.614555C0.629873 0.614529 0.628463 0.614555 0.627053 0.614555ZM0.810342 0.614476V0.630466C0.812391 0.630466 0.814599 0.630865 0.816115 0.629987C0.819574 0.628045 0.819122 0.621978 0.81843 0.618626C0.818005 0.616657 0.816648 0.614609 0.814333 0.614476C0.813003 0.614422 0.811672 0.614476 0.810342 0.614476ZM0.865443 0.497095L0.880928 0.390066L0.891784 0.401906L0.863261 0.59798L0.851715 0.591834L0.863873 0.507942L0.871111 0.500123L0.865443 0.497095ZM0.665818 0.592898H0.503893L0.503467 0.543956H0.668931L0.665818 0.592898ZM0.743082 0.592898H0.673374C0.675609 0.580393 0.676833 0.564669 0.67819 0.543956H0.748031L0.743082 0.592898ZM0.813402 0.592898H0.751649L0.756651 0.543956H0.790174L0.803824 0.572731V0.572704L0.813402 0.592898ZM0.852752 0.519944L0.842056 0.586699L0.807815 0.56842L0.852752 0.519944ZM0.63264 0.519303C0.631948 0.516775 0.631602 0.514139 0.631549 0.511667C0.631496 0.500266 0.62982 0.488307 0.632933 0.478061C0.634476 0.47299 0.638414 0.468025 0.644214 0.467714C0.644453 0.467706 0.644719 0.4677 0.644985 0.467703C0.646768 0.467746 0.648364 0.46828 0.649774 0.469161C0.652674 0.470667 0.654856 0.473575 0.656186 0.47764C0.657038 0.479795 0.65757 0.482022 0.657782 0.484007C0.658687 0.492801 0.657996 0.502011 0.657996 0.511068C0.657942 0.520606 0.654483 0.532271 0.6444 0.531959C0.642377 0.531898 0.640595 0.53122 0.639052 0.5301C0.635939 0.528139 0.633731 0.524425 0.63264 0.519303ZM0.56804 0.519417C0.567348 0.516855 0.566976 0.514176 0.56695 0.511667C0.566896 0.500266 0.565194 0.488309 0.568333 0.478061C0.569929 0.472785 0.574053 0.467658 0.580359 0.467703C0.582142 0.467746 0.583764 0.46828 0.585174 0.469164C0.588048 0.470667 0.59023 0.473559 0.59156 0.4776C0.592438 0.479766 0.592943 0.482009 0.593156 0.48401C0.594114 0.493381 0.593715 0.503289 0.593343 0.512846C0.593023 0.521769 0.589379 0.532257 0.579774 0.531959C0.577752 0.531898 0.575969 0.531214 0.574426 0.530084C0.57134 0.528133 0.569131 0.524464 0.56804 0.519417ZM0.532548 0.530826H0.51121C0.51105 0.530807 0.510944 0.530759 0.510917 0.530549V0.469121C0.510944 0.468911 0.51105 0.46886 0.51121 0.468842C0.518127 0.468842 0.525124 0.467945 0.532015 0.468852C0.532122 0.4689 0.532202 0.468985 0.532228 0.469121V0.477457C0.532202 0.477667 0.532096 0.477715 0.531936 0.477733H0.517568V0.494993H0.530792C0.531004 0.495022 0.531058 0.495129 0.531085 0.49527V0.503432C0.531058 0.503642 0.530925 0.50369 0.530792 0.503709H0.517568V0.521934H0.532548C0.532761 0.521964 0.532814 0.52207 0.53284 0.522211V0.530549C0.532814 0.530757 0.532708 0.530807 0.532548 0.530826ZM0.606486 0.530826H0.600367C0.600234 0.530807 0.600127 0.530759 0.600101 0.530549V0.469121C0.600127 0.468911 0.600234 0.46886 0.600367 0.468842H0.606486C0.606699 0.468871 0.606752 0.468977 0.606752 0.469121V0.494993H0.618193V0.469121C0.618193 0.468977 0.618246 0.468871 0.618459 0.468842H0.624578C0.624631 0.468852 0.624631 0.468852 0.624711 0.468879C0.624791 0.468948 0.624844 0.469009 0.624844 0.469121V0.530549C0.624818 0.53069 0.624791 0.530797 0.624578 0.530826H0.618459C0.618246 0.530799 0.618193 0.53069 0.618193 0.530549V0.503885H0.606752V0.530549C0.606726 0.530757 0.606619 0.530807 0.606486 0.530826ZM0.545133 0.530826H0.539093C0.538933 0.530807 0.538827 0.530759 0.5388 0.530549V0.469121C0.538827 0.468911 0.538933 0.46886 0.539093 0.468842C0.541115 0.468842 0.543191 0.468586 0.545213 0.468852C0.545319 0.4689 0.545398 0.468985 0.545398 0.469121V0.494312L0.54766 0.488496L0.556147 0.469009C0.556201 0.468916 0.556281 0.46886 0.556387 0.468842H0.563517C0.56373 0.468871 0.563863 0.468951 0.563784 0.469233L0.551731 0.495892L0.565566 0.53052C0.565539 0.530672 0.565512 0.530794 0.565273 0.530826H0.558249C0.558143 0.53081 0.558063 0.530759 0.55801 0.530648L0.5479 0.504409L0.545398 0.509812V0.530549C0.545398 0.530757 0.545266 0.530807 0.545133 0.530826ZM0.712724 0.530826H0.706605C0.706392 0.530799 0.706339 0.53069 0.706339 0.530549V0.469121C0.706418 0.468472 0.71017 0.468509 0.712778 0.468852C0.712911 0.4689 0.712964 0.468985 0.71299 0.469121V0.530549C0.712964 0.53069 0.712937 0.530797 0.712724 0.530826ZM0.727171 0.530826H0.721132C0.720999 0.530807 0.720866 0.530759 0.720839 0.530549V0.469121C0.720866 0.468911 0.720999 0.46886 0.721132 0.468842C0.723154 0.468842 0.725229 0.468586 0.727251 0.468852C0.727358 0.4689 0.727438 0.468985 0.727464 0.469121V0.494312L0.729699 0.488496L0.738186 0.469009C0.738239 0.468914 0.738319 0.468858 0.738426 0.468842H0.745556C0.745769 0.468871 0.745902 0.468951 0.745822 0.469233L0.73377 0.495892L0.747498 0.530294L0.758114 0.469073C0.758167 0.468948 0.758247 0.468863 0.758407 0.468842C0.760615 0.468842 0.76285 0.468544 0.765058 0.468852C0.765165 0.468898 0.765218 0.468972 0.765271 0.469073L0.775914 0.530501C0.775914 0.530688 0.775834 0.530797 0.775648 0.530826H0.769289C0.769156 0.530807 0.769049 0.530735 0.768996 0.530592L0.767054 0.518451H0.756332L0.754443 0.530592C0.754389 0.530719 0.754309 0.530805 0.75415 0.530826H0.747738C0.747658 0.530813 0.747578 0.530781 0.747551 0.530725C0.747498 0.530775 0.747445 0.53081 0.747312 0.530826H0.740315C0.740182 0.53081 0.740102 0.530759 0.740049 0.530648L0.729939 0.504409L0.727464 0.509812V0.530549C0.727438 0.53069 0.727384 0.530797 0.727171 0.530826ZM0.670979 0.530826H0.664993C0.66478 0.530799 0.664727 0.53069 0.6647 0.530549V0.469121C0.664727 0.468911 0.664833 0.46886 0.664993 0.468842C0.667094 0.468842 0.669197 0.468581 0.671272 0.468852C0.671378 0.468895 0.671432 0.468943 0.671485 0.469044L0.678615 0.493968C0.679892 0.498643 0.681436 0.504989 0.681436 0.504989L0.681569 0.505556C0.68242 0.50191 0.683351 0.498276 0.684309 0.494655L0.684495 0.493968L0.691679 0.468977C0.691732 0.468892 0.691785 0.468858 0.691892 0.468842H0.698144C0.698357 0.468871 0.698383 0.468977 0.69841 0.469121V0.530549C0.698383 0.53069 0.698357 0.530797 0.698144 0.530826H0.692158C0.691945 0.530799 0.691892 0.53069 0.691865 0.530549V0.506588C0.691971 0.500777 0.692078 0.494964 0.692264 0.489153L0.692317 0.48807C0.691785 0.490204 0.691227 0.492332 0.690695 0.494461C0.690349 0.495842 0.689976 0.49722 0.68963 0.498598L0.688539 0.502799L0.684841 0.516754C0.684815 0.516868 0.684708 0.516943 0.684575 0.516962H0.678535C0.678402 0.516943 0.678323 0.516868 0.67827 0.516754L0.674571 0.502799C0.673347 0.498045 0.672124 0.49329 0.670926 0.488525L0.670793 0.488022C0.670873 0.490826 0.670952 0.493633 0.671032 0.496438C0.671112 0.499825 0.671192 0.503206 0.671245 0.506588V0.530549C0.671219 0.530757 0.671112 0.530807 0.670979 0.530826ZM0.651371 0.486758C0.651158 0.485141 0.650812 0.48355 0.650359 0.481991C0.649588 0.479399 0.648018 0.476893 0.644586 0.476946C0.640302 0.47714 0.638786 0.482597 0.638493 0.485894C0.637801 0.494314 0.63836 0.502908 0.638413 0.511425C0.638466 0.516424 0.639638 0.522887 0.644985 0.522722C0.649296 0.522589 0.651078 0.516674 0.651158 0.511425C0.651158 0.508966 0.651291 0.506479 0.651424 0.503983V0.488602C0.651424 0.487964 0.651424 0.487349 0.651371 0.486758ZM0.586771 0.486811C0.586531 0.485175 0.586213 0.483566 0.58576 0.481991C0.584989 0.479439 0.583073 0.476898 0.57996 0.476946C0.575729 0.47714 0.574159 0.482555 0.573893 0.485894C0.573202 0.494317 0.573761 0.502908 0.573787 0.511425C0.573841 0.515256 0.574213 0.519526 0.57698 0.521687C0.579082 0.523334 0.582381 0.522953 0.58411 0.520937C0.586186 0.518494 0.586505 0.514825 0.586531 0.511425C0.586558 0.508956 0.586691 0.50646 0.586824 0.503956V0.488602C0.586824 0.487982 0.586798 0.487383 0.586771 0.486811ZM0.574718 0.518954C0.575144 0.519973 0.57565 0.520806 0.576288 0.521445C0.575676 0.520761 0.575144 0.519915 0.574718 0.518954ZM0.7616 0.48315C0.761227 0.486601 0.760855 0.490047 0.760296 0.493471L0.757742 0.509647H0.765697L0.76309 0.493471C0.762531 0.489781 0.762105 0.486077 0.761706 0.482368C0.761706 0.482368 0.761626 0.482829 0.7616 0.48315ZM0.776738 0.347374L0.779346 0.321782C0.812737 0.325613 0.848043 0.33915 0.877629 0.364229L0.857116 0.492651L0.766814 0.444502L0.771258 0.400962L0.806325 0.363146L0.776738 0.347374ZM0.674491 0.456289H0.502695L0.50227 0.40698H0.677631L0.674491 0.456289ZM0.748616 0.456289H0.683883L0.687049 0.40698H0.725362L0.735153 0.427626L0.734967 0.427522L0.748616 0.456289ZM0.761387 0.411599L0.758513 0.440083L0.742789 0.431686L0.761387 0.411599ZM0.592438 0.362306L0.599382 0.33248H0.606646L0.594966 0.38085C0.592518 0.390998 0.589139 0.394584 0.581875 0.394584H0.580146V0.386624H0.582062C0.585786 0.386624 0.587356 0.384176 0.588793 0.378051L0.589352 0.375776L0.577272 0.33248H0.584616L0.592438 0.362306ZM0.518925 0.358546H0.532521V0.33248H0.539439V0.393709H0.532521V0.366855H0.518925V0.393709H0.511982V0.33248H0.518925V0.358546ZM0.618379 0.33248V0.35907L0.621545 0.351897L0.63115 0.33248H0.639238L0.625536 0.359158L0.641234 0.393709H0.633278L0.621545 0.366943L0.618379 0.372977V0.393709H0.611515V0.33248H0.618379ZM0.564289 0.33248L0.576368 0.393709H0.569158L0.566896 0.381377H0.554205L0.551997 0.393709H0.544733L0.556812 0.33248H0.564289ZM0.661295 0.33248L0.673374 0.393709H0.666164L0.663902 0.381377H0.651184L0.649003 0.393709H0.641712L0.653818 0.33248H0.661295ZM0.662465 0.373153L0.659432 0.356708C0.658741 0.352685 0.657996 0.346823 0.65765 0.343588H0.657437C0.657091 0.346823 0.656426 0.352685 0.655655 0.356708L0.652701 0.373153H0.662465ZM0.565459 0.373153L0.562453 0.356708C0.561762 0.352685 0.560989 0.346823 0.560644 0.343588H0.560458C0.560112 0.346823 0.55942 0.352685 0.558675 0.356708L0.555722 0.373153H0.565459ZM0.768331 0.342899L0.709904 0.311735C0.733796 0.303801 0.756731 0.290658 0.775648 0.270701L0.768331 0.342899ZM0.683218 0.319313H0.545C0.601697 0.295341 0.67513 0.290549 0.689178 0.225274L0.684548 0.298217L0.670155 0.290546L0.683271 0.318206L0.683218 0.319313ZM0.418142 0.0577058C0.440012 0.0388154 0.468241 0.0269304 0.498279 0.0266537C0.498811 0.0266511 0.499344 0.0266511 0.499876 0.0266537C0.535076 0.0269783 0.569424 0.0433038 0.592784 0.0691915C0.593502 0.0700323 0.593848 0.0703941 0.594513 0.0711603C0.602974 0.080946 0.609892 0.092025 0.614707 0.104072C0.627611 0.13621 0.625723 0.173902 0.609732 0.204577C0.606566 0.21064 0.602868 0.216374 0.59869 0.221735C0.598451 0.222182 0.598132 0.222576 0.597786 0.222908C0.584989 0.23893 0.568014 0.251566 0.54899 0.259808C0.546995 0.260676 0.545851 0.261157 0.542924 0.262256C0.518287 0.271528 0.49075 0.273574 0.464623 0.266353C0.462654 0.265811 0.462627 0.265811 0.460259 0.265058C0.457545 0.264188 0.454832 0.263211 0.452118 0.262131C0.432403 0.2542 0.415135 0.240777 0.401965 0.224108C0.401247 0.223704 0.400662 0.222906 0.400236 0.221844C0.397974 0.218856 0.395846 0.215772 0.39385 0.212601C0.392972 0.210781 0.39244 0.210246 0.391323 0.208411C0.379882 0.188538 0.373736 0.165663 0.374934 0.142619C0.37645 0.113571 0.38962 0.0863126 0.40984 0.0655306C0.410905 0.0645408 0.411383 0.0638784 0.414363 0.0611007C0.414922 0.0605792 0.415481 0.0600603 0.416066 0.0595468C0.416545 0.0589109 0.417264 0.0582964 0.418142 0.0577058ZM0.542339 0.241634C0.531271 0.24419 0.519857 0.245638 0.508629 0.246135C0.492719 0.246838 0.476702 0.245632 0.461137 0.242429C0.462228 0.247096 0.463478 0.251731 0.464915 0.256326C0.489393 0.263999 0.516451 0.2641 0.541381 0.254418L0.54162 0.254327C0.541913 0.250116 0.542153 0.245883 0.542339 0.241634ZM0.414895 0.225981C0.426389 0.237685 0.440464 0.246926 0.455869 0.253101C0.454725 0.24894 0.453687 0.244741 0.452809 0.240511C0.439666 0.237158 0.426895 0.232335 0.414895 0.225981ZM0.583525 0.225274C0.573335 0.231555 0.562001 0.236273 0.550161 0.239633C0.550001 0.243363 0.549815 0.247093 0.549602 0.250818C0.5624 0.24456 0.573894 0.235783 0.583525 0.225274ZM0.543004 0.216576C0.514536 0.222879 0.483592 0.22203 0.456853 0.216619C0.457465 0.22252 0.45829 0.2284 0.459408 0.234237C0.486812 0.24058 0.515812 0.240391 0.542684 0.233474C0.542871 0.227854 0.543004 0.222217 0.543004 0.216576ZM0.40694 0.197023C0.406647 0.202025 0.406515 0.20704 0.406568 0.212045C0.42027 0.220947 0.435409 0.227658 0.451213 0.232135C0.450282 0.226423 0.449563 0.220665 0.449058 0.214884C0.447249 0.214445 0.445466 0.213982 0.44371 0.2135C0.430833 0.209975 0.418115 0.204606 0.40694 0.197023ZM0.591959 0.195717C0.579694 0.204457 0.565513 0.210667 0.550481 0.21474C0.550534 0.220256 0.550507 0.225771 0.550401 0.231287C0.552103 0.230752 0.553833 0.230188 0.555509 0.229597C0.568812 0.224962 0.581609 0.218284 0.592172 0.209217C0.592305 0.20472 0.592225 0.200213 0.591959 0.195717ZM0.456374 0.180046C0.455683 0.189507 0.455629 0.199013 0.456215 0.20849C0.456401 0.208533 0.456614 0.208576 0.456827 0.208615C0.483486 0.213921 0.511369 0.214158 0.53739 0.209361C0.539252 0.209017 0.541115 0.208639 0.542951 0.208224C0.542818 0.198992 0.542392 0.189778 0.54162 0.180652C0.520176 0.18509 0.497507 0.184814 0.476222 0.182797C0.469651 0.182177 0.462973 0.181291 0.456374 0.180046ZM0.411916 0.163204C0.41 0.171194 0.408616 0.179357 0.407738 0.187589C0.419711 0.196571 0.434132 0.202892 0.448526 0.206697C0.4481 0.197318 0.448286 0.187892 0.449031 0.1785C0.435568 0.175358 0.422665 0.17054 0.411916 0.163204ZM0.586186 0.16172C0.585334 0.162358 0.584456 0.162978 0.583552 0.163582C0.57275 0.170872 0.560884 0.175826 0.548485 0.179048C0.549017 0.184231 0.549443 0.189379 0.549735 0.194466C0.549975 0.198439 0.550161 0.202411 0.550294 0.206386C0.564981 0.202291 0.579135 0.195799 0.591108 0.186431C0.590124 0.178088 0.588474 0.169813 0.586186 0.16172ZM0.38813 0.179985C0.390072 0.186841 0.39268 0.193509 0.395952 0.199865C0.396857 0.201645 0.397815 0.203395 0.398852 0.205111C0.398932 0.200564 0.399172 0.196007 0.399544 0.191457C0.395394 0.188009 0.391562 0.184194 0.38813 0.179985ZM0.609759 0.17953C0.6092 0.180197 0.608615 0.180857 0.608029 0.181498C0.605289 0.184508 0.602389 0.18732 0.599329 0.189943C0.599675 0.19382 0.599914 0.19771 0.599994 0.201605C0.60042 0.201123 0.600845 0.200639 0.601271 0.200147C0.604757 0.193554 0.607604 0.186644 0.609759 0.17953ZM0.385815 0.127313C0.383793 0.137732 0.383261 0.14844 0.384219 0.159022L0.384246 0.159048C0.38805 0.167685 0.393717 0.175196 0.400608 0.181618C0.401646 0.173655 0.403162 0.16575 0.405131 0.157997C0.39691 0.150848 0.390445 0.141781 0.386693 0.130292C0.386374 0.129305 0.386081 0.128313 0.385815 0.127313ZM0.612366 0.127714C0.608083 0.138572 0.601324 0.148409 0.592677 0.156372C0.595099 0.164218 0.596935 0.172234 0.598158 0.180344C0.604198 0.174546 0.609519 0.167852 0.613803 0.160184C0.614414 0.154765 0.614628 0.149289 0.614362 0.1438C0.614122 0.138365 0.613457 0.13299 0.612366 0.127714ZM0.535448 0.140307C0.528424 0.141839 0.5214 0.142797 0.514695 0.143356C0.497694 0.144771 0.479389 0.144601 0.462654 0.141366C0.45994 0.152043 0.457997 0.162933 0.456906 0.173913C0.485481 0.180033 0.517169 0.177659 0.540796 0.172415C0.539598 0.161515 0.537869 0.150771 0.535448 0.140307ZM0.425564 0.125873C0.420828 0.135074 0.417024 0.144838 0.414098 0.154948C0.424288 0.163037 0.4365 0.168576 0.449616 0.172147C0.450787 0.161235 0.452756 0.150396 0.455444 0.139751C0.444189 0.136864 0.433919 0.132405 0.425564 0.125873ZM0.571127 0.125394C0.562427 0.13166 0.552236 0.135917 0.54178 0.138761C0.544308 0.149388 0.546197 0.160136 0.547554 0.170787C0.548884 0.170433 0.550214 0.170071 0.551491 0.169701C0.563092 0.166341 0.574186 0.160764 0.583525 0.153115C0.580253 0.143486 0.576102 0.13418 0.571127 0.125394ZM0.407286 0.0995889C0.401779 0.104708 0.396564 0.110181 0.391668 0.115909C0.392626 0.126501 0.39667 0.136715 0.403748 0.144998C0.404998 0.146456 0.406275 0.147855 0.407632 0.149199C0.410718 0.139222 0.414683 0.129561 0.419525 0.120427C0.414683 0.115364 0.410799 0.109332 0.408165 0.102186C0.407845 0.101329 0.407552 0.100462 0.407286 0.0995889ZM0.591187 0.100422C0.589804 0.103883 0.588155 0.107153 0.586292 0.109939C0.583552 0.113999 0.580386 0.117591 0.576874 0.12077C0.581264 0.128076 0.585042 0.135704 0.588155 0.143534C0.588687 0.144857 0.589192 0.146184 0.589698 0.14752C0.597893 0.139237 0.604198 0.129061 0.607604 0.11712C0.602522 0.111208 0.597041 0.105618 0.591187 0.100422ZM0.520974 0.0981682C0.507033 0.101592 0.492027 0.101885 0.478378 0.0986524C0.472684 0.110239 0.468028 0.122358 0.464436 0.134805C0.487371 0.13978 0.513285 0.137803 0.533612 0.132852C0.530393 0.120807 0.526269 0.109183 0.520974 0.0981682ZM0.454512 0.0880499C0.452597 0.0897341 0.450734 0.0914928 0.448925 0.0933286C0.441422 0.100935 0.434983 0.109452 0.429555 0.118634C0.437351 0.125301 0.446876 0.129949 0.457279 0.132985C0.460845 0.120451 0.465447 0.108228 0.471061 0.0965266C0.465101 0.0944619 0.459487 0.0916471 0.454512 0.0880499ZM0.542419 0.0890797C0.538641 0.0917004 0.53441 0.0938794 0.529993 0.0954545C0.529142 0.0957578 0.528291 0.096053 0.527413 0.0963324C0.532548 0.107523 0.536645 0.119243 0.539865 0.131184C0.545213 0.129627 0.550055 0.127869 0.554178 0.125996C0.558675 0.123963 0.562959 0.121382 0.56687 0.118322C0.559979 0.107499 0.551784 0.0976149 0.542419 0.0890797ZM0.55503 0.0759362C0.553168 0.0791636 0.55064 0.0822047 0.54766 0.0849424C0.556892 0.0934404 0.565194 0.103106 0.572271 0.11356C0.577592 0.108252 0.581849 0.101917 0.584483 0.0947814C0.575331 0.0874514 0.565433 0.0810819 0.55503 0.0759362ZM0.443231 0.0743C0.432722 0.0795467 0.422931 0.0861635 0.413885 0.0937542C0.414869 0.0987349 0.416838 0.103524 0.419738 0.107757C0.420988 0.109585 0.422345 0.111314 0.423782 0.112951C0.43054 0.101848 0.438788 0.0916711 0.448606 0.0828299C0.446344 0.080289 0.444508 0.0773863 0.443231 0.0743ZM0.405716 0.082625C0.401247 0.0885262 0.397362 0.0948611 0.394196 0.101555C0.397868 0.0977638 0.401699 0.0941242 0.405663 0.0906654C0.405477 0.0880021 0.405477 0.0853122 0.405716 0.082625ZM0.594939 0.0873076C0.594647 0.08892 0.594274 0.0905723 0.593848 0.0922325C0.596908 0.0948771 0.599888 0.0976281 0.602761 0.100472C0.600447 0.0959254 0.597839 0.0915274 0.594939 0.0873076ZM0.49929 0.0645408C0.492666 0.0733181 0.486759 0.0826382 0.481597 0.092376C0.49333 0.0949355 0.506234 0.0946269 0.517782 0.0918838C0.51262 0.0821992 0.506501 0.0730388 0.49929 0.0645408ZM0.48745 0.0678612C0.477792 0.0718122 0.468666 0.07691 0.460365 0.0832555C0.464436 0.0862381 0.469119 0.088574 0.474147 0.0903034C0.478138 0.0825478 0.482581 0.0750448 0.48745 0.0678612ZM0.51121 0.067997C0.516159 0.0749704 0.520522 0.0823403 0.52438 0.0899975C0.528903 0.0884703 0.533106 0.0865387 0.536805 0.084232C0.528982 0.0778305 0.520416 0.0723497 0.51121 0.067997ZM0.557212 0.0573466C0.557318 0.0576366 0.557424 0.0579266 0.557504 0.0582192C0.558568 0.0615769 0.558648 0.0649532 0.557983 0.0682391C0.568093 0.073241 0.577751 0.079363 0.586744 0.0863817C0.587223 0.0834976 0.587463 0.080515 0.587409 0.0774447C0.58129 0.0702664 0.574319 0.0637745 0.566657 0.0581606C0.563517 0.0578121 0.560378 0.0575381 0.557212 0.0573466ZM0.441661 0.0589269C0.435515 0.060095 0.429449 0.0617577 0.423516 0.0638782C0.420936 0.0660653 0.418434 0.0683588 0.41604 0.0707534C0.415029 0.0747124 0.413592 0.0793817 0.413273 0.0837664C0.413273 0.0839952 0.413246 0.0842266 0.413246 0.0844554C0.421999 0.0776735 0.431392 0.0717591 0.441262 0.0669646C0.440943 0.0642827 0.441049 0.0615716 0.441661 0.0589269ZM0.517568 0.0634846C0.526269 0.068138 0.53457 0.0737864 0.542286 0.0802331C0.544042 0.0786926 0.545638 0.077035 0.546995 0.0752657C0.547554 0.0745048 0.548059 0.0737093 0.548485 0.0728898C0.538534 0.068561 0.528158 0.0653524 0.517568 0.0634846ZM0.478138 0.0630109C0.468693 0.0644955 0.459248 0.0671827 0.449883 0.0712162C0.450388 0.072613 0.451159 0.0739753 0.452144 0.0752657C0.452836 0.0761943 0.453581 0.0770828 0.454379 0.0779369C0.45837 0.0747442 0.462627 0.0717591 0.467123 0.069008C0.470689 0.0668157 0.474387 0.0648175 0.478138 0.0630109ZM0.547687 0.057014C0.541807 0.0569608 0.535927 0.0571923 0.5301 0.057727C0.536858 0.0595017 0.543509 0.0617951 0.549975 0.0645515C0.549762 0.062008 0.548964 0.0594431 0.547687 0.057014ZM0.468614 0.0570379C0.462654 0.0567266 0.456667 0.0569128 0.450734 0.0575647C0.44983 0.059451 0.449217 0.0614571 0.448978 0.0634952C0.455337 0.0608558 0.461909 0.0586821 0.468614 0.0570379ZM0.511982 0.0380438C0.507618 0.0374665 0.503228 0.0372217 0.498864 0.037235C0.493756 0.0372908 0.488621 0.0376634 0.483566 0.0385068C0.487158 0.0414468 0.491043 0.0449188 0.494634 0.0484441C0.496044 0.0498356 0.497401 0.051251 0.498758 0.0526931C0.502935 0.0475874 0.507326 0.0426946 0.511982 0.0380438ZM0.521294 0.0398317C0.516984 0.0439105 0.512859 0.0481886 0.508948 0.0526398C0.519484 0.0503916 0.530313 0.0492476 0.541168 0.0490773C0.540397 0.0484308 0.539545 0.0478216 0.538667 0.0472575C0.533372 0.0438227 0.52744 0.0414201 0.521294 0.0398317ZM0.473722 0.0408561C0.467922 0.0427132 0.462467 0.0454058 0.457651 0.0492051C0.45962 0.0491146 0.46151 0.049072 0.463292 0.0490773C0.471407 0.0491491 0.479416 0.0501469 0.487238 0.0519667C0.48354 0.0485425 0.479601 0.0452567 0.475451 0.0421278C0.474892 0.0417207 0.474307 0.0412898 0.473722 0.0408561ZM0.447435 0.0480903C0.445812 0.0489151 0.444189 0.0497745 0.442566 0.0506738C0.44363 0.0505194 0.444694 0.0503756 0.445732 0.0502426C0.446291 0.049503 0.44685 0.0487847 0.447435 0.0480903Z" fill="white"/>
</g>
<defs>
<clipPath id="clip0">
<rect width="1" height="1" fill="white"/>
</clipPath>
</defs>
</svg>
