<svg width="2026" height="2026" viewBox="0 0 2026 2026" fill="none" xmlns="http://www.w3.org/2000/svg">
<g clip-path="url(#clip0)">
<path d="M2022.83 974.64C2023.61 987.02 2024.65 999.39 2025.02 1011.79C2025.19 1017.36 2023.7 1022.96 2023.51 1028.57C2023.23 1036.87 2023.64 1045.2 2023.39 1053.5C2022.96 1067.34 2022.65 1081.2 2021.53 1094.99C2020.2 1111.29 2018.53 1127.59 2016.17 1143.77C2013.77 1160.45 2010.61 1177.02 2007.45 1193.58C2003.45 1214.69 1999.59 1235.85 1994.71 1256.76C1990.71 1273.97 1985.48 1290.91 1980.46 1307.86C1970.88 1340.11 1959.39 1371.77 1946.05 1402.66C1932.69 1433.66 1917.81 1464.1 1902.11 1494.01C1884.82 1527.01 1864.74 1558.35 1843.39 1588.85C1832.54 1604.36 1821.07 1619.46 1809.39 1634.33C1797.98 1648.79 1785.74 1662.59 1774.14 1676.91C1752.3 1703.91 1726.96 1727.48 1702.47 1751.91C1692.37 1761.97 1681.47 1771.32 1670.47 1780.36C1654.47 1793.49 1637.79 1805.8 1621.78 1818.92C1598.78 1837.81 1573.6 1853.62 1548.78 1869.92C1537.38 1877.43 1525.55 1884.34 1513.53 1890.82C1490.2 1903.4 1466.82 1915.93 1443.05 1927.64C1420.41 1938.87 1397.16 1948.84 1373.42 1957.5C1355.15 1964.11 1337.01 1971.19 1318.42 1976.92C1293.79 1984.54 1268.97 1991.69 1243.93 1997.82C1224.49 2002.58 1204.53 2005.22 1184.93 2009.26C1169.23 2012.47 1153.37 2014.8 1137.41 2016.26C1126.06 2017.32 1114.71 2018.44 1103.41 2019.81C1081.17 2022.4 1058.8 2023.61 1036.41 2023.43C1029.12 2023.43 1021.81 2025.1 1014.52 2025C994.91 2024.73 975.29 2024.2 955.69 2023.23C940.48 2022.49 925.25 2021.37 910.11 2019.63C894.51 2017.83 879 2015.13 863.47 2012.73C848.23 2010.38 832.87 2008.52 817.79 2005.37C794.79 2000.57 771.88 1995.37 749.17 1989.37C729.28 1984.13 709.51 1978.23 690.08 1971.5C667.89 1963.82 646.08 1954.93 624.2 1946.5C595.61 1935.5 568.35 1921.59 541.3 1907.38C521.49 1896.97 502.3 1885.38 483.16 1873.73C467.78 1864.36 452.72 1854.42 437.92 1844.16C422.38 1833.39 407.03 1822.3 392.1 1810.7C376.38 1798.49 361.34 1785.43 346.15 1772.55C319.89 1750.26 296.05 1725.55 271.95 1701.14C258.17 1687.14 245.36 1672.14 232.95 1656.88C204.642 1622.09 178.365 1585.7 154.25 1547.88C144.73 1532.94 136.03 1517.45 127.6 1501.88C117.06 1482.39 106.82 1462.73 97.13 1442.81C85.2233 1418.56 74.7063 1393.65 65.63 1368.21C59.84 1351.8 53.17 1335.67 48.08 1319.06C40.5 1294.11 33.37 1269 27 1243.7C22.92 1227.38 20.67 1210.6 17.57 1194.04C15.27 1181.76 12.57 1169.55 10.71 1157.21C9 1145.95 8.36 1134.53 6.89 1123.21C4.89 1108.06 4.44 1092.79 2.94 1077.66C1.77 1065.83 2.24 1054.1 1.59 1042.35C1.08 1033.2 0.229999 1024.06 -0.030001 1014.9C-0.160001 1010.04 0.789999 1005.15 0.969999 1000.26C1.29 990.95 1.3 981.63 1.64 972.32C2.14 958.19 2.55 944.04 3.49 929.94C4.29 917.94 5.49 906.02 7.06 894.15C9.06 879.74 11.47 865.4 14.06 851.08C18.16 827.9 22.11 804.68 26.88 781.63C29.81 767.46 33.79 753.47 37.94 739.63C43.94 719.63 49.94 699.63 56.94 679.97C64.64 658.4 73.37 637.2 81.87 615.92C92.58 589.09 105.87 563.44 119.34 537.97C129.8 518.2 141.63 499.15 153.05 479.9C159.42 469.17 165.91 458.48 172.86 448.12C180.31 437 188.26 426.2 196.18 415.4C203.24 405.77 210.38 396.19 217.81 386.85C224.37 378.6 231.58 370.85 238.14 362.61C260.88 333.97 286.66 308.16 312.89 282.82C328.67 267.58 345.25 253.11 362.03 238.96C379.66 224.09 397.39 209.22 416.11 195.8C436.16 181.43 455.94 166.57 477.65 154.55C491.65 146.82 504.78 137.61 518.74 129.85C535.54 120.5 552.74 111.91 569.89 103.12C591.053 92.1334 612.867 82.4487 635.21 74.12C659.43 65.22 683.46 55.73 707.99 47.77C732.24 39.92 756.88 33.2 781.57 26.86C798.71 22.46 816.17 19.25 833.57 16.09C846.46 13.74 859.57 12.34 872.51 10.5C884.91 8.75002 897.28 6.65002 909.73 5.30002C919.94 4.20002 930.25 3.96002 940.53 3.41002C958.71 2.41002 976.88 1.06002 995.08 0.740023C1007.22 0.530024 1019.36 -0.949977 1031.62 1.32002C1039.08 2.70002 1047.01 1.47002 1054.73 1.64002C1070.45 1.89258 1086.14 3.03105 1101.73 5.05002C1109.85 6.16002 1118.12 6.16002 1126.29 7.05002C1133.52 7.82002 1140.69 9.12002 1147.9 10.13C1153.39 10.9 1158.9 11.6 1164.38 12.31C1183.71 14.81 1202.73 18.92 1221.83 22.73C1248.62 28.08 1274.9 35.19 1301.13 42.65C1335.69 52.626 1369.58 64.7633 1402.62 78.99C1432.62 91.75 1461.97 106.17 1490.87 121.27C1518.69 135.8 1545.25 152.61 1571.43 170.03C1589.62 182.12 1607.56 194.52 1624.75 207.93C1641.94 221.34 1658.15 235.43 1674.97 249.03C1702.52 271.32 1726.68 297.16 1751.48 322.3C1763.3 334.3 1773.85 347.56 1784.6 360.57C1799.86 379.04 1815.67 397.14 1829.6 416.57C1846.99 440.9 1862.9 466.31 1879.05 491.51C1897.63 520.51 1913.05 551.24 1927.94 582.23C1939.61 606.58 1950.51 631.29 1959.36 656.86C1965.23 673.86 1971.89 690.6 1977.18 707.76C1984.69 732.13 1991.92 756.62 1998.02 781.36C2002.74 800.51 2005.35 820.18 2009.24 839.54C2012.49 855.536 2014.87 871.696 2016.37 887.95C2017.37 898.95 2018.66 910.03 2019.84 921.07C2021.02 932.11 2022.45 943.13 2023.28 954.2C2023.79 960.99 2023.37 967.85 2023.37 974.68L2022.83 974.64ZM1613.58 1227.28C1610.47 1216.53 1611.72 1205.64 1614.06 1195.15C1617.72 1178.73 1622.8 1162.65 1630.31 1147.47C1631.57 1144.92 1632.72 1142.31 1634.11 1139.32C1628.96 1136.8 1624.23 1135.11 1620.2 1132.32C1612.49 1127.09 1604.31 1122.11 1597.92 1115.49C1587.07 1104.23 1580.78 1089.35 1580.25 1073.72C1579.48 1054.72 1578.1 1035.46 1583.4 1016.59C1591.83 986.59 1607.53 961.74 1633.4 943.86C1643.4 936.92 1653.57 930.1 1665.21 925.96C1666.06 925.65 1666.63 924.58 1667.87 923.31L1659.48 921.56C1657.9 915.46 1656.04 909.36 1654.79 903.15C1652.33 890.89 1649.88 878.78 1643.6 867.63C1636.16 854.44 1629.49 840.82 1622.6 827.35C1619.43 821.19 1615.35 815.28 1618.89 807.62C1619.52 806.27 1617.97 802.77 1616.42 801.73C1606.64 795.1 1599.03 786.2 1591.26 777.58C1586.13 771.992 1581.83 765.694 1578.5 758.88C1570.8 742.65 1565.97 725.65 1567.39 707.24C1568.14 697.56 1569.39 687.99 1573.39 679.24C1579.39 666.01 1586.01 653.05 1592.88 640.24C1595.28 635.76 1599.18 632.09 1602.88 627.48C1606.64 630.48 1609.59 632.81 1612.48 635.2C1616.86 638.81 1622.48 638.35 1625.42 633.7C1626.82 631.494 1627.71 628.998 1628.01 626.4C1628.86 617.94 1629.32 609.4 1629.88 600.96C1630.02 598.89 1629.67 596.75 1630.07 594.74C1630.17 594.001 1630.47 593.302 1630.93 592.716C1631.39 592.13 1632 591.678 1632.7 591.406C1633.39 591.135 1634.15 591.055 1634.89 591.173C1635.62 591.292 1636.31 591.605 1636.89 592.08C1638.91 593.801 1640.71 595.766 1642.25 597.93C1651.1 609.55 1658.9 622 1669.79 631.99C1673.72 635.6 1677.88 638.56 1683.08 639.99C1688.28 641.42 1691.83 639.27 1692.17 634.04C1692.17 632.288 1691.96 630.542 1691.54 628.84C1688.96 614.52 1681.37 602.41 1674.32 590.07C1670.99 584.25 1669.32 578 1671.81 571.63C1674.15 565.63 1677.15 559.97 1682.21 555.55C1684.7 553.38 1687.9 551.41 1688.61 547.66C1687.74 547.25 1687.15 546.66 1686.73 546.81C1675.96 549.47 1674.27 548.55 1670.81 538.08C1670.27 536.43 1669.28 534.81 1669.2 533.14C1668.58 519.28 1669.01 505.44 1671.58 491.78C1672.81 485.24 1672.77 483.35 1667.71 480.78C1653.12 473.43 1641.47 462.57 1630.95 450.41C1625.59 444.21 1620.33 437.26 1619.5 429.14C1618.24 416.833 1619.17 404.4 1622.26 392.42C1625.26 380.63 1627.49 368.6 1629.79 356.63C1630.4 353.45 1629.99 350.63 1626.14 348.63C1610.88 340.73 1595.92 332.27 1580.73 324.23C1577.44 322.48 1573.73 320.8 1570.12 320.48C1553.12 318.97 1536.06 317.93 1519.02 316.74C1509.94 316.1 1500.83 315.74 1491.78 314.81C1485.21 314.14 1478.7 312.75 1472.18 311.69C1466.9 319.83 1461.72 327.84 1456.18 336.47H1551.54V941C1551.54 950.2 1551.71 959.41 1551.49 968.61C1551.29 977.26 1550.54 985.9 1550.31 994.55C1550.11 1002.4 1550.31 1010.25 1550.31 1018.11C1550.31 1025.97 1550.49 1033.72 1550.4 1041.52C1550.31 1049.61 1549.89 1057.7 1549.79 1065.79C1549.68 1074.99 1549.79 1084.2 1549.79 1093.4V1258.15C1549.79 1267.35 1549.62 1276.56 1549.84 1285.75C1550.05 1294.63 1548.84 1303.62 1552.18 1312.6C1556.99 1301.3 1561.8 1289.99 1566.74 1278.41C1568.74 1279.08 1570.51 1279.13 1571.31 1280.05C1574.39 1283.55 1577.09 1287.38 1580.04 1291.05C1585.24 1297.45 1589.9 1304.41 1597.36 1308.72C1600.89 1301.72 1597.53 1288.55 1591.36 1284.29C1588.02 1281.98 1584.55 1279.85 1581.36 1277.37C1578.17 1274.89 1577.95 1272.53 1580.36 1268.43C1586.58 1257.62 1592.85 1246.72 1596.27 1234.52C1597.92 1228.62 1600.05 1222.86 1602.03 1216.83L1614.03 1227.13C1615.03 1229.13 1615.73 1231.42 1617.19 1233C1625.75 1242.29 1635.41 1250.51 1645.94 1257.49C1651.25 1261.03 1651.64 1263.38 1648.07 1268.68C1646.45 1271.1 1644.19 1273.23 1643.07 1275.85C1641.79 1278.99 1640.54 1282.63 1640.92 1285.85C1641.49 1290.64 1643.5 1295.26 1645.3 1301.35C1647.3 1299.65 1649.3 1298.8 1649.77 1297.42C1652.28 1290.64 1654.36 1283.71 1656.68 1276.87C1658.28 1272.11 1657.94 1266.56 1661.76 1262.67C1663.18 1262.96 1664.32 1262.84 1664.83 1263.35C1675.6 1273.97 1686.74 1284.28 1696.83 1295.54C1700.88 1300.12 1703.4 1305.86 1704.03 1311.94C1704.4 1317.59 1702.03 1324.06 1699.11 1329.19C1690.71 1343.96 1689.67 1359.68 1690.83 1375.98L1696.98 1378.98C1701.22 1373.87 1705.61 1369.12 1709.34 1363.91C1712.34 1359.68 1714.53 1354.82 1717.23 1350.34C1720.65 1344.68 1723.88 1338.79 1730.88 1335.4C1731.78 1338.75 1732.71 1341.47 1733.24 1344.27C1735.11 1353.96 1736.64 1363.73 1738.73 1373.37C1739.47 1376.46 1740.91 1379.33 1742.93 1381.78C1747.33 1387.16 1750.59 1387.4 1755.27 1382.23C1763.1 1373.58 1763.79 1376.05 1771.06 1383.48C1772.06 1384.48 1772.49 1385.99 1773.21 1387.24C1777.31 1394.24 1781.07 1401.53 1785.58 1408.24C1796.19 1424.17 1803.44 1441.18 1806.65 1460.24C1809.46 1476.44 1808.34 1493.08 1803.36 1508.75C1798.58 1523.91 1789.73 1536.66 1778.79 1548.24C1770.72 1556.79 1761.73 1563.57 1750.59 1567.08C1745.94 1568.55 1740.53 1567.66 1735.96 1569.27C1724.53 1573.27 1713.45 1569.04 1702.32 1568.39C1692.4 1567.82 1682.64 1564.57 1672.56 1562.46C1671.05 1566.05 1669.81 1569.27 1668.38 1572.4C1657.3 1596.67 1640.17 1616.75 1622.38 1635.95C1598.56 1661.6 1573.5 1686.11 1544.21 1705.81C1540.56 1708.26 1537.14 1711.27 1535.57 1716.11C1534 1720.95 1530.97 1725.52 1528.73 1730.27C1525.33 1737.47 1519.09 1741.35 1511.97 1743.37C1506.7 1744.86 1500.97 1744.49 1495.48 1745.47C1486.92 1747.02 1478.38 1748.78 1469.96 1750.94C1467.15 1751.66 1464.73 1753.86 1460.47 1756.37C1465 1758.65 1467.61 1760.7 1470.47 1761.29C1482.21 1763.66 1494.02 1764.29 1505.92 1761.93C1510.92 1760.93 1516.22 1760.33 1521.41 1764.73C1518.32 1766.29 1515.73 1767.51 1513.23 1768.89C1507.12 1772.28 1501.23 1776.02 1494.9 1779.08C1490.66 1781.14 1490.39 1783.87 1491.7 1787.64L1503.7 1791.08C1502.7 1793.24 1502.22 1795.46 1500.89 1796.82C1491.67 1806.27 1483.05 1816.54 1472.75 1824.65C1452.31 1840.76 1427.96 1847.81 1402.42 1850.34C1388.32 1851.59 1374.11 1850.38 1360.42 1846.77C1348.52 1843.77 1337.28 1838.89 1330.04 1827.95C1328.96 1828.23 1327.93 1828.65 1326.96 1829.2C1317.9 1836.06 1307.22 1840.46 1295.96 1841.97C1289.96 1842.88 1283.96 1843.97 1277.96 1844.85C1266.96 1846.45 1255.96 1848.85 1244.86 1845.36C1242.27 1844.6 1239.53 1844.57 1236.93 1845.3C1232.14 1846.73 1226.53 1845.6 1221.93 1849.81C1236.07 1857.81 1251.86 1856.89 1266.5 1861.12C1257.76 1864.61 1248.11 1864.8 1238.71 1870.12L1249.04 1877.12C1240.7 1881.92 1233.21 1887.06 1225.04 1890.68C1216.87 1894.3 1208.12 1896.36 1199.57 1899.12L1204.4 1907.46L1157.88 1973.08C1165.12 1971.73 1170.13 1970.78 1175.14 1969.86C1192.29 1966.73 1209.67 1964.53 1226.53 1960.29C1258.84 1952.16 1291.02 1943.59 1322.53 1932.63C1356.02 1921 1389.03 1908.25 1421.03 1893.13C1446.81 1880.93 1472.16 1867.69 1497.03 1853.62C1517.48 1842.03 1536.95 1828.7 1556.68 1815.85C1566.91 1809.19 1576.87 1802.09 1586.68 1794.85C1596.77 1787.42 1606.68 1779.72 1616.42 1771.85C1624.88 1765.07 1633.11 1758.01 1641.31 1750.92C1647.54 1745.54 1653.58 1739.92 1659.68 1734.4C1671.68 1723.54 1683.88 1712.95 1695.47 1701.69C1705.99 1691.48 1715.85 1680.59 1725.9 1669.9C1732.68 1662.7 1739.35 1655.41 1745.9 1648.04C1750.01 1643.46 1754.05 1638.8 1757.9 1634.04C1763.71 1626.75 1769.37 1619.35 1775 1611.92C1785.55 1598 1796.42 1584.31 1806.42 1570.01C1817.25 1554.53 1827.71 1538.75 1837.5 1522.59C1851.05 1500.21 1864.59 1477.77 1876.68 1454.59C1887.83 1433.22 1897.4 1410.99 1907.01 1388.85C1914.4 1371.85 1921.01 1354.48 1927.54 1337.11C1936.56 1312.92 1944.26 1288.27 1950.63 1263.25C1954.9 1246.69 1959.42 1230.17 1962.93 1213.44C1966.57 1196.09 1969.26 1178.54 1972.09 1161.03C1974.09 1148.67 1975.73 1136.26 1977.3 1123.84C1978.19 1116.84 1978.59 1109.84 1979.22 1102.84C1980.37 1090.02 1981.74 1077.21 1982.63 1064.37C1983.5 1052.05 1983.93 1039.69 1984.41 1027.37C1984.47 1025.67 1983.68 1023.93 1982.84 1020.27C1980.39 1025.27 1978.63 1028.27 1977.42 1031.46C1971.49 1047.01 1959.72 1057.75 1943.24 1056.03C1936.83 1055.37 1930.43 1054.66 1924.01 1054.3C1907.3 1053.39 1890.65 1057.08 1875.89 1064.97C1872.55 1066.72 1868.6 1068.97 1868.89 1073.25C1869.22 1078.06 1873.96 1079.19 1877.66 1080.86C1878.16 1081.09 1878.84 1080.86 1879.42 1081C1889.17 1083 1898.93 1084.55 1908.95 1084.67C1915.39 1084.73 1921.8 1085.47 1928.08 1086.87C1931.57 1087.66 1936.33 1088 1937.68 1093.63C1932.97 1097.49 1928.4 1101.63 1923.4 1105.21C1917.49 1109.4 1910.97 1112.73 1905.16 1117.04C1899.35 1121.35 1894.16 1126.77 1892.58 1134.51C1891.67 1138.83 1892.58 1141.77 1896.52 1143.71C1899.17 1144.89 1901.87 1145.94 1904.63 1146.84C1911.55 1149.37 1913.21 1152.84 1910.18 1159.69C1908.36 1163.66 1906.29 1167.5 1903.97 1171.19C1898.97 1179.38 1893.65 1187.38 1888.73 1195.61C1876.84 1215.54 1862.44 1233.25 1842.92 1246.14C1831.01 1254 1818.23 1260.56 1804.18 1263.59C1792.92 1266.02 1781.4 1267.25 1769.73 1269.05C1775.07 1282.82 1784.25 1294.76 1792.73 1307.13C1799.82 1317.42 1806.79 1327.84 1813.07 1338.63C1818.01 1347.13 1818.55 1356.2 1813.64 1365.37C1811.19 1369.93 1809.98 1375.14 1807.96 1379.95C1803.96 1389.31 1799.96 1398.64 1795.74 1407.88C1795.13 1409.21 1793.22 1409.88 1790.58 1411.96C1789.1 1402.42 1787.77 1394.72 1786.75 1386.96C1785.91 1380.58 1785.61 1374.12 1784.75 1367.75C1784.16 1363.46 1783.62 1358.97 1781.93 1355.06C1778.35 1346.77 1774.29 1338.66 1769.93 1330.73C1761.57 1315.41 1752.72 1300.35 1744.42 1285C1740.97 1278.63 1738.73 1271.73 1741.56 1264.08C1734.51 1261.69 1727.99 1259.42 1721.43 1257.27C1701.33 1250.68 1687.43 1237.11 1679.17 1218.09C1674.72 1207.79 1672.17 1196.65 1669.17 1185.76C1666.17 1174.7 1663.79 1163.47 1660.73 1150.6C1656.42 1157.97 1652.57 1163.68 1649.61 1169.82C1642.42 1184.75 1635.61 1199.89 1628.71 1214.95C1625.58 1221.55 1622.65 1228.18 1613.58 1227.28ZM1069.79 203.11L1040.91 167.31C1043.91 163.84 1048.5 166.25 1052.33 165.31C1065 162.143 1077.61 158.877 1090.18 155.51C1096.6 153.8 1098.68 154.25 1101.45 160.05C1104.7 166.86 1110.05 170.05 1117.24 170.79C1119.37 171.01 1121.49 171.27 1125.09 171.68C1123.02 167.98 1122.09 164.74 1119.91 162.68C1114.58 157.58 1108.73 153.01 1102.78 147.97C1104.21 147.2 1105.38 146.19 1106.7 145.91C1119.21 143.34 1131.76 140.91 1144.28 138.41C1157.01 135.84 1166.57 140.5 1173.73 151.02C1179.48 159.46 1187.55 165.18 1196.6 169.56C1198.46 170.392 1200.49 170.775 1202.52 170.68C1206.71 170.53 1208.41 168.22 1206.98 164.24C1205.61 160.47 1203.52 156.95 1201.77 153.31C1198.46 146.39 1192.77 140.58 1191.88 131.31C1195.96 132.19 1199.59 132.72 1203.07 133.78C1211.38 136.32 1219.62 139.12 1227.9 141.78C1230 142.513 1232.27 142.631 1234.43 142.121C1236.6 141.611 1238.58 140.494 1240.13 138.9C1242.93 136.2 1241.22 132.9 1239.88 129.9C1239.56 129.19 1239.88 128.19 1240.01 126.41C1244.77 125.77 1249.59 124.69 1254.44 124.55C1264.23 124.25 1274.03 124.43 1283.83 124.47C1298.15 124.509 1312.36 126.911 1325.9 131.58C1347.29 138.91 1364.07 151.58 1373.31 172.85C1379.01 185.97 1381.01 199.25 1373.04 212.05C1368.9 218.774 1364.02 225.013 1358.49 230.65C1352.13 237.05 1344.55 242.23 1337.78 248.24C1333.41 252.12 1328.19 255.83 1329.78 263.19C1338.05 264.44 1346.39 265.72 1354.78 266.96C1362.55 268.1 1370.34 269.18 1378.11 270.3C1386.76 271.56 1395.43 272.7 1404.05 274.13C1412.36 275.51 1420.61 277.23 1428.89 278.76C1437.98 280.44 1446.89 283.44 1456.5 282.83C1459.74 272.75 1466.41 265.43 1474.5 260.16C1483.31 254.493 1492.7 249.77 1502.5 246.07C1523.28 238.07 1544.44 232.87 1567.31 236.42C1586.54 239.42 1602.68 247.64 1616.81 260.3C1630.53 272.59 1639.96 288.02 1647.74 304.59C1652.74 315.22 1654.4 326.08 1651.52 338.11C1653.93 339.92 1656.63 341.66 1659 343.77C1668.55 352.29 1679.18 359.31 1687.53 369.55C1699.82 384.62 1704.31 401.79 1706.41 420.23C1707.03 425.74 1707.73 431.23 1708.06 436.79C1708.33 441.23 1709.06 445.99 1707.88 450.08C1705.44 458.31 1706.88 466.39 1706.58 475.39L1754.41 486.61C1748.56 493.29 1743.06 499.61 1737.66 505.77L1703.22 497.6C1700.73 511.36 1698.22 525.21 1695.38 541L1708.52 531.07C1714.76 544.73 1716.87 559.07 1726.7 569.68C1732.96 561.53 1733.14 552.78 1727.7 545.55C1724.44 541.21 1721.52 536.61 1718.02 531.55C1736.53 521.04 1750.12 506.2 1764.14 490.55C1771.22 512.06 1782.47 530.21 1795.66 547.85C1791.75 550.91 1788.66 554.32 1784.8 556.13C1776.11 560.23 1776.55 568.01 1775.94 575.47C1775.73 578.13 1777.09 579.94 1781.18 580.54L1804.74 551.79C1806.74 553.67 1809.29 555.13 1810.43 557.33C1816.88 569.69 1823.31 582.1 1829.08 594.79C1831.94 601.06 1831.81 607.93 1827.55 613.9C1825.18 617.22 1822.72 620.95 1819.39 623.02C1813.18 626.88 1808.83 632.27 1804.85 638.02C1800.74 643.95 1796.57 649.89 1795.29 657.35C1794.41 662.53 1795.29 664 1800.45 664.23C1805.82 664.48 1809.87 661.54 1814.08 658.95C1824.68 652.44 1833.73 643.37 1846.97 639.05C1847.57 641.23 1848.97 643.45 1848.55 645.3C1846.82 653.51 1844.38 661.56 1842.63 669.77C1841.79 673.509 1841.57 677.359 1841.96 681.17C1842.86 688.83 1848.54 692.34 1855.77 690.17C1858.5 689.36 1861.16 688.31 1864.77 687.05C1866.65 690.4 1869.12 693.43 1870.14 696.89C1872.14 703.83 1873.43 711 1875.02 718.07C1877.89 730.88 1880.79 743.7 1880.9 756.89C1880.9 760.89 1879.6 764.94 1879.26 769C1877.93 785.374 1871.46 800.911 1860.78 813.39C1846.61 830.24 1828.08 840.67 1807.27 846.93C1800.06 849.09 1792.27 850.93 1784.66 849.13C1773.41 846.48 1762.37 842.94 1751.22 839.82C1749.82 839.554 1748.41 839.38 1746.99 839.3C1750.55 844.73 1753.47 849.37 1756.58 853.86C1761.24 860.58 1761.88 867.53 1758.65 875.04C1757.51 877.68 1757.07 880.62 1756.3 883.41C1752.06 898.66 1747.81 913.9 1743.3 930.05C1745.89 928.98 1748.79 928.42 1750.88 926.8C1755.97 922.8 1760.8 918.53 1765.5 914.1C1770.89 909 1775.94 903.54 1781.32 898.43C1782.82 897.01 1784.98 896.28 1786.81 895.24C1792.81 904.88 1788.42 914.05 1787.73 922.67C1786.92 932.79 1784.84 942.85 1784.67 953.15C1784.55 960.24 1786.94 966.35 1790.18 972.26C1793.18 977.8 1798.41 979.26 1803.32 975.51C1807.08 972.641 1810.4 969.243 1813.18 965.42C1822.29 952.95 1826.48 938.42 1829.38 923.52C1832.73 906.3 1842.03 894.19 1859.8 890.65C1869.96 888.65 1880.39 887.85 1890.74 886.93C1896.34 886.43 1902.01 886.75 1907.65 886.78C1910.59 886.78 1913.52 886.95 1916.77 887.06C1916.44 889.26 1916.5 890.5 1916.05 891.52C1913.34 897.64 1910.23 903.59 1907.81 909.82C1904.89 917.37 1902.43 925.11 1900 932.82C1899.58 934.16 1899.83 936.88 1900.51 937.15C1902.28 937.819 1904.22 937.861 1906.01 937.27C1907.55 936.71 1908.46 934.6 1910.01 933.81C1920.42 928.37 1923.31 919.07 1923.88 908.26C1924.09 904.05 1925.3 899.9 1925.94 896.39L1977.71 897.91C1976.83 891.79 1976.06 887.02 1975.47 882.24C1974.18 871.8 1973.53 861.24 1971.61 850.94C1968.61 834.68 1964.45 818.64 1961.33 802.41C1956.78 778.73 1950.41 755.54 1943.51 732.49C1937.61 712.77 1930.97 693.3 1923.94 673.93C1914.09 646.611 1902.77 619.842 1890.04 593.74C1878.04 569.16 1865.77 544.6 1852.04 520.96C1838.04 496.84 1822.44 473.65 1806.58 450.63C1789.16 425.36 1769.58 401.89 1750.52 377.96C1740.83 365.911 1730.51 354.382 1719.6 343.42C1696.6 320.04 1673.86 296.36 1648.39 275.56C1634.8 264.47 1621.52 252.99 1607.72 242.17C1593.92 231.35 1580.02 220.83 1565.72 210.85C1550.94 200.55 1535.86 190.7 1520.48 181.3C1501.62 169.76 1482.73 158.17 1463.15 147.96C1440.96 136.39 1418.22 125.81 1395.3 115.75C1375.12 106.9 1354.54 98.88 1333.82 91.37C1315.02 84.56 1295.92 78.46 1276.69 72.93C1258.32 67.64 1239.69 63.25 1221.04 58.93C1206.04 55.45 1190.96 52.27 1175.8 49.7C1161.72 47.33 1147.47 45.95 1133.29 44.12C1119.7 42.38 1106.15 40.12 1092.51 39.02C1077.24 37.81 1061.88 37.69 1046.57 37.09C1044.79 37.0992 1043.01 36.9924 1041.25 36.77C1024.03 33.83 1006.66 35.25 989.39 35.54C972.12 35.83 954.85 37.74 937.57 38.86C927.3 39.53 917.03 40.08 906.76 40.68C906.17 40.68 905.57 40.68 904.98 40.78C893.17 42.52 881.37 44.28 869.56 45.99C860.33 47.33 851.01 48.23 841.86 49.99C828.76 52.49 815.74 55.44 802.74 58.46C785.22 62.52 767.68 66.51 750.3 71.11C735.18 75.11 720.13 79.51 705.3 84.49C690.19 89.57 675.48 95.83 660.44 101.13C639.094 108.724 618.209 117.556 597.89 127.58C578.263 137.187 558.827 147.187 539.58 157.58C523.74 166.16 507.95 174.97 492.88 184.81C458.73 207.1 424.67 229.56 393.96 256.65C378.68 270.12 362.12 282.22 347.56 296.41C322.8 320.52 297.9 344.52 275.65 371.14C263.71 385.42 251.78 399.68 240.08 414.14C225.43 432.28 212.2 451.42 199.26 470.77C192.26 481.17 185.36 491.59 178.92 502.3C169.78 517.5 160.71 532.76 152.37 548.4C143.06 565.85 134.48 583.7 125.8 601.48C121.6 610.09 117.62 618.84 114 627.71C106.78 645.44 99.38 663.12 93 681.14C85.72 701.38 79.0533 721.803 73 742.41C67.81 760.21 63.48 778.28 59.41 796.41C55.72 812.83 52.86 829.41 49.69 845.99C47.89 855.4 46 864.81 44.57 874.28C43.57 881.15 43.18 888.11 42.46 895.72C46.27 896.44 49.32 897.39 52.39 897.51C58.91 897.77 65.46 897.81 71.98 897.51C77.81 897.25 83.64 896.6 89.42 895.83C96.57 894.83 98.72 896.12 100.69 903.33C101.167 905.027 101.38 906.788 101.32 908.55C100.6 921.09 106.62 929.62 117.04 935.73C119.21 937 120.73 939.87 124.85 937.05C124.29 933.98 123.8 930.31 122.92 926.74C120.35 916.21 115.74 906.5 110.83 896.9C109.31 893.9 106.89 890.84 109.74 887.16C128.34 886.16 146.87 886.55 165.03 890.67C176.03 893.16 185.85 898.32 190.32 909.79C192.452 915.166 194.255 920.666 195.72 926.26C199.72 941.8 203.61 957.16 214.72 969.69C218.55 973.98 222.44 976.79 228.03 977.85C241.26 968.63 240.81 955.06 239.92 941.41C239.73 938.53 238.98 935.68 238.51 932.82C237.37 925.93 235.86 919.08 235.23 912.15C234.73 906.58 233.39 900.49 238.74 895.3C241.74 897.65 244.74 899.55 247.22 901.92C253.02 907.46 258.27 913.6 264.37 918.76C269.21 922.87 273.68 928.03 281.52 929.66C280.87 927.02 280.61 925.38 280.06 923.85C278.78 920.3 277.06 916.85 276.06 913.27C272.51 900.72 269.06 888.15 265.83 875.51C264.3 869.44 261.6 863.31 266.68 857.21C269.57 853.73 271.42 849.38 273.68 845.42C274.83 843.42 275.95 841.42 277.74 838.29L261.59 844C253.03 847 244.18 849.32 235.17 849.28C218.77 849.2 203.88 843.2 189.81 835.28C180.65 830.14 173.08 822.96 165.93 815.22C151.53 799.65 145.54 780.88 144.2 760.29C143.2 745.23 146.58 730.66 150.2 716.16C151.88 709.41 152.95 702.5 154.89 695.83C157.58 686.6 158.24 686.47 167 689.17C169.2 689.85 171.57 691.02 173.69 690.71C176.06 690.37 179.23 689.2 180.28 687.37C182.57 683.37 184.28 678.93 183 674C180.74 665.007 178.573 656.007 176.5 647C175.82 644 175.8 641 179.84 639.28C189.311 644.09 198.307 649.782 206.71 656.28C213.18 661.15 220.01 665.84 229.13 663.65C230.237 659.268 229.663 654.63 227.52 650.65C223.78 643.28 219.43 636.44 213.27 630.78C208.68 626.56 204.4 622.02 200.01 617.59C194.37 611.89 193.01 605.48 195.23 597.59C199.78 581.33 209.84 567.91 217.16 553.09C217.45 552.5 218.63 552.35 219.69 551.86C229.11 560.93 234.59 573.7 247.42 581.36C248.13 578.03 249.07 575.64 249.03 573.26C248.835 570.661 248.297 568.098 247.43 565.64C246.36 562.05 245.31 558.82 241.26 556.72C236.78 554.4 233.13 550.49 229.58 547.64C235.96 537.85 242.19 529.37 247.26 520.25C252.44 510.96 256.49 501.04 261.1 491.25C273.87 504.4 285.24 518.08 300.41 527.74C305.41 530.9 305.65 533.83 302.13 538.87C300.643 540.72 299.022 542.458 297.28 544.07C293.19 548.38 293.74 553.76 293.76 559.07C293.76 563.12 293.55 567.2 297.96 570.12C308.62 559.58 308.57 543.82 317.22 531.44L328.1 539.7C325.19 525.15 325.72 510.49 320.84 497.78L286.93 505.57L270.17 486.71C274.65 485.71 277.78 485.11 280.85 484.31C292.06 481.37 303.23 478.31 314.47 475.45C317.68 474.64 319 472.76 318.69 469.74C318.27 465.69 317.22 461.68 317.04 457.63C316.35 442.27 316.48 426.83 319.04 411.72C322.41 391.77 330.54 373.78 346.04 360C352.81 354 359.54 347.72 367.13 342.88C371.49 340.09 372.5 337.25 372.13 332.88C371.43 323.39 372.13 314.02 376.13 305.32C379.107 299.28 382.402 293.402 386 287.71C396.71 269.77 410.72 255.25 429.46 245.47C439.46 240.26 450.01 238.17 461.01 236.09C472.82 233.86 483.76 236.09 494.94 237.63C510.34 239.75 524.36 246.63 538.17 253.17C545.9 256.85 554.25 260.65 559.54 268.22C562.86 272.95 566.11 277.73 570.16 283.62C610.73 275.55 652.16 268.06 693.55 263.68C695.8 257.74 694.19 254 690.24 251.03C686.05 247.9 681.58 245.09 677.69 241.62C667.57 232.62 657.4 223.35 650.97 211.28C647.48 204.71 644.97 197.05 646.63 189.23C650.77 169.82 659.23 153.38 676.74 142.11C695.32 130.11 715.85 125.94 737.22 124.6C749.34 123.84 761.55 124.53 773.72 124.42C778.02 124.42 781.84 125.15 784.72 128.51C782.43 138.81 787.38 144.25 796.91 141.87C801.68 140.68 806.32 138.93 811.02 137.45C817.55 135.45 824.09 133.37 831.94 130.93C831.42 134.47 831.57 136.87 830.68 138.78C828.68 142.98 825.97 146.78 824 151.01C821.16 157.09 815.69 162.51 818.14 170.26C824.05 171.48 828.48 169.89 833.33 166.88C842.5 161.2 849.44 153.45 856.04 145.31C861.38 138.74 868.94 136.74 876.11 137.38C887 138.38 897.69 141.66 908.46 143.93C912.57 144.8 916.7 145.57 921.46 146.5C915.79 156.65 903.39 159.3 900.07 170.79C909.95 170.58 918.66 170.12 922.96 159.49C924.81 154.89 927.96 153.85 932.41 155.16C948.59 159.98 964.72 164.91 981.76 165.72C982.76 165.77 983.63 166.99 985.12 168.08C973.94 178.42 963.89 189.38 956.78 203.64C952.57 202.64 948.53 201.99 944.78 200.57C935.62 197.07 925.78 198.32 919.19 204.73C931.98 209.17 945 209.61 959.62 210.58C952.32 219.4 946.56 227.76 939.38 234.58C932.83 240.85 924.66 245.29 914.74 243.73C902.08 241.73 889.41 239.87 876.74 237.81C870.74 236.81 865.31 237.62 860.29 240.81C860.717 242.714 861.523 244.513 862.661 246.099C863.798 247.685 865.243 249.025 866.91 250.04C876.48 256.59 887.39 259.53 898 263.42C904.62 265.84 911.65 267.51 918.28 273C913.85 274.14 910.6 275.13 907.28 275.78C900.43 277.12 893.28 277.54 886.76 279.78C882.02 281.37 875.76 282.66 875.19 290.38L887.14 298.24C884.41 304.93 878.32 306.56 873.55 309.67C860.43 318.23 847.8 327.74 832.22 331.77C830.68 332.16 829.47 333.84 828.11 334.92L828.68 336.44H836.55C858.81 336.44 881.09 336.08 903.34 336.65C910.34 336.82 914.34 333.75 918.27 329.09C927.07 318.54 935.8 307.91 944.71 297.44C949.85 291.44 955.38 285.69 960.57 279.68C971.11 267.493 981.587 255.267 992 243C997.67 236.31 1003.15 229.46 1008.85 222.79C1010.78 220.743 1012.81 218.804 1014.95 216.98C1015.69 217.291 1016.39 217.694 1017.03 218.18C1027.95 230.82 1038.78 243.54 1049.78 256.11C1055.98 263.2 1062.63 269.91 1068.78 277.04C1078.14 287.9 1087.09 299.11 1096.5 309.93C1103.66 318.15 1111.5 325.76 1118.5 334.08C1121.38 337.49 1124.4 338.19 1128.34 337.96C1132.86 337.69 1137.34 337.66 1141.91 337.57L1203.56 336.44C1191.61 331.34 1179.31 327.85 1169.05 321.21C1158.51 314.37 1146.1 309.65 1137.13 298.49C1139.67 296.797 1142.29 295.244 1145 293.84C1147.46 292.74 1148.73 291.26 1148.78 288.53C1148.84 285.36 1147.39 283.63 1144.41 282.79C1138.57 281.15 1132.81 279.2 1126.93 277.72C1120.62 276.14 1114.2 274.95 1107.16 273.45C1114.04 266.71 1123.16 264.45 1132.16 261.74C1144.34 258.11 1155.79 253.39 1164.26 243.26L1162.45 239.26C1157.45 238.38 1153.02 236.52 1148.92 237.09C1138.61 238.52 1128.48 241.25 1118.22 243.09C1108.22 244.86 1098.32 245.2 1089.69 238.48C1081.06 231.76 1074.56 223.01 1068.2 214.22C1067.62 213.216 1067.14 212.158 1066.76 211.06L1104.01 206.37C1104.01 204.31 1104.33 202.83 1104.01 202.63C1099.01 199.9 1093.74 197.58 1087.91 198.76C1081.41 200 1075 201.8 1069.79 203.11ZM1089.79 993.42C1091.66 997.74 1094.71 996.42 1097.14 996.42C1143.93 996.42 1190.72 996.363 1237.52 996.25C1294.19 996.19 1350.88 996.153 1407.61 996.14C1444.28 996.14 1480.94 996.25 1517.61 996.47C1524.35 996.47 1524.43 996.61 1524.67 990.47C1524.75 988.69 1524.67 986.91 1524.67 985.13C1524.67 925.13 1524.83 865.19 1524.53 805.22C1524.47 793.03 1525.41 780.89 1525.1 768.67C1524.69 752.29 1526.36 735.87 1526.38 719.47C1526.51 604.883 1526.51 490.29 1526.38 375.69C1526.38 373.43 1526 371.18 1525.83 369.22C1525.37 369.001 1524.88 368.83 1524.38 368.71C1486.97 368.65 1449.56 368.613 1412.16 368.6C1410.16 368.668 1408.2 369.205 1406.44 370.17C1392.77 377.364 1377.74 381.599 1362.33 382.6C1352.88 383.31 1346.1 386.83 1342.01 395.3C1339.3 400.92 1335.01 404.14 1329.01 406.13C1319.01 409.46 1308.72 411.07 1298.59 413.52C1293.12 414.84 1290.31 414.3 1287.99 409.95C1289.05 403.71 1291.38 399.95 1298.82 400.2C1304.46 400.4 1310.29 398.54 1315.82 396.93C1319.31 395.93 1323.58 394.46 1325.5 391.78C1330.5 384.78 1334.37 376.99 1338.93 369.13C1337.03 368.829 1335.11 368.642 1333.18 368.57C1313.8 368.85 1294.43 369.25 1275.05 369.51C1250.29 369.83 1225.52 370.16 1200.75 370.29C1175.22 370.42 1149.69 370.29 1124.16 370.29C1120.99 370.29 1117.74 370.94 1115.1 367.98C1111.56 363.98 1107.38 360.56 1103.89 356.53C1093.89 345.03 1084.21 333.3 1074.3 321.74C1066.47 312.61 1058.52 303.59 1050.55 294.58C1050.09 294.06 1048.95 294.14 1047.17 293.69V904.8C1047.08 906.876 1047.1 908.956 1047.23 911.03C1047.57 912.712 1048.04 914.364 1048.64 915.97C1056.31 906.63 1063.26 897.97 1070.39 889.55C1077.75 880.8 1085.39 872.27 1092.71 863.55C1100.58 854.14 1108.36 844.65 1115.95 835.01C1120.26 829.53 1125.04 824.11 1123.81 816.21C1122.74 809.31 1121.69 802.39 1120.81 795.45C1119.93 788.51 1118.41 781.56 1124.87 775.83C1128.05 773 1130.04 768.83 1132.74 765.44C1140.52 755.593 1148.35 745.777 1156.23 735.99C1163.92 726.43 1171.73 716.99 1179.39 707.37C1181.91 704.21 1180.87 701 1176.92 700.01C1173.26 699.08 1169.47 698.74 1165.75 698.01C1159.62 696.88 1153.5 695.69 1146.75 694.4L1233.22 591.23C1235.22 597.16 1237.03 602.37 1238.86 607.57C1239.52 609.46 1239.99 611.57 1241.13 613.12C1245.63 619.33 1248.71 619.43 1253.64 613.51C1257.3 609.1 1260.64 604.51 1264.42 599.65L1335.17 657.87L1320.99 676.31L1477 732.85L1360.36 910.76C1352.44 900.12 1345.09 890.7 1338.24 880.94C1322.37 858.35 1306.78 835.55 1290.94 812.94C1289.83 811.23 1288.39 809.766 1286.69 808.639C1285 807.512 1283.08 806.747 1281.08 806.39C1263.76 802.89 1246.64 798.39 1229.4 794.39C1226.04 793.62 1222.76 794.03 1221.73 798.29C1221.13 800.81 1220.2 803.29 1220.13 805.87C1219.92 813.59 1219.94 821.31 1220.13 829.03C1220.29 832.864 1219.02 836.621 1216.55 839.56C1211.16 846.1 1205.83 852.69 1200.44 859.23C1189.29 872.78 1178.09 886.23 1166.97 899.84C1153.82 915.84 1140.8 932.05 1127.61 948.06C1115.12 963.21 1102.51 978.19 1089.81 993.42H1089.79ZM873.91 1223C874.79 1225 875.11 1226.5 875.91 1227.55C879.21 1231.66 882.69 1235.63 886.08 1239.67C895.08 1250.44 904.01 1261.28 913.08 1271.96C918.43 1278.22 924.13 1284.17 929.56 1290.36C932.28 1293.46 932.15 1295.5 929 1297.76C921.93 1302.83 914.81 1307.85 907.56 1312.67C893.56 1322.01 879.36 1331.19 865.25 1340.44C843.15 1354.94 820.95 1369.31 798.97 1384C786.39 1392.41 773.9 1401 761.87 1410.15C748.62 1420.24 735.87 1430.98 723.07 1441.64C710.92 1451.76 698.96 1462.11 686.95 1472.41C681.83 1476.81 676.79 1481.31 671.75 1485.8C669.09 1488.17 667.75 1486.57 666.39 1484.19C675.15 1474.19 683.87 1464.27 692.56 1454.32C696.62 1449.68 700.65 1445.03 704.62 1440.32C713.47 1429.8 722.15 1419.14 731.12 1408.73C740.33 1398.05 749.93 1387.73 759.12 1377.02C767.68 1367.02 775.75 1356.63 784.32 1346.65C793.71 1335.74 803.47 1325.16 812.95 1314.32C814.82 1312.19 816.14 1309.57 817.68 1307.22L796.5 1286.5C789.28 1293.06 782.03 1299.98 774.41 1306.5C765.3 1314.26 755.88 1321.66 746.57 1329.19C741.57 1333.19 736.5 1337.13 731.57 1341.19C723.22 1348.09 714.79 1354.91 706.66 1362.06C698.53 1369.21 690.45 1376.66 682.66 1384.26C668.6 1397.93 654.79 1411.83 640.8 1425.56C639.7 1426.63 638.03 1427.11 634.8 1428.83C636.26 1425.44 636.65 1423.44 637.8 1422.07C650.34 1406.99 663.39 1392.32 675.51 1376.92C687.38 1361.83 698.4 1346.06 709.67 1330.51C718.723 1318.02 727.677 1305.46 736.53 1292.83C744.53 1281.42 752.33 1269.83 760.43 1258.46C762.23 1255.93 763.06 1253.98 760.79 1251.46C755.09 1245.18 749.44 1238.87 744.01 1232.83C719.81 1256.14 695.82 1279.04 672.07 1302.18C640.96 1332.48 610.07 1362.98 579 1393.35C577.617 1394.5 576.123 1395.5 574.54 1396.35C573.89 1394.35 574.11 1393.35 574.71 1392.53C579.37 1386.53 584.38 1380.79 588.77 1374.61C604.08 1353.03 619.51 1331.52 634.25 1309.61C645.41 1292.98 655.72 1275.77 666.16 1258.61C672.97 1247.44 679.24 1235.95 685.89 1224.68C695.797 1207.9 705.773 1191.16 715.82 1174.46C725.153 1159.04 734.583 1143.69 744.11 1128.41C747.64 1122.74 747.96 1122.68 753.26 1126.41C770.11 1138.36 786.8 1150.52 803.66 1162.41C808.07 1165.54 812 1169.8 817.88 1170.01C822.16 1165.75 820.8 1160.52 821.07 1155.62C821.64 1145.62 819.68 1135.62 822.77 1125.7C824.5 1120.14 825.77 1118.7 831.88 1120.22C839.18 1122 846.31 1124.5 853.52 1126.68L869.37 1131.49C866.19 1121.78 863.49 1113.6 860.84 1105.41C859.42 1100.99 857.63 1096.63 856.84 1092.1C855.79 1086.24 858.78 1083.36 864.7 1084.29C871.29 1085.29 877.82 1086.78 884.34 1088.19C892.52 1089.97 892.93 1089.86 897.68 1082.77C901.89 1076.48 906.14 1070.23 910.26 1063.9C911.65 1061.77 912.69 1059.43 914.01 1056.9C912.977 1056.52 911.909 1056.24 910.82 1056.08C775.753 1056.08 640.683 1056.13 505.61 1056.24C505.38 1056.24 505.14 1056.55 504.93 1056.74C504.72 1056.93 504.51 1057.15 503.93 1057.74V1068.05C503.93 1158.3 503.93 1248.55 503.93 1338.79C503.93 1360.55 503.84 1382.29 505.82 1403.98C506.13 1407.35 507.35 1410.65 508.19 1414.2L513.75 1412.37C518.75 1417.71 519.34 1424.43 519.96 1431.07C520.34 1435.18 520.04 1439.35 520.47 1443.46C521.35 1451.87 522.38 1460.26 523.62 1468.62C524.3 1473.19 524.75 1478.03 526.62 1482.11C530.353 1490.31 534.699 1498.23 539.62 1505.78C549.42 1520.49 560.08 1534.54 573.99 1545.78C583.22 1553.25 591.62 1561.83 601.23 1568.78C629.23 1588.93 660.48 1603.36 692.07 1616.78C716.62 1627.18 741.75 1636.26 766.82 1645.37C798.99 1657.06 831.28 1668.45 862.46 1682.63C882.55 1691.76 902.98 1700.34 922.26 1710.98C943.024 1722.26 962.652 1735.51 980.87 1750.56C981.51 1749.75 982.5 1749.07 982.53 1748.36C982.82 1742.12 983.17 1735.88 983.04 1729.64C982.71 1712.64 981.13 1695.64 981.9 1678.64C983.24 1649.1 982.75 1619.55 982.56 1590.05C982.32 1550.12 982.47 1510.16 982.14 1470.23C981.89 1440.75 982.59 1411.16 982.58 1381.66C982.58 1348.78 982.71 1315.89 982.05 1283C981.34 1248 982.77 1212.91 983.05 1177.86C983.19 1161.13 982.83 1144.41 982.68 1127.31C980.84 1127.49 979.4 1127.2 978.68 1127.78C972.4 1132.55 966.1 1137.31 960.11 1142.43C955.66 1146.24 953.77 1147.88 957.9 1156.82C960.69 1162.87 962.61 1169.34 965.51 1175.32C967.21 1178.82 966.45 1181.32 964.08 1184.06C949.08 1186.06 934.96 1178.55 919.33 1178.45C921.67 1189.35 923.94 1199.45 925.99 1209.64C927.05 1214.89 924.58 1219.57 920.09 1219.73C913.35 1219.97 906.92 1221.85 899.76 1220.57C891.73 1219.14 882.79 1218 873.91 1223ZM1193.41 1292.59C1193.55 1295.1 1193.26 1296.4 1193.72 1297.33C1196.98 1303.85 1200.39 1310.33 1203.72 1316.77C1204.38 1318.04 1205.65 1319.32 1205.62 1320.56C1205.44 1327.56 1205.14 1334.66 1204.49 1341.67C1204.08 1346.09 1203.06 1350.24 1206.83 1354.01C1211.17 1358.36 1215.09 1363.15 1219.1 1367.83C1229.18 1379.62 1239.16 1391.51 1249.28 1403.27C1257.51 1412.84 1265.76 1422.38 1274.21 1431.75C1280.06 1438.25 1282.06 1446.56 1281.9 1454.34C1281.68 1465.44 1276.9 1475.8 1269.72 1484.51C1260.72 1495.42 1250.15 1504.51 1236.93 1509.93C1221.43 1516.31 1206.7 1516.5 1193.55 1502.5C1185.48 1493.9 1177.55 1485.18 1169.42 1476.62C1156.51 1463.01 1143.42 1449.53 1130.57 1435.88C1127.86 1433.01 1125.7 1429.64 1123.1 1426.26C1133.63 1416.4 1143.45 1407.36 1153.97 1399.79L1160.97 1407.63C1166.24 1413.56 1171.48 1419.52 1176.78 1425.43C1186.58 1436.43 1196.17 1447.53 1206.38 1458.08C1209.38 1461.24 1214.05 1463.27 1218.32 1464.82C1225.89 1467.57 1232.32 1462.58 1232.53 1454.57C1232.77 1444.32 1226.74 1436.82 1220.53 1430.06C1205.47 1413.55 1189.66 1397.73 1174.15 1381.64C1171.21 1378.36 1167.44 1375.94 1163.23 1374.64C1154.92 1372.17 1146.9 1368.64 1138.8 1365.52C1137.29 1365 1135.93 1364.09 1134.88 1362.88C1133.83 1361.67 1133.11 1360.21 1132.8 1358.64C1132.04 1354.94 1131.46 1351.19 1130.91 1347.45C1128.85 1333.45 1128.73 1333.76 1115.32 1328.45C1101.12 1322.82 1087.41 1315.74 1077.32 1304.07C1068.99 1294.43 1062.16 1283.46 1054.96 1272.88C1052.96 1269.88 1051.29 1266.75 1047.45 1265.13V1750.08C1048.11 1749.9 1048.76 1749.64 1049.37 1749.32C1066.63 1736.96 1083.79 1724.55 1102.37 1713.99C1119.6 1704.18 1137.46 1695.74 1155.17 1686.99C1160.37 1684.41 1165.69 1681.99 1171.1 1679.93C1188.94 1673.01 1206.84 1666.24 1224.72 1659.45C1252.37 1648.94 1280.1 1638.64 1307.65 1627.89C1327.1 1620.29 1346.53 1612.56 1365.58 1604.01C1387.37 1594.23 1408.34 1582.73 1427.65 1568.58C1438.3 1560.84 1448.5 1552.5 1458.18 1543.58C1472.18 1530.58 1483.61 1515.32 1493.64 1499.11C1498.89 1490.63 1503.15 1481.63 1501.57 1470.95C1501.04 1466.52 1501.04 1462.05 1501.57 1457.62C1502.57 1447.15 1503.9 1436.73 1504.97 1426.27C1505.54 1420.63 1506.57 1415.35 1511.89 1412.34L1520.36 1416.34C1521.23 1413.07 1522.25 1410.18 1522.73 1407.2C1523.11 1404.88 1522.36 1402.35 1522.9 1400.11C1525.37 1389.89 1525.9 1379.91 1521.32 1370.02C1521 1369.06 1520.92 1368.03 1521.09 1367.03C1521.25 1366.03 1521.65 1365.08 1522.25 1364.26C1525.01 1361.5 1524.57 1358.34 1524.58 1355.15C1524.58 1257.82 1524.58 1160.45 1524.58 1063.06C1524.58 1060.82 1524.18 1058.58 1523.93 1056.06H1149.36C1147.58 1055.96 1145.8 1055.98 1144.02 1056.13C1142.41 1056.54 1140.83 1057.09 1139.32 1057.78C1153.32 1064.44 1166.4 1070.78 1179.58 1076.86C1188.02 1080.75 1196.42 1084.92 1205.22 1087.77C1216.63 1091.47 1227.55 1095.93 1237.67 1102.36C1247.93 1108.67 1256.55 1117.34 1262.81 1127.63C1272.81 1144.38 1274.81 1162.84 1273.72 1181.86C1273.17 1191.53 1272.59 1201.21 1271.65 1210.86C1270.91 1218.38 1269.45 1225.86 1268.6 1233.36C1267.68 1241.5 1266.8 1249.68 1266.47 1257.86C1266.25 1263.57 1267.36 1264.3 1273.29 1264.48C1277.44 1264.6 1281.65 1264.12 1285.74 1264.63C1290.07 1265.16 1293.82 1266.22 1295.27 1271.9C1296.86 1277.54 1297.05 1283.47 1295.82 1289.2C1293.57 1298.92 1295.08 1303.05 1303.01 1308.87C1308.4 1312.87 1313.62 1317.06 1318.74 1321.38C1327.48 1328.74 1335.91 1336.49 1344.83 1343.63C1348.61 1346.63 1352.83 1349.09 1358.48 1348.38C1364.13 1347.67 1369.74 1348.2 1375.38 1348.24C1383.93 1348.3 1390.32 1352.02 1394.83 1359.3C1379.35 1375.48 1364.22 1391.3 1349.11 1407.09C1347.11 1409.23 1345.11 1411.42 1343.05 1413.59L1319.29 1439.2C1314.16 1434.46 1309.6 1430.27 1309.16 1423.53C1308.51 1413.53 1307.89 1403.59 1307.4 1393.61C1307.38 1392.04 1307.01 1390.5 1306.32 1389.09C1305.63 1387.69 1304.63 1386.45 1303.4 1385.48C1287.8 1372.1 1272.27 1358.64 1257.01 1344.9C1255.66 1343.59 1254.05 1342.57 1252.29 1341.9C1250.54 1341.22 1248.66 1340.91 1246.78 1340.97C1240.67 1340.97 1234.46 1342.1 1228.45 1339.42C1223.45 1337.18 1221.67 1334.08 1222.65 1328.7C1224.21 1320.1 1226.58 1311.55 1224.74 1301.58L1193.41 1292.59ZM357.58 923.14L357.93 924.88C361.93 927.01 365.87 929.32 369.99 931.24C392.2 941.57 410.43 956.5 423.7 977.24C437.88 999.4 445.7 1023.42 445.19 1049.93C445.06 1056.16 445.48 1062.42 445.08 1068.62C444.825 1074.46 444.004 1080.25 442.63 1085.93C436.87 1107.37 423.52 1122.73 403.82 1132.75C399.73 1134.83 395.69 1137.02 391.77 1139.09C391.87 1140.53 391.66 1141.54 392.03 1142.26C402.62 1162.85 409.2 1184.76 412.81 1207.53C413.51 1211.95 411.92 1216.73 411.5 1221.35C411.24 1224.23 410.5 1226.95 407.11 1226.9C405.658 1226.94 404.227 1226.55 403.003 1225.76C401.778 1224.98 400.816 1223.85 400.24 1222.52C397.61 1216.98 394.11 1211.79 392 1206.07C385.62 1188.82 376.24 1173.07 368.13 1156.65C367.35 1155.09 365.46 1154.07 363.64 1152.38C361 1163.61 358.54 1174.04 356.1 1184.48C353.05 1197.48 349.84 1210.48 343.49 1222.38C336.18 1236.12 326.56 1247.59 311.77 1253.71C305.35 1256.36 298.77 1258.53 292.22 1261C289.07 1262.2 286 1263.58 284.31 1264.29C284.02 1269.17 284.01 1272.49 283.59 1275.76C282.4 1284.99 277.15 1292.56 272.82 1300.41C263.43 1317.49 253.6 1334.33 244.01 1351.3C243.106 1352.8 242.492 1354.45 242.2 1356.17C240.31 1370.34 238.62 1384.53 236.7 1398.7C236.08 1403.29 236.11 1408.25 232.08 1412.28C231.191 1411.24 230.401 1410.12 229.72 1408.94C223.22 1393.73 216.753 1378.5 210.32 1363.25C208.77 1359.78 208.006 1356 208.084 1352.2C208.162 1348.4 209.079 1344.66 210.77 1341.25C217.19 1327.41 226.15 1315.25 234.93 1302.9C242.7 1292.01 251.14 1281.52 255.47 1269.07C244.85 1267.55 233.99 1266.76 223.54 1264.27C213.99 1261.86 204.686 1258.56 195.75 1254.42C185.37 1249.75 176.51 1242.42 167.75 1235.23C162.245 1230.76 157.344 1225.59 153.17 1219.85C143.723 1206.62 134.667 1193.1 126 1179.29C121.25 1171.71 117.74 1163.36 113.72 1155.29C112.14 1152.13 113 1149.8 116.39 1148.57C119.78 1147.34 122.95 1146.31 126.17 1145.03C130.27 1143.41 133.03 1139.37 132.25 1135.87C130.66 1128.87 127.66 1122.62 121.39 1118.44C111.48 1111.84 101.54 1105.29 91.79 1098.44C89.62 1096.92 88.2 1094.32 85.87 1091.56C89.15 1090.03 91.1 1088.61 93.24 1088.21C100.66 1086.8 108.12 1085.47 115.62 1084.61C123.77 1083.68 132 1083.42 140.17 1082.61C143.073 1082.34 145.916 1081.62 148.6 1080.48C152 1078.99 156.69 1077.58 156.29 1073.12C156.05 1070.46 153.17 1067.61 150.79 1065.69C148.41 1063.77 145.2 1062.57 142.2 1061.49C137.83 1059.91 133.29 1058.86 128.9 1057.33C120.43 1054.39 111.51 1052.87 102.9 1054.54C94.29 1056.21 85.9 1055.72 77.38 1055.96C71.4794 1056.15 65.7125 1054.18 61.16 1050.42C53.9918 1044.71 48.7548 1036.93 46.16 1028.14C44.31 1022.04 42.66 1015.88 40.66 1009.82C40.01 1007.82 38.56 1006.11 37.47 1004.26C35.984 1006.92 35.2901 1009.96 35.47 1013C36.01 1033.07 36.53 1053.14 37.27 1073.2C37.61 1082.59 38.44 1091.97 39.06 1101.34C39.06 1101.92 39.28 1102.49 39.36 1103.07C40.43 1110.86 41.61 1118.64 42.53 1126.45C43.32 1133.14 43.44 1139.92 44.53 1146.55C46.53 1158.87 49.11 1171.1 51.42 1183.38C54.52 1199.94 56.7 1216.74 60.88 1233.03C69.45 1266.43 78.8 1299.6 90.32 1332.19C100.77 1362.05 112.712 1391.36 126.1 1420.02C138.38 1446.09 151.72 1471.74 166.01 1496.76C178.69 1518.94 193.01 1540.2 207.21 1561.47C216.41 1575.26 226.42 1588.55 236.53 1601.7C248.09 1616.7 259.78 1631.7 272.14 1646.1C285.03 1661.1 298.29 1675.83 312.29 1689.78C328.61 1706.03 346.1 1721.1 362.73 1737.04C377.15 1750.86 392.94 1762.98 408.35 1775.6C427.08 1790.96 446.89 1804.78 466.83 1818.42C478.34 1826.29 490.5 1833.2 502.18 1840.84C520.743 1852.84 539.959 1863.8 559.74 1873.67C580.52 1884.18 601.74 1893.93 622.74 1903.82C648.26 1915.82 674.79 1925.25 701.47 1934.22C720.14 1940.51 739.02 1946.22 757.96 1951.66C770.5 1955.25 783.26 1958.15 796.02 1960.88C813.62 1964.65 831.28 1968.07 848.97 1971.39C854.31 1972.39 859.8 1972.56 867.14 1973.31L820.71 1907.83L825.58 1899.17C800.33 1891.52 791.43 1887.53 776.25 1876.97C779.25 1875.1 782.11 1873.31 785.83 1870.97C777.74 1863.97 767.23 1865.17 757.77 1861.19C759.59 1860.25 760.27 1859.67 761.03 1859.54C771.92 1857.66 782.85 1856.03 793.69 1853.89C796.83 1853.26 800.69 1852.37 801.44 1846.89C794.44 1846.38 787.85 1845.65 781.21 1845.51C777.77 1845.44 774.32 1846.63 770.85 1846.88C760.5 1847.61 750.53 1844.42 740.39 1843.63C723.73 1842.32 708.53 1837.98 695.68 1828.15C689.9 1832.74 684.77 1837.73 678.81 1841.36C667.27 1848.36 653.81 1849.03 640.89 1850.27C622.75 1852.01 604.95 1848.57 587.62 1843.2C570.974 1838.01 555.719 1829.13 543 1817.2C535.9 1810.61 529.72 1803.02 523.3 1795.73C522.3 1794.61 522.24 1792.73 521.75 1791.12L535.24 1786.98C528.79 1773.14 513.88 1772.35 504.33 1764.35C508.89 1760.57 514.07 1760.78 518.83 1761.89C531.07 1764.75 543.13 1763 555.18 1761.28C557.99 1760.87 560.51 1758.49 564.39 1756.34C560.93 1754.05 559.02 1752.04 556.71 1751.34C546.94 1748.54 537.18 1745.69 526.84 1745.27C521.333 1745 515.888 1743.99 510.65 1742.27C500.65 1739.05 495.32 1730.91 491.65 1721.74C489.45 1716.2 487.24 1710.86 482.45 1707.1C474.88 1701.17 466.96 1695.65 459.63 1689.45C446.42 1678.27 433.04 1667.23 420.63 1655.18C409.05 1643.92 398.32 1631.71 387.88 1619.37C380.405 1610.43 373.485 1601.03 367.16 1591.24C361.16 1582.12 356.26 1572.33 350.87 1562.86C345.04 1564.06 338.87 1565.67 332.54 1566.56C320.69 1568.22 308.81 1569.72 296.9 1570.73C292.9 1571.07 288.9 1569.47 284.8 1569.15C276.51 1568.48 269.14 1565.71 261.9 1561.54C251.17 1555.36 242.9 1546.74 236.01 1536.88C231.25 1530.06 227.61 1522.37 224.01 1514.8C218.01 1502.07 217.07 1488.48 216.94 1474.54C216.817 1458.13 220.742 1441.93 228.37 1427.4C235.12 1414.21 242.88 1401.52 250.61 1388.87C253.43 1384.25 257.45 1380.37 261.19 1375.87C265.19 1379.01 268.45 1381.28 271.37 1383.87C273.8 1386.06 275.72 1385.39 278.52 1384.36C283.95 1382.36 285.08 1377.36 286.2 1373.28C288.38 1365.48 288.65 1357.18 290.27 1349.21C291.27 1344.5 290.19 1338.64 295.95 1335.55C303.03 1341.67 307.22 1349.4 311.46 1357.04C316.09 1365.41 320.95 1373.52 330.13 1379.04C331.76 1376.68 334.29 1374.67 334.42 1372.5C334.802 1366.33 334.662 1360.14 334 1354C332.86 1343.45 328.13 1334 323.9 1324.46C320.56 1316.91 319.39 1309.46 324.07 1302.12C326.07 1298.93 328.02 1295.55 330.61 1292.87C339.79 1283.37 349.19 1274.08 358.61 1264.87C359.88 1263.64 361.96 1263.24 363.61 1262.46C369.47 1275.12 368.23 1289.46 376.73 1300.61C382.82 1294.97 385.62 1284.1 382.64 1278.31C379.86 1272.91 376.64 1267.71 373.17 1261.51C392.61 1249.61 408.49 1234.1 422.68 1215.8C425.68 1225.06 427.97 1233.15 431 1240.94C433.95 1248.51 437.05 1256.14 441.21 1263.08C448.21 1274.7 448.54 1274.48 437.1 1282.36C436.86 1282.53 436.7 1282.84 436.45 1282.96C425.74 1287.76 426.76 1297.55 425.28 1307.59C428.03 1306.88 430.07 1306.97 431.08 1306C435.33 1301.91 439.46 1297.66 443.28 1293.17C447.75 1287.92 451.86 1282.35 456.59 1276.35C457.648 1277.87 458.597 1279.47 459.43 1281.12C464.82 1294.85 471.92 1307.9 474.37 1322.79C475.81 1331.52 474.31 1339.01 468.42 1345.33C461.54 1352.7 454 1359.47 447.15 1366.87C443.41 1370.87 440.38 1375.61 437.26 1380.17C434.68 1383.92 432.45 1388.6 435.45 1392.44C438.76 1396.69 444.35 1395.32 448.6 1393.61C455.84 1390.71 462.6 1386.69 469.74 1383.44C477.2 1380.03 479.14 1374.44 479.13 1366.44C478.95 1122.69 478.893 878.95 478.96 635.21C478.96 623.88 478.58 612.54 478.58 601.21C478.58 581.06 478.97 560.9 478.75 540.75C478.46 513.98 477.45 487.22 477.27 460.46C477 421.86 477.19 383.27 477.22 344.67C477.22 342.11 477.52 339.55 477.73 336.19H568.3L552.59 311.5C551.03 312.13 549.74 312.99 548.36 313.14C536.74 314.45 525.12 315.92 513.46 316.77C500.66 317.71 487.81 317.88 474.99 318.7C467.53 319.17 459.6 318.87 452.75 321.33C434.37 327.95 417.75 338.39 400.66 347.71C395.24 350.65 394.52 354.54 395.47 359.28C398.66 375.21 402.76 390.97 405.47 406.98C408.07 422.51 406.17 437.59 394.94 449.86C382.73 463.2 370.1 476.16 352.14 483.41C353.14 491.41 353.72 499.29 355.08 507C357.109 517.71 356.795 528.733 354.16 539.31C351.99 547.72 347.82 549.45 339.06 546.94C338.4 546.75 337.51 547.37 335.39 548.03C338.77 551.47 341.66 554.29 344.39 557.23C352.55 565.95 358.18 577.74 349.88 591.3C345.78 598.01 341.54 604.77 338.64 612.02C335.882 619.028 334.054 626.367 333.2 633.85C332.55 639.5 337.52 642.33 342.5 639.61C347.83 636.71 353.41 633.68 357.63 629.46C363.506 623.343 368.858 616.743 373.63 609.73C378.81 602.46 383.92 595.27 391.18 589.73C395.18 596.27 395 596.28 395.34 601.61C395.84 609.51 394.48 617.35 396.79 625.34C400.79 639.34 405.93 641.34 416.25 631.72C420.85 627.46 422.03 627.44 426.32 632.09C427.645 633.618 428.786 635.296 429.72 637.09C434.1 644.98 437.94 653.21 442.83 660.77C451.43 674.06 455.45 688.91 457.4 704.17C459.08 717.31 457.03 730.41 452.89 743.17C445.04 767.34 428.67 785.17 409.89 800.98C406.46 803.87 404.89 806.81 406.35 809.67C408.28 813.56 406.58 816.56 405.71 819.67C404.342 824.116 402.54 828.417 400.33 832.51C392.63 847.51 384.68 862.51 376.99 877.51C375.607 880.376 374.573 883.398 373.91 886.51C371.99 894.7 370.42 902.97 368.51 911.16C367.13 917 365.48 922.69 357.58 923.14ZM981.21 612C981.83 608.93 983 605.64 983.06 602.32C983.23 593.6 982.9 584.86 982.8 576.13C982.58 557.28 982.24 538.44 982.19 519.6C982.12 497.7 982.34 475.81 982.37 453.91C982.37 429.583 982.37 405.25 982.37 380.91C982.37 367.24 982.28 353.57 982.37 339.91C982.46 326.25 982.94 312.71 983.04 299.11C983.04 297.39 981.85 295.66 980.92 293.11C975.49 299.21 970.72 304.37 966.17 309.72C956.68 320.85 947.37 332.14 937.86 343.25C932.7 349.25 926.24 354.47 922.27 361.17C918.3 367.87 913.47 368.49 906.93 368.48C836.263 368.34 765.623 368.317 695.01 368.41C691.95 368.41 688.89 368.62 684.44 368.78C690.15 377.05 695.86 383.34 698.22 391.64C699.32 395.52 703.3 396.21 706.72 396.85C711.3 397.71 716 397.91 720.56 398.85C725.56 399.85 730.46 401.4 735.16 402.65V412.43C733.02 413.16 730.95 414.67 729.31 414.3C717.75 411.67 706.23 408.77 694.78 405.68C692.121 405.047 689.657 403.773 687.604 401.969C685.551 400.165 683.97 397.885 683 395.33C680.17 388.33 674.56 384.23 667.21 382.85C662.35 381.93 657.36 381.71 652.47 380.91C641.56 379.13 630.58 377.02 620.95 371.54C617.473 369.466 613.487 368.403 609.44 368.47C577.093 368.47 544.74 368.47 512.38 368.47C509.8 368.47 507.22 368.69 504.47 368.82V997.3H545.75C565.63 997.3 585.52 997.3 605.41 997.3C611.79 997.3 612.47 996.48 612.63 990.12C612.74 985.55 612.63 980.98 612.63 976.03C611.3 975.337 609.927 974.729 608.52 974.21C600.8 971.7 593.03 969.34 585.31 966.82C577.05 964.11 575.81 961.82 577.06 953.3C577.82 948.11 578.21 942.86 578.79 937.64C579.4 932.12 579.79 926.56 580.79 921.13C581.112 920.234 581.643 919.427 582.338 918.777C583.034 918.127 583.874 917.651 584.79 917.39C593.69 915.88 602.65 914.67 611.63 913.65C620.61 912.63 621.13 912.3 623.37 902.87C623.923 901.18 624.591 899.529 625.37 897.93L591.15 875.18C596.32 860.81 599.95 845.92 606.93 832.57L646.18 836.38C648.35 831.83 650.77 826.93 653.03 821.96C654.22 819.36 652.84 817.63 650.88 815.88C642.58 808.46 634.4 800.88 626.12 793.32L648.28 753.73C658.81 756.63 668.85 759.26 678.8 762.18C687.65 764.78 687.61 764.92 693.57 756.88C698.69 749.98 698.57 750.08 693.95 742.88C688.54 734.39 683.46 725.7 678.49 717.51C686.79 708.31 694.58 699.66 702.39 691.03C708.2 684.6 708.3 684.45 716.39 688.74C724.48 693.03 732.19 697.38 739.89 702.04C743.06 703.95 745.22 703.54 747.66 701.04C749.88 698.77 752.41 696.82 755.71 693.93L744.66 654.93L783.66 631.93C788.84 637.59 793.43 642.93 798.36 647.93C809.91 659.68 809.98 659.62 823.53 649.93C823.75 649.77 823.84 649.42 823.72 649.62C823.35 645.18 823.14 641.16 822.64 637.19C821.74 629.97 820.86 622.73 819.64 615.57C818.64 610.1 818.87 609.27 824.22 607.19C836.36 602.47 848.51 597.77 861.22 592.84C869.22 604.17 877.22 615.51 885.01 626.53L899.38 622.44C901.38 609.1 903.31 596.17 905.38 582.36L950.27 577.8C952.71 584.3 955.32 590.73 957.55 597.3C963.55 614.52 959.7 613.05 981.21 612ZM993.81 1800C992.71 1798.66 991.52 1797.4 990.25 1796.23C976.25 1785.23 962.76 1773.48 947.98 1763.65C932.78 1753.53 916.57 1744.82 900.33 1736.43C876.57 1724.16 852.1 1713.31 827.05 1703.94C804.78 1695.61 782.61 1687.01 760.38 1678.6C742.21 1671.72 723.91 1665.2 705.84 1658.06C687.5 1650.81 669.07 1643.64 651.24 1635.26C633.61 1626.98 616.44 1617.63 599.49 1608.01C580.492 1597.06 562.934 1583.79 547.22 1568.5C533.35 1555.18 521.99 1539.68 511.28 1522.08C494.55 1554.25 467.93 1573.13 435.05 1583.55C447.75 1599.71 460.68 1615.19 472.47 1631.55C479.26 1640.95 487.76 1647.47 497.75 1652.64C506.23 1657.02 514.67 1661.47 523.13 1665.89C520.219 1666.78 517.111 1666.78 514.2 1665.89C503.89 1662.94 493.78 1659.1 483.32 1656.96C475.32 1655.33 469.38 1651.18 464.03 1645.75C459.09 1640.75 454.46 1635.39 449.97 1629.96C439.74 1617.58 429.81 1604.96 419.46 1592.67C416.92 1589.67 413.46 1586.17 409.97 1585.45C398.76 1583.17 387.97 1580.17 377.92 1574.61C376.36 1573.75 374.46 1573.51 372.17 1572.82C382.4 1601.82 449.77 1669.25 488.36 1697.12C487.19 1686.55 482.27 1678.39 476.81 1669.73C478.81 1669.39 480.25 1668.73 481.46 1669.02C496.31 1672.64 511.3 1674.75 526.65 1674.35C531.19 1674.22 533.28 1676.73 534.27 1681.21C534.82 1683.66 535.27 1686.78 536.92 1688.21C540.52 1691.29 544.92 1693.48 550.03 1696.73C550.78 1686.05 542.32 1680.81 540.33 1672.55C544.33 1672.55 548.09 1671.8 551.39 1672.69C560.7 1675.2 570.39 1675.37 579.78 1677.29C590.78 1679.52 596.94 1684.74 600.19 1694.84C602.99 1703.55 609.31 1709.84 615.96 1715.57C617.36 1716.79 620.54 1716.97 622.41 1716.29C623.73 1715.81 624.76 1713.12 624.96 1711.29C625.22 1709.05 624.59 1706.67 624.15 1704.38C623.07 1698.76 620.2 1693.38 622.15 1687.44C625.51 1686 627.7 1687.24 630.37 1689.06C637.526 1694.02 644.944 1698.6 652.59 1702.77C659.19 1706.32 660.75 1705.32 664.59 1698.86C665.134 1698.06 665.835 1697.37 666.652 1696.84C667.468 1696.32 668.383 1695.96 669.34 1695.8C671.961 1695.59 674.597 1695.93 677.08 1696.8C687.86 1700.24 698.5 1704.1 709.3 1707.46C731.65 1714.46 750.3 1726.52 763.57 1746.12C764.31 1747.21 765.25 1748.54 766.38 1748.93C770.44 1750.49 774.629 1751.69 778.9 1752.52C792.9 1754.73 804.01 1761.52 813.1 1772.19C818.18 1778.19 821.9 1783.98 816.03 1791.97C809.4 1790.49 804.28 1786.37 799.35 1781.74C794.22 1776.92 788.86 1772.32 783.56 1767.68C778.56 1763.33 774.9 1757.48 767.48 1753.75C767.93 1757.75 768.18 1760.45 768.56 1763.18C770.38 1776.18 766.45 1786.59 754.99 1793.63C751.52 1795.76 747.99 1797.74 744.49 1799.87C743.19 1800.67 742.03 1801.72 740.81 1802.65L741.35 1804.45L765.35 1802.36C769.19 1810.3 775.27 1812.36 784.18 1810.87L770.51 1799.24C776.59 1798.44 781.32 1797.49 786.09 1797.24C792.9 1796.93 799.76 1797.51 806.56 1797.06C813.2 1796.61 818.02 1799.4 821.82 1804.26C826.99 1810.87 833.82 1814.38 842.1 1816.88C847.39 1808.57 837.29 1803.74 838.27 1796.25C849.77 1797.17 860 1805.38 871.95 1801.87L876.12 1794.7C889.06 1796.11 901.83 1797.7 914.64 1798.83C927.095 1800.01 939.274 1803.21 950.7 1808.31C953.101 1809.16 955.698 1809.28 958.17 1808.67C969.74 1806 981.25 1803.08 993.81 1800V1800ZM1361.74 1704.19C1364.14 1704.69 1366.62 1704.7 1369.03 1704.22C1371.43 1703.74 1373.71 1702.77 1375.74 1701.39C1382.24 1697.02 1389.01 1693.02 1395.39 1688.48C1398.2 1686.48 1400.52 1686.14 1403.48 1687.8C1403.04 1697.52 1397.92 1706.6 1400.61 1716.36C1407.07 1716.57 1408.61 1716.05 1412.61 1712.36C1418.63 1706.73 1423.12 1699.67 1425.68 1691.84C1428.68 1683.01 1435.09 1679.73 1443 1677.78C1447.78 1676.56 1452.63 1675.59 1457.51 1674.88C1466.51 1673.69 1475.51 1672.88 1485.05 1671.78C1482.64 1680.71 1474.23 1685.63 1474.05 1694.87C1488.86 1689.59 1489.97 1689.3 1491.42 1675.95L1547.12 1669.42C1543.05 1678.33 1539.01 1687.16 1534.31 1697.42C1537.51 1696.06 1539.31 1695.74 1540.45 1694.74C1553.83 1683.31 1567.55 1672.24 1580.33 1660.17C1602.83 1638.93 1624.24 1616.63 1642.22 1591.3C1646.22 1585.65 1650.22 1579.93 1652.45 1571.91C1641.22 1577.91 1630.98 1582.83 1619.45 1583.91C1613.38 1584.49 1609.26 1587.91 1605.61 1592.29C1599.61 1599.45 1593.63 1606.65 1587.67 1613.9C1582.1 1620.68 1576.34 1627.32 1571.13 1634.37C1563.27 1645 1553.65 1653.06 1540.91 1657.08C1534.27 1659.17 1527.69 1661.46 1520.98 1663.31C1514.9 1664.98 1508.68 1666.17 1502.52 1667.57C1502.3 1666.96 1502.07 1666.35 1501.85 1665.73C1509.76 1661.51 1517.39 1656.61 1525.64 1653.21C1539.28 1647.58 1548.54 1637.54 1556.82 1625.92C1563.41 1616.66 1570.66 1607.86 1577.66 1598.92C1581.39 1594.14 1585.22 1589.45 1589.66 1583.92C1574.33 1577.35 1559.57 1571.47 1546.6 1561.85C1533.63 1552.23 1524.54 1539.36 1514.96 1526.16C1513.53 1529.09 1512.88 1531.09 1511.7 1532.71C1497.51 1552.11 1481.95 1570.28 1462.98 1585.22C1444.03 1600.2 1423.59 1613.2 1401.98 1624C1381.71 1634.09 1360.79 1642.93 1339.8 1651.47C1318.33 1660.22 1296.44 1667.94 1274.72 1676.09C1258.43 1682.2 1242.01 1687.99 1225.85 1694.44C1205.1 1702.73 1184.29 1710.96 1163.99 1720.28C1142.58 1730.12 1121.44 1740.64 1100.76 1751.93C1083.42 1761.39 1067.45 1773.2 1051.65 1785.08C1045.77 1789.5 1040.53 1794.79 1034.76 1799.9C1036.38 1801.11 1037.01 1801.9 1037.76 1802.1C1046.25 1804.05 1054.82 1805.66 1063.24 1807.86C1068.5 1809.24 1072.89 1809.21 1078.24 1806.79C1093.48 1800 1110.04 1796.68 1126.72 1797.07C1129.39 1797.19 1132.06 1797.13 1134.72 1796.9C1139.59 1796.32 1144.42 1795.46 1148.98 1794.77C1152.32 1802.44 1152.32 1802.59 1159.63 1802.36C1162.52 1802.14 1165.37 1801.6 1168.14 1800.76C1173.93 1799.23 1179.68 1797.53 1185.8 1795.76C1186.48 1799.12 1186.09 1801.5 1183.8 1804.13C1180.88 1807.54 1179.56 1811.8 1181.86 1816.67C1183.31 1816.51 1184.73 1816.21 1186.12 1815.78C1192.93 1812.89 1199.12 1809.14 1204 1803.35C1206.67 1800.17 1209.83 1797.05 1214.26 1797.16C1227.2 1797.49 1240.35 1795.31 1253.34 1799.58L1241 1810.87C1247.21 1811.99 1252.93 1811.61 1255.28 1807.99C1260.06 1800.61 1265.83 1801.99 1272.28 1803.65C1276.28 1804.65 1280.14 1804.65 1285.89 1802.84C1280.43 1799.84 1276.37 1797.84 1272.56 1795.48C1259.26 1787.15 1252.56 1775.7 1256.96 1759.08C1257.33 1757.69 1256.82 1756.08 1256.61 1752.84C1240.93 1767.72 1227.67 1783.14 1209.01 1792.6C1207.21 1788.96 1205.84 1786.2 1204.57 1783.65C1215.99 1759.65 1237.87 1752.92 1258.94 1748.77C1265.03 1741.23 1269.23 1734.27 1275.08 1729.23C1281.61 1723.62 1289.44 1719.4 1297.08 1715.23C1312.72 1706.62 1330.23 1703 1346.89 1697.12C1350.64 1695.63 1354.75 1695.34 1358.67 1696.3C1359.69 1699 1360.64 1701.4 1361.74 1704.19ZM1013.42 224.42L1011.63 225.35C1011.63 228.6 1011.63 231.86 1011.63 235.11C1012.69 353.27 1010.85 471.43 1012.99 589.61C1014.99 698.52 1013.41 807.49 1013.41 916.43V926.21C1026.41 927.21 1030.14 940.02 1040.15 945.15V934.45C1040.15 712.397 1040.18 490.35 1040.25 268.31C1040.25 260.39 1040.5 252.9 1032.84 247.97C1032.16 247.53 1031.84 246.54 1031.3 245.87C1025.35 238.71 1019.39 231.56 1013.42 224.42ZM1039.81 1786.49C1039.81 1558.84 1039.81 1331.24 1039.81 1103.7C1039.79 1103.4 1039.66 1103.12 1039.44 1102.92C1039.24 1102.75 1038.9 1102.75 1038.09 1102.54C1032.44 1107.54 1026.77 1113 1020.61 1117.84C1014.83 1122.38 1013.21 1127.75 1013.27 1135.05C1014.27 1261.93 1012.55 1388.82 1014.89 1515.72C1016.56 1605.89 1015.22 1696.12 1015.22 1786.33V1796.81C1017.73 1797.01 1019.54 1796.62 1020.58 1797.33C1025.28 1800.54 1028.12 1797.95 1031.15 1794.67C1033.68 1791.9 1036.61 1789.48 1039.81 1786.49ZM860.3 739.7C845.84 749.29 831.64 757.85 818.45 767.7C807.371 775.93 797.026 785.105 787.53 795.12C777.19 806.12 768.47 818.68 758.87 830.42C756.87 832.86 756.22 834.89 758.18 837.48C759.76 839.56 761.18 841.78 762.86 843.75C774.58 857.27 789.51 866.47 805.25 874.3C820.99 882.13 837.32 889.43 853.44 896.82C867.13 903.09 880.91 909.16 895.01 915.49C905.8 903.72 917.28 892.91 931.29 885.84C931.29 884.4 931.58 883.39 931.29 882.65C926.65 872 922.03 861.35 917.19 850.79C908.94 832.79 900.48 814.96 892.19 796.99C888.32 788.56 884.94 779.9 880.97 771.51C875.645 759.968 868.684 749.254 860.3 739.7V739.7ZM672.54 997.31C673.54 991.83 674.93 987.52 674.86 983.23C674.58 965.84 676.86 948.84 680.12 931.76C685.012 905.788 693.201 880.547 704.49 856.65C709.49 846.15 715.64 836.23 721.35 826.1C731.87 807.44 745.16 790.79 759.43 774.97C771.177 762.142 784.056 750.398 797.91 739.88C813.31 727.929 829.765 717.403 847.07 708.43C865.96 698.71 885.62 690.74 906.26 685.61C920.05 682.18 933.97 679.15 947.98 676.86C957.21 675.35 966.71 675.44 976.09 674.86C982.09 674.52 982.93 673.96 983.09 668.34C983.25 663.59 983.28 658.83 983.09 654.09C982.87 648.96 980.56 647.26 975.59 648.27C973.32 648.73 971.08 649.81 968.83 649.8C953.53 649.71 938.6 652.29 923.61 655.06C895.629 660.376 868.491 669.437 842.93 682C824.86 690.74 807.33 700.63 791.39 712.9C780.03 721.64 768.87 730.73 758.39 740.48C749.39 748.89 741.09 758.22 732.97 767.57C725.71 775.93 718.75 784.62 712.26 793.57C694.41 818.25 680.98 845.39 670.06 873.68C661.17 896.75 656.19 920.99 651.94 945.3C650.64 952.78 650.63 960.48 650.03 968.08C649.43 975.68 648.74 983.26 648.3 990.86C648.01 995.8 649.3 997.1 654.48 997.26C660.36 997.44 666.25 997.31 672.54 997.31ZM709.61 997.02H864.61C867.4 987.34 869.98 977.87 872.88 968.49C877.63 953.14 875.62 948.72 860.78 943.84C849.5 940.13 838.11 936.84 826.84 933.08C815.02 929.18 803.31 924.94 791.52 920.98C779.14 916.83 766.68 913.06 755.52 905.98C750.91 903.06 745.42 901.57 740.52 899.15C731.88 894.92 724.46 899.47 719.52 906.35C710.13 919.35 708 934.35 707.41 949.42C706.68 964.94 705.37 980.7 709.61 997V997.02ZM1524.67 1013.33C1387.73 1013.33 1251.83 1013.33 1115.92 1013.33C1114.75 1013.39 1113.59 1013.54 1112.44 1013.79C1112.31 1013.83 1112.19 1013.9 1112.09 1013.98C1111.98 1014.07 1111.9 1014.18 1111.84 1014.3C1111.69 1014.74 1111.59 1015.19 1111.53 1015.65L1118.96 1024.12C1114.62 1028.68 1110.6 1032.92 1105.96 1037.84H1524.28C1524.49 1036.6 1524.63 1035.34 1524.7 1034.08C1524.69 1027.59 1524.67 1021.08 1524.67 1013.33ZM504 1037.73H919.88L920.81 1036.25L907.59 1025.5C912.38 1021.5 917.4 1019.68 919.37 1013.32H515.76C513.68 1013.32 511.6 1013.32 509.53 1013.32C505.93 1013.32 503.96 1014.9 503.97 1018.63C504 1024.82 504 1031 504 1037.73ZM1327.59 279.73C1326.77 281.83 1325.99 283.96 1325.13 286.06C1322.13 293.54 1318.61 300.82 1312.61 306.43C1302.52 315.679 1290.69 322.834 1277.81 327.48C1270.24 330.33 1262.57 332.89 1254.95 335.58L1255.04 336.43H1270.26C1315.02 336.43 1359.78 336.41 1404.53 336.37C1407.41 336.482 1410.27 335.963 1412.93 334.85C1418.46 332.273 1423.72 329.169 1428.65 325.58C1435.08 320.64 1441.65 315.58 1444.76 306.96C1433.1 304.24 1421.76 301.83 1410.64 298.96C1390.18 293.68 1369.64 288.59 1349.45 282.44C1342.2 280.24 1335.35 279 1327.56 279.74L1327.59 279.73ZM762 335.75L762.06 333.94C756.4 331.79 750.48 330.15 745.15 327.37C735.38 322.28 725.34 317.37 716.56 310.82C706.3 303.19 700.12 292.14 697.14 279.75C687.08 278.3 678.45 282.07 669.43 284.53C641.75 292.07 613.89 298.95 586.11 306.16C583.885 306.913 581.713 307.815 579.61 308.86C587.85 319.57 597.46 326.63 608.04 332.42C611.49 334.31 614.48 336.67 619.22 336.64C664.63 336.31 710.05 336.45 755.46 336.41C757.65 336.304 759.833 336.084 762 335.75V335.75ZM974.74 872.45C980.98 872.9 982.3 869.4 982.99 865.45C983.195 863.684 983.246 861.904 983.14 860.13C983.14 838.2 983.22 816.27 983.14 794.34C983.07 781.8 982.65 769.26 982.45 756.72C982.22 742.86 982.16 729 981.86 715.14C981.73 709.04 980.43 708.02 975.58 708.84C971.58 709.51 967.58 709.93 963.52 710.48C954.88 711.68 946.22 712.73 937.63 714.23C936.713 714.513 935.868 714.989 935.152 715.628C934.436 716.266 933.865 717.051 933.48 717.93C932.261 720.884 931.623 724.045 931.6 727.24C931.83 734.54 931.87 741.99 933.44 749.06C936.81 764.3 940.53 779.52 945.16 794.41C949.37 807.93 954.94 821.03 960 834.28C964.83 847 969.79 859.62 974.76 872.45H974.74ZM1015 941C999.84 951.56 929.6 1016.88 926.56 1023.2C935.77 1024.7 1008.56 1024.39 1015 1022.77V941ZM1012.89 1109.7V1027.61H940.52C934.81 1027.61 929.01 1026.36 922.33 1028.71C932.75 1037.71 942.55 1046.03 952.13 1054.59C965.26 1066.32 978.22 1078.24 991.25 1090.08L1012.89 1109.7ZM1103.89 1023.57C1104.12 1022.94 1104.36 1022.3 1104.6 1021.67C1077.03 994.53 1050.38 966.45 1020.95 939.89C1020.73 942.3 1020.53 943.47 1020.53 944.64C1020.53 968.37 1020.47 992.1 1020.53 1015.83C1020.53 1023.7 1020.96 1024.05 1029.39 1024.06C1052.22 1024.1 1075.05 1024.1 1097.9 1024.06C1099.93 1024 1101.92 1023.7 1103.92 1023.53L1103.89 1023.57ZM395.05 323.75C396.86 323.63 397.57 323.75 397.99 323.52C407.63 317.04 417.24 310.52 426.87 303.99C429.28 302.37 431.54 299.99 434.2 299.39C439.33 298.262 444.544 297.563 449.79 297.3C460.64 296.54 471.5 296.05 482.36 295.45C482.95 295.45 483.55 295.45 484.14 295.35C493.39 294.21 502.63 292.95 511.9 291.94C519.18 291.15 526.51 290.86 533.77 289.94C536.99 289.53 540.09 288.13 543.44 287.12C541.169 282.636 537.214 279.234 532.44 277.66C525.9 275.33 519.3 273.12 512.61 271.27C495.72 266.58 478.86 262.09 460.94 263.27C443.4 264.4 428.66 271.22 416.94 283.89C408.461 293.16 401.708 303.872 397 315.52C396 318 395.75 320.77 395.05 323.75ZM1480.48 288.16C1487.77 288.89 1494.48 289.45 1501.1 290.24C1515.27 291.92 1529.4 293.92 1543.59 295.4C1557.59 296.86 1571.53 298.15 1585.53 298.86C1591.3 299.16 1595.21 301.64 1599.53 305.04C1607.26 311.16 1615.62 316.49 1623.82 321.98C1625.29 322.98 1627.28 323.19 1629.94 324.07C1629.55 321.63 1629.63 320.12 1629.06 318.93C1622.93 306.03 1617.06 292.83 1606.48 282.86C1599.36 276.14 1591.65 270.18 1582.04 266.7C1569.97 262.33 1557.43 261.99 1545.49 263.82C1528.69 266.4 1512.19 271.34 1495.85 276.22C1490.06 277.94 1483.68 280.53 1480.48 288.16V288.16ZM1101.21 1027.41C1101.21 1027.41 1100.55 1026.41 1099.91 1026.41C1094.42 1026.67 1088.91 1027.66 1083.45 1027.41C1064.22 1026.59 1045.01 1028.24 1025.78 1027.61C1024.09 1027.7 1022.42 1027.95 1020.78 1028.36V1107.77L1101.21 1027.41ZM1644.83 815.81L1643.59 817.32C1647.41 823.09 1651.13 828.93 1655.05 834.63C1664.95 848.99 1675.26 863.09 1684.76 877.71C1688.67 883.71 1691.29 890.71 1693.84 897.47C1695.84 902.76 1694.12 905.82 1689.36 908.59C1683.36 912.1 1677.36 915.68 1671.48 919.44C1670.34 920.17 1669.82 921.88 1669.02 923.14L1670.02 924.45L1717.02 907.56C1717.02 896.11 1717.33 885.14 1716.86 874.21C1716.64 869.997 1715.45 865.892 1713.39 862.21C1707.55 851.85 1701.22 841.74 1694.83 831.71C1691.58 826.61 1687.77 821.86 1684.83 817.81C1670.51 820.47 1657.63 819.25 1644.83 815.81V815.81ZM381.56 817.19C366.44 819.19 352.78 820.45 338.82 817.95C330.37 831.07 321.7 844.13 313.51 857.48C311 861.58 308.51 866.42 308.27 871.05C307.53 883.12 308.02 895.26 308.02 907.68C324.12 913.11 339.02 920.68 357.02 924.2C355.22 921.72 354.57 920.05 353.36 919.28C347.49 915.54 341.36 912.15 335.52 908.42C329.3 904.47 329.3 904.35 331.16 896.78C331.753 893.957 332.68 891.214 333.92 888.61C343.47 870.26 355.75 853.67 367.74 836.91C372.43 830.38 377 823.76 381.56 817.19ZM1104.39 1902.75C1099.26 1905.43 1095.33 1909.95 1093.39 1915.41C1090.64 1922.33 1089.72 1928.88 1091.56 1936.51C1094.23 1947.51 1100.12 1954.51 1110.78 1957.71C1115.89 1959.23 1120.24 1958.51 1125.21 1957.71C1133.85 1956.29 1140.08 1951.63 1143.44 1944.37C1149.83 1930.54 1149.72 1913.37 1133.25 1902.8C1138.33 1897.26 1145.47 1892.8 1145.25 1884.15C1145.01 1876.15 1143.25 1868.57 1137.07 1862.77C1127.13 1853.4 1110.34 1853.77 1101.01 1862.05C1096.56 1866.05 1094.21 1871.22 1093.57 1877.4C1092.38 1887.9 1094.84 1896.68 1104.39 1902.75ZM986.65 1902.82C993.34 1897.42 999.53 1892.19 999.1 1883.4C998.7 1875.4 997.04 1867.93 990.46 1862.19C980.88 1853.83 961.72 1853.69 954.32 1862.54C948.83 1869.1 946.32 1876.83 947.58 1885.35C948.58 1892.4 951.4 1898.66 958.58 1901.91C955.1 1905.53 951.58 1908.23 949.33 1911.72C943.57 1920.54 944.03 1930.06 946.75 1939.96C951.99 1959.07 969.95 1962.2 984.47 1956.48C993.9 1952.77 1000.2 1944.48 1001 1933.48C1001.86 1921 999.23 1910.1 986.65 1902.82V1902.82ZM1029.7 1938.26C1027.6 1939.84 1025.22 1941.16 1023.58 1943.1C1023.12 1943.79 1022.82 1944.59 1022.71 1945.41C1022.61 1946.24 1022.69 1947.08 1022.96 1947.87C1025.89 1954.3 1039.32 1960.51 1046.33 1958.87C1057.62 1956.21 1064.78 1949.29 1068.8 1938.32C1076.48 1917.41 1075.48 1896.32 1070.06 1875.4C1068.62 1869.79 1066.34 1863.34 1060.7 1859.93C1045.35 1850.67 1022.97 1858.13 1018.83 1877.84C1017.08 1886.18 1016.59 1894.43 1018.71 1902.89C1022.71 1918.89 1041.78 1930.89 1056.89 1916.73C1057.63 1916.18 1058.42 1915.71 1059.25 1915.32C1061.31 1924.39 1057.8 1932.32 1054.17 1939.78C1049.89 1948.58 1042.63 1948.69 1034.93 1944.01C1033 1942.85 1031.8 1940.62 1029.7 1938.26ZM1801.32 1035.5C1799.49 1035.19 1798.32 1034.65 1797.32 1034.87C1780.78 1038.43 1768.43 1048.28 1758.04 1061.09C1756.74 1062.52 1755.33 1063.86 1753.83 1065.09C1747.99 1070.43 1740.4 1071.74 1733.19 1073.85C1711.89 1080.1 1691 1087.36 1674.19 1102.55C1667.08 1108.96 1661 1116.47 1660.57 1127.37C1661.95 1126.96 1662.94 1126.95 1663.57 1126.46C1668.48 1122.28 1673.12 1117.74 1678.23 1113.84C1683.32 1109.97 1688.67 1106.44 1694.23 1103.27C1698.57 1100.94 1703.08 1098.93 1707.72 1097.27C1715.83 1094.13 1724.03 1091.27 1732.19 1088.27C1741.97 1084.7 1751.84 1081.36 1761.48 1077.46C1764.9 1076.07 1767.82 1073.4 1770.84 1071.14C1778.08 1065.71 1786.48 1066.53 1794.63 1066.93C1810.24 1067.7 1821.94 1058.93 1834.69 1052.23C1832.06 1047.87 1828.27 1048.34 1825.48 1049.32C1813.99 1053.32 1802.36 1052.82 1788.98 1051.75L1801.32 1035.5ZM364 1128.82C363.57 1121.82 362.16 1115.44 357.67 1110.15C348.441 1099.45 336.872 1091.03 323.86 1085.52C310.87 1079.76 297.393 1075.17 283.59 1071.8C276.92 1070.21 270.08 1067.12 265.99 1060.93C261.273 1053.82 255.104 1047.79 247.89 1043.24C240.89 1038.72 233.08 1036.01 223.83 1034.61C226.35 1041.95 234.69 1044.42 234.68 1051.07C219.5 1055.21 205.25 1049.62 189.83 1049.13C194.24 1054.93 200.2 1058.71 206.72 1061.44C216.71 1065.7 227.563 1067.55 238.4 1066.83C244.75 1066.41 250.35 1068.66 255.61 1072.18C260.19 1075.25 264.8 1078.56 269.87 1080.57C280.37 1084.71 291.22 1087.98 301.87 1091.76C314.44 1096.21 327.3 1100.31 338.32 1107.93C347.19 1114.08 355.16 1121.57 364 1128.82ZM1628.84 1383.76C1627.39 1394.54 1627.48 1395.23 1632.54 1405.35C1639.96 1420.17 1648.32 1434.66 1652.54 1450.82C1656.23 1465.14 1658.77 1479.75 1661.92 1494.2C1663.35 1500.79 1665.02 1507.32 1666.86 1515.03C1671.64 1507.47 1675.51 1501.03 1679.68 1494.84C1683.08 1489.78 1686.76 1484.9 1690.45 1480.04C1698.07 1470.04 1701.31 1458.54 1701.78 1446.1C1699.91 1444.1 1697.84 1443.42 1695.9 1445.86C1693.91 1448.36 1692.06 1450.97 1690.36 1453.67C1684.66 1462.73 1679.06 1471.86 1673.44 1480.93C1672.6 1475.73 1671.74 1470.65 1670.95 1465.56C1666.95 1439.56 1657.95 1415.64 1642.31 1394.34C1638.89 1389.79 1635.23 1385.71 1628.81 1383.76H1628.84ZM377.46 362.1C371.09 368.54 366.04 373.51 361.14 378.62C349.97 390.25 343.86 404.36 343.87 420.3C343.87 433.07 345.96 445.85 347.15 458.81C361.46 451.65 371.02 440.41 379.09 427.81C380.91 424.95 381.7 421.41 382.85 418.15C385.58 410.42 384.67 402.77 382.98 394.9C380.8 384.69 379.48 374.33 377.46 362.1ZM1677.09 459.34C1678.09 452.83 1679.64 447.34 1679.49 441.87C1679.23 431.73 1681.66 421.69 1679.81 411.45C1678.55 404.5 1677.09 397.76 1673.41 391.71C1666.79 380.83 1657.99 371.85 1647.79 363.02C1646.79 367.58 1645.79 371.46 1645.03 375.4C1642.87 386.55 1639.85 397.6 1640.44 409.13C1640.82 416.51 1642.31 423.29 1646.81 429.6C1651.81 436.6 1656.81 443.42 1663.2 449.02C1667.46 452.72 1672.27 455.79 1677.09 459.34V459.34ZM357.29 1514L359.29 1513.58C359.47 1510.68 359.29 1507.71 359.88 1504.91C363.3 1489.06 366.52 1473.15 370.57 1457.45C374.11 1443.73 378.36 1430.28 386.1 1418C390.68 1410.74 393.26 1402.18 396.39 1394.07C397.66 1390.8 398.26 1387.14 394.74 1384.43C389.31 1385.98 385.99 1390.05 382.89 1394.31C380.89 1397.12 378.99 1400.08 377.08 1402.98C362.38 1425.32 354.64 1449.98 352.48 1476.52C352.38 1477.72 351.73 1478.87 351.08 1480.81C344.61 1470.23 338.93 1460.51 332.77 1451.11C330.67 1447.91 328.53 1443.68 322.88 1444.78C322.529 1445.85 322.347 1446.96 322.34 1448.08C324.18 1459.99 327.99 1471.19 334.94 1481.08C339.6 1487.74 344.62 1494.16 349.24 1500.85C352.15 1505.1 354.62 1509.62 357.29 1514ZM1727.09 769C1727.44 767.666 1727.65 766.298 1727.71 764.92C1726.71 747.8 1728.71 730.78 1731.65 714.09C1734.59 697.4 1740.09 681.03 1744.46 664.53C1746.02 658.66 1747.73 652.83 1749.09 646.92C1750.09 642.44 1747.68 639.98 1743.69 638.15C1739.52 636.24 1737.2 638.78 1735.57 641.38C1730.95 648.76 1725.26 655.98 1722.83 664.12C1717.92 680.59 1716.5 697.88 1715.4 715.03C1714.82 724.719 1715.29 734.442 1716.8 744.03C1718.18 753.15 1720.83 761.4 1727.09 769ZM298.19 769.4C302.09 764.07 305.25 759.17 306.19 753.4C307.73 743.63 308.94 733.78 309.71 723.92C310 720.25 308.09 716.45 308.18 712.73C308.5 700.35 306.43 688.28 304.69 676.09C302.77 662.63 296.3 651.52 288.95 640.7C286.19 636.7 283.59 636.59 278.16 639.27C275.24 640.72 273.9 644.06 275.07 647.99C277.87 657.41 280.85 666.78 283.73 676.18C290.32 697.67 295.1 719.46 295.68 742.07C295.87 750.9 297.24 759.66 298.19 769.41V769.4ZM717 253.43C726.68 256.79 734.63 257.57 742.77 254.7C744.37 254.13 746.31 254.62 748.07 254.48C759.342 253.605 770.296 250.322 780.19 244.85C793.93 237.37 807.79 229.97 823.68 227.59C827.32 227.04 831.37 225.69 834.12 220.99C823.39 219.65 813.59 224.99 803.36 221.34L806.76 203.24L805.14 202.24C803.08 204.15 800.68 205.8 799.02 208.01C793.28 215.69 787.32 223.01 779.81 229.2C772.72 235.1 765.44 239.57 756.57 242.35C748.82 244.77 742.47 243.49 735.51 239.64C738.39 234.76 741.39 230.46 743.57 225.78C745.57 221.49 750.12 217.44 746.65 211.25C745.518 211.972 744.442 212.778 743.43 213.66C738.98 218.35 735.72 224.28 729.02 226.66C727.72 227.12 726.93 229.31 726.12 230.82C723.942 234.613 721.959 238.515 720.18 242.51C718.77 245.88 718.09 249.52 717 253.43ZM1191.24 220.56C1193 227.08 1197.75 227.04 1200.93 227.48C1215.41 229.48 1228.23 235.75 1240.66 242.65C1249.15 247.36 1257.6 251.48 1267.27 252.75C1272.48 253.44 1277.89 253.39 1282.86 254.87C1291.34 257.4 1299.19 255.51 1307.16 253.49C1307.24 252.25 1307.61 251.23 1307.3 250.49C1304.43 243.49 1301.52 236.57 1298.4 229.71C1297.89 228.58 1296.28 227.99 1295.24 227.08C1291.05 223.433 1286.87 219.767 1282.71 216.08L1277.41 211.42C1275.76 224.04 1286.32 230.3 1288.97 240.25C1281.83 243.67 1274.97 245.12 1267.09 242.25C1253.25 237.345 1241.19 228.425 1232.44 216.63C1228.66 211.63 1224.36 207.05 1219.16 200.93C1218.75 204.64 1218.16 206.36 1218.47 207.93C1219.02 211.65 1219.91 215.309 1221.15 218.86C1222.24 221.71 1220.82 223.5 1218.88 223.38C1213.11 223.03 1207.39 221.83 1201.64 221.13C1198.48 220.83 1195.3 220.8 1191.22 220.56H1191.24ZM917.24 1955.36V1879.16C917.24 1874.16 917.49 1869.08 917.11 1864.08C916.96 1862.08 915.43 1860.2 914.53 1858.27C912.28 1860.74 908.42 1856.59 906.27 1860.55C901.42 1869.48 893.2 1875.1 884.27 1880.99C886.12 1884.27 887.74 1887.16 889.53 1890.32L902.94 1883.23V1955.36H917.24ZM1380.54 1811.36L1364.21 1802.96C1369.65 1792.32 1371.81 1791.24 1382.12 1793.55C1383.49 1794.01 1384.89 1794.39 1386.3 1794.7C1394.56 1795.62 1402.87 1796.61 1410.44 1791.22C1405.63 1790.22 1400.81 1790.29 1396.03 1789.87C1392.91 1789.59 1389.51 1789.19 1386.83 1787.74C1381.83 1785.02 1381.15 1779.46 1385.15 1775.46C1394.27 1766.32 1403.94 1757.96 1416.66 1754.01C1418.85 1753.33 1420.66 1751.56 1423.45 1749.83C1415.69 1747.43 1409.99 1750.42 1404.45 1752.65C1393.09 1757.19 1382.37 1762.57 1374.45 1772.82C1369.78 1778.91 1363.45 1783.92 1357.34 1788.65C1352.79 1792.15 1347.23 1794.32 1342.24 1797.28C1336.89 1800.46 1331.68 1803.87 1325.46 1807.77C1327.97 1809.25 1329.21 1810.62 1330.22 1810.46C1333.91 1809.88 1337.52 1808.81 1341.22 1807.9C1349.12 1805.9 1356.49 1808.9 1364.06 1810.2C1368.74 1811.07 1373.11 1814.7 1380.55 1811.4L1380.54 1811.36ZM644.54 1810.63C644.64 1811.17 644.73 1811.72 644.83 1812.26C646.41 1812.53 648.07 1813.26 649.55 1812.98C655.25 1811.98 661.05 1811.11 666.55 1809.29C673.02 1806.96 680.08 1806.83 686.63 1808.93C689.96 1809.93 694.14 1811.69 699.07 1808.16C692.07 1803.68 686.19 1798.7 679.4 1795.79C667.65 1790.79 658.77 1782.43 650.51 1773.29C643 1764.99 634.59 1758.15 624.16 1754.04C617.34 1751.36 610.65 1747.58 600.74 1749.94C605.88 1752.52 609.28 1754.67 612.98 1755.94C623.79 1759.79 631.68 1767.67 639.62 1775.27C644.35 1779.8 642.23 1786.66 635.84 1788.84C632.89 1789.84 629.5 1789.58 626.31 1789.9C622.44 1790.28 618.31 1789.03 614.52 1791.8C617.86 1793.55 621.33 1795.19 624.76 1795.1C631.758 1794.88 638.732 1794.18 645.63 1792.98C651.48 1791.98 654 1792.52 657.21 1797.19C658.28 1798.73 659.3 1800.3 660.64 1802.3C657.73 1804.16 655.41 1805.91 652.86 1807.21C650.31 1808.51 647.3 1809.56 644.53 1810.67L644.54 1810.63ZM1550.39 1339.12C1550.04 1341.11 1549.79 1343.11 1549.64 1345.12C1549.56 1351.92 1549.64 1358.72 1549.64 1365.52C1549.64 1379.74 1549.5 1379.96 1561.58 1387.52C1568.21 1391.67 1575.36 1394.97 1583.58 1394.52C1590.26 1394.12 1591.72 1392.13 1589.68 1385.52C1587.5 1378.44 1583.24 1372.52 1578.34 1367.25C1569.49 1357.84 1560.09 1348.88 1550.38 1339.16L1550.39 1339.12ZM1737.89 797.17C1748.72 797.489 1759.41 794.609 1768.62 788.89C1769.6 788.256 1770.63 787.697 1771.69 787.22C1780.87 783.42 1786.14 775.96 1789.17 767.1C1790.11 764.35 1789.02 760.01 1787.26 757.51C1785.66 755.23 1782.41 754.7 1778.63 756.04C1772.7 758.14 1767.82 761.45 1762.97 765.15C1753.78 772.15 1746.87 782.25 1734.78 785.46C1731.78 786.25 1727.46 787.2 1727.87 792.11C1728.11 795.05 1731.36 796.7 1737.13 797.03C1737.38 797.07 1737.64 797.13 1737.88 797.21L1737.89 797.17ZM298 791.63C294.65 789.1 292 785.93 288.62 784.75C279.18 781.44 271.88 775.37 265.3 768.3C259.5 762.06 252.12 759.02 244.43 756.08C240.33 754.51 238.61 756.71 236.71 759.15C235.561 760.529 234.864 762.229 234.714 764.018C234.564 765.807 234.967 767.598 235.87 769.15C238.97 774.67 242.27 779.85 247.77 783.85C258.98 792.01 271.18 796.8 284.9 796.61C288.86 796.52 294.34 798.09 298 791.63ZM859.39 1150.51C849.86 1150.42 849.22 1151.72 851.12 1158.89C854.63 1172.15 864.35 1180.28 874.65 1187.83C878.642 1190.64 883.021 1192.86 887.65 1194.42C893.65 1196.51 896.76 1193.55 895.78 1187.26C895.393 1185.27 894.683 1183.37 893.68 1181.61C888.407 1171.81 880.863 1163.42 871.68 1157.13C867.11 1154 862.69 1150.75 859.37 1150.51H859.39ZM1676.76 1021.37C1659.86 1037.37 1650.76 1087.24 1661.55 1100.51C1662.37 1098.97 1663.04 1097.35 1663.55 1095.67C1664.71 1089.99 1665.26 1084.16 1666.76 1078.58C1669.93 1066.86 1673.76 1055.32 1676.93 1043.58C1678.79 1036.79 1678.26 1029.87 1676.74 1021.37H1676.76ZM1612.89 1469.58C1608.32 1479.2 1608.89 1481.79 1613.55 1489.81C1618.33 1497.99 1626.18 1502.65 1633.07 1508.38C1637.57 1512.12 1642.97 1514.78 1647.96 1517.93L1649.4 1516.68C1648.91 1514.89 1648.83 1512.83 1647.86 1511.35C1639.77 1499.02 1634.17 1485.12 1623.59 1474.35C1620.43 1471.09 1617.8 1469 1612.87 1469.58H1612.89ZM348.37 1022.58C347.76 1035.06 346.23 1046.92 351.79 1059.01C357.16 1070.68 360.92 1083.44 361.62 1096.68C361.69 1097.92 362.98 1099.09 364.62 1101.87C368.47 1085.5 368.78 1070.42 364.54 1056.09C361.08 1044.3 359 1031.27 348.35 1022.53L348.37 1022.58ZM375.27 1516.27L377.27 1517.7C390.58 1510.32 402.27 1500.95 411.44 1488.62C412.434 1487.55 413.34 1486.4 414.15 1485.18C416.56 1480.47 414.69 1472.08 410.9 1470.05C407.84 1468.4 402.39 1470.82 399.18 1475.68C392.48 1485.81 385.84 1495.98 379.45 1506.31C377.58 1509.29 376.63 1512.88 375.25 1516.22L375.27 1516.27ZM937.34 1145.27C934.86 1140.61 932.71 1135.58 929.69 1131.12C923.5 1121.99 915.27 1115.26 904.51 1112.12C899.83 1110.74 897.51 1112.12 897.81 1116.92C898.102 1120.06 899.071 1123.09 900.65 1125.82C905.42 1134.47 913.26 1140.26 920.91 1146.03C926.24 1150 931.71 1149.52 937.32 1145.23L937.34 1145.27ZM337.96 1130.41C319.96 1111.46 282.32 1107.6 268.33 1123.83C272.33 1123.83 275.5 1123.67 278.63 1123.83C281.532 1123.87 284.415 1124.29 287.21 1125.07C303.518 1130.57 320.846 1132.38 337.94 1130.37L337.96 1130.41ZM87.17 988.94C83.49 979.61 76.17 975.94 68.99 972.47C65.81 970.93 61.69 970.94 57.99 970.95C54.29 970.96 50.52 971.95 46.77 972.33C41.99 972.86 38.46 971.58 38.77 965.03C34.77 972.37 34.77 972.88 36.5 982.76C53 985.1 69 993 87.17 988.94ZM1686.07 1131.94C1699.54 1130.87 1711.15 1131.03 1722.26 1128.76C1732.51 1126.66 1742.41 1123.03 1753.09 1123.45C1753.44 1123.45 1753.81 1122.72 1754.17 1122.33C1742.29 1107.44 1703.43 1112 1686.07 1131.9V1131.94ZM1207.28 708.69C1213.11 701.44 1218.55 694.58 1224.1 687.82C1229.81 680.82 1235.63 674 1241.75 666.69L1231.57 659.18L1197.08 700.84L1207.28 708.69ZM1096.86 875.29C1083.86 889.21 1072.8 903.49 1061.86 917.54L1071.68 925.38C1074.4 922.15 1076.91 919.26 1079.33 916.29C1087.03 906.83 1094.62 897.29 1102.45 887.92C1104.84 885.07 1104.94 882.82 1102.27 880.35C1100.73 879 1099.25 877.55 1096.86 875.29V875.29ZM328.33 775.61C339.73 776.54 351.69 770.79 356.15 761.74C359.76 754.41 362.05 746.81 357.29 738.87C343 745.31 327.69 765.08 328.33 775.61ZM1982 973.23C1975.31 972.29 1969.27 971.23 1963.18 970.69C1960.57 970.424 1957.93 970.816 1955.51 971.83C1948.19 975.209 1941.94 980.536 1937.45 987.23C1942.98 992.11 1949.11 990.42 1954.59 989.73C1962.91 988.73 1971.08 986.49 1979.32 984.84C1983.48 984 1985 982.19 1984.15 978.1C1983.63 976.397 1982.91 974.762 1982 973.23V973.23ZM1697.45 773.92C1694.61 763.82 1688.22 756.92 1682.25 749.82C1678.34 745.19 1674.49 739.55 1666.44 740.11C1665.16 746.11 1664.44 751.88 1666.94 757.96C1671.71 769.64 1681.61 773.81 1692.71 776.2C1694.12 776.5 1696 774.66 1697.45 773.92ZM1249.39 1314.39C1259.6 1313.5 1269.29 1306.99 1274.25 1295.01C1274.68 1293.95 1274.82 1292.79 1274.65 1291.65C1274.49 1290.52 1274.03 1289.45 1273.32 1288.55C1272.61 1287.65 1271.68 1286.95 1270.61 1286.53C1269.54 1286.1 1268.38 1285.97 1267.25 1286.14C1257.84 1287.14 1245.34 1298.14 1243.25 1307.08C1242.26 1311.7 1244.49 1314.38 1249.39 1314.39V1314.39ZM1173.16 211.44C1163.78 197.67 1153.66 197.49 1137.25 194.1C1134.25 193.48 1130.11 192.37 1127.81 196.97C1141.24 207 1155.72 213.19 1173.16 211.44ZM896.16 194.12C885.68 193.9 876 195.18 867 199C861.17 201.45 854.77 204.35 851.85 211.16C869.57 213 889 205.85 896.15 194.12H896.16ZM1284.99 689.12C1277.89 689.12 1273.3 693.23 1273.51 699.35C1273.52 700.88 1273.84 702.391 1274.45 703.793C1275.07 705.195 1275.96 706.457 1277.07 707.503C1278.19 708.549 1279.51 709.357 1280.95 709.877C1282.38 710.397 1283.91 710.62 1285.44 710.53C1290.44 710.31 1296.32 703.87 1296.15 698.69C1296 692.85 1291.57 689.1 1285 689.12H1284.99ZM1248.5 749.71C1256.03 749.71 1259.2 746.63 1259.28 739.19C1259.34 732.49 1255.13 728.26 1248.43 728.31C1242.33 728.31 1238 732.57 1237.88 738.6C1237.73 745.25 1242 749.7 1248.49 749.71H1248.5ZM1160.09 1349.21C1170.32 1350.54 1180.19 1344.77 1183.72 1335.56C1185.26 1331.56 1182.07 1326.88 1177.72 1327.64C1171.93 1328.67 1166.74 1331.83 1163.16 1336.49C1160.15 1340.3 1158.44 1344.35 1160.08 1349.21H1160.09ZM967.3 1105.49C966.4 1094.49 960.2 1088.06 951.96 1083.24C948.59 1081.24 944.65 1078.75 941.05 1083.24C945.23 1097 954.87 1105.52 967.3 1105.49ZM1692.56 1504.4C1680.95 1511.62 1679.32 1523.88 1673.76 1535.27C1676.5 1534.84 1678.47 1535.09 1679.66 1534.27C1683.26 1531.77 1686.66 1528.98 1689.81 1525.94C1696.88 1519 1697.45 1514.68 1692.56 1504.4ZM333.24 1504.74C329.1 1508.99 328.32 1511.29 329.18 1515.16C331.35 1524.9 338.64 1530.16 346.49 1534.89C347.49 1535.47 349.17 1534.82 351.68 1534.67C344.86 1524.39 343.08 1512.2 333.24 1504.74ZM1289.33 1824.38C1298.84 1820.97 1307.09 1818.33 1313.15 1810.86C1310.3 1809.7 1308.23 1808.43 1306.01 1808.08C1304.13 1807.78 1301.44 1807.86 1300.23 1808.98C1296 1812.88 1291 1816.34 1289.33 1824.38ZM712.47 1810.7C716.9 1817.34 724.09 1821.23 736.7 1823.32C732.38 1817.96 729.06 1813.41 725.22 1809.32C724.08 1808.13 721.4 1807.75 719.58 1808.02C717.15 1808.4 714.87 1809.75 712.47 1810.7ZM1500.6 1713.42C1505.15 1713.42 1508.38 1713.86 1511.44 1713.32C1516.78 1712.36 1522.04 1711.05 1527.21 1709.4C1528.34 1709.05 1529.65 1706.7 1529.48 1705.47C1529.25 1703.83 1527.79 1702.95 1525.48 1704C1523.75 1704.79 1521.48 1704.55 1519.42 1704.45C1512.24 1704.08 1506.71 1707.32 1500.6 1713.42ZM523.6 1713C515.33 1704.15 505.9 1703.12 495.11 1705.25C495.45 1706.75 495.45 1708.99 496.11 1709.19C504.81 1712 513.57 1715.17 523.58 1713H523.6ZM746.6 1825.46C752.12 1826.46 757.54 1831.1 763.6 1826.46C758.06 1822.55 752.35 1823.76 746.6 1825.46V1825.46ZM1261.42 1826.46C1267.51 1830.74 1272.95 1826.73 1278.53 1825.65C1272.77 1823.14 1267.13 1822.85 1261.42 1826.46Z" fill="white"/>
<path d="M1133.53 1927C1132.53 1931.25 1132.05 1934.69 1131.02 1938C1129.16 1943.94 1125.33 1946.73 1119.57 1946.79C1112.91 1946.86 1108.92 1944.13 1106.39 1938.79C1103.1 1931.89 1104.03 1925.02 1106.29 1918.38C1108.29 1912.47 1114.29 1910.74 1119.55 1909.61C1124.22 1908.61 1127.7 1912.16 1129.71 1916.13C1131.48 1919.64 1132.39 1923.6 1133.53 1927Z" fill="white"/>
<path d="M1107.36 1883.46C1107.96 1880.31 1108.25 1877.69 1108.97 1875.21C1110.54 1869.8 1114.28 1866.95 1119.31 1867.03C1123.58 1867.1 1127.91 1870.7 1129.05 1875.57C1129.87 1879.73 1129.9 1884.01 1129.16 1888.19C1128.3 1894.29 1126.16 1896.54 1120.61 1897.48C1116.1 1898.25 1111.92 1896.1 1109.67 1891.31C1108.47 1888.76 1108 1885.85 1107.36 1883.46Z" fill="white"/>
<path d="M987.58 1928.34C987.43 1936.25 985.58 1942.62 977.79 1945.85C970.17 1949 961.11 1944.17 960.09 1936.15C959.45 1931.15 958.02 1926.26 959.8 1920.89C960.707 1918.01 962.376 1915.43 964.628 1913.41C966.881 1911.4 969.635 1910.04 972.6 1909.46C976.91 1908.63 981.82 1911.46 984.14 1916.82C985.72 1920.47 986.46 1924.49 987.58 1928.34Z" fill="white"/>
<path d="M961.79 1881.52C962.03 1880.61 962.89 1877.85 963.49 1875.04C964.26 1871.44 965.35 1868.39 969.78 1868.04C973.78 1867.7 977.69 1867.69 980.86 1870.65C983.1 1872.74 985.32 1881.95 984.45 1885.4C984.24 1886.23 983.51 1886.93 983.29 1887.76C981.37 1895.15 978.13 1898.37 972.88 1897.98C966.88 1897.53 962.22 1892.28 961.79 1885.34C961.76 1884.72 961.79 1884.12 961.79 1881.52Z" fill="white"/>
<path d="M1057.93 1890C1057.93 1893 1058.16 1896 1057.93 1898.89C1057.39 1904.78 1052 1910.6 1046.93 1911.08C1042.22 1911.52 1036.13 1907.43 1034 1902.33C1030.23 1893.24 1031 1884.1 1034.36 1875.18C1036.72 1868.85 1041.17 1866.03 1046.18 1866.69C1051.64 1867.4 1057.08 1873.47 1057.88 1880.22C1058.09 1883.48 1058.11 1886.74 1057.94 1890H1057.93Z" fill="white"/>
</g>
<defs>
<clipPath id="clip0">
<rect width="2025.03" height="2025.01" fill="white"/>
</clipPath>
</defs>
</svg>
