<?xml version="1.0" encoding="UTF-8" standalone="no"?>
<!DOCTYPE svg PUBLIC "-//W3C//DTD SVG 1.1//EN" "http://www.w3.org/Graphics/SVG/1.1/DTD/svg11.dtd">
<svg width="100%" height="100%" viewBox="0 0 777 788" version="1.1" xmlns="http://www.w3.org/2000/svg" xmlns:xlink="http://www.w3.org/1999/xlink" xml:space="preserve" xmlns:serif="http://www.serif.com/" style="fill-rule:evenodd;clip-rule:evenodd;stroke-linejoin:round;stroke-miterlimit:2;">
    <g transform="matrix(1,0,0,1,-686.103,-604.635)">
        <g transform="matrix(1,0,0,1,-379.25,588.252)">
            <path d="M1377.6,63.692L1377.6,16.383L1527.3,16.383L1527.3,63.692C1548.6,67.384 1557.07,70.378 1577.36,77.831L1602.53,57.019L1605.45,58.26C1634.31,70.547 1661.57,86.288 1686.64,105.137L1689.18,107.042L1683.74,139.248C1700.34,153.095 1715.66,168.412 1729.5,185.012L1761.71,179.574L1763.61,182.108C1782.46,207.178 1798.2,234.442 1810.49,263.301L1811.73,266.218L1790.92,291.39C1798.37,311.682 1803.98,332.606 1807.67,353.905L1838.28,365.299L1838.66,368.445C1842.45,399.582 1842.45,431.063 1838.66,462.199L1838.28,465.346L1807.67,476.739C1803.98,498.039 1798.37,518.963 1790.92,539.254L1811.73,564.426L1810.49,567.343C1798.2,596.202 1782.46,623.466 1763.61,648.536L1761.71,651.07L1729.5,645.632C1715.66,662.232 1700.34,677.55 1683.74,691.396L1689.18,723.602L1686.64,725.507C1661.57,744.356 1634.31,760.097 1605.45,772.384L1602.53,773.626L1577.36,752.813C1557.07,760.266 1536.14,765.873 1514.85,769.564L1503.45,800.174L1500.31,800.557C1469.17,804.346 1437.69,804.346 1406.55,800.557L1403.4,800.174L1392.01,769.564C1370.71,765.873 1349.79,760.266 1329.5,752.813L1304.33,773.626L1301.41,772.384C1272.55,760.097 1245.29,744.356 1220.21,725.507L1217.68,723.602L1223.12,691.396C1206.52,677.549 1191.2,662.232 1177.36,645.632L1145.15,651.07L1143.24,648.536C1124.39,623.466 1108.65,596.202 1096.37,567.343L1095.13,564.426L1115.94,539.254C1108.49,518.963 1102.88,498.039 1099.19,476.739L1068.58,465.346L1068.19,462.199C1064.4,431.063 1064.4,399.582 1068.19,368.445L1068.58,365.299L1099.19,353.905C1102.88,332.605 1108.49,311.681 1115.94,291.39L1095.13,266.218L1096.37,263.301C1108.65,234.442 1124.39,207.178 1143.24,182.108L1145.15,179.574L1177.36,185.012C1191.2,168.412 1206.52,153.095 1223.12,139.248L1217.68,107.042L1220.21,105.137C1245.29,86.288 1272.55,70.547 1301.41,58.26L1304.33,57.019L1329.5,77.831C1349.79,70.378 1357.02,69.096 1377.6,63.692ZM1517.5,72.955L1517.5,27.293L1387.11,27.293L1387.11,73.061C1387.13,72.097 1351.19,79.929 1330.33,88.634L1327.5,89.699L1302.59,69.096C1276.54,80.441 1251.86,94.69 1229.01,111.574L1234.39,143.455L1232.06,145.371C1214.31,159.928 1198.04,176.2 1183.48,193.951L1181.56,196.287L1149.68,190.904C1132.8,213.75 1118.55,238.431 1107.2,264.478L1127.81,289.396L1126.74,292.223C1118.65,313.705 1112.69,335.933 1108.96,358.585L1108.47,361.565L1078.17,372.844C1074.97,401.07 1074.97,429.569 1078.17,457.8L1108.47,469.079L1108.96,472.06C1112.69,494.711 1118.65,516.939 1126.74,538.421L1127.81,541.248L1107.2,566.166C1118.55,592.208 1132.8,616.89 1149.68,639.74L1181.56,634.357L1183.48,636.693C1198.04,654.444 1214.31,670.716 1232.06,685.273L1234.39,687.189L1229.01,719.07C1251.86,735.951 1276.54,750.2 1302.59,761.548L1327.5,740.945L1330.33,742.011C1351.81,750.105 1374.04,756.061 1396.69,759.792L1399.67,760.283L1410.95,790.584C1439.18,793.781 1467.68,793.781 1495.91,790.584L1507.19,760.283L1510.17,759.792C1532.82,756.061 1555.05,750.105 1576.53,742.011L1579.36,740.945L1604.27,761.548C1630.32,750.203 1655,735.954 1677.85,719.07L1672.46,687.189L1674.8,685.273C1692.55,670.716 1708.82,654.444 1723.38,636.693L1725.3,634.357L1757.18,639.74C1774.06,616.894 1788.31,592.213 1799.65,566.166L1779.05,541.248L1780.12,538.421C1788.21,516.939 1794.17,494.711 1797.9,472.06L1798.39,469.079L1828.69,457.8C1831.89,429.575 1831.89,401.075 1828.69,372.844L1798.39,361.565L1797.9,358.585C1794.17,335.933 1788.21,313.705 1780.12,292.223L1779.05,289.396L1799.65,264.478C1788.31,238.436 1774.06,213.755 1757.18,190.904L1725.3,196.287L1723.38,193.951C1708.82,176.2 1692.55,159.928 1674.8,145.371L1672.46,143.455L1677.85,111.574C1655,94.694 1630.32,80.444 1604.27,69.096L1579.36,89.699C1579.36,89.699 1579.28,89.886 1576.53,88.634C1547.58,75.442 1518.48,72.066 1517.5,72.955L1517.5,73.061C1517.47,73.021 1517.47,72.985 1517.5,72.955ZM1517.58,82.997C1538.51,87.283 1562.3,94.571 1582.07,102.76L1605.54,81.577C1626.28,91.087 1646.08,102.521 1664.69,115.728L1658.07,146.638C1681.38,164.522 1702.24,185.384 1720.13,208.691L1751.04,202.078C1764.24,220.684 1775.68,240.487 1785.19,261.228L1764,284.69C1775.25,311.832 1782.88,340.33 1786.72,369.457L1816.79,379.184C1818.93,401.901 1818.93,424.768 1816.79,447.485L1786.72,457.213C1782.88,486.339 1775.25,514.837 1764,541.979L1785.19,565.441C1775.68,586.182 1764.24,605.986 1751.04,624.592L1720.13,617.978C1702.24,641.285 1681.38,662.147 1658.07,680.031L1664.69,710.941C1646.08,724.149 1626.28,735.582 1605.54,745.092L1582.07,723.909C1554.93,735.152 1526.43,742.788 1497.31,746.622L1487.58,776.698C1464.86,778.833 1442,778.833 1419.28,776.698L1409.55,746.622C1380.42,742.788 1351.93,735.152 1324.79,723.909L1301.32,745.092C1280.58,735.582 1260.78,724.149 1242.17,710.941L1248.79,680.031C1225.48,662.147 1204.62,641.285 1186.73,617.978L1155.82,624.592C1142.62,605.986 1131.18,586.182 1121.67,565.441L1142.85,541.979C1131.61,514.837 1123.98,486.339 1120.14,457.213L1090.07,447.485C1087.93,424.768 1087.93,401.901 1090.07,379.184L1120.14,369.457C1123.98,340.33 1131.61,311.832 1142.85,284.69L1121.67,261.228C1131.18,240.487 1142.62,220.684 1155.82,202.078L1186.73,208.691C1204.62,185.384 1225.48,164.522 1248.79,146.638L1242.17,115.728C1260.78,102.521 1280.58,91.087 1301.32,81.577L1324.79,102.76C1344.59,94.558 1366.42,87.875 1387.38,83.588L1387.38,170.904C1281.41,200.379 1202.25,298.037 1202.25,413.335C1202.25,551.964 1314.8,664.513 1453.43,664.513C1592.06,664.513 1704.61,551.964 1704.61,413.335C1704.61,298.065 1623.49,199.814 1517.58,170.321L1517.58,82.997ZM1460.1,687.843L1460.46,720.055L1471.96,719.925L1472.04,726.484L1441.23,726.831L1441.15,720.273L1452.63,720.143L1452.27,687.931L1460.1,687.843ZM1435.67,687.743L1431.07,726.242L1402.52,722.827L1403.3,716.314L1424.07,718.799L1425.09,710.264L1405.76,707.952L1406.54,701.465L1425.87,703.777L1427.12,693.299L1405.61,690.726L1406.39,684.24L1435.67,687.743ZM1512.93,721.255L1505.68,722.306L1501.98,696.759L1490.13,724.558L1482.41,725.676L1476.85,687.303L1484.11,686.253L1487.73,711.303L1499.63,684.005L1507.38,682.882L1512.93,721.255ZM1391.46,680.801L1383.66,712.055L1394.82,714.843L1393.23,721.207L1363.34,713.74L1364.93,707.376L1376.06,710.158L1383.87,678.904L1391.46,680.801ZM1525.43,693.036L1517.47,692.876C1517.39,688.488 1518.36,684.926 1520.37,682.19C1522.39,679.454 1525.39,677.497 1529.38,676.319C1534.32,674.862 1538.88,675.351 1543.05,677.787C1547.23,680.222 1550.18,684.366 1551.9,690.217C1553.73,696.406 1553.55,701.685 1551.36,706.053C1549.18,710.421 1545.48,713.373 1540.27,714.91C1535.72,716.253 1531.63,715.999 1528,714.148C1525.84,713.058 1523.89,711.149 1522.17,708.422L1529.08,704.453C1530.09,706.251 1531.45,707.502 1533.18,708.207C1534.9,708.911 1536.76,708.969 1538.76,708.38C1541.52,707.567 1543.46,705.917 1544.59,703.432C1545.73,700.947 1545.64,697.489 1544.33,693.058C1542.94,688.357 1541.11,685.258 1538.83,683.761C1536.55,682.265 1534.06,681.916 1531.35,682.714C1529.36,683.303 1527.83,684.444 1526.76,686.137C1525.7,687.829 1525.26,690.129 1525.43,693.036ZM1357.32,670.979L1336.89,683.915L1340.14,705.763L1331.81,701.976L1329.89,687.417L1317.8,695.606L1309.54,691.851L1328.31,679.699L1324.5,656.061L1333.1,659.968L1335.38,675.733L1348.77,667.094L1357.32,670.979ZM1577.12,658.545L1592.79,694.009L1581.3,699.088C1576.95,701.012 1574.03,702.089 1572.55,702.319C1570.28,702.685 1568.07,702.28 1565.91,701.103C1563.75,699.927 1562.05,697.928 1560.8,695.106C1559.84,692.928 1559.43,690.923 1559.56,689.09C1559.7,687.257 1560.18,685.648 1561.03,684.263C1561.87,682.879 1562.86,681.771 1564,680.941C1565.56,679.847 1567.96,678.583 1571.2,677.151L1575.87,675.087L1569.96,661.709L1577.12,658.545ZM1582.98,691.174L1578.53,681.111L1574.61,682.843C1571.79,684.09 1569.99,685.11 1569.2,685.901C1568.41,686.693 1567.92,687.603 1567.73,688.632C1567.54,689.661 1567.68,690.7 1568.14,691.748C1568.71,693.038 1569.56,693.935 1570.69,694.439C1571.82,694.942 1573.01,695.042 1574.26,694.739C1575.19,694.522 1576.94,693.844 1579.52,692.703L1582.98,691.174ZM1608.24,640.029L1628.47,673.107L1603.94,688.107L1600.52,682.511L1618.37,671.596L1613.88,664.263L1597.28,674.419L1593.87,668.846L1610.47,658.689L1604.97,649.687L1586.49,660.989L1583.08,655.416L1608.24,640.029ZM1291.38,635.273L1298.58,639.823L1296.74,649.077L1309.84,657.356L1317.25,651.621L1324.27,656.057L1290.79,680.767L1283.79,676.344L1291.38,635.273ZM1295.37,655.941L1292.2,670.958L1304.32,661.593L1295.37,655.941ZM1288.22,632.546L1263.08,662.064L1253.52,653.918C1249.89,650.831 1247.66,648.671 1246.81,647.438C1245.49,645.554 1244.9,643.385 1245.02,640.93C1245.14,638.475 1246.2,636.073 1248.2,633.724C1249.75,631.912 1251.38,630.668 1253.08,629.994C1254.79,629.319 1256.45,629.061 1258.07,629.219C1259.68,629.378 1261.11,629.789 1262.35,630.452C1264.02,631.382 1266.19,632.996 1268.89,635.294L1272.78,638.604L1282.26,627.47L1288.22,632.546ZM1663.36,645.685L1651.38,655.514C1649.01,657.46 1647.16,658.812 1645.83,659.571C1644.5,660.329 1643.12,660.772 1641.69,660.9C1640.25,661.027 1638.8,660.821 1637.33,660.282C1635.86,659.742 1634.6,658.825 1633.53,657.529C1632.38,656.125 1631.7,654.527 1631.5,652.734C1631.29,650.941 1631.6,649.22 1632.41,647.571C1630.15,648.538 1628,648.783 1625.97,648.307C1623.94,647.83 1622.21,646.727 1620.79,644.995C1619.67,643.632 1618.9,642.046 1618.48,640.238C1618.06,638.429 1618.08,636.69 1618.54,635.02C1619.01,633.349 1619.97,631.766 1621.44,630.269C1622.36,629.332 1624.73,627.268 1628.57,624.076L1638.77,615.706L1663.36,645.685ZM1653.22,645.66L1647.53,638.728L1643.56,641.982C1641.2,643.917 1639.77,645.153 1639.25,645.691C1638.32,646.663 1637.8,647.689 1637.69,648.769C1637.58,649.848 1637.92,650.872 1638.72,651.84C1639.48,652.767 1640.35,653.31 1641.34,653.47C1642.33,653.631 1643.37,653.358 1644.48,652.653C1645.14,652.229 1646.89,650.849 1649.74,648.512L1653.22,645.66ZM1261.38,651.994L1268.51,643.618L1265.25,640.84C1262.9,638.839 1261.2,637.656 1260.14,637.29C1259.09,636.924 1258.05,636.878 1257.04,637.153C1256.03,637.428 1255.16,638.001 1254.41,638.874C1253.5,639.948 1253.06,641.102 1253.1,642.338C1253.13,643.573 1253.56,644.69 1254.38,645.687C1254.98,646.428 1256.35,647.712 1258.5,649.542L1261.38,651.994ZM1643.44,633.738L1636.86,625.722L1631.26,630.318C1629.08,632.107 1627.75,633.304 1627.26,633.907C1626.49,634.809 1626.09,635.809 1626.04,636.907C1626,638.005 1626.41,639.085 1627.28,640.149C1628.02,641.049 1628.87,641.633 1629.82,641.902C1630.77,642.172 1631.77,642.111 1632.83,641.721C1633.89,641.331 1635.8,640.006 1638.55,637.747L1643.44,633.738ZM1649.44,604.611L1676.96,631.92L1671.45,637.478L1643.92,610.169L1649.44,604.611ZM1232.56,635.145L1227.33,629.322L1234.21,623.135C1236.44,621.131 1237.85,619.721 1238.43,618.903C1239.01,618.084 1239.2,617.027 1239.01,615.731C1238.82,614.435 1238.01,613 1236.6,611.426C1235.48,610.18 1234.35,609.192 1233.21,608.463C1232.07,607.735 1230.92,607.252 1229.76,607.015L1217.32,618.187L1212.09,612.364L1240.93,586.448L1246.16,592.271L1234.56,602.701C1236.14,603.41 1237.58,604.215 1238.88,605.114C1240.17,606.013 1241.31,607.014 1242.3,608.116C1244.88,610.988 1246.36,614.001 1246.75,617.155C1247.12,620.31 1245.64,623.389 1242.3,626.395L1232.56,635.145ZM1674.61,575.08L1704.74,599.477L1699.82,605.562L1687.95,595.959L1678.3,607.882L1690.16,617.485L1685.24,623.569L1655.1,599.172L1660.03,593.087L1673.2,603.755L1682.86,591.832L1669.68,581.164L1674.61,575.08ZM1585.51,555.383C1560.11,578.551 1532.8,592.841 1504.26,601.345L1501.37,602.206L1503.09,607.985L1505.98,607.124C1535.35,598.375 1563.44,583.674 1589.57,559.838L1591.8,557.807L1587.74,553.352L1585.51,555.383ZM1353.66,597.204L1362.18,597.204L1389.19,340.963C1391.02,324.109 1394.92,315.663 1404.45,310.838L1404.45,301.261L1309.6,301.261L1309.6,310.838C1320.03,315.277 1322.32,320.932 1325.25,340.963L1353.66,597.204ZM1220.74,591.963C1217.44,594.136 1214.35,595.466 1211.46,595.953C1209.33,596.303 1207.18,596.273 1205.04,595.862C1202.89,595.452 1201,594.696 1199.36,593.597C1197.18,592.142 1195.22,590.096 1193.49,587.46C1190.34,582.689 1189.31,577.897 1190.38,573.084C1191.46,568.27 1194.63,564.127 1199.9,560.655C1205.13,557.212 1210.15,555.94 1214.98,556.837C1219.8,557.735 1223.78,560.562 1226.91,565.318C1230.09,570.134 1231.14,574.93 1230.07,579.706C1229.01,584.483 1225.89,588.569 1220.74,591.963ZM1727.62,563.228L1723.07,570.707L1701.17,567.972L1714.35,585.032L1710.1,592.014L1691.74,565.515C1689.75,562.636 1688.43,560.13 1687.78,557.999C1687.13,555.867 1687.41,553.8 1688.63,551.797C1689.83,549.823 1690.9,548.357 1691.83,547.398L1696.8,550.423C1696.16,551.335 1695.61,552.176 1695.14,552.944C1694.2,554.495 1693.81,555.778 1693.96,556.792C1694.12,557.806 1694.95,559.19 1696.44,560.944L1727.62,563.228ZM1216.08,585.372C1219.75,582.957 1221.97,580.28 1222.75,577.34C1223.53,574.4 1223.06,571.627 1221.34,569.021C1219.62,566.414 1217.28,564.894 1214.3,564.459C1211.32,564.024 1207.95,565.043 1204.2,567.516C1200.49,569.96 1198.25,572.597 1197.5,575.427C1196.75,578.257 1197.26,581.019 1199.03,583.714C1200.81,586.408 1203.16,587.972 1206.09,588.404C1209.03,588.836 1212.36,587.825 1216.08,585.372ZM1419.19,570.873L1419.19,349.288C1432.36,332.273 1450.21,327.668 1483.04,327.668L1579.21,327.668L1560.79,545.576L1483.04,545.576C1449.75,545.576 1434.17,545.576 1419.19,570.873ZM1374.5,545.576L1396.4,337.089C1401.6,340.178 1406.34,344.579 1410.98,349.288L1410.98,570.873C1402.1,557.296 1390.63,547.787 1374.5,545.576ZM1178.02,560.784L1171.53,546.708C1170.25,543.921 1169.41,541.79 1169.01,540.314C1168.61,538.838 1168.53,537.389 1168.77,535.969C1169.01,534.549 1169.57,533.196 1170.47,531.911C1171.36,530.626 1172.57,529.632 1174.09,528.931C1175.74,528.171 1177.46,527.918 1179.24,528.172C1181.03,528.427 1182.62,529.156 1184.01,530.36C1183.64,527.926 1183.95,525.786 1184.92,523.939C1185.9,522.093 1187.4,520.701 1189.43,519.763C1191.04,519.025 1192.76,518.68 1194.62,518.727C1196.48,518.775 1198.15,519.234 1199.65,520.107C1201.15,520.979 1202.44,522.312 1203.52,524.105C1204.19,525.231 1205.59,528.053 1207.71,532.57L1213.24,544.557L1178.02,560.784ZM1618.62,528.957C1612,538.101 1606.11,546.818 1597.59,554.363C1621.9,558.92 1644.41,552.491 1655.01,522.224C1643.97,525.757 1628.39,530.956 1618.62,528.957ZM1180.61,550.973L1188.75,547.221L1186.6,542.56C1185.32,539.79 1184.49,538.087 1184.1,537.451C1183.4,536.301 1182.54,535.538 1181.52,535.162C1180.5,534.786 1179.42,534.861 1178.29,535.384C1177.2,535.886 1176.45,536.594 1176.05,537.508C1175.64,538.423 1175.64,539.505 1176.04,540.757C1176.29,541.498 1177.18,543.542 1178.72,546.889L1180.61,550.973ZM1599.83,491.985C1584.45,506.397 1585.44,523.12 1592.32,549.576C1604.04,537.848 1613.36,524.394 1613.36,524.394C1613.36,524.394 1604.26,509.685 1599.83,491.985ZM1316.85,327.668L1248.69,327.668L1267.53,545.576L1339.55,545.576L1316.85,327.668ZM1194.61,544.52L1204.03,540.181L1200.99,533.599C1199.81,531.037 1198.99,529.444 1198.53,528.822C1197.85,527.854 1196.99,527.209 1195.93,526.888C1194.88,526.566 1193.73,526.693 1192.48,527.269C1191.43,527.756 1190.65,528.425 1190.15,529.277C1189.65,530.129 1189.45,531.117 1189.56,532.241C1189.67,533.365 1190.47,535.544 1191.96,538.779L1194.61,544.52ZM1749.92,510.552L1747.34,517.409L1723.18,508.322L1741.81,532.114L1739.06,539.417L1702.77,525.767L1705.35,518.91L1729.04,527.82L1710.87,504.23L1713.63,496.902L1749.92,510.552ZM1751.88,532.764L1750.6,536.156C1748.43,535.114 1746.97,533.663 1746.2,531.804C1745.44,529.945 1745.48,527.918 1746.3,525.723C1747.13,523.528 1748.44,521.982 1750.24,521.085C1752.03,520.188 1754.09,520.062 1756.41,520.708L1755.14,524.1C1753.92,523.775 1752.88,523.854 1752.01,524.337C1751.14,524.82 1750.45,525.738 1749.94,527.091C1749.43,528.445 1749.35,529.59 1749.68,530.526C1750.02,531.462 1750.75,532.208 1751.88,532.764ZM1638.49,492.976C1633.89,503.279 1629.9,513.017 1623.11,522.144C1647.84,521.634 1668.55,510.739 1672.74,478.944C1662.66,484.66 1648.47,492.934 1638.49,492.976ZM1160.17,519.874L1158.06,512.858L1182.79,505.432L1153.54,497.811L1151.3,490.339L1188.43,479.185L1190.54,486.201L1166.3,493.483L1195.05,501.222L1197.31,508.72L1160.17,519.874ZM1612.54,460.626C1600.44,477.877 1604.82,494.046 1616.97,518.536C1626.05,504.658 1632.41,489.584 1632.41,489.584C1632.41,489.584 1620.5,477.046 1612.54,460.626ZM1515.83,402.08C1536.86,409.621 1551.98,429.291 1551.98,450.264C1551.98,483.473 1528.26,511.241 1491.61,511.241C1461.15,511.241 1430.67,484.517 1430.67,450.299C1430.67,395.613 1473.49,367.176 1544.75,369.935L1549.21,370.108L1549.21,393.692L1544.79,393.9C1535.16,394.353 1525.02,396.876 1515.83,402.08ZM1760.43,467.288L1758.86,474.444L1733.65,468.906L1755.49,489.788L1753.82,497.409L1715.94,489.091L1717.52,481.935L1742.24,487.365L1720.88,466.616L1722.56,458.97L1760.43,467.288ZM1649.97,455.228C1647.53,465.817 1645.58,475.758 1640.85,485.642C1664.12,480.566 1681.67,466.426 1679.72,435.61C1671.26,442.883 1659.39,453.335 1649.97,455.228ZM1619.45,429.487C1611.22,448.032 1618.36,462.493 1634.38,483.373C1640.38,468.576 1643.6,453.153 1643.6,453.153C1643.6,453.153 1630.02,443.521 1619.45,429.487ZM1187.35,475.225L1165.32,465.25L1148.85,479.972L1147.44,470.93L1158.55,461.327L1145.07,455.721L1143.67,446.757L1164.13,455.772L1181.79,439.606L1183.25,448.935L1171.33,459.495L1185.9,465.948L1187.35,475.225ZM1725.96,419.894L1764.63,422.656L1764.07,430.465L1748.85,429.378L1747.76,444.679L1762.98,445.766L1762.42,453.575L1723.75,450.813L1724.31,443.004L1741.22,444.212L1742.31,428.91L1725.4,427.703L1725.96,419.894ZM1539.92,377.73C1478.59,376.509 1440.64,401.493 1439.97,449.012C1439.96,449.439 1439.96,450.299 1439.96,450.299L1542.69,450.264C1542.69,450.264 1542.69,449.779 1542.69,449.538C1542.28,429.797 1525.43,411.873 1504.04,408.631C1500.07,407.871 1496.74,407.598 1493.86,407.658C1496.09,405.136 1498.85,402.76 1501.81,400.439C1513.4,391.353 1526.82,387.532 1539.92,386.161L1539.92,377.73ZM1655.34,416.791C1654.86,427.458 1654.72,437.413 1651.89,447.803C1673.49,438.789 1687.96,422.022 1680.64,392.576C1673.74,401.101 1664.12,413.298 1655.34,416.791ZM1621.29,397.293C1616.61,416.673 1626.07,429.393 1645.24,446.751C1648.43,431.387 1648.82,415.91 1648.82,415.91C1648.82,415.91 1633.99,408.996 1621.29,397.293ZM1181.32,411.722L1149.12,410.807L1148.79,422.308L1142.23,422.122L1143.11,391.322L1149.66,391.508L1149.34,402.982L1181.54,403.896L1181.32,411.722ZM1762.43,378.361L1762.98,386.17L1747.52,387.249L1748.25,397.697C1748.59,402.623 1747.69,406.269 1745.54,408.637C1743.39,411.006 1740.7,412.302 1737.48,412.527C1734.85,412.711 1732.56,412.199 1730.62,410.991C1728.67,409.783 1727.32,408.344 1726.54,406.676C1725.76,405.007 1725.25,402.554 1725.03,399.317L1723.76,381.059L1762.43,378.361ZM1615.27,365.057C1614.62,384.984 1626.47,395.514 1648.77,408.611C1648.77,392.918 1646,377.687 1646,377.687C1646,377.687 1630.07,373.933 1615.27,365.057ZM1653.28,376.663C1654.97,387.206 1655.32,397.865 1654.67,408.611C1673.99,395.393 1682.43,375.289 1673.99,351.538C1668.96,361.288 1661.15,371.459 1653.28,376.663ZM1730.79,388.416L1731.32,396.015C1731.49,398.478 1731.73,400.175 1732.03,401.109C1732.34,402.042 1732.94,402.853 1733.83,403.542C1734.73,404.23 1735.79,404.532 1737.03,404.446C1738.8,404.322 1740.06,403.593 1740.8,402.26C1741.54,400.927 1741.8,398.722 1741.58,395.644L1741.03,387.702L1730.79,388.416ZM1182.38,387.399L1144.09,381.277L1148.63,352.888L1155.11,353.924L1151.8,374.582L1160.29,375.939L1163.37,356.717L1169.82,357.749L1166.74,376.971L1177.16,378.637L1180.58,357.248L1187.04,358.279L1182.38,387.399ZM1754.52,337.963L1760.44,364.475L1722.59,372.916L1720.89,365.275L1752.33,358.262L1749.79,346.877L1733.63,350.482C1729,351.515 1725.74,352.08 1723.83,352.179C1721.93,352.279 1720.34,351.844 1719.04,350.877C1717.75,349.909 1716.82,348.152 1716.26,345.605C1716.06,344.71 1715.78,343.064 1715.43,340.668L1721.34,339.35L1721.69,341.059C1722.05,342.659 1722.5,343.687 1723.06,344.142C1723.61,344.597 1724.73,344.636 1726.42,344.26L1732.92,342.783L1754.52,337.963ZM1603.61,333.323L1636.14,343.485L1644.81,369.752C1620.17,365.608 1604.63,354.788 1603.61,333.323ZM1643.27,340.417L1656.96,309.909C1670.79,330.592 1668.89,349.916 1651.26,367.881L1643.27,340.417ZM1187.44,355.527L1171.84,337.045L1150.64,343.251L1153.26,334.482L1167.42,330.592L1157.66,319.732L1160.25,311.038L1174.85,327.979L1197.75,320.982L1195.05,330.031L1179.74,334.434L1190.13,346.53L1187.44,355.527ZM1715.1,338.941L1712.12,330.962L1719.19,324.712L1713.77,310.19L1704.4,310.269L1701.5,302.488L1743.11,303.09L1746,310.847L1715.1,338.941ZM1617.5,330.031L1618.96,301.261L1644.81,317.934L1636.67,337.089L1617.5,330.031ZM1549.49,273.239C1570.6,288.432 1588.61,307.749 1603.02,327.442L1603.8,328.494L1613.08,330.963L1607.89,323.88C1593.11,303.699 1574.64,283.915 1553.01,268.345L1549.49,265.811L1545.96,270.705L1549.49,273.239ZM1557.01,262.598C1576.43,275.281 1594.19,295.667 1608.26,313.98L1613.04,320.202L1613.08,310.352L1613.04,310.306C1598.58,291.483 1580.27,270.586 1560.31,257.549L1557.01,255.396L1553.71,260.445L1557.01,262.598ZM1724.43,320.075L1736.05,310.042L1720.74,310.163L1724.43,320.075ZM1199.37,317.183L1164.08,301.109L1167.33,293.985L1181.22,300.311L1187.58,286.351L1173.69,280.025L1176.93,272.9L1212.22,288.974L1208.97,296.098L1193.55,289.07L1187.19,303.03L1202.61,310.058L1199.37,317.183ZM1571.12,240.505C1596.06,258.458 1618.78,281.739 1633.49,305.177L1634.37,306.579L1643.86,310.352L1638.6,301.972C1623.51,277.929 1600.23,254.027 1574.64,235.611L1572.19,233.85L1568.67,238.744L1571.12,240.505ZM1578.91,230.853C1606.85,250.954 1631.99,277.731 1646.21,303.929L1649.69,310.352L1652.94,303.703L1651.51,301.053C1636.9,274.146 1611.12,246.604 1582.44,225.959L1579.99,224.198L1576.47,229.092L1578.91,230.853ZM1563.27,251.401C1581.07,264.207 1597.73,279.726 1611.16,296.079L1614.3,299.906L1615.82,296.079L1618.96,296.079L1615.82,292.252C1602.06,275.509 1585.01,259.618 1566.79,246.507L1564.35,244.746L1560.82,249.64L1563.27,251.401ZM1684.64,271.566L1718.67,252.984L1722.42,259.855L1709.03,267.169L1716.38,280.632L1729.78,273.319L1733.53,280.19L1699.5,298.772L1695.75,291.901L1710.62,283.776L1703.27,270.312L1688.39,278.437L1684.64,271.566ZM1329.81,295.392C1334.05,269.671 1351.75,254.912 1387.55,254.891C1372.77,271.382 1369.36,285.573 1387.55,295.392C1392.09,283.694 1409.28,279.453 1448.29,274.938C1474.97,271.851 1496.03,246.132 1507.71,225.023C1483.93,230.453 1460.03,233.632 1435.52,225.023C1446.8,223.013 1456.35,219.457 1462.61,212.966C1426.23,218.342 1394.37,203.546 1357.02,209.707C1304.66,218.342 1287.39,268.229 1329.81,295.392ZM1326.35,287.658C1304.63,260.26 1307.15,234.338 1342.15,221.716C1379.61,208.21 1428.02,251.784 1480,242.467C1467.67,256.06 1449.1,267.093 1428.02,267.573C1401.23,268.184 1389.58,275.92 1386.44,287.658C1376.23,275.7 1386.12,263.742 1402.2,251.784C1356.16,241.124 1324.18,245.784 1326.35,287.658ZM1199.11,272.64C1195.79,270.488 1193.34,268.187 1191.73,265.736C1190.56,263.921 1189.73,261.946 1189.24,259.812C1188.76,257.678 1188.69,255.643 1189.05,253.707C1189.5,251.125 1190.59,248.51 1192.31,245.863C1195.42,241.073 1199.4,238.205 1204.24,237.26C1209.08,236.316 1214.15,237.563 1219.44,241.002C1224.69,244.413 1227.87,248.508 1228.98,253.287C1230.09,258.067 1229.1,262.845 1225.99,267.621C1222.85,272.456 1218.88,275.341 1214.07,276.278C1209.27,277.215 1204.28,276.003 1199.11,272.64ZM1203.28,265.732C1206.96,268.124 1210.3,269.087 1213.31,268.621C1216.31,268.156 1218.67,266.614 1220.37,263.997C1222.07,261.38 1222.52,258.62 1221.73,255.717C1220.93,252.814 1218.65,250.138 1214.88,247.688C1211.15,245.267 1207.84,244.278 1204.95,244.72C1202.05,245.163 1199.73,246.737 1197.97,249.443C1196.21,252.148 1195.72,254.932 1196.5,257.794C1197.28,260.655 1199.54,263.301 1203.28,265.732ZM1673.99,224.628C1677.14,222.242 1680.13,220.71 1682.99,220.033C1685.09,219.543 1687.23,219.431 1689.4,219.699C1691.57,219.966 1693.51,220.595 1695.21,221.584C1697.49,222.892 1699.58,224.803 1701.48,227.319C1704.93,231.871 1706.28,236.585 1705.53,241.459C1704.78,246.333 1701.88,250.676 1696.85,254.489C1691.87,258.27 1686.93,259.872 1682.06,259.296C1677.19,258.719 1673.03,256.161 1669.59,251.622C1666.11,247.027 1664.74,242.311 1665.49,237.474C1666.24,232.638 1669.07,228.355 1673.99,224.628ZM1679.07,230.897C1675.57,233.549 1673.53,236.367 1672.95,239.352C1672.37,242.336 1673.02,245.072 1674.91,247.559C1676.79,250.047 1679.24,251.409 1682.24,251.646C1685.24,251.883 1688.53,250.643 1692.11,247.927C1695.65,245.243 1697.71,242.465 1698.27,239.591C1698.84,236.718 1698.15,233.995 1696.2,231.424C1694.25,228.852 1691.8,227.448 1688.84,227.211C1685.88,226.973 1682.63,228.202 1679.07,230.897ZM1211.31,220.462L1229.08,199.915L1258.41,225.274L1253.29,231.196L1228.92,210.127L1221.29,218.95L1233.82,229.779C1237.4,232.881 1239.8,235.166 1241.02,236.634C1242.23,238.103 1242.83,239.643 1242.82,241.256C1242.82,242.87 1241.96,244.663 1240.25,246.637C1239.65,247.331 1238.5,248.534 1236.78,250.246L1232.2,246.285L1233.36,244.981C1234.43,243.741 1234.99,242.763 1235.03,242.048C1235.06,241.333 1234.42,240.41 1233.12,239.28L1228.06,234.941L1211.31,220.462ZM1649.02,226.543L1677.28,200.003L1682.64,205.71L1654.37,232.25L1649.02,226.543ZM1645.73,170.902L1651.62,176.066L1630.33,200.318L1641.74,210.332L1663.03,186.079L1668.91,191.243L1647.63,215.496L1650.05,217.624L1640.18,228.876L1635.29,224.584L1640.87,218.223L1620.15,200.045L1645.73,170.902ZM1250.5,205.986C1247.95,202.974 1246.26,200.064 1245.42,197.256C1244.82,195.179 1244.59,193.049 1244.74,190.866C1244.89,188.683 1245.41,186.715 1246.3,184.962C1247.48,182.619 1249.28,180.427 1251.68,178.386C1256.04,174.691 1260.67,173.086 1265.58,173.571C1270.49,174.056 1274.98,176.705 1279.07,181.519C1283.12,186.293 1284.99,191.129 1284.68,196.026C1284.37,200.924 1282.04,205.214 1277.7,208.898C1273.3,212.627 1268.67,214.251 1263.8,213.769C1258.92,213.287 1254.49,210.693 1250.5,205.986ZM1256.48,200.567C1259.32,203.915 1262.25,205.798 1265.26,206.214C1268.27,206.631 1270.97,205.83 1273.35,203.811C1275.73,201.793 1276.96,199.279 1277.03,196.27C1277.1,193.261 1275.68,190.042 1272.78,186.613C1269.9,183.224 1267.01,181.326 1264.11,180.919C1261.21,180.511 1258.53,181.351 1256.07,183.438C1253.61,185.525 1252.34,188.051 1252.27,191.016C1252.19,193.981 1253.6,197.165 1256.48,200.567ZM1616.77,197.276L1609.6,192.683L1611.5,183.441L1598.44,175.083L1591,180.775L1584.01,176.297L1617.63,151.786L1624.6,156.25L1616.77,197.276ZM1397.29,37.662L1508.51,37.662L1508.51,161.435C1508.51,171.326 1507.54,174.753 1498.45,178.55L1452.9,197.188L1407.35,178.55C1398.25,174.753 1397.29,171.326 1397.29,161.435L1397.29,37.662ZM1276.47,159.88L1298.7,145.892L1302.17,151.399L1286.56,161.217L1303.75,188.527L1297.12,192.697L1276.47,159.88ZM1410.05,59.255C1411.98,60.516 1413.82,61.579 1415.51,62.833C1427.08,71.431 1432.34,83.048 1433.47,96.83C1434.12,104.803 1435.39,112.729 1436.38,120.677C1436.4,120.811 1436.38,120.949 1436.38,120.911C1434.79,121.247 1433.17,121.349 1431.76,121.93C1428.81,123.149 1427.38,126.064 1427.88,129.29C1428.33,132.225 1430.79,134.448 1434.22,135.006C1438.09,135.636 1438.14,135.66 1440.63,130.64C1445.74,120.339 1449.43,109.607 1449.3,98.085C1449.2,88.939 1448.33,79.802 1447.87,70.658C1447.61,65.415 1446.76,60.089 1449.04,55.048C1450,52.929 1451.36,50.979 1452.9,48.31C1454.45,51.039 1455.82,53.059 1456.79,55.237C1458.99,60.119 1458.17,65.281 1457.92,70.355C1457.53,77.967 1457.05,85.575 1456.53,93.18C1455.82,103.781 1457.99,113.905 1462.02,123.693C1463.71,127.79 1465.75,131.751 1467.55,135.618C1473.93,136.106 1478.31,132.301 1477.91,126.958C1477.7,124.209 1474.77,121.456 1471.8,121.262C1471,121.209 1470.19,121.254 1469.32,121.254C1469.63,118.741 1469.92,116.375 1470.23,114.011C1471.31,105.572 1472.16,97.099 1473.55,88.707C1474.79,81.227 1478.16,74.467 1483.63,69.005C1487.11,65.527 1491.34,62.737 1495.23,59.643C1495.38,59.526 1495.58,59.465 1495.85,59.329L1495.85,159.099L1472.35,159.099C1470.94,162.687 1469.88,166.093 1468.31,169.263C1465.45,175.022 1461.03,179.594 1455.69,183.373C1455.12,183.781 1454.68,184.378 1454.22,184.918C1453.76,185.455 1453.35,186.032 1452.95,186.54C1451.98,185.47 1451.08,184.358 1450.05,183.368C1447.08,180.507 1443.81,177.898 1441.12,174.817C1437.35,170.506 1435.22,165.337 1433.99,159.833C1433.93,159.578 1433.48,159.22 1433.22,159.217C1425.71,159.13 1418.21,159.083 1410.7,159.027C1410.49,159.025 1410.29,159.003 1410.05,158.989L1410.05,59.255ZM1322.86,177.094L1304.77,142.796L1311.7,139.145L1329.78,173.443L1322.86,177.094ZM1612.9,176.584L1616.16,161.586L1603.99,170.88L1612.9,176.584ZM1551.94,161.694L1568,126.402L1575.12,129.645L1568.8,143.535L1582.77,149.889L1589.09,135.999L1596.21,139.241L1580.15,174.533L1573.03,171.29L1580.05,155.859L1566.09,149.505L1559.06,164.936L1551.94,161.694ZM1456.53,159.164L1456.53,173.641C1460.58,169.413 1463.28,164.671 1464.64,159.164L1456.53,159.164ZM1441.21,159.164C1441.23,162.258 1447.15,172.797 1449.25,173.475L1449.25,159.164L1441.21,159.164ZM1321.74,133.844L1328.52,131.079L1338.26,154.983L1343.07,125.148L1350.29,122.203L1364.93,158.107L1358.14,160.873L1348.59,137.434L1343.62,166.794L1336.37,169.749L1321.74,133.844ZM1465.66,152.192C1465.23,149.323 1464.82,146.552 1464.4,143.714C1461.57,144.031 1459.49,145.177 1458.17,147.181C1457.21,148.625 1456.77,150.376 1456.01,152.192L1465.66,152.192ZM1440.12,152.189L1449.92,152.189C1448.9,150.118 1448.35,148.059 1447.05,146.625C1445.75,145.188 1443.7,144.374 1441.49,142.975C1440.95,146.574 1440.54,149.346 1440.12,152.189ZM1434.39,142.069L1432.93,152.178L1417.05,152.178L1417.05,131.516C1418.33,131.516 1419.57,131.507 1420.82,131.529C1420.95,131.532 1421.14,131.695 1421.19,131.821C1423.2,137.89 1427.76,140.957 1434.07,141.983C1434.18,142 1434.28,142.032 1434.38,142.065L1434.39,142.069ZM1488.72,131.622C1488.03,131.592 1487.29,131.415 1486.64,131.568C1485.83,131.757 1484.63,132.042 1484.4,132.595C1482.86,136.289 1480.33,139.055 1476.55,140.634C1474.89,141.328 1473.06,141.665 1471.4,142.138C1471.88,145.471 1472.36,148.81 1472.84,152.177L1488.72,152.177L1488.72,131.622ZM1445.52,137.178C1447.93,138.752 1450.51,140.431 1452.88,141.97C1455.28,140.415 1457.87,138.736 1460.28,137.18C1457.81,131.818 1455.22,126.205 1452.88,121.137C1450.55,126.217 1447.97,131.835 1445.52,137.178ZM1336.7,117.317L1340.06,115.949C1340.77,118.249 1340.7,120.31 1339.85,122.131C1339,123.953 1337.5,125.306 1335.32,126.191C1333.15,127.076 1331.13,127.164 1329.25,126.455C1327.37,125.745 1325.88,124.32 1324.78,122.179L1328.13,120.811C1328.72,121.924 1329.49,122.635 1330.43,122.945C1331.38,123.255 1332.52,123.137 1333.86,122.591C1335.19,122.045 1336.09,121.331 1336.55,120.449C1337.01,119.567 1337.06,118.523 1336.7,117.317ZM1417.06,73.061L1417.06,124.621C1417.92,124.621 1418.73,124.556 1419.53,124.636C1420.69,124.753 1421.05,124.197 1421.63,123.275C1423.02,121.089 1424.75,119.089 1426.45,117.101C1427.22,116.207 1428.95,116.198 1428.48,114.245C1427.91,111.907 1427.89,109.452 1427.51,107.065C1426.13,98.339 1426.54,89.254 1422.15,81.124C1420.76,78.544 1419.02,76.137 1417.06,73.061ZM1488.74,73.691C1488.53,73.859 1488.46,73.897 1488.41,73.952C1484.66,78.306 1481.86,83.196 1480.83,88.747C1479.65,95.132 1478.99,101.607 1478.13,108.046C1477.78,110.626 1477.49,113.213 1477.17,115.791C1481.03,117.719 1483.44,120.664 1484.7,124.577L1488.74,124.577L1488.74,73.691Z"/>
        </g>
    </g>
</svg>
