<svg clip-rule="evenodd" fill-rule="evenodd" stroke-linejoin="round" stroke-miterlimit="2" viewBox="0 0 537 495" xmlns="http://www.w3.org/2000/svg"><path d="m-1276.43-361.467h-430.6v396.581h430.6zm-368.36 337.571 43.79-45.398s40.91 45.629 40.91 45.629l46.71-45.869s42.52 45.809 42.52 45.809l46.09-45.756s42.22 45.913 42.22 45.913l54.06-56.317-10.21-9.798-43.63 45.452s-41.98-45.649-41.98-45.649l-46.14 45.805s-42.46-45.751-42.46-45.751l-46.53 45.691s-41.18-45.932-41.18-45.932l-54.35 56.348zm0-107.037 43.79-45.398s40.91 45.629 40.91 45.629l46.71-45.869s42.52 45.809 42.52 45.809l46.09-45.756s42.22 45.913 42.22 45.913l54.06-56.317-10.21-9.798-43.63 45.452s-41.98-45.649-41.98-45.649l-46.14 45.805s-42.46-45.751-42.46-45.751l-46.53 45.691s-41.18-45.932-41.18-45.932l-54.35 56.348zm0-105.681 43.79-45.397s40.91 45.629 40.91 45.629l46.71-45.87s42.52 45.81 42.52 45.81l46.09-45.756s42.22 45.912 42.22 45.912l54.06-56.316-10.21-9.799-43.63 45.452s-41.98-45.648-41.98-45.648l-46.14 45.805s-42.46-45.752-42.46-45.752l-46.53 45.692s-41.18-45.933-41.18-45.933l-54.35 56.349z" fill="#fff" transform="matrix(1.247 0 0 1.247 2128.67 450.75)"/></svg>