<?xml version="1.0" encoding="UTF-8" standalone="no"?>
<!DOCTYPE svg PUBLIC "-//W3C//DTD SVG 1.1//EN" "http://www.w3.org/Graphics/SVG/1.1/DTD/svg11.dtd">
<svg width="100%" height="100%" viewBox="0 0 933 721" version="1.1" xmlns="http://www.w3.org/2000/svg" xmlns:xlink="http://www.w3.org/1999/xlink" xml:space="preserve" xmlns:serif="http://www.serif.com/" style="fill-rule:evenodd;clip-rule:evenodd;stroke-linejoin:round;stroke-miterlimit:2;">
    <g transform="matrix(1,0,0,1,-3392.74,-646.551)">
        <g transform="matrix(0.544104,0,0,0.546248,2447.31,653.367)">
            <path d="M2594.15,1305.6C3066.9,1305.6 3450.71,1010.3 3450.71,646.563C3450.71,282.828 3066.9,-12.478 2594.15,-12.478C2121.4,-12.478 1737.59,282.828 1737.59,646.563C1737.59,1010.3 2121.4,1305.6 2594.15,1305.6ZM2594.15,1285.96C2133.45,1285.96 1757.24,1001.03 1757.24,646.563C1757.24,292.099 2133.45,7.169 2594.15,7.169C3054.85,7.169 3431.06,292.099 3431.06,646.563C3431.06,1001.03 3054.85,1285.96 2594.15,1285.96ZM2562.3,1241.17L2562.09,1168.91L2576.54,1168.87L2576.7,1221.75L2609.3,1168.77L2622.64,1168.73L2622.85,1240.99L2608.4,1241.04L2608.24,1188.11L2575.63,1241.13L2562.3,1241.17ZM2475.9,1235.43L2481.58,1163.39L2495.99,1164.53L2491.83,1217.24L2528.65,1167.1L2541.94,1168.15L2536.26,1240.19L2521.85,1239.06L2526.01,1186.29L2489.18,1236.48L2475.9,1235.43ZM2755.75,1207.13L2721.65,1160.51L2737.58,1157.81L2760.8,1189.58L2760.89,1189.56L2772.39,1151.91L2785.68,1149.66L2768.55,1205.8C2765.77,1214.95 2762.74,1221.41 2759.45,1225.17C2756.69,1228.35 2750.28,1230.78 2740.24,1232.49L2738.17,1232.84L2736.45,1222.73L2738.23,1222.43C2743.59,1221.52 2747.29,1220.27 2749.31,1218.69C2751.34,1217.11 2753.2,1214.01 2754.89,1209.4L2755.75,1207.13ZM2390.86,1222.62L2402.53,1151.31L2417.37,1153.74L2412.64,1182.7L2442.13,1187.52L2446.87,1158.56L2461.71,1160.99L2450.04,1232.31L2435.2,1229.88L2440.52,1197.35L2411.03,1192.53L2405.7,1225.05L2390.86,1222.62ZM2815.14,1217.16L2797.45,1147.1L2812.03,1143.42L2819.22,1171.87L2848.19,1164.55L2841.01,1136.1L2855.59,1132.42L2873.28,1202.49L2858.7,1206.17L2850.63,1174.21L2821.65,1181.53L2829.72,1213.48L2815.14,1217.16ZM2321.03,1206.28L2338.14,1136.07L2352.75,1139.63L2345.61,1168.95L2350.3,1170.09C2356.88,1171.7 2361.5,1173.06 2364.16,1174.17C2366.82,1175.29 2369.15,1176.9 2371.15,1178.99C2375.74,1183.66 2377.16,1189.59 2375.42,1196.77C2373.5,1204.64 2368.99,1209.74 2361.89,1212.07C2357.04,1213.67 2349.24,1213.16 2338.49,1210.54L2321.03,1206.28ZM2337.85,1200.78L2342.17,1201.83C2347.36,1203.1 2351.49,1203.06 2354.59,1201.72C2357.68,1200.38 2359.7,1197.73 2360.66,1193.78C2361.55,1190.14 2360.9,1187.09 2358.72,1184.63C2356.54,1182.17 2352.82,1180.31 2347.57,1179.03L2343.4,1178.01L2337.85,1200.78ZM2236.03,1179.01L2239.45,1168.93C2244.25,1170.18 2248.07,1169.66 2250.91,1167.38C2253.74,1165.09 2256.61,1160.23 2259.51,1152.79L2264.18,1140.86C2265.12,1138.47 2266.61,1134.28 2268.64,1128.3L2273.06,1115.26L2318.98,1130.83L2295.78,1199.27L2281.49,1194.42L2301.51,1135.37L2283.29,1129.19L2281.45,1134.6C2274.43,1155.32 2268.94,1168.13 2264.97,1173.05C2261.54,1177.28 2257.69,1179.83 2253.43,1180.71C2249.16,1181.58 2243.36,1181.02 2236.03,1179.01ZM2898.05,1194.61L2875.79,1125.86L2890.1,1121.22L2912.35,1189.98L2898.05,1194.61ZM2937.14,1181.68L2910.57,1114.48L2933.41,1105.45C2940.16,1102.78 2945.8,1102.02 2950.33,1103.17C2954.86,1104.32 2958.09,1107.33 2960.02,1112.2C2963.21,1120.28 2960.1,1128.13 2950.68,1135.74C2964.46,1133.83 2973.17,1137.51 2976.84,1146.77C2978.95,1152.13 2978.74,1156.96 2976.19,1161.28C2973.65,1165.59 2968.94,1169.11 2962.07,1171.83L2937.14,1181.68ZM2161.22,1146.86L2216.04,1092.01L2229.81,1098.06L2226.48,1175.53L2212.36,1169.33L2213.23,1148.64L2185.88,1136.62L2171.23,1151.26L2161.22,1146.86ZM2946.53,1166.94L2949.53,1165.76C2955.4,1163.43 2959.2,1161.2 2960.93,1159.07C2962.66,1156.93 2962.87,1154.2 2961.55,1150.87C2960.2,1147.45 2957.58,1145.19 2953.7,1144.1C2949.82,1143.01 2945.61,1143.36 2941.07,1145.16L2938.35,1146.23L2946.53,1166.94ZM2575.21,1147.14L2585.46,1147.11L2585.47,1148.28C2585.47,1151.02 2585.97,1153.06 2586.97,1154.41C2587.97,1155.75 2589.48,1156.42 2591.49,1156.42C2593.51,1156.41 2595.03,1155.73 2596.03,1154.36C2597.03,1152.99 2597.53,1150.92 2597.53,1148.15L2597.47,1147.08L2607.73,1147.05C2607.74,1152.29 2606.39,1156.21 2603.68,1158.82C2600.97,1161.44 2596.92,1162.75 2591.51,1162.77C2586.08,1162.78 2582.01,1161.49 2579.3,1158.9C2576.59,1156.3 2575.22,1152.38 2575.21,1147.14ZM3002.88,1154.75L2971,1089.9L3011.53,1069.97L3015.9,1078.87L2988.87,1092.16L2997.76,1110.26L3019.94,1099.35L3024.2,1108.03L3002.03,1118.93L3011.86,1138.91L3040.95,1124.61L3045.47,1133.81L3002.88,1154.75ZM2092.95,1108.98L2128.57,1046.1L2141.65,1053.51L2127.19,1079.04L2153.19,1093.77L2167.65,1068.24L2180.74,1075.65L2145.13,1138.53L2132.04,1131.12L2148.28,1102.44L2122.28,1087.71L2106.04,1116.39L2092.95,1108.98ZM2193.14,1129.31L2213.7,1138.35L2215.01,1107.45L2193.14,1129.31ZM2934.79,1137.24L2938.11,1135.93C2942.04,1134.38 2944.78,1132.17 2946.34,1129.32C2947.89,1126.47 2948,1123.38 2946.68,1120.05C2945.46,1116.96 2943.7,1115.23 2941.41,1114.86C2939.11,1114.49 2935.37,1115.33 2930.19,1117.38L2927.38,1118.49L2934.79,1137.24ZM3063.62,1124L3026.31,1062.11L3047.89,1049.1C3055.41,1044.56 3061.55,1042.59 3066.29,1043.17C3071.03,1043.75 3075.18,1047 3078.74,1052.9C3082.78,1059.6 3083.76,1066.1 3081.7,1072.42C3079.64,1078.74 3074.73,1084.23 3066.98,1088.9L3061.63,1092.13L3076.25,1116.38L3063.62,1124ZM2527.47,1107.86C2514.46,1106.94 2501.56,1105.74 2488.78,1104.27L2488.78,1082.75L2460.68,1079.58L2460.68,1100.64C2405.14,1092.54 2352.16,1079.42 2302.74,1061.95L2296.36,1032.73L2267.93,1021.82L2273.46,1050.96C2185.2,1015.78 2109.6,966.469 2052.8,907.372C2097.54,927.355 2142.54,945.13 2187.39,960.876L2162.83,921.403C2108.42,902.209 2056.92,879.705 2010.63,856.97C1982.14,817.415 1961.43,774.566 1949.95,729.453C2040.86,757.103 2130.61,774.103 2219.59,784.179L2219.67,784.935C2219.98,787.639 2220.29,790.342 2220.61,793.044C2220.61,793.044 2220.89,795.362 2220.89,795.362C2229.91,796.958 2239.01,798.206 2248.14,799.047C2248.54,799.084 2248.05,798.256 2248,797.86C2247.91,797.069 2247.82,796.278 2247.72,795.487C2247.4,792.72 2247.09,789.951 2246.78,787.182L2246.76,787.047C2288.49,791.135 2330.04,793.779 2371.47,795.362L2345.22,767.247C2310.69,765.876 2276.72,763.116 2243.98,759.44C2236.91,681.859 2236.36,604.966 2242.74,528.821C2288.15,523.158 2335.32,518.83 2381.82,516.984C2375.81,508.214 2372.77,498.421 2371.47,488.023C2329.74,489.618 2287.89,492.288 2245.88,496.425C2252.23,438.758 2262.6,381.525 2277.16,324.742C2314.46,314.782 2353.6,306.662 2393.43,301.76C2397.37,290.531 2404.3,280.332 2412.81,270.675C2368.37,276.302 2326.06,284.582 2285.15,295.158C2291.29,273.458 2298.05,251.828 2305.47,230.276C2354.1,213.308 2406.14,200.512 2460.68,192.546L2460.68,238.703L2488.78,219.563L2488.78,188.92C2522.68,185.029 2557.48,183.022 2592.93,183.022C2629.13,183.022 2664.66,185.116 2699.28,189.179L2699.28,217.563L2727.38,236.703L2727.38,192.887C2782.33,201.051 2834.75,214.121 2883.65,231.426C2890.66,251.935 2897.07,272.515 2902.91,293.158C2862,282.582 2819.68,274.302 2775.25,268.675C2783.76,278.332 2790.69,288.531 2794.63,299.76C2834.46,304.662 2873.6,312.782 2910.89,322.742C2925.46,379.525 2935.83,436.758 2942.18,494.425C2900.17,490.288 2858.32,487.618 2816.59,486.023C2815.29,496.421 2812.25,506.214 2806.24,514.984C2852.74,516.83 2899.91,521.158 2945.31,526.821C2951.7,602.966 2951.15,679.859 2944.08,757.44C2911.34,761.116 2877.37,763.876 2842.84,765.247L2816.59,793.362C2858.02,791.779 2899.57,789.135 2941.29,785.047L2941.28,785.182C2940.97,787.951 2940.66,790.72 2940.33,793.487C2940.24,794.278 2940.15,795.069 2940.05,795.86C2940.01,796.256 2939.52,797.084 2939.91,797.047C2949.04,796.206 2958.14,794.958 2967.17,793.362C2967.17,793.362 2967.45,791.044 2967.45,791.044C2967.77,788.342 2968.08,785.639 2968.39,782.935L2968.47,782.179C3056.85,772.171 3145.98,755.332 3236.27,728.014C3224.98,773.127 3204.48,815.994 3176.21,855.572C3130.24,878.096 3079.16,900.376 3025.23,919.403L3000.67,958.876C3045.37,943.182 3090.22,925.472 3134.81,905.577C3078.2,965.043 3002.67,1014.71 2914.37,1050.18L2920.13,1019.82L2891.7,1030.73L2885.03,1061.28C2835.72,1078.83 2782.85,1092.08 2727.38,1100.3L2727.38,1077.58L2699.28,1080.75L2699.28,1104.01C2686.09,1105.56 2672.76,1106.82 2659.32,1107.79L2659.32,1063.29C2939.18,1040.13 2983.43,928.063 3101.67,795.658C2855.61,826.637 2684.45,850.824 2630.85,1063.29L2630.85,1109.4C2621.94,1109.76 2612.99,1110 2603.99,1110.1L2603.99,887.029C2770.28,815.832 2897.1,715.617 2911.58,532.84C2750.3,581.269 2646.25,685.637 2591.02,837.749C2535.79,685.637 2431.74,581.269 2270.46,532.84C2284.95,715.617 2411.76,815.832 2578.05,887.029L2578.05,1110.05C2570.65,1109.93 2563.28,1109.73 2555.94,1109.43L2555.94,1063.29C2502.34,850.824 2331.17,826.637 2085.12,795.658C2203.36,928.063 2247.61,1040.13 2527.47,1063.29L2527.47,1107.86ZM2043.41,1077.14C2034.55,1070.67 2029.5,1062.71 2028.26,1053.26C2027.02,1043.81 2029.79,1034.44 2036.56,1025.16C2043.42,1015.78 2051.53,1010.27 2060.9,1008.65C2070.26,1007.03 2079.48,1009.53 2088.55,1016.15C2097.57,1022.74 2102.74,1030.74 2104.05,1040.17C2105.37,1049.6 2102.63,1058.96 2095.84,1068.27C2088.89,1077.79 2080.73,1083.34 2071.37,1084.93C2062.01,1086.51 2052.68,1083.92 2043.41,1077.14ZM3056.51,1083.64L3059.02,1082.13C3063.42,1079.47 3066.28,1076.35 3067.6,1072.77C3068.91,1069.18 3068.51,1065.63 3066.4,1062.12C3062.68,1055.96 3056.91,1055.24 3049.07,1059.96L3044.06,1062.98L3056.51,1083.64ZM3167.52,1050.64C3163.76,1057.32 3157.98,1063.55 3150.18,1069.32C3140.66,1076.37 3131.26,1079.18 3121.98,1077.76C3112.7,1076.33 3104.5,1070.82 3097.39,1061.21C3090.14,1051.43 3087.24,1041.92 3088.68,1032.69C3090.13,1023.46 3095.81,1015.17 3105.72,1007.83C3112.05,1003.14 3118.89,999.222 3126.25,996.081L3133.25,1005.54C3124.32,1008.3 3117.47,1011.46 3112.68,1015.01C3106.56,1019.54 3103.28,1024.98 3102.83,1031.33C3102.39,1037.67 3104.81,1044.41 3110.1,1051.55C3115.29,1058.56 3121.13,1062.71 3127.61,1063.99C3134.08,1065.26 3140.5,1063.55 3146.86,1058.84C3152.56,1054.62 3157.24,1048.91 3160.92,1041.74L3167.52,1050.64ZM2049.44,1069.21C2054.64,1073.01 2060.26,1073.98 2066.28,1072.11C2072.3,1070.24 2077.86,1065.81 2082.97,1058.82C2087.92,1052.03 2090.37,1045.48 2090.32,1039.15C2090.26,1032.82 2087.73,1027.82 2082.71,1024.16C2077.63,1020.45 2072.08,1019.54 2066.05,1021.42C2060.02,1023.31 2054.5,1027.68 2049.49,1034.54C2044.51,1041.35 2042.03,1047.93 2042.03,1054.28C2042.03,1060.62 2044.5,1065.6 2049.44,1069.21ZM1988,1029.89L2035.78,975.678L2047.06,985.622L1999.28,1039.84L1988,1029.89ZM3185.55,1039.29L3135.87,986.804L3146.37,976.868L3182.72,1015.27L3170.16,954.345L3179.84,945.181L3229.52,997.662L3219.03,1007.6L3182.64,969.159L3195.23,1030.12L3185.55,1039.29ZM1925.28,966.745L1977.75,917.057L1988.09,927.977L1943.06,970.615L1963.61,992.313L2008.63,949.675L2018.98,960.595L1973.95,1003.23L1980.56,1010.22L1962.62,1027.2L1952.68,1016.71L1963.18,1006.77L1925.28,966.745ZM3258.4,964.509L3210.07,925.111L3193.72,945.17L3186.03,938.907L3228.27,887.095L3235.95,893.358L3219.6,913.417L3267.93,952.814L3258.4,964.509ZM1871.89,894.816L1946.98,875.438L1955.76,887.645L1913.53,952.682L1904.52,940.158L1915.78,922.789L1898.33,898.533L1878.28,903.694L1871.89,894.816ZM3294.39,917.643L3233.08,879.379L3257,841.064L3265.41,846.312L3249.45,871.869L3266.56,882.547L3279.64,861.588L3287.85,866.707L3274.76,887.666L3293.65,899.456L3310.82,871.952L3319.52,877.381L3294.39,917.643ZM1908.3,895.927L1921.42,914.159L1938.25,888.217L1908.3,895.927ZM1834.03,826.311L1897.64,792.017L1904.78,805.255L1878.95,819.181L1893.13,845.484L1918.96,831.558L1926.1,844.796L1862.49,879.09L1855.35,865.852L1884.36,850.211L1870.18,823.908L1841.17,839.549L1834.03,826.311ZM3337.06,843.092L3280.59,816.661L3269.62,840.1L3260.64,835.898L3288.97,775.355L3297.95,779.557L3286.98,802.996L3343.46,829.426L3337.06,843.092ZM1945.24,585.209C1981.82,575.864 2089.67,549.781 2215.2,532.443C2209.36,606.286 2209.86,680.845 2216.74,756.141C2085.15,739.061 1978.01,708.749 1943.59,698.319C1940.88,681.321 1939.51,664.07 1939.51,646.596C1939.51,625.795 1941.45,605.312 1945.24,585.209ZM3242.49,696.913C3206.09,707.862 3100.48,737.375 2971.32,754.141C2978.2,678.845 2978.7,604.286 2972.86,530.443C3095.39,547.367 3201.09,572.625 3240.08,582.512C3244.22,603.448 3246.34,624.848 3246.34,646.596C3246.34,663.61 3245.05,680.411 3242.49,696.913ZM1827.27,696.511L1795.21,699.223L1825.29,710.963L1827.71,743.059L1840,713.018L1872.02,710.602L1841.79,698.229L1839.09,666.247L1827.27,696.511ZM3349.8,680.352L3381.86,683.064L3351.78,694.804L3349.36,726.9L3337.07,696.859L3305.05,694.444L3335.28,682.07L3337.98,650.088L3349.8,680.352ZM2594.15,208.665C2711.56,208.665 2806.89,303.991 2806.89,421.405C2806.89,538.819 2711.56,634.144 2594.15,634.144C2476.74,634.144 2381.41,538.819 2381.41,421.405C2381.41,303.991 2476.74,208.665 2594.15,208.665ZM1827.27,586.524L1795.21,589.236L1825.29,600.977L1827.71,633.072L1840,603.031L1872.02,600.616L1841.79,588.243L1839.09,556.261L1827.27,586.524ZM3349.8,570.365L3381.86,573.078L3351.78,584.818L3349.36,616.913L3337.07,586.873L3305.05,584.457L3335.28,572.084L3337.98,540.102L3349.8,570.365ZM2405.72,448.801L2424.15,437.109L2463.78,472.249L2493.16,472.249L2493.16,501.229L2499.44,513.408L2493.16,525.118L2481.69,525.118L2474,571.461C2444.53,538.622 2416.95,503.507 2405.72,448.801ZM2596.88,375.036L2578.68,367.124L2574.41,351.122L2535.55,351.122L2499.44,395.093L2499.44,428.491L2525.58,448.906L2535.55,448.906L2550.9,437.475L2574.41,444.359L2566.68,469.425L2586.87,484.736L2574.41,506.933L2596.88,565.864L2613.08,565.864L2658.93,498.005L2658.93,481.219L2664.15,459.431L2689.48,430.956L2658.93,428.491L2639,375.036L2613.08,361.307L2596.88,375.036ZM2014.78,430.608C2056.73,407.742 2142.92,364.556 2246.68,333.394C2233.58,388.305 2224.1,443.622 2218.24,499.36C2130.64,509.349 2042.31,526.062 1952.85,553.048C1965.38,509.717 1986.45,468.582 2014.78,430.608ZM3232.1,550.099C3143.69,523.673 3056.4,507.233 2969.82,497.36C2963.96,441.622 2954.48,386.305 2941.38,331.394C3040.25,361.09 3123.18,401.706 3167.08,425.258C3196.75,463.885 3218.9,505.827 3232.1,550.099ZM2705.86,472.249L2683.68,501.229L2672.86,501.229L2677.31,537.873L2689.48,537.873L2700.93,513.606L2705.86,472.249ZM1865.68,479.984L1833.62,482.696L1863.69,494.436L1866.11,526.532L1878.41,496.491L1910.43,494.076L1880.2,481.703L1877.49,449.72L1865.68,479.984ZM3311.39,463.825L3343.46,466.538L3313.38,478.278L3310.96,510.373L3298.66,480.332L3266.64,477.917L3296.87,465.544L3299.58,433.562L3311.39,463.825ZM1924.44,380.781L1892.38,383.493L1922.46,395.233L1924.88,427.329L1937.17,397.288L1969.19,394.873L1938.96,382.499L1936.26,350.517L1924.44,380.781ZM3252.63,364.622L3284.69,367.334L3254.61,379.074L3252.19,411.17L3239.9,381.129L3207.88,378.714L3238.11,366.341L3240.81,334.358L3252.63,364.622ZM2465.55,283.103C2428.22,318.079 2410.27,358.096 2405.72,401.6L2417.68,409.221L2441.29,409.221L2424.15,387.112L2445.92,371.695L2465.55,324.797L2481.69,316.51L2481.69,297L2465.55,283.103ZM2531.31,337.811L2513.61,319.547L2531.31,283.103L2579.95,258.536L2599.5,231.421C2693.95,241.111 2752.9,293.924 2780.5,384.804L2760.32,401.6L2746.4,367.124L2714.28,361.307L2714.28,378.822L2679.98,401.6L2661.32,361.307L2661.32,343.452L2626.29,326.931L2562.62,319.547L2531.31,337.811ZM2271.68,242.937C2265.31,263.119 2259.47,283.369 2254.13,303.684C2187.01,323.231 2123.21,348.923 2059.31,379.15C2114.95,323.393 2187.51,276.723 2271.68,242.937ZM2917.39,244.213C2997.23,276.71 3066.49,320.817 3120.58,373.311C3059.41,344.747 2998.19,320.399 2933.93,301.684C2928.87,282.466 2923.38,263.306 2917.39,244.213ZM1999.76,295.775L1967.69,298.487L1997.77,310.227L2000.19,342.323L2012.49,312.282L2044.5,309.867L2014.27,297.494L2011.57,265.511L1999.76,295.775ZM3177.32,279.616L3209.38,282.329L3179.3,294.069L3176.88,326.164L3164.59,296.123L3132.57,293.708L3162.8,281.335L3165.5,249.353L3177.32,279.616ZM2090.68,202.14L2123.17,260.404L2100,273.328L2057.15,196.493L2138.31,151.226L2181.16,228.061L2158.04,240.955L2125.55,182.691L2090.68,202.14ZM3107.53,188.401L3064.03,264.87L3041.24,251.906L3066.13,208.154L3001.57,229.337L2980.99,217.628L3024.5,141.16L3047.56,154.281L3022.82,197.756L3087.12,176.787L3107.53,188.401ZM2972.65,118.126L2943.7,201.204L2918.95,192.577L2935.51,145.044L2875.85,177.558L2853.49,169.767L2882.44,86.688L2907.5,95.42L2891.04,142.653L2950.48,110.397L2972.65,118.126ZM2290.24,136.691C2292.39,142.35 2293.46,148.099 2293.45,153.939C2293.45,159.778 2292.23,165.375 2289.8,170.73C2287.37,176.085 2283.67,181.005 2278.69,185.492C2273.72,189.978 2267.33,193.698 2259.53,196.651C2254.19,198.674 2249.12,199.964 2244.3,200.52C2239.49,201.076 2234.99,201.04 2230.79,200.412C2226.59,199.785 2222.72,198.615 2219.18,196.903C2215.63,195.191 2212.43,193.091 2209.56,190.601C2206.69,188.112 2204.2,185.29 2202.08,182.134C2199.95,178.979 2198.22,175.62 2196.87,172.059C2194.85,166.716 2193.8,161.173 2193.73,155.431C2193.66,149.688 2194.78,144.115 2197.1,138.711C2199.42,133.307 2203.07,128.295 2208.03,123.675C2213.01,119.055 2219.51,115.223 2227.54,112.18C2235.38,109.212 2242.66,107.777 2249.39,107.873C2256.13,107.97 2262.17,109.223 2267.52,111.632C2272.86,114.041 2277.46,117.425 2281.3,121.783C2285.15,126.142 2288.13,131.111 2290.24,136.691ZM2222.16,162.48C2223.33,165.567 2224.89,168.223 2226.84,170.448C2228.79,172.673 2231.03,174.38 2233.56,175.57C2236.1,176.761 2238.88,177.368 2241.92,177.393C2244.97,177.417 2248.17,176.792 2251.53,175.518C2254.97,174.214 2257.83,172.532 2260.11,170.471C2262.38,168.411 2264.06,166.1 2265.15,163.538C2266.24,160.976 2266.77,158.229 2266.75,155.297C2266.72,152.365 2266.12,149.356 2264.96,146.269C2263.8,143.222 2262.26,140.592 2260.34,138.379C2258.41,136.167 2256.2,134.462 2253.68,133.264C2251.17,132.066 2248.38,131.449 2245.31,131.412C2242.24,131.375 2238.99,132.009 2235.54,133.313C2232.18,134.587 2229.37,136.24 2227.11,138.274C2224.84,140.307 2223.16,142.598 2222.04,145.148C2220.92,147.697 2220.37,150.452 2220.38,153.411C2220.4,156.37 2220.99,159.393 2222.16,162.48ZM2396.39,155.3L2365.21,110.352L2356.64,164.548L2329.62,170.834L2348.05,74.979L2365.18,70.995L2423.22,149.058L2396.39,155.3ZM3100.74,152.33C3098.4,155.332 3095.47,157.757 3091.96,159.606C3088.45,161.455 3084.67,162.432 3080.62,162.537C3076.57,162.641 3072.68,161.637 3068.97,159.523C3065.55,157.577 3062.76,154.874 3060.62,151.414C3058.47,147.954 3057.26,144.207 3056.97,140.174C3056.69,136.14 3057.37,132.282 3059.03,128.6L3068.85,134.187C3068.73,135.431 3068.72,136.805 3068.84,138.309C3068.96,139.813 3069.51,141.515 3070.5,143.416C3071.49,145.316 3073.16,146.937 3075.51,148.276C3078.97,150.243 3081.86,150.891 3084.19,150.22C3086.52,149.549 3088.76,148.39 3090.92,146.743L3100.74,152.33ZM2830.59,95.049C2828.85,94.696 2827.36,94.49 2826.12,94.433C2824.88,94.375 2823.71,94.538 2822.62,94.921C2821.52,95.304 2820.39,95.971 2819.23,96.922C2818.07,97.873 2816.68,99.201 2815.09,100.906C2813.38,102.719 2811.84,104.231 2810.47,105.443C2809.11,106.655 2807.75,107.633 2806.41,108.376C2805.08,109.119 2803.69,109.649 2802.27,109.964C2800.85,110.28 2799.24,110.451 2797.47,110.48C2799.18,110.999 2800.78,111.744 2802.26,112.715C2803.75,113.686 2805.17,115.033 2806.53,116.754C2807.88,118.476 2809.22,120.659 2810.54,123.301C2811.86,125.944 2813.19,129.193 2814.52,133.048L2824.5,162.405L2795.32,156.484L2786.61,129.521C2785.98,127.535 2785.4,125.864 2784.88,124.505C2784.35,123.147 2783.73,122.006 2783.01,121.083C2782.29,120.159 2781.39,119.427 2780.32,118.884C2779.24,118.342 2777.85,117.898 2776.15,117.553L2769.32,151.208L2743.32,145.931L2760.81,59.71L2786.82,64.987L2780.39,96.651C2781.68,96.912 2782.83,96.963 2783.86,96.804C2784.88,96.645 2785.98,96.177 2787.15,95.4C2788.33,94.623 2789.68,93.484 2791.22,91.982C2792.75,90.48 2794.67,88.516 2796.98,86.091C2799.33,83.633 2801.44,81.556 2803.29,79.86C2805.15,78.163 2806.93,76.776 2808.64,75.698C2810.35,74.62 2812.04,73.84 2813.71,73.359C2815.39,72.879 2817.23,72.627 2819.24,72.603C2821.26,72.58 2823.51,72.756 2826,73.133C2828.49,73.509 2831.4,74.034 2834.72,74.707L2830.59,95.049ZM2479.83,141.794L2453.53,145.274L2441.99,58.056L2468.29,54.575L2479.83,141.794ZM2642.01,47.678L2668.46,49.825L2665.84,82.029L2681.28,83.282C2687.14,83.758 2692.06,84.91 2696.03,86.74C2700,88.569 2703.18,90.855 2705.57,93.596C2707.95,96.337 2709.6,99.422 2710.51,102.85C2711.43,106.278 2711.73,109.848 2711.43,113.56C2711.12,117.356 2710.13,120.885 2708.47,124.146C2706.8,127.407 2704.51,130.193 2701.58,132.503C2698.65,134.813 2695.15,136.545 2691.06,137.699C2686.98,138.854 2682.34,139.22 2677.15,138.799L2634.89,135.368L2642.01,47.678ZM2598.39,127.703C2592.75,130.883 2587.07,133.132 2581.34,134.452C2575.61,135.772 2569.82,136.543 2563.99,136.766C2556.25,137.061 2549.26,136.237 2543.03,134.295C2536.79,132.352 2531.45,129.475 2527.01,125.663C2522.56,121.852 2519.1,117.22 2516.63,111.767C2514.16,106.314 2512.79,100.225 2512.53,93.501C2512.34,88.342 2512.78,83.614 2513.87,79.317C2514.95,75.019 2516.55,71.158 2518.67,67.731C2520.78,64.305 2523.34,61.306 2526.36,58.735C2529.37,56.164 2532.71,53.993 2536.37,52.223C2540.03,50.453 2543.93,49.097 2548.09,48.155C2552.25,47.213 2556.53,46.658 2560.92,46.49C2564.64,46.348 2568.18,46.446 2571.54,46.783C2574.9,47.121 2578.03,47.563 2580.93,48.108C2583.83,48.654 2586.47,49.273 2588.85,49.966C2591.22,50.659 2593.31,51.288 2595.11,51.855L2596,75.197C2594.75,74.483 2593.18,73.622 2591.3,72.614C2589.42,71.606 2587.29,70.649 2584.9,69.745C2582.52,68.841 2579.88,68.095 2577,67.506C2574.12,66.917 2571.03,66.686 2567.73,66.811C2563.97,66.955 2560.36,67.665 2556.89,68.94C2553.42,70.216 2550.39,71.984 2547.78,74.243C2545.18,76.502 2543.13,79.195 2541.62,82.323C2540.1,85.451 2539.42,88.96 2539.57,92.851C2539.7,96.191 2540.49,99.316 2541.96,102.224C2543.43,105.133 2545.43,107.64 2547.97,109.745C2550.5,111.85 2553.49,113.473 2556.92,114.612C2560.35,115.752 2564.09,116.244 2568.15,116.089C2571.71,115.954 2574.99,115.489 2578.01,114.697C2581.03,113.904 2583.78,112.973 2586.26,111.904C2588.74,110.836 2590.92,109.715 2592.8,108.542C2594.68,107.369 2596.26,106.335 2597.54,105.439L2598.39,127.703ZM2664.48,98.795L2662.69,120.812L2668.89,121.315C2671.68,121.541 2674.05,121.458 2676.01,121.066C2677.98,120.673 2679.59,120.04 2680.85,119.165C2682.11,118.291 2683.06,117.19 2683.7,115.862C2684.34,114.534 2684.72,113.048 2684.86,111.403C2685.01,109.547 2684.91,107.926 2684.58,106.54C2684.25,105.155 2683.56,103.963 2682.51,102.965C2681.47,101.968 2680,101.169 2678.09,100.568C2676.19,99.968 2673.72,99.545 2670.68,99.298L2664.48,98.795Z" style="fill:white;"/>
        </g>
    </g>
</svg>
