<svg version="1" xmlns="http://www.w3.org/2000/svg" width="682.667" height="682.667" viewBox="0 0 512.000000 512.000000"><path d="M34.2 162.4c.3 4.7.5 5 3.3 5.3 5.6.7 13.7 3.4 17.5 5.9 2.1 1.4 5 4.8 6.6 7.7l2.9 5.2.2 66c.2 55.5 0 67-1.2 72.4-1.9 7.9-4 11.5-8.5 14.5-3.4 2.2-5.2 2.8-12.5 4.2-1.6.3-3.7.7-4.5.9-.8.2-2.3.4-3.2.4-1.5.1-1.8 1-1.8 5.1v5l39.8-.2 39.7-.3v-9L103 343c-15.7-4.2-18.8-7-21.9-19.3-2.3-8.9-2.3-9.3-2.5-81.2-.1-57.8 0-62.5 1.3-62.5.3 0 3 6.7 5.9 14.8 3 8.1 5.8 15.6 6.3 16.7.9 2.1 20.8 55.3 29.8 80 2.9 7.7 5.8 15.6 6.6 17.5 3.3 8.5 6.8 17.8 8 21 .7 1.9 2.5 6.9 4 11 3.8 10.5 3.8 10.5 7.6 10.6 3.9 0 3.3 1.2 10.9-18.6 2.9-7.4 5.7-13.9 6.2-14.5.4-.5.8-1.5.8-2.2 0-.7.9-3.2 1.9-5.6 1-2.3 3.1-7.4 4.6-11.2 1.5-3.9 3.3-8.4 4-10 .7-1.7 5.7-14 11-27.5s10.3-25.9 11-27.5c.7-1.7 3-7.3 5-12.5 2.1-5.2 4.3-10.9 5-12.5.7-1.7 3.3-8 5.7-14.2 2.3-6.2 4.9-11.3 5.6-11.3.9 0 1.2 15.4 1.2 73.5 0 71.2-.1 73.7-2 77.4-3.4 6.7-10.7 9.5-25.7 10-3.2.1-3.3.1-3.2 5.1l.2 5 43.6-.2 43.5-.3.1-4.6.1-4.7-4.5-.6c-7.8-1-10.5-1.6-14.9-3.8-8.2-3.9-7.7 1.5-7.7-84.8 0-71.1.1-76.7 1.8-79.7.9-1.8 3-3.9 4.5-4.7 3-1.5 11.6-3.4 17.7-3.9 5.5-.5 16.1 2 21.2 5 7.6 4.4 7.3 1.2 7.3 73.1.1 54.7.3 64.8 1.6 69.4 4.4 15 13.1 25.9 27.1 34 6.9 3.9 22.1 8.7 31.1 9.7 35.3 3.8 65.7-9.2 78.6-33.8 6.6-12.6 6.8-14.4 6.9-73.5 0-67.8.8-73.7 10.6-78.9 2.5-1.3 5.9-2.7 7.4-3.1 3.2-.8 10.5-1.9 12.5-1.9.6 0 1.2-1 1.3-2.1 0-1.2.1-3.5.2-5.1l.2-3-40 .1c-22 .1-40.3.2-40.6.3-.3 0-.5 2.2-.5 4.8.1 3.3.5 4.7 1.6 4.8 15.6 2.4 23.1 5.2 26.9 10.1 2.4 3.1 4.7 10.7 5.7 18.9.4 3.3.8 27.4.8 53.5.2 53.4-.2 58-6 69.1-6.3 11.9-17 20.2-30.1 23.2-7.9 1.9-25.9 1.9-33.1 0-16.1-4.2-26.6-15.4-30.9-32.8-.4-1.7-.9-31.1-1-65.5-.3-54.8-.2-63 1.2-66.6 1.3-3.6 4-6 7.8-7 .4-.1.9-.3 1.2-.4 1.6-.8 12.6-2.5 14.3-2.2 1.3.3 1.3.4 1.6-5.1.1-2.1-.3-4.1-.9-4.5-.5-.4-33.5-.7-73.3-.7h-72.3l-.5 2.5c-1.5 7.3-5 18.7-8.9 28.5-2.4 6-10.3 26.3-17.5 45-7.3 18.7-14 36-15 38.5s-4.2 10.6-7 18c-5 12.8-7 16.9-7 14.2 0-.9-40.3-107.5-51.9-137.2l-3.7-9.5H33.9l.3 4.9z"/></svg>