<svg version="1" xmlns="http://www.w3.org/2000/svg" width="933.333" height="933.333" viewBox="0 0 700.000000 700.000000"><path d="M214.1 215.1C139.6 252.4 78.2 283.4 77.6 284c-1.2 1.2-1.8 8.1-.8 9.5.4.6 62 31.6 136.9 69l136.2 68 .1 9.2c0 5.1-.2 9.3-.4 9.3s-40.6-20.1-89.7-44.7c-49.2-24.7-90.2-45.1-91.2-45.5-1.6-.7-1.7 2-1.5 50.9l.3 51.6 91.3 45.6 91.4 45.7 91.3-45.6 91.4-45.5.1-61.2V339l23.3-11.7c12.7-6.4 23.4-11.7 23.7-11.8.3-.1 10.2-5 22.1-11l21.6-10.8-.3-5.1c-.1-2.8-.6-5.2-1.1-5.3-.4-.2-61.4-30.6-135.5-67.7-74.1-37-135.3-67.5-136-67.8-.7-.2-62.2 30.1-136.7 67.3z"/></svg>