<?xml version="1.0" encoding="UTF-8" standalone="no"?>
<!DOCTYPE svg PUBLIC "-//W3C//DTD SVG 1.1//EN" "http://www.w3.org/Graphics/SVG/1.1/DTD/svg11.dtd">
<svg width="100%" height="100%" viewBox="0 0 771 783" version="1.1" xmlns="http://www.w3.org/2000/svg" xmlns:xlink="http://www.w3.org/1999/xlink" xml:space="preserve" xmlns:serif="http://www.serif.com/" style="fill-rule:evenodd;clip-rule:evenodd;stroke-linejoin:round;stroke-miterlimit:2;">
    <g transform="matrix(1,0,0,1,-1557.98,-605.27)">
        <g transform="matrix(1,0,0,1,-379.25,588.252)">
            <path d="M2606.44,592.442L2634.81,612.403L2641.94,602.27L2647.72,606.334L2628.63,633.474L2622.85,629.41L2629.96,619.299L2601.59,599.338L2606.44,592.442ZM2021.53,587.15L2019.2,578.896C2023.7,577.438 2027.67,577.319 2031.12,578.538C2034.57,579.757 2037.53,582.239 2039.99,585.982C2043.04,590.614 2043.96,595.463 2042.76,600.527C2041.56,605.592 2038.21,609.929 2032.72,613.541C2026.92,617.36 2021.42,618.828 2016.24,617.943C2011.05,617.059 2006.85,614.173 2003.64,609.288C2000.83,605.02 1999.81,600.724 2000.58,596.4C2001.03,593.833 2002.38,591.234 2004.65,588.604L2010.91,594.48C2009.37,596.082 2008.51,597.882 2008.32,599.88C2008.14,601.877 2008.66,603.812 2009.89,605.684C2011.59,608.269 2013.9,609.757 2016.82,610.146C2019.73,610.535 2023.27,609.362 2027.42,606.628C2031.83,603.726 2034.45,600.866 2035.28,598.048C2036.11,595.231 2035.69,592.553 2034.02,590.015C2032.79,588.143 2031.13,586.924 2029.06,586.358C2026.98,585.793 2024.47,586.057 2021.53,587.15ZM2629.58,554.077L2665.9,574.68L2650.62,601.61L2644.48,598.125L2655.6,578.528L2647.55,573.961L2637.2,592.195L2631.08,588.723L2641.43,570.489L2631.54,564.882L2620.03,585.172L2613.91,581.701L2629.58,554.077ZM1993.47,592.259L1989.12,583.893L2003.86,565.254L1980.8,567.87L1976.74,560.06L2011.39,557.939C2015.15,557.718 2018.19,557.902 2020.52,558.49C2022.85,559.078 2024.6,560.492 2025.76,562.733C2026.91,564.94 2027.66,566.742 2028.03,568.138L2022.46,571.027C2021.98,569.931 2021.52,568.953 2021.07,568.094C2020.17,566.358 2019.2,565.28 2018.18,564.858C2017.16,564.437 2015.43,564.424 2012.98,564.819L1993.47,592.259ZM2638.88,533.298L2670.63,547.278L2675.62,535.938L2682.09,538.784L2668.72,569.154L2662.25,566.307L2667.24,554.994L2635.48,541.014L2638.88,533.298ZM2013.38,540.186L1974.37,555.065L1969.87,543.275L1993.78,526.047L1964.5,529.197L1959.99,517.38L1999.01,502.502L2001.8,509.82L1971.09,521.533L2004.75,517.565L2007.65,525.15L1979.88,544.58L2010.59,532.868L2013.38,540.186ZM2694.55,501.041L2692.14,508.554L2665.67,500.065L2686.98,524.664L2684.41,532.666L2644.65,519.915L2647.06,512.402L2673.02,520.726L2652.22,496.318L2654.79,488.29L2694.55,501.041ZM1976.48,475.541L1977.05,466.984C1981.77,467.113 1985.56,468.328 1988.4,470.63C1991.24,472.932 1993.2,476.259 1994.27,480.611C1995.6,485.995 1994.84,490.873 1992.02,495.244C1989.19,499.616 1984.59,502.586 1978.21,504.155C1971.46,505.815 1965.79,505.361 1961.2,502.794C1956.61,500.228 1953.61,496.105 1952.22,490.425C1951,485.465 1951.47,481.076 1953.64,477.257C1954.92,474.987 1957.07,472.991 1960.09,471.271L1964.02,478.899C1962.04,479.896 1960.62,481.304 1959.78,483.125C1958.94,484.945 1958.78,486.943 1959.32,489.119C1960.06,492.125 1961.74,494.298 1964.35,495.639C1966.97,496.98 1970.69,497.057 1975.53,495.868C1980.65,494.608 1984.08,492.788 1985.8,490.409C1987.52,488.03 1988.02,485.365 1987.29,482.415C1986.76,480.239 1985.61,478.537 1983.84,477.31C1982.07,476.083 1979.62,475.493 1976.48,475.541ZM2672.5,479.547L2668.36,487.059C2664.14,484.942 2661.22,482.238 2659.62,478.948C2658.02,475.658 2657.66,471.815 2658.53,467.42C2659.61,461.981 2662.36,457.881 2666.77,455.118C2671.18,452.355 2676.61,451.613 2683.05,452.894C2689.87,454.249 2694.81,457.061 2697.88,461.331C2700.96,465.6 2701.92,470.603 2700.78,476.339C2699.79,481.349 2697.5,485.125 2693.91,487.665C2691.79,489.179 2689,490.077 2685.54,490.356L2685.21,481.782C2687.43,481.72 2689.31,481.043 2690.84,479.751C2692.38,478.458 2693.36,476.713 2693.8,474.516C2694.4,471.48 2693.8,468.8 2692,466.477C2690.19,464.153 2686.85,462.507 2681.97,461.537C2676.8,460.508 2672.92,460.706 2670.36,462.132C2667.79,463.558 2666.21,465.761 2665.62,468.74C2665.18,470.938 2665.5,472.967 2666.58,474.828C2667.66,476.689 2669.64,478.262 2672.5,479.547ZM1947.33,465.211L1946.28,456.846L1962.84,454.771L1961.44,443.579C1960.78,438.304 1961.54,434.329 1963.71,431.655C1965.88,428.981 1968.69,427.429 1972.14,426.997C1974.96,426.643 1977.46,427.058 1979.61,428.242C1981.77,429.426 1983.32,430.892 1984.25,432.641C1985.19,434.389 1985.88,436.997 1986.31,440.464L1988.76,460.021L1947.33,465.211ZM1980.76,452.527L1979.74,444.387C1979.41,441.749 1979.05,439.938 1978.67,438.952C1978.29,437.966 1977.6,437.13 1976.59,436.442C1975.59,435.755 1974.43,435.494 1973.11,435.659C1971.2,435.897 1969.89,436.755 1969.18,438.232C1968.47,439.709 1968.32,442.096 1968.73,445.393L1969.8,453.9L1980.76,452.527ZM2665.91,416.503L2707.48,420.431L2706.21,433.901C2705.73,439.005 2705.2,442.313 2704.64,443.823C2703.79,446.146 2702.25,448.013 2700.01,449.422C2697.77,450.832 2694.99,451.38 2691.68,451.067C2689.13,450.826 2687.03,450.16 2685.38,449.07C2683.73,447.979 2682.47,446.673 2681.62,445.152C2680.76,443.631 2680.24,442.118 2680.05,440.613C2679.85,438.571 2679.92,435.651 2680.28,431.851L2680.8,426.378L2665.12,424.896L2665.91,416.503ZM2699.66,428.16L2687.86,427.046L2687.43,431.639C2687.11,434.948 2687.12,437.18 2687.45,438.336C2687.78,439.493 2688.38,440.432 2689.24,441.152C2690.11,441.873 2691.16,442.292 2692.39,442.408C2693.9,442.551 2695.19,442.224 2696.26,441.429C2697.32,440.633 2698.05,439.566 2698.42,438.229C2698.7,437.244 2698.99,435.24 2699.27,432.215L2699.66,428.16ZM1942.54,422.592L1942.38,414.162L1960.15,413.831C1959.92,411.955 1959.42,410.692 1958.62,410.042C1957.83,409.392 1955.65,408.408 1952.08,407.088C1947.52,405.425 1944.68,403.721 1943.55,401.976C1942.41,400.25 1941.81,397.441 1941.74,393.549C1941.73,393.359 1941.72,392.951 1941.69,392.325L1947.92,392.209L1947.92,393.405C1947.95,395.133 1948.19,396.392 1948.63,397.181C1949.07,397.971 1949.73,398.604 1950.62,399.081C1951.5,399.559 1953.31,400.256 1956.04,401.174C1957.49,401.66 1958.71,402.192 1959.69,402.772C1960.67,403.352 1961.6,404.394 1962.48,405.897C1962.98,404.007 1964.02,402.435 1965.61,401.181C1967.2,399.926 1969.46,398.54 1972.37,397.024L1983.71,391.115L1983.9,401.025L1973.2,406.21C1973.05,406.289 1972.76,406.456 1972.32,406.71C1972.17,406.808 1971.52,407.172 1970.38,407.801C1968.35,408.921 1967.08,409.833 1966.58,410.535C1966.08,411.238 1965.84,412.301 1965.84,413.725L1984.13,413.385L1984.28,421.814L1942.54,422.592ZM2665.78,381.092L2707.53,380.728L2707.8,411.688L2700.74,411.749L2700.54,389.22L2691.29,389.301L2691.47,410.263L2684.43,410.325L2684.25,389.362L2672.89,389.461L2673.09,412.788L2666.06,412.849L2665.78,381.092ZM1942.06,386.556L1942.67,378.69L1970.38,380.846L1943.98,361.822L1944.63,353.445L1986.26,356.683L1985.65,364.549L1958.48,362.436L1984.34,381.389L1983.69,389.795L1942.06,386.556ZM2703.06,337.848L2704.99,354.426C2705.38,357.708 2705.53,360.171 2705.44,361.815C2705.36,363.46 2704.95,364.969 2704.24,366.344C2703.52,367.718 2702.49,368.914 2701.14,369.931C2699.8,370.949 2698.23,371.562 2696.44,371.771C2694.5,371.998 2692.65,371.683 2690.91,370.826C2689.16,369.969 2687.78,368.692 2686.76,366.995C2686.32,369.608 2685.3,371.697 2683.68,373.263C2682.07,374.828 2680.06,375.75 2677.67,376.03C2675.78,376.251 2673.89,376.026 2672.01,375.358C2670.13,374.689 2668.56,373.658 2667.32,372.264C2666.08,370.87 2665.2,369.075 2664.7,366.878C2664.38,365.5 2663.89,362.145 2663.23,356.811L2661.58,342.695L2703.06,337.848ZM2680.64,348.956L2669.55,350.252L2670.45,358.003C2670.81,361.021 2671.12,362.926 2671.38,363.717C2671.75,364.935 2672.42,365.884 2673.39,366.565C2674.36,367.245 2675.58,367.499 2677.05,367.327C2678.3,367.181 2679.32,366.756 2680.11,366.051C2680.91,365.346 2681.44,364.4 2681.7,363.213C2681.97,362.026 2681.88,359.527 2681.43,355.717L2680.64,348.956ZM2697.13,347.028L2687.54,348.149L2688.18,353.637C2688.57,356.9 2688.85,358.922 2689.04,359.703C2689.37,361.117 2690,362.186 2690.92,362.911C2691.83,363.635 2692.96,363.919 2694.3,363.763C2695.58,363.613 2696.58,363.137 2697.3,362.336C2698.02,361.535 2698.38,360.427 2698.39,359.012C2698.39,358.171 2698.16,355.78 2697.7,351.838L2697.13,347.028ZM1945.96,343.556L1947.46,335.809L1974.75,341.072L1950.66,319.196L1952.25,310.945L1993.25,318.851L1991.76,326.599L1964.99,321.437L1988.56,343.183L1986.96,351.462L1945.96,343.556ZM2658.76,330.041L2699.74,322.014L2701.36,330.288L2660.38,338.315L2658.76,330.041ZM1939.85,320.332L1940.59,316.5C1943.08,317.213 1944.9,318.487 1946.05,320.322C1947.19,322.158 1947.53,324.316 1947.05,326.795C1946.57,329.275 1945.46,331.154 1943.71,332.432C1941.97,333.711 1939.81,334.217 1937.23,333.952L1937.97,330.12C1939.31,330.245 1940.41,329.972 1941.24,329.302C1942.08,328.631 1942.64,327.531 1942.94,326.003C1943.23,324.474 1943.12,323.243 1942.59,322.31C1942.06,321.377 1941.15,320.717 1939.85,320.332ZM2649.17,292.884L2689.42,281.748L2691.67,289.873L2675.83,294.257L2680.23,310.178L2696.07,305.795L2698.32,313.921L2658.08,325.057L2655.83,316.932L2673.43,312.062L2669.02,296.14L2651.42,301.01L2649.17,292.884ZM1964.27,271.064L1974.87,244.229L2007.19,256.997L2008.54,253.579L2023.54,259.503L2020.96,266.02L2012.48,262.671L2002.83,287.122L2011.3,290.471L2008.73,296.987L1993.73,291.064L1995.03,287.779C1992.35,284.86 1988.91,282.278 1984.72,280.032C1980.54,277.786 1975.09,275.337 1968.38,272.686L1964.27,271.064ZM1973.74,266.168C1985.54,270.829 1993.72,275.295 1998.28,279.567L2004.11,264.811L1978.3,254.618L1973.74,266.168ZM2674.56,243.079L2678.02,251.851L2661.42,268.856L2684.63,268.654L2687.86,276.843L2653.17,275.349C2649.41,275.177 2646.4,274.678 2644.15,273.851C2641.89,273.024 2640.3,271.436 2639.38,269.086C2638.47,266.772 2637.9,264.902 2637.69,263.476L2643.52,261.18C2643.89,262.321 2644.25,263.342 2644.6,264.243C2645.32,266.063 2646.16,267.236 2647.14,267.761C2648.11,268.286 2649.83,268.48 2652.31,268.342L2674.56,243.079ZM2016.2,254.262L1979.33,234.656L1993.87,207.32L2000.11,210.637L1989.53,230.529L1997.7,234.875L2007.54,216.366L2013.76,219.67L2003.91,238.178L2013.95,243.515L2024.9,222.918L2031.11,226.222L2016.2,254.262ZM2641.73,184.605L2645.89,191.311L2622.26,205.956L2654.8,205.692L2659.23,212.834L2623.74,234.832L2619.58,228.126L2642.75,213.765L2610.68,213.769L2606.24,206.603L2641.73,184.605ZM2032.99,223.091L1998.35,199.762L2005.91,188.541C2008.78,184.289 2010.82,181.633 2012.04,180.575C2013.89,178.941 2016.14,178.041 2018.78,177.875C2021.42,177.708 2024.12,178.553 2026.88,180.41C2029.01,181.842 2030.53,183.432 2031.46,185.18C2032.39,186.927 2032.87,188.674 2032.89,190.42C2032.92,192.166 2032.65,193.744 2032.09,195.152C2031.3,197.045 2029.84,199.573 2027.7,202.739L2024.63,207.298L2037.7,216.098L2032.99,223.091ZM2008.92,196.716L2018.75,203.336L2021.33,199.509C2023.18,196.753 2024.25,194.788 2024.51,193.615C2024.77,192.442 2024.7,191.332 2024.28,190.284C2023.86,189.237 2023.14,188.368 2022.12,187.679C2020.86,186.83 2019.57,186.5 2018.25,186.688C2016.94,186.877 2015.79,187.469 2014.83,188.465C2014.11,189.194 2012.9,190.818 2011.2,193.338L2008.92,196.716ZM2615.54,150.449L2620.42,156.648L2598.58,173.844L2630.89,169.942L2636.09,176.544L2603.28,202.373L2598.4,196.174L2619.81,179.313L2587.95,182.902L2582.73,176.278L2615.54,150.449ZM2661.97,197.527L2664.03,200.844C2661.71,202.011 2659.51,202.308 2657.43,201.736C2655.34,201.163 2653.63,199.804 2652.3,197.657C2650.97,195.511 2650.51,193.376 2650.93,191.253C2651.35,189.13 2652.59,187.291 2654.66,185.737L2656.72,189.054C2655.64,189.877 2655.03,190.818 2654.87,191.878C2654.71,192.937 2655.04,194.128 2655.86,195.451C2656.68,196.775 2657.6,197.601 2658.62,197.93C2659.64,198.259 2660.76,198.125 2661.97,197.527ZM2080.6,157.174L2065.94,118.228L2072.58,112.274L2112.91,132.182L2106.09,138.308L2097.04,133.685L2084.62,144.833L2088.39,154.194L2081.73,160.167L2081.68,160.039L2077.03,165.422L2065.59,162.163C2065.43,162.107 2065.11,162.037 2064.6,161.953C2064.29,161.882 2063.57,161.713 2062.44,161.445C2060.24,160.948 2058.71,160.777 2057.84,160.935C2056.98,161.093 2056.22,161.553 2055.56,162.315L2069.4,174.262L2064.03,180.494L2050.18,168.546C2049.55,169.279 2049.2,170.085 2049.15,170.965C2049.09,171.844 2049.49,173.343 2050.35,175.461C2050.83,176.651 2051.09,177.345 2051.15,177.543C2051.25,177.858 2051.37,178.173 2051.5,178.486L2056.4,189.335L2049.92,196.838L2044.97,185.044C2043.75,182.132 2042.91,179.662 2042.47,177.635C2042.03,175.608 2042.22,173.689 2043.06,171.877C2041.42,172.469 2040.04,172.678 2038.92,172.504C2037.81,172.33 2036.52,171.967 2035.07,171.414C2032.43,170.396 2030.62,169.778 2029.63,169.562C2028.64,169.345 2027.71,169.4 2026.85,169.725C2026,170.051 2024.97,170.904 2023.78,172.284C2023.63,172.456 2023.4,172.735 2023.09,173.122L2018.37,169.046C2018.8,168.584 2019.07,168.281 2019.19,168.137C2021.86,165.047 2024.21,163.238 2026.25,162.712C2028.28,162.212 2031.47,162.745 2035.82,164.311C2039.19,165.517 2041.46,166.151 2042.62,166.214C2043.78,166.277 2044.87,165.813 2045.87,164.824L2032.41,153.211L2037.79,146.98L2051.25,158.592C2052.08,157.454 2052.38,156.308 2052.15,155.154C2051.91,154 2050.96,151.855 2049.27,148.721C2047.07,144.615 2046.09,141.51 2046.33,139.406C2046.56,137.328 2048,134.766 2050.63,131.718C2050.75,131.575 2051.01,131.259 2051.41,130.773L2056.13,134.848L2055.31,135.757C2054.19,137.051 2053.53,138.139 2053.34,139.022C2053.14,139.905 2053.21,140.818 2053.55,141.763C2053.89,142.707 2054.77,144.433 2056.19,146.941C2056.95,148.272 2057.5,149.48 2057.84,150.565C2058.18,151.651 2058.18,153.048 2057.83,154.756C2059.48,153.693 2061.31,153.222 2063.32,153.343C2065.34,153.464 2067.94,153.933 2071.12,154.749L2080.6,157.174ZM2555.72,148.505L2585.42,119.155L2591.35,125.152L2579.66,136.704L2591.27,148.455L2602.96,136.903L2608.88,142.9L2579.18,172.25L2573.26,166.253L2586.24,153.42L2574.63,141.669L2561.64,154.502L2555.72,148.505ZM2390.3,169.887L2390.3,135.206L2394.17,135.206L2394.17,138.464C2395.09,137.189 2396.12,136.233 2397.26,135.596C2398.41,134.958 2399.81,134.64 2401.44,134.64C2403.58,134.64 2405.47,135.191 2407.11,136.292C2408.75,137.394 2409.98,138.948 2410.82,140.955C2411.65,142.962 2412.07,145.161 2412.07,147.553C2412.07,150.119 2411.61,152.429 2410.69,154.483C2409.76,156.536 2408.43,158.11 2406.67,159.204C2404.92,160.298 2403.07,160.845 2401.14,160.845C2399.72,160.845 2398.45,160.546 2397.32,159.948C2396.2,159.35 2395.27,158.594 2394.55,157.681L2394.55,169.887L2390.3,169.887ZM2257.25,148.144L2261.83,149.301C2260.87,153.062 2259.14,155.931 2256.64,157.906C2254.15,159.881 2251.1,160.869 2247.5,160.869C2243.77,160.869 2240.73,160.109 2238.4,158.59C2236.06,157.072 2234.28,154.872 2233.06,151.992C2231.84,149.112 2231.23,146.019 2231.23,142.714C2231.23,139.11 2231.92,135.966 2233.3,133.282C2234.67,130.599 2236.63,128.561 2239.18,127.168C2241.72,125.775 2244.51,125.078 2247.57,125.078C2251.03,125.078 2253.94,125.96 2256.3,127.722C2258.66,129.485 2260.31,131.964 2261.24,135.159L2256.73,136.221C2255.93,133.703 2254.76,131.87 2253.23,130.721C2251.71,129.572 2249.79,128.997 2247.47,128.997C2244.81,128.997 2242.59,129.635 2240.8,130.91C2239.02,132.184 2237.76,133.896 2237.04,136.044C2236.31,138.193 2235.95,140.408 2235.95,142.69C2235.95,145.633 2236.38,148.203 2237.24,150.398C2238.1,152.594 2239.43,154.235 2241.24,155.321C2243.05,156.407 2245.01,156.95 2247.12,156.95C2249.68,156.95 2251.86,156.21 2253.64,154.73C2255.41,153.251 2256.62,151.055 2257.25,148.144ZM2497.75,157.186C2496.18,158.524 2494.66,159.468 2493.21,160.019C2491.75,160.57 2490.19,160.845 2488.52,160.845C2485.77,160.845 2483.65,160.172 2482.17,158.826C2480.69,157.481 2479.95,155.761 2479.95,153.668C2479.95,152.44 2480.23,151.319 2480.79,150.304C2481.35,149.289 2482.08,148.474 2482.99,147.86C2483.89,147.247 2484.91,146.782 2486.04,146.467C2486.88,146.247 2488.14,146.035 2489.82,145.83C2493.25,145.421 2495.78,144.933 2497.4,144.366C2497.41,143.784 2497.42,143.414 2497.42,143.257C2497.42,141.525 2497.02,140.306 2496.22,139.597C2495.13,138.637 2493.52,138.157 2491.38,138.157C2489.38,138.157 2487.91,138.508 2486.95,139.208C2486,139.908 2485.3,141.148 2484.84,142.926L2480.68,142.36C2481.06,140.581 2481.68,139.145 2482.55,138.051C2483.41,136.957 2484.67,136.115 2486.3,135.525C2487.94,134.935 2489.84,134.64 2491.99,134.64C2494.13,134.64 2495.87,134.891 2497.21,135.395C2498.55,135.899 2499.53,136.532 2500.16,137.296C2500.79,138.059 2501.23,139.023 2501.48,140.188C2501.62,140.912 2501.7,142.218 2501.7,144.107L2501.7,149.773C2501.7,153.723 2501.79,156.222 2501.97,157.268C2502.15,158.315 2502.51,159.318 2503.04,160.278L2498.6,160.278C2498.16,159.397 2497.88,158.366 2497.75,157.186ZM2382.67,157.186C2381.1,158.524 2379.58,159.468 2378.13,160.019C2376.67,160.57 2375.11,160.845 2373.44,160.845C2370.69,160.845 2368.57,160.172 2367.09,158.826C2365.61,157.481 2364.87,155.761 2364.87,153.668C2364.87,152.44 2365.15,151.319 2365.71,150.304C2366.27,149.289 2367,148.474 2367.91,147.86C2368.81,147.247 2369.83,146.782 2370.96,146.467C2371.8,146.247 2373.05,146.035 2374.74,145.83C2378.17,145.421 2380.7,144.933 2382.32,144.366C2382.33,143.784 2382.34,143.414 2382.34,143.257C2382.34,141.525 2381.94,140.306 2381.14,139.597C2380.05,138.637 2378.44,138.157 2376.3,138.157C2374.3,138.157 2372.82,138.508 2371.87,139.208C2370.92,139.908 2370.21,141.148 2369.76,142.926L2365.6,142.36C2365.98,140.581 2366.6,139.145 2367.47,138.051C2368.33,136.957 2369.59,136.115 2371.22,135.525C2372.86,134.935 2374.76,134.64 2376.91,134.64C2379.05,134.64 2380.79,134.891 2382.13,135.395C2383.47,135.899 2384.45,136.532 2385.08,137.296C2385.71,138.059 2386.15,139.023 2386.4,140.188C2386.54,140.912 2386.61,142.218 2386.61,144.107L2386.61,149.773C2386.61,153.723 2386.7,156.222 2386.89,157.268C2387.07,158.315 2387.43,159.318 2387.96,160.278L2383.52,160.278C2383.08,159.397 2382.8,158.366 2382.67,157.186ZM2339.37,157.186C2337.79,158.524 2336.28,159.468 2334.82,160.019C2333.37,160.57 2331.81,160.845 2330.14,160.845C2327.38,160.845 2325.27,160.172 2323.79,158.826C2322.31,157.481 2321.57,155.761 2321.57,153.668C2321.57,152.44 2321.85,151.319 2322.41,150.304C2322.96,149.289 2323.7,148.474 2324.6,147.86C2325.51,147.247 2326.53,146.782 2327.66,146.467C2328.49,146.247 2329.75,146.035 2331.44,145.83C2334.87,145.421 2337.39,144.933 2339.01,144.366C2339.03,143.784 2339.04,143.414 2339.04,143.257C2339.04,141.525 2338.64,140.306 2337.83,139.597C2336.75,138.637 2335.13,138.157 2332.99,138.157C2330.99,138.157 2329.52,138.508 2328.57,139.208C2327.62,139.908 2326.91,141.148 2326.45,142.926L2322.3,142.36C2322.68,140.581 2323.3,139.145 2324.16,138.051C2325.03,136.957 2326.28,136.115 2327.92,135.525C2329.55,134.935 2331.45,134.64 2333.61,134.64C2335.75,134.64 2337.49,134.891 2338.83,135.395C2340.16,135.899 2341.15,136.532 2341.78,137.296C2342.41,138.059 2342.85,139.023 2343.1,140.188C2343.24,140.912 2343.31,142.218 2343.31,144.107L2343.31,149.773C2343.31,153.723 2343.4,156.222 2343.58,157.268C2343.76,158.315 2344.12,159.318 2344.66,160.278L2340.22,160.278C2339.78,159.397 2339.49,158.366 2339.37,157.186ZM2431.45,152.204L2435.84,152.747C2435.15,155.313 2433.87,157.304 2431.99,158.72C2430.12,160.137 2427.73,160.845 2424.82,160.845C2421.15,160.845 2418.24,159.716 2416.1,157.457C2413.95,155.199 2412.87,152.031 2412.87,147.955C2412.87,143.737 2413.96,140.463 2416.13,138.134C2418.3,135.804 2421.12,134.64 2424.58,134.64C2427.93,134.64 2430.67,135.781 2432.8,138.063C2434.92,140.345 2435.99,143.556 2435.99,147.695C2435.99,147.947 2435.98,148.325 2435.96,148.828L2417.26,148.828C2417.42,151.583 2418.2,153.692 2419.6,155.155C2421,156.619 2422.75,157.351 2424.84,157.351C2426.4,157.351 2427.73,156.942 2428.83,156.123C2429.93,155.305 2430.81,153.999 2431.45,152.204ZM2151.38,135.206L2157.99,135.206L2164.57,155.273L2171.89,135.206L2178.01,135.206L2178.01,160.278L2173.76,160.278L2173.76,140.093L2166.34,160.278L2162.54,160.278L2155.53,139.125L2155.53,160.278L2151.38,160.278L2151.38,135.206ZM2285.49,160.278L2285.49,125.668L2292.39,125.668L2300.58,150.174C2301.33,152.456 2301.88,154.164 2302.23,155.297C2302.62,154.038 2303.24,152.189 2304.07,149.749L2312.36,125.668L2318.52,125.668L2318.52,160.278L2314.1,160.278L2314.1,131.311L2304.05,160.278L2299.92,160.278L2289.91,130.815L2289.91,160.278L2285.49,160.278ZM2265.23,160.278L2265.23,155.439L2270.07,155.439L2270.07,160.278L2265.23,160.278ZM2143.44,160.278L2143.44,135.206L2147.69,135.206L2147.69,160.278L2143.44,160.278ZM2462.05,135.206L2466.3,135.206L2466.3,146.043C2467.66,146.043 2468.61,145.783 2469.15,145.263C2469.69,144.744 2470.49,143.233 2471.55,140.731C2472.38,138.748 2473.06,137.441 2473.58,136.812C2474.1,136.182 2474.69,135.757 2475.37,135.537C2476.05,135.316 2477.13,135.206 2478.63,135.206L2479.48,135.206L2479.48,138.724L2478.3,138.7C2477.18,138.7 2476.46,138.866 2476.15,139.196C2475.82,139.542 2475.32,140.573 2474.64,142.289C2473.99,143.926 2473.4,145.059 2472.87,145.688C2472.33,146.318 2471.51,146.892 2470.39,147.412C2472.21,147.9 2474.01,149.6 2475.77,152.511L2480.42,160.278L2475.75,160.278L2471.22,152.511C2470.29,150.953 2469.48,149.926 2468.78,149.43C2468.09,148.935 2467.26,148.687 2466.3,148.687L2466.3,160.278L2462.05,160.278L2462.05,135.206ZM2222.68,160.278L2222.68,155.439L2227.52,155.439L2227.52,160.278L2222.68,160.278ZM2182.8,160.278L2182.8,155.439L2187.64,155.439L2187.64,160.278L2182.8,160.278ZM2346.97,135.206L2351.22,135.206L2351.22,146.043C2352.58,146.043 2353.52,145.783 2354.07,145.263C2354.61,144.744 2355.41,143.233 2356.46,140.731C2357.3,138.748 2357.97,137.441 2358.49,136.812C2359.01,136.182 2359.61,135.757 2360.29,135.537C2360.97,135.316 2362.05,135.206 2363.55,135.206L2364.4,135.206L2364.4,138.724L2363.22,138.7C2362.1,138.7 2361.38,138.866 2361.07,139.196C2360.74,139.542 2360.23,140.573 2359.56,142.289C2358.91,143.926 2358.32,145.059 2357.79,145.688C2357.25,146.318 2356.42,146.892 2355.31,147.412C2357.13,147.9 2358.93,149.6 2360.69,152.511L2365.34,160.278L2360.67,160.278L2356.13,152.511C2355.2,150.953 2354.39,149.926 2353.7,149.43C2353.01,148.935 2352.18,148.687 2351.22,148.687L2351.22,160.278L2346.97,160.278L2346.97,135.206ZM2438.3,135.206L2442.55,135.206L2442.55,145.641L2454.33,145.641L2454.33,135.206L2458.58,135.206L2458.58,160.278L2454.33,160.278L2454.33,149.159L2442.55,149.159L2442.55,160.278L2438.3,160.278L2438.3,135.206ZM2188.87,160.278L2202.16,125.668L2207.1,125.668L2221.26,160.278L2216.04,160.278L2212.01,149.796L2197.53,149.796L2193.74,160.278L2188.87,160.278ZM2497.4,147.695C2495.86,148.325 2493.54,148.86 2490.46,149.301C2488.71,149.552 2487.48,149.836 2486.75,150.15C2486.03,150.465 2485.47,150.926 2485.08,151.531C2484.68,152.137 2484.49,152.81 2484.49,153.55C2484.49,154.683 2484.91,155.628 2485.77,156.383C2486.63,157.138 2487.89,157.516 2489.54,157.516C2491.18,157.516 2492.63,157.158 2493.91,156.442C2495.18,155.726 2496.12,154.746 2496.72,153.503C2497.17,152.543 2497.4,151.126 2497.4,149.253L2497.4,147.695ZM2382.32,147.695C2380.78,148.325 2378.46,148.86 2375.38,149.301C2373.63,149.552 2372.39,149.836 2371.67,150.15C2370.95,150.465 2370.39,150.926 2369.99,151.531C2369.6,152.137 2369.4,152.81 2369.4,153.55C2369.4,154.683 2369.83,155.628 2370.69,156.383C2371.55,157.138 2372.8,157.516 2374.46,157.516C2376.09,157.516 2377.55,157.158 2378.82,156.442C2380.1,155.726 2381.03,154.746 2381.63,153.503C2382.09,152.543 2382.32,151.126 2382.32,149.253L2382.32,147.695ZM2339.01,147.695C2337.47,148.325 2335.16,148.86 2332.07,149.301C2330.33,149.552 2329.09,149.836 2328.37,150.15C2327.64,150.465 2327.08,150.926 2326.69,151.531C2326.3,152.137 2326.1,152.81 2326.1,153.55C2326.1,154.683 2326.53,155.628 2327.39,156.383C2328.24,157.138 2329.5,157.516 2331.15,157.516C2332.79,157.516 2334.24,157.158 2335.52,156.442C2336.8,155.726 2337.73,154.746 2338.33,153.503C2338.79,152.543 2339.01,151.126 2339.01,149.253L2339.01,147.695ZM2394.15,147.884C2394.15,151.11 2394.8,153.495 2396.11,155.037C2397.41,156.58 2399,157.351 2400.85,157.351C2402.74,157.351 2404.36,156.552 2405.7,154.955C2407.05,153.357 2407.72,150.882 2407.72,147.53C2407.72,144.335 2407.07,141.943 2405.75,140.353C2404.44,138.763 2402.87,137.968 2401.04,137.968C2399.23,137.968 2397.63,138.814 2396.24,140.506C2394.85,142.198 2394.15,144.658 2394.15,147.884ZM2198.86,146.066L2210.59,146.066L2206.98,136.481C2205.88,133.569 2205.06,131.177 2204.52,129.304C2204.08,131.523 2203.46,133.727 2202.66,135.915L2198.86,146.066ZM2417.5,145.334L2431.5,145.334C2431.31,143.225 2430.78,141.644 2429.89,140.589C2428.54,138.952 2426.79,138.134 2424.63,138.134C2422.68,138.134 2421.04,138.787 2419.71,140.093C2418.38,141.4 2417.64,143.147 2417.5,145.334ZM2552.43,91.801L2558.99,97.099L2552.72,104.854C2550.69,107.365 2549.44,109.104 2548.96,110.073C2548.48,111.042 2548.46,112.199 2548.88,113.545C2549.31,114.89 2550.41,116.279 2552.18,117.711C2553.59,118.845 2554.95,119.702 2556.29,120.282C2557.63,120.863 2558.94,121.18 2560.21,121.233L2571.53,107.232L2578.08,112.53L2551.84,145.009L2545.28,139.71L2555.84,126.639C2554.04,126.156 2552.37,125.546 2550.84,124.811C2549.31,124.075 2547.93,123.207 2546.68,122.204C2543.45,119.59 2541.36,116.639 2540.42,113.35C2539.47,110.061 2540.52,106.534 2543.57,102.767L2552.43,91.801ZM2090.32,130.256L2075.69,122.567L2081.85,137.866L2090.32,130.256ZM2089.7,97.619L2103.32,87.97C2106.02,86.06 2108.11,84.748 2109.59,84.034C2111.08,83.32 2112.59,82.949 2114.14,82.92C2115.7,82.892 2117.24,83.223 2118.78,83.915C2120.31,84.606 2121.6,85.688 2122.65,87.16C2123.78,88.755 2124.38,90.524 2124.47,92.466C2124.55,94.408 2124.1,96.233 2123.1,97.942C2125.6,97.075 2127.93,96.975 2130.07,97.641C2132.22,98.307 2133.99,99.624 2135.39,101.592C2136.48,103.141 2137.19,104.903 2137.51,106.878C2137.82,108.852 2137.67,110.719 2137.04,112.478C2136.41,114.237 2135.26,115.865 2133.57,117.362C2132.51,118.298 2129.8,120.335 2125.44,123.473L2113.84,131.69L2089.7,97.619ZM2143.44,130.555L2143.44,125.668L2147.69,125.668L2147.69,130.555L2143.44,130.555ZM2515.88,117.478L2539.73,83.2L2546.65,88.015L2522.8,122.292L2515.88,117.478ZM2110.2,111.965L2116.66,121.076L2123.02,116.564C2125.5,114.807 2127.03,113.623 2127.59,113.012C2128.48,112.101 2129,111.058 2129.13,109.882C2129.26,108.706 2128.9,107.514 2128.04,106.305C2127.32,105.283 2126.46,104.591 2125.45,104.229C2124.45,103.868 2123.37,103.856 2122.2,104.195C2121.03,104.534 2118.89,105.812 2115.76,108.03L2110.2,111.965ZM2145.59,109.506L2125.37,72.971L2132.75,68.888L2140.7,83.268L2155.16,75.27L2147.2,60.89L2154.58,56.808L2174.8,93.343L2167.42,97.425L2158.58,81.45L2144.12,89.449L2152.96,105.424L2145.59,109.506ZM2513.32,66.505L2537.4,81.343L2533.72,87.308L2516.82,76.894L2498.59,106.478L2491.41,102.055L2513.32,66.505ZM2100.6,98.416L2106.18,106.295L2110.69,103.1C2113.37,101.201 2115.01,99.982 2115.61,99.443C2116.68,98.47 2117.32,97.407 2117.52,96.255C2117.72,95.104 2117.42,93.978 2116.64,92.878C2115.9,91.825 2115,91.174 2113.95,90.927C2112.91,90.681 2111.76,90.894 2110.51,91.567C2109.78,91.972 2107.79,93.322 2104.55,95.617L2100.6,98.416ZM2460.63,64.134C2462.45,60.287 2464.55,57.33 2466.93,55.263C2468.7,53.745 2470.68,52.572 2472.89,51.744C2475.1,50.917 2477.26,50.551 2479.38,50.648C2482.2,50.762 2485.15,51.544 2488.22,52.994C2493.78,55.62 2497.42,59.447 2499.13,64.474C2500.84,69.502 2500.25,75.09 2497.35,81.238C2494.47,87.334 2490.56,91.322 2485.62,93.201C2480.69,95.081 2475.44,94.712 2469.9,92.094C2464.28,89.444 2460.62,85.625 2458.93,80.635C2457.23,75.645 2457.8,70.145 2460.63,64.134ZM2163.59,52.471L2170.89,49.457L2181.51,75.148L2186.52,42.993L2194.29,39.783L2210.24,78.373L2202.95,81.387L2192.53,56.196L2187.34,87.839L2179.55,91.06L2163.59,52.471ZM2468.61,67.584C2466.59,71.86 2466.05,75.567 2466.99,78.706C2467.92,81.844 2469.91,84.131 2472.95,85.565C2475.99,86.999 2479,87.082 2481.98,85.812C2484.96,84.542 2487.49,81.717 2489.55,77.338C2491.59,73.011 2492.17,69.335 2491.28,66.31C2490.38,63.285 2488.36,61.031 2485.22,59.548C2482.08,58.065 2479.04,57.948 2476.1,59.195C2473.16,60.443 2470.66,63.239 2468.61,67.584ZM2440.71,34.83L2467.33,44.377L2464.97,50.973L2446.28,44.272L2434.55,76.982L2426.61,74.136L2440.71,34.83ZM2203.82,36.464L2211.4,34.298L2219.03,61.029L2227.67,29.653L2235.75,27.346L2247.22,67.497L2239.63,69.664L2232.14,43.453L2223.39,74.301L2215.28,76.616L2203.82,36.464ZM2346.57,59.346L2315.52,58.768L2316.3,17.019L2347.26,17.596L2347.12,24.658L2324.6,24.238L2324.43,33.494L2345.39,33.884L2345.26,40.918L2324.3,40.528L2324.08,51.891L2347.41,52.325L2347.4,52.534L2347.45,52.132L2350.96,52.56C2353.11,49.226 2354.74,45.25 2355.86,40.633C2356.98,36.016 2357.97,30.126 2358.85,22.963L2359.38,18.581L2388.02,22.077L2383.81,56.57L2387.46,57.016L2387.09,60.018L2410.22,26.778L2418.89,28.867L2425.36,73.378L2416.44,71.229L2415.12,61.154L2398.89,57.244L2393.32,65.658L2386.6,64.039L2385.51,73.018L2378.55,72.169L2379.65,63.122L2353.56,59.936L2352.45,68.984L2345.5,68.135L2346.57,59.346ZM2273.55,20.314L2306.63,17.32L2310.39,58.906L2302,59.666L2298.87,25.059L2282.58,26.533L2285.72,61.14L2277.32,61.901L2273.55,20.314ZM2366.51,26.509C2364.97,39.1 2362.71,48.141 2359.72,53.63L2375.47,55.552L2378.83,28.014L2366.51,26.509ZM2414.14,53.681L2412.17,37.27L2403.06,51.012L2414.14,53.681ZM2221.78,20.524L2225.53,19.453C2226.02,21.998 2225.7,24.197 2224.58,26.047C2223.46,27.897 2221.69,29.169 2219.26,29.863C2216.83,30.556 2214.65,30.413 2212.72,29.433C2210.8,28.454 2209.37,26.753 2208.44,24.333L2212.19,23.261C2212.69,24.521 2213.43,25.372 2214.4,25.814C2215.38,26.257 2216.61,26.264 2218.11,25.837C2219.61,25.409 2220.65,24.75 2221.25,23.859C2221.84,22.969 2222.02,21.857 2221.78,20.524Z" style="fill:white;fill-rule:nonzero;"/>
            <g transform="matrix(1,0,0,1,3058.02,0)">
                <path d="M-944.489,427.54L-944.489,219.026L-962.345,212.333L-962.065,418.328C-967.332,422.084 -969.262,428.47 -971.372,432.735C-977.702,423.358 -985.86,414.019 -994.15,407.603L-994.15,233.463C-985.403,233.541 -977.889,237.556 -970.679,242.546L-970.679,200.31L-944.489,209.92L-944.489,176.983L-940.666,176.666C-854.006,169.497 -787.171,194.308 -734.889,242.546C-673.847,186.545 -603.231,170.346 -527.195,176.666L-523.374,176.984L-523.374,209.909L-497.216,200.31L-497.216,242.546C-490.006,237.556 -482.491,233.541 -473.745,233.463L-473.745,404.352C-483.223,411.953 -493.333,421.976 -499.479,431.896C-500.651,427.54 -502.331,423.124 -505.549,421.274L-505.549,212.333L-523.374,219.014L-523.374,423.762C-521.245,420.625 -518.716,417.87 -515.59,415.69C-507.822,422.195 -502.84,432.929 -500.651,443.154C-486.413,419.788 -471.627,408.226 -456.684,400C-454.937,433.094 -456.34,465.98 -476.003,497.665C-467.114,493.944 -458.219,491.094 -449.299,491.963C-451.16,536.165 -466.455,565.93 -493.247,583.339C-485.026,586.525 -479.377,592.81 -478.312,599.353C-472.737,633.602 -523.913,622.642 -503.804,599.353C-509.897,594.24 -517.845,596.1 -523.374,600.991L-523.374,614.074L-527.48,614.134C-530.795,614.182 -534.109,614.273 -537.419,614.408L-547.717,628.541C-529.098,623.357 -511.018,623.066 -493.575,628.541C-500.181,643.667 -510.478,657.279 -524.509,669.359L-493.575,675.441C-520.77,710.497 -554.081,726.006 -593.262,722.755L-569.894,739.102C-617.286,772.924 -652.739,767.284 -685.236,751.871C-696.832,756.275 -708.816,755.817 -721.303,749.061C-711.256,762.526 -697.113,772.791 -680.927,781.462L-706.098,800C-724.374,783.069 -732.787,762.796 -731.101,739.102L-733.947,741.177L-736.794,739.102C-735.108,762.796 -743.521,783.069 -761.797,800L-786.967,781.462C-770.782,772.791 -756.638,762.526 -746.591,749.061C-759.078,755.817 -771.063,756.275 -782.659,751.871C-815.155,767.284 -850.609,772.924 -898.001,739.102L-874.633,722.755C-913.814,726.006 -947.125,710.497 -974.32,675.441L-943.385,669.359C-957.416,657.279 -967.713,643.667 -974.32,628.541C-956.877,623.066 -938.797,623.357 -920.178,628.541L-930.374,614.548C-933.694,614.37 -937.054,614.231 -940.444,614.133L-944.489,614.015L-944.489,603.358C-949.906,596.806 -959.351,593.48 -966.349,599.353C-946.24,622.642 -997.416,633.602 -991.841,599.353C-990.776,592.81 -985.127,586.525 -976.906,583.339C-1003.7,565.93 -1018.99,536.165 -1020.85,491.963C-1011.93,491.094 -1003.04,493.944 -994.15,497.665C-1013.81,465.98 -1015.22,433.094 -1013.47,400C-998.526,408.226 -983.739,419.788 -969.502,443.154C-967.313,432.929 -962.331,422.195 -954.563,415.69C-950.234,418.709 -947.053,422.828 -944.489,427.54ZM-740.271,745.542C-738.897,770.018 -751.783,781.33 -761.797,795.294L-780.045,782.362C-766.916,773.436 -753.781,764.345 -740.271,745.542ZM-727.624,745.542C-728.998,770.018 -716.111,781.33 -706.098,795.294L-687.85,782.362C-700.979,773.436 -714.114,764.345 -727.624,745.542ZM-650.741,731.013C-648.588,729.023 -646.389,726.873 -644.129,724.541L-663.212,716.584L-660.977,714.83C-650.294,714.396 -639.651,713.21 -629.104,710.223C-620.522,714.854 -611.161,719.157 -599.273,722.397L-578.262,738.847C-580.622,740.418 -582.993,741.936 -585.377,743.39C-613.305,760.425 -643.009,768.673 -678.163,749.945C-670.113,746.089 -662.455,741.242 -654.243,734.145C-640.006,734.825 -627.262,737.025 -615.871,740.606L-613.938,737.234C-624.835,734.273 -636.888,732.061 -650.741,731.013ZM-817.154,731.013C-819.306,729.023 -821.505,726.873 -823.766,724.541L-804.682,716.584L-806.918,714.83C-817.6,714.396 -828.243,713.21 -838.791,710.223C-847.373,714.854 -856.734,719.157 -868.622,722.397L-889.633,738.847C-887.273,740.418 -884.902,741.936 -882.518,743.39C-854.59,760.425 -824.886,768.673 -789.732,749.945C-797.782,746.089 -805.439,741.242 -813.652,734.145C-827.888,734.825 -840.632,737.025 -852.024,740.606L-853.956,737.234C-843.06,734.273 -831.006,732.061 -817.154,731.013ZM-740.74,732.355C-757.516,716.176 -773.939,702.282 -817.878,725.616C-806.1,738.697 -789.328,747.784 -773.891,750.241C-758.953,752.618 -745.267,748.785 -738.569,736.354C-751.729,731.732 -764.846,730.147 -777.9,733.036L-777.9,730.085C-765.985,727.129 -753.55,728.266 -740.74,732.355ZM-727.154,732.355C-710.378,716.176 -693.956,702.282 -650.016,725.616C-661.794,738.697 -678.567,747.784 -694.004,750.241C-708.942,752.618 -722.628,748.785 -729.326,736.354C-716.165,731.732 -703.049,730.147 -689.995,733.036L-689.995,730.085C-701.909,727.129 -714.344,728.266 -727.154,732.355ZM-685.236,658.798C-718.396,672.26 -733.766,691.111 -733.065,714.83C-729.435,705.103 -724.252,695.893 -713.766,688.446L-712.405,689.717C-723.697,699.013 -729.542,709.564 -731.146,721.091L-719.314,714.83C-713.767,699.882 -703.071,688.283 -690.536,677.88L-685.236,658.798ZM-782.659,658.798C-749.499,672.26 -734.128,691.111 -734.83,714.83C-738.46,705.103 -743.643,695.893 -754.128,688.446L-755.489,689.717C-744.197,699.013 -738.352,709.564 -736.748,721.091L-748.581,714.83C-754.127,699.882 -764.824,688.283 -777.358,677.88L-782.659,658.798ZM-750.324,715.08C-771.593,674.6 -804.52,663.144 -838.791,667.582C-827.996,687.439 -815.959,701.409 -800.721,714.83C-774.897,705.415 -761.653,711.977 -749.855,720.375C-763.894,707.462 -780.57,696.226 -804.682,689.723L-803.01,687.439C-778.53,693.065 -763.092,703.38 -750.324,715.08ZM-717.571,715.08C-696.301,674.6 -663.375,663.144 -629.104,667.582C-639.899,687.439 -651.935,701.409 -667.173,714.83C-692.997,705.415 -706.242,711.977 -718.04,720.375C-704.001,707.462 -687.324,696.226 -663.212,689.723L-664.885,687.439C-689.365,693.065 -704.802,703.38 -717.571,715.08ZM-848.32,705.461C-867.326,694.055 -887.995,684.044 -907.876,678.302C-929.518,672.052 -950.226,670.859 -966.832,678.433C-940.691,714.101 -883.6,727.781 -846.647,710.223C-867.371,705.019 -887.841,699.955 -907.026,701.126L-907.026,698.516C-886.471,695.076 -867.309,699.765 -848.32,705.461ZM-619.574,705.461C-600.569,694.055 -579.899,684.044 -560.019,678.302C-538.376,672.052 -517.669,670.859 -501.063,678.433C-527.204,714.101 -584.295,727.781 -621.248,710.223C-600.524,705.019 -580.054,699.955 -560.868,701.126L-560.868,698.516C-581.424,695.076 -600.586,699.765 -619.574,705.461ZM-824.624,694.036C-833.011,684.979 -839.534,674.793 -845.302,664.15L-839.522,664.15L-856.286,641.077C-871.687,636.358 -885.649,634.119 -898.001,634.652C-883.771,697.757 -833.686,710.223 -811.44,710.223L-820.446,700.075C-839.2,691.062 -857.006,681.225 -868.89,666.229L-866.417,664.15C-855.088,676.904 -840.312,685.959 -824.624,694.036ZM-643.271,694.036C-634.884,684.979 -628.36,674.793 -622.592,664.15L-628.372,664.15L-611.609,641.077C-596.208,636.358 -582.246,634.119 -569.894,634.652C-584.124,697.757 -634.208,710.223 -656.454,710.223L-647.449,700.075C-628.694,691.062 -610.889,681.225 -599.005,666.229L-601.478,664.15C-612.807,676.904 -627.583,685.959 -643.271,694.036ZM-882.518,678.433C-891.336,667.242 -897.45,655.155 -901.735,642.46C-921.172,631.385 -942.242,624.407 -968.415,630.243C-962.688,643.486 -952.044,656.617 -937.284,669.655C-919.066,672.065 -901.117,673.696 -879.675,685.466C-896.455,672.322 -913.92,660.248 -932.568,650.006L-930.421,647.961C-914.114,656.833 -898.189,667.156 -882.518,678.433ZM-585.377,678.433C-576.558,667.242 -570.444,655.155 -566.16,642.46C-546.722,631.385 -525.653,624.407 -499.479,630.243C-505.207,643.486 -515.851,656.617 -530.611,669.655C-548.829,672.065 -566.778,673.696 -588.22,685.466C-571.44,672.322 -553.974,660.248 -535.327,650.006L-537.474,647.961C-553.78,656.833 -569.706,667.156 -585.377,678.433ZM-786.578,644.101C-768.194,653.711 -750.995,664.947 -734.837,677.616C-717.532,664.646 -700.21,653.722 -682.88,644.623L-682.88,613.973L-670.284,608.158C-653.81,600.341 -650.612,588.424 -650.856,573.853L-650.856,410.26L-682.88,410.26L-682.88,214.796C-699.879,224.383 -716.294,236.435 -732.039,251.275L-734.906,253.977L-737.765,251.266C-752.738,237.061 -768.965,224.878 -786.578,214.932L-786.578,410.26L-818.601,410.26L-818.601,573.853C-818.846,588.424 -815.647,600.341 -799.174,608.158L-786.578,613.973L-786.578,644.101ZM-609.689,625.029C-622.821,628.47 -635.945,632.796 -649.063,638.111L-655.29,664.15L-643.267,664.15L-632.093,640.323L-629.974,640.323L-640.972,664.15L-631.349,664.15C-622.45,652.217 -613.894,637.924 -609.689,625.029ZM-858.046,625.514C-853.786,638.282 -845.333,652.366 -836.546,664.15L-826.923,664.15L-837.921,640.323L-835.802,640.323L-824.627,664.15L-812.605,664.15L-818.752,638.443C-831.313,633.39 -844.398,629.062 -858.046,625.514ZM-659.152,418.756L-810.641,418.756L-810.641,569.065C-810.641,579.305 -810.017,585.555 -806.627,590.554C-804.3,593.985 -800.65,596.924 -794.67,599.962L-794.424,600.077L-734.897,625.577L-675.245,600.023L-675.124,599.962C-669.144,596.924 -665.494,593.985 -663.167,590.554C-659.776,585.555 -659.152,579.305 -659.152,569.065C-659.152,569.065 -659.152,418.756 -659.152,418.756ZM-523.374,596.638C-515.933,591.376 -507.283,592.357 -497.516,599.094C-507.729,606.255 -504.644,617.525 -493.426,617.525C-484.858,617.525 -479.703,610.238 -481.216,601.137C-483.635,586.587 -501.723,579.817 -523.374,588.479L-523.374,596.638ZM-944.489,589.448C-967.14,579.352 -986.433,586.076 -988.937,601.137C-990.45,610.238 -985.295,617.525 -976.727,617.525C-965.509,617.525 -962.424,606.255 -972.637,599.094C-961.851,591.653 -952.426,591.234 -944.489,598.491L-944.489,589.448ZM-667.486,427.089L-802.308,427.089L-802.308,569.065C-802.308,577.032 -802.368,581.987 -799.73,585.877C-798.053,588.35 -795.291,590.29 -791.006,592.475L-734.897,616.512L-678.787,592.475C-674.503,590.29 -671.741,588.35 -670.064,585.877C-667.426,581.987 -667.486,577.032 -667.486,569.065L-667.486,427.089ZM-787.953,446.26C-785.535,447.897 -783.24,449.278 -781.136,450.905C-766.695,462.072 -760.118,477.157 -758.717,495.055C-757.906,505.409 -756.314,515.702 -755.077,526.023C-755.056,526.197 -755.074,526.376 -755.074,526.328C-757.07,526.763 -759.092,526.896 -760.847,527.65C-764.535,529.233 -766.31,533.019 -765.696,537.208C-765.137,541.019 -762.057,543.906 -757.778,544.631C-752.949,545.449 -752.883,545.48 -749.773,538.961C-743.392,525.584 -738.784,511.647 -738.949,496.684C-739.08,484.807 -740.163,472.943 -740.734,461.068C-741.062,454.259 -742.125,447.342 -739.279,440.796C-738.083,438.045 -736.387,435.511 -734.453,432.046C-732.519,435.59 -730.82,438.213 -729.598,441.042C-726.862,447.382 -727.877,454.085 -728.198,460.674C-728.679,470.559 -729.282,480.439 -729.923,490.315C-730.817,504.081 -728.104,517.229 -723.075,529.94C-720.97,535.26 -718.422,540.404 -716.167,545.426C-708.204,546.06 -702.744,541.119 -703.24,534.18C-703.496,530.609 -707.157,527.035 -710.865,526.782C-711.866,526.714 -712.875,526.772 -713.962,526.772C-713.57,523.509 -713.208,520.437 -712.83,517.366C-711.48,506.408 -710.417,495.404 -708.684,484.507C-707.139,474.792 -702.925,466.014 -696.1,458.921C-691.754,454.404 -686.479,450.781 -681.615,446.764C-681.43,446.611 -681.184,446.532 -680.848,446.356L-680.848,575.919L-710.182,575.919C-711.936,580.578 -713.259,585.002 -715.225,589.118C-718.797,596.597 -724.315,602.534 -730.97,607.442C-731.689,607.972 -732.238,608.746 -732.816,609.448C-733.391,610.145 -733.903,610.894 -734.394,611.554C-735.606,610.165 -736.73,608.72 -738.013,607.435C-741.722,603.72 -745.807,600.332 -749.166,596.33C-753.865,590.733 -756.532,584.019 -758.07,576.872C-758.141,576.54 -758.696,576.076 -759.03,576.072C-768.398,575.959 -777.766,575.897 -787.135,575.825C-787.394,575.823 -787.654,575.795 -787.953,575.776L-787.953,446.26ZM-907.249,183.823C-916.616,183.682 -926.251,183.962 -936.156,184.676L-936.156,605.94C-926.284,606.321 -916.655,607.037 -907.249,608.075L-907.249,183.823ZM-562.208,607.886C-552.044,606.79 -541.877,606.137 -531.707,605.883L-531.707,184.673C-541.983,183.922 -552.155,183.601 -562.208,183.756L-562.208,607.886ZM-729.93,576.003L-729.93,594.803C-724.868,589.313 -721.505,583.154 -719.798,576.003L-729.93,576.003ZM-749.057,576.003C-749.023,580.021 -741.632,593.707 -739.015,594.587L-739.015,576.003L-749.057,576.003ZM-944.489,508.19C-951.424,497.279 -959.668,486.688 -973.92,484.349C-980.175,540.739 -967.378,570.382 -944.489,585.755L-944.489,537.625L-962.065,513.688L-961.258,510.561L-944.489,530.705L-944.489,508.19ZM-523.374,584.144C-501.929,568.343 -490.19,538.829 -496.233,484.349C-508.951,486.436 -516.885,495.096 -523.374,504.689L-523.374,527.955L-508.894,510.561L-508.088,513.688L-523.374,534.506L-523.374,584.144ZM-490.528,513.688C-482.948,504.737 -471.163,498.597 -454.116,495.971C-455.011,530.35 -467.587,559.65 -497.669,581.341C-504.883,580.764 -511.856,581.629 -518.594,583.904C-512.954,579.19 -508.032,574.168 -503.944,567.894C-503.809,567.687 -503.542,567.268 -503.542,567.268C-494.308,561.167 -483.526,547.711 -483.001,531.909C-486.949,547.711 -501.08,562.641 -499.586,560.006C-493.656,549.551 -491.383,534.676 -490.528,513.688ZM-979.625,513.688C-987.204,504.737 -998.99,498.597 -1016.04,495.971C-1015.14,530.35 -1002.57,559.65 -972.484,581.341C-965.27,580.764 -958.297,581.629 -951.559,583.904C-957.199,579.19 -962.121,574.168 -966.209,567.894C-966.344,567.687 -966.611,567.268 -966.611,567.268C-975.845,561.167 -986.627,547.711 -987.152,531.909C-983.204,547.711 -969.073,562.641 -970.567,560.006C-976.497,549.551 -978.77,534.676 -979.625,513.688ZM-718.53,566.949C-719.064,563.223 -719.579,559.625 -720.107,555.939C-723.637,556.351 -726.231,557.839 -727.883,560.442C-729.073,562.317 -729.634,564.59 -730.582,566.949L-718.53,566.949ZM-750.416,566.946L-738.182,566.946C-739.454,564.255 -740.142,561.581 -741.762,559.72C-743.387,557.853 -745.943,556.797 -748.709,554.979C-749.376,559.654 -749.889,563.253 -750.416,566.946ZM-757.567,553.803L-757.578,553.798C-757.703,553.755 -757.83,553.714 -757.961,553.692C-765.839,552.359 -771.537,548.376 -774.048,540.495C-774.1,540.331 -774.348,540.119 -774.508,540.116C-776.06,540.088 -777.612,540.099 -779.208,540.099L-779.208,566.931L-759.389,566.931L-757.567,553.803ZM-689.74,540.237C-690.605,540.197 -691.525,539.967 -692.34,540.166C-693.348,540.412 -694.846,540.782 -695.135,541.5C-697.064,546.297 -700.213,549.889 -704.934,551.939C-707.01,552.841 -709.288,553.278 -711.36,553.893C-710.764,558.221 -710.167,562.557 -709.565,566.929L-689.74,566.929L-689.74,540.237ZM-757.567,553.803L-757.564,553.804L-757.567,553.802L-757.567,553.803ZM-743.677,547.452C-740.659,549.496 -737.44,551.676 -734.49,553.674C-731.492,551.655 -728.253,549.475 -725.251,547.454C-728.335,540.492 -731.564,533.201 -734.478,526.621C-737.391,533.217 -740.612,540.513 -743.677,547.452ZM-779.197,464.188L-779.197,531.145C-778.128,531.145 -777.11,531.06 -776.113,531.165C-774.669,531.316 -774.224,530.594 -773.492,529.397C-771.755,526.558 -769.597,523.961 -767.474,521.379C-766.519,520.218 -764.352,520.207 -764.944,517.671C-765.654,514.635 -765.682,511.447 -766.154,508.347C-767.877,497.015 -767.362,485.217 -772.844,474.659C-774.583,471.308 -776.755,468.183 -779.197,464.188ZM-689.715,465.006C-689.985,465.224 -690.072,465.274 -690.132,465.346C-694.814,470.999 -698.311,477.349 -699.595,484.558C-701.072,492.849 -701.888,501.259 -702.967,509.62C-703.399,512.971 -703.765,516.331 -704.16,519.678C-699.347,522.181 -696.331,526.006 -694.761,531.087L-689.715,531.087L-689.715,465.006ZM-979.625,508.608C-1001.13,483.551 -1013.61,443.657 -1007.87,409.891C-981.363,426.183 -962.065,455.801 -954.095,488.248C-959.862,483.678 -966.308,480.03 -974.959,479.373L-987.644,445.89L-989.546,450.375L-978.137,481.481C-979.964,490.947 -979.964,499.961 -979.625,508.608ZM-490.528,508.608C-469.027,483.551 -456.542,443.657 -462.287,409.891C-488.79,426.183 -508.088,455.801 -516.058,488.248C-510.291,483.678 -503.845,480.03 -495.194,479.373L-482.509,445.89L-480.607,450.375L-492.016,481.481C-490.189,490.947 -490.189,499.961 -490.528,508.608ZM-723.72,290.147C-719.823,282.113 -713.58,278.096 -704.99,278.096C-700.987,278.096 -697.27,279.195 -693.839,281.392C-690.408,283.589 -688.692,286.99 -688.692,291.595C-688.692,296.832 -691.386,302.22 -696.773,307.758L-713.026,324.597L-700.159,324.597C-695.434,324.597 -692.635,321.738 -691.762,316.019L-687.608,316.019L-689.911,334.755L-724.674,334.755L-724.674,332.724C-713.267,318.698 -706.329,309.187 -703.861,304.191C-701.393,299.195 -700.159,294.876 -700.159,291.234C-700.159,288.495 -700.799,286.388 -702.078,284.913C-703.357,283.439 -705.035,282.701 -707.112,282.701C-709.61,282.701 -711.604,283.725 -713.094,285.771C-713.373,286.154 -713.625,286.561 -713.852,286.99C-711.195,288.206 -709.348,290.888 -709.348,293.998C-709.348,298.249 -712.799,301.701 -717.05,301.701C-721.301,301.701 -724.752,298.249 -724.752,293.998C-724.752,292.596 -724.377,291.281 -723.72,290.147ZM-638.127,320.604L-638.116,320.624C-641.019,320.794 -643.787,320.555 -646.475,320.07L-646.475,323.965C-646.475,325.711 -645.896,327.238 -644.737,328.548C-643.578,329.857 -641.946,330.512 -639.839,330.512L-639.839,334.755L-664.489,334.755L-664.489,330.512C-659.192,330.512 -656.543,327.923 -656.543,322.746L-656.543,318.747C-663.081,316.119 -669.726,320.624 -676.904,320.624L-676.904,316.29L-650.809,278.187L-646.475,278.187L-646.475,316.471C-645.572,317.283 -644.308,317.674 -642.895,317.893C-643.331,317.121 -643.58,316.23 -643.58,315.282C-643.58,312.343 -641.194,309.958 -638.256,309.958C-635.318,309.958 -632.932,312.343 -632.932,315.282C-632.932,318.177 -635.248,320.535 -638.127,320.604ZM-769.898,327.771C-768.572,329.465 -766.896,330.311 -764.87,330.311C-762.618,330.311 -760.767,328.727 -759.315,325.557C-757.863,322.387 -757.137,318.58 -757.137,314.136L-757.137,310.67C-760.574,313.218 -764.366,314.491 -768.514,314.491C-773.017,314.491 -776.601,312.906 -779.268,309.737C-781.934,306.567 -783.267,302.508 -783.267,297.56C-783.267,292.495 -781.586,287.984 -778.223,284.029C-774.861,280.074 -770.691,278.097 -765.714,278.097C-760.559,278.067 -755.975,280.526 -751.96,285.473C-747.946,290.421 -745.939,296.998 -745.939,305.204C-745.939,313.706 -748.072,320.757 -752.338,326.356C-756.604,331.956 -761.878,334.755 -768.158,334.755C-774.38,334.755 -779.238,332.37 -782.734,327.601L-782.608,327.516C-783.333,326.354 -783.751,324.982 -783.751,323.513C-783.751,319.328 -780.354,315.931 -776.17,315.931C-771.986,315.931 -768.589,319.328 -768.589,323.513C-768.589,325.091 -769.072,326.557 -769.898,327.771ZM-828.955,287.295L-828.955,284.649C-822.497,284.323 -812.3,281.237 -806.997,278.097L-799.115,278.097L-799.115,280.489L-804.997,280.489L-804.997,322.313C-804.997,324.238 -804.553,325.919 -803.664,327.356C-802.776,328.793 -800.613,329.512 -797.176,329.512L-797.176,333.778L-823.395,333.778L-823.395,329.6C-818.21,329.6 -815.618,327.082 -815.618,322.046L-815.618,293.028C-815.618,289.206 -817.781,287.295 -822.106,287.295L-828.955,287.295ZM-656.543,315.282L-656.543,294.259L-672.073,316.471C-666.101,314.951 -660.966,313.843 -656.543,315.282ZM-756.96,306.137C-757.108,296.598 -757.923,290.236 -759.404,287.051C-760.885,283.866 -763.077,282.274 -765.981,282.274C-768.084,282.274 -769.802,283.266 -771.136,285.251C-772.469,287.236 -773.15,289.858 -773.18,293.117C-773.18,296.672 -772.313,300.286 -770.58,303.96C-768.847,307.633 -766.499,309.47 -763.537,309.47C-761.404,309.47 -759.211,308.359 -756.96,306.137Z" style="fill:white;"/>
            </g>
        </g>
    </g>
</svg>
