<?xml version="1.0" encoding="UTF-8" standalone="no"?>
<!DOCTYPE svg PUBLIC "-//W3C//DTD SVG 1.1//EN" "http://www.w3.org/Graphics/SVG/1.1/DTD/svg11.dtd">
<svg width="100%" height="100%" viewBox="0 0 1712 2048" version="1.1" xmlns="http://www.w3.org/2000/svg" xmlns:xlink="http://www.w3.org/1999/xlink" xml:space="preserve" xmlns:serif="http://www.serif.com/" style="fill-rule:evenodd;clip-rule:evenodd;stroke-linejoin:round;stroke-miterlimit:2;">
    <g transform="matrix(1,0,0,1,-239.305,-5.16583e-12)">
        <g transform="matrix(2.04483,0,0,2.04483,239.343,-0.0408966)">
            <path d="M91.25,660.92C91.25,667 90.77,673.01 91.4,678.92C91.93,683.82 89.57,686.43 86.35,689.24C71,702.61 55.25,715.58 40.69,729.76C32.15,738.08 24.42,747.76 21.41,759.88C20.481,763.332 20.113,766.911 20.32,770.48C21.32,782.69 31.16,785.65 40.53,788.48C60.69,794.56 81.53,794.01 102.15,793.13C131.81,791.87 160.79,785.59 189.65,778.89C239.05,767.41 287.42,752.39 335.16,735.44C365.16,724.773 394.827,713.243 424.16,700.85C456.88,687 489.16,672.16 521.31,656.95C547.48,644.54 573.51,631.68 598.84,617.66C625.84,602.66 652.49,586.98 678.28,570.06C707.49,550.9 736.01,530.6 764,509.68C781,497.01 797.29,483.08 808.36,464.51C811.91,458.51 815.04,451.65 815.83,444.88C817.83,427.95 810.21,419.88 793.83,415.45C781.05,412.01 767.9,412.61 754.83,414.06C747.21,414.91 739.6,415.89 731.72,416.84L731.72,396.5C738.72,395.5 745.66,393.92 752.62,393.78C769.13,393.46 785.77,392.49 801.9,397.52C813.4,401.1 824.69,405.38 831.26,416.34C833.908,420.69 835.612,425.549 836.26,430.6C838.72,453.07 832.64,473.33 820.26,492.22C808.53,510.22 794.26,525.92 778.48,540.08C762.7,554.24 745.86,566.91 729.3,580.02C727.308,581.405 726.201,583.753 726.4,586.17C726.48,603.83 727.03,621.52 726.28,639.17C725.46,658.3 723.62,677.39 721.83,696.47C718.77,729.1 710.58,760.6 699.57,791.38C687.57,824.88 671.02,856 649.01,883.98C639.757,895.9 629.715,907.185 618.95,917.76C599.955,936.187 578.582,951.994 555.4,964.76C532.01,977.69 507.4,987.61 481.47,993.4C465.13,997.03 448.32,998.8 431.63,1000.4C419.388,1001.48 407.092,1001.81 394.81,1001.4C365.61,1000.73 337.38,995.08 309.73,985.4C277.09,974 247,958.27 220.41,936.24C206.51,924.73 192.41,913.15 180.47,899.7C168.41,886.07 158.71,870.29 148.47,855.1C142.59,846.35 137.82,836.86 132.32,827.84C131.279,826.301 129.638,825.266 127.8,824.99C114.73,824.17 101.57,824.4 88.6,822.88C64.51,820.06 41.03,814.94 19.52,802.65C-1.11,790.87 -3.59,773.96 3.72,752.85C8.32,739.57 16.58,728.23 26.11,718.03C35.64,707.83 45.31,697.77 55.71,688.52C66.43,678.99 78.09,670.52 89.36,661.61C89.95,661.283 90.588,661.051 91.25,660.92ZM674.09,620.78C661.68,628.37 650.4,634.61 639.87,641.91C632.7,646.91 622.24,647.99 620.01,657.75L610.56,657.75L610.44,659.12L618.44,663.12C609.85,685.53 597.83,705.39 580.53,723.36C578.8,706.77 577.23,691.6 575.65,676.43L573.49,676.43C573.12,678.01 572.4,679.6 572.49,681.17C572.63,685.78 572.95,690.4 573.43,694.99C574.26,702.99 575.56,710.99 576.07,718.99C576.29,722.48 576.29,727.27 574.24,729.4C559.76,744.4 542.5,755.66 523.52,764.33C500.658,774.852 475.807,780.359 450.64,780.48C441.39,780.54 432.14,779.33 422.89,778.74C417.27,778.39 413.01,776.28 410.27,770.95C407.86,766.26 404.64,762.01 401.86,757.51C400.19,754.8 398.59,754.64 396.59,757.23L408.3,774.98C406.04,774.98 404.44,775.37 403.14,774.92C395.37,772.24 387.73,769.2 379.93,766.67C377.14,765.76 373.68,764.92 371.07,765.76C353.69,771.36 336.56,777.7 319.16,783.23C301.92,788.71 284.49,793.57 267.1,798.59C257.1,801.48 247.04,804.14 236.92,806.92C236.923,807.859 237.047,808.793 237.29,809.7C243.29,823.05 248.51,836.88 255.69,849.6C267.32,870.21 283.12,887.51 301.53,902.55C325.02,921.73 350.23,937.75 379.26,947.02C391.93,951.02 404.75,955.33 417.82,957.27C430.89,959.21 444.11,958.47 457.28,958.57C472.9,958.67 488.14,955.73 502.99,951.19C537.56,940.62 566.23,921.11 590.07,893.95C603.439,878.607 615.079,861.839 624.78,843.95C640.42,815.43 651.4,785.02 659.17,753.53C665.52,727.79 670.27,701.69 671.51,675.09C672.27,657.44 673.17,639.69 674.09,620.78ZM427.04,785.31L466.24,785.31C466.24,791.44 466.48,796.97 466.17,802.46C465.81,809.03 464.79,815.57 464.38,822.14C463.6,834.68 463.15,847.23 462.38,859.77C462.08,864.5 461.19,869.2 460.56,873.92C459.86,879.14 456.99,882.55 451.74,883.17C443.74,884.17 438.4,881.6 436.13,875.6C434.814,872.064 433.996,868.362 433.7,864.6C432.82,853.9 432.58,843.15 431.61,832.46C430.33,818.2 428.61,803.98 427.1,789.74C426.999,788.266 426.979,786.787 427.04,785.31ZM23.03,254.82L23.03,225.82L277.03,225.82L277.03,256.66C270.27,258.66 263.19,260.16 256.49,262.73C239.95,269.07 229.42,281.28 226.66,298.65C224.214,313.642 222.927,328.8 222.81,343.99C222.5,451.99 222.68,559.99 222.62,667.93C222.62,683.22 221.62,698.52 221.95,713.8C222.19,726.8 223.6,739.87 224.46,752.91C224.56,754.4 224.46,755.91 224.46,758.54C199.46,764.66 174.36,771.06 149.13,776.84C139.21,779.11 128.97,779.96 118.88,781.52C115.05,782.11 113.4,780.78 111.88,776.88C104.205,757.595 99.589,737.229 98.2,716.52C97.06,697.653 96.44,678.753 96.34,659.82C96.1,607.99 96.34,556.17 96.22,504.34C96.09,460.74 95.54,417.13 95.39,373.52C95.39,358.58 96.39,343.62 96.12,328.68C96.03,319.279 95.076,309.906 93.27,300.68C88.42,276.95 73,263.68 49.64,259.12C40.98,257.44 32.19,256.29 23.03,254.82ZM369.19,715.03C355.12,720.6 342,725.92 328.74,730.87C326.636,731.361 324.418,730.851 322.74,729.49C310.995,718.305 300.984,705.43 293.04,691.29C287.49,681.22 282.71,670.71 278.04,660.19C276.88,657.59 276.39,653.76 277.43,651.27C283.21,637.42 289.55,623.8 295.74,610.13C296.514,608.658 297.361,607.226 298.28,605.84L369.19,715.03ZM340.75,536.37L442.23,582.62L447.29,597.88C431.43,628.61 414.68,661.09 397.91,693.55C397.31,694.72 396.12,695.69 395.83,696.9C393.12,707.9 383.01,708.99 374.83,712.46C373.96,712.82 371.56,711.05 370.69,709.72C357.24,689.15 343.94,668.48 330.56,647.86C321.31,633.6 312.06,619.35 302.63,605.21C300.57,602.13 300.28,599.51 301.81,596.14C309.56,579 317.09,561.76 324.87,544.64C325.37,543.54 327.27,542.55 328.6,542.43C335,541.85 336.79,541.12 340.75,536.37ZM549.17,632.97L399.04,703.44L397.8,701.87C400.12,697.64 402.52,693.45 404.74,689.16C419.653,660.333 434.53,631.48 449.37,602.6C450.69,600.02 451.85,598.24 455.18,598.46C457.04,598.59 459.5,598.12 460.76,596.93C465.26,592.69 469.09,594.83 473.64,596.93C498.58,608.48 523.64,619.74 548.64,631.1L549.17,632.97ZM272.28,565.62C279.62,576.94 287.01,588.22 294.2,599.62C294.88,600.7 294.67,602.84 294.09,604.14C287.84,618.14 281.44,632.14 274.46,646.14C267.013,620.09 265.74,592.658 270.74,566.03L272.28,565.62ZM498.11,508.67C506.87,510.23 511.11,507.33 513.67,498.74C514.05,497.44 516,496.01 517.44,495.74C529.14,493.28 540.89,491.06 553.32,488.64C554.01,493.28 554.9,497.89 555.32,502.55C556.72,516.97 557.87,531.41 559.26,545.82C561,563.82 562.91,581.88 564.71,599.91C565.39,606.65 566.11,613.38 566.46,620.14C566.327,621.806 565.522,623.349 564.23,624.41C558.05,629.41 552,628.41 544.96,625.11C521.12,613.76 496.96,603.11 472.96,592.21C469.96,590.86 467.11,589.91 467.18,585.36C467.18,582.63 464.94,579.87 463.25,576.1C474.44,554.33 486.3,531.44 498.11,508.67ZM570.85,621.14C570.44,618.86 569.98,617.02 569.79,615.14C568.59,602.98 567.4,590.82 566.29,578.66C565.55,570.59 565.07,562.51 564.29,554.45C563.15,542.82 561.79,531.22 560.61,519.6C559.61,509.6 558.61,499.6 557.96,489.6C557.9,488.69 559.85,487.02 561.09,486.76C568.81,485.11 576.57,483.63 584.38,482.43C586.109,482.333 587.795,483.008 588.98,484.27C605.8,505.12 617.98,528.45 624.49,554.43C627.05,564.59 627.91,575.18 629.64,585.56C630.27,589.38 628.38,591.01 625.17,592.66C607.23,601.9 589.44,611.37 570.85,621.14ZM227.7,609.75C227.7,602.66 227.63,595.75 227.77,588.75C227.843,587.508 228.449,586.355 229.43,585.59C241.8,578.38 254.25,571.31 267.43,563.79C266.62,572.2 265.97,579.68 265.11,587.13C264.901,588.419 264.179,589.57 263.11,590.32C251.97,596.8 240.76,603.12 229.55,609.46C228.952,609.65 228.328,609.748 227.7,609.75ZM297.23,596.17C289.01,583.73 281.03,572.41 274.04,560.49C272.46,557.79 274.42,553.06 274.63,549.26C274.91,544.39 277.73,542.94 282.25,542.16C292.57,540.4 302.75,537.88 313.02,535.81C316.08,535.19 319.67,534.74 320.93,538.53C321.447,540.708 321.218,542.998 320.28,545.03C314.14,559.25 307.79,573.37 301.46,587.51C300.26,590.2 298.88,592.81 297.23,596.17ZM341.62,530.44C358.34,527.16 375.057,523.88 391.77,520.6C409.67,517.06 427.563,513.513 445.45,509.96C459.11,507.23 472.84,504.82 486.36,501.51C490.59,500.51 491.87,502.75 493.11,505.03C493.86,506.41 493.39,509.03 492.57,510.61C486.08,523.29 479.36,535.85 472.74,548.46C468.67,556.22 464.74,564.09 460.5,571.73C459.68,573.2 457.44,574.06 455.67,574.73C453.9,575.4 451.54,574.79 450.49,575.83C445.94,580.31 441.98,578.07 437.31,575.91C410.77,563.67 384.08,551.73 357.47,539.63C352.01,537.15 346.68,534.41 341.28,531.79C341.44,531.32 341.51,530.87 341.62,530.44ZM789.99,258.13C781.7,259.93 772.99,260.68 765.11,263.78C748.11,270.51 734.44,281.32 729.2,300C728.163,303.449 727.584,307.02 727.48,310.62C727.33,333.78 727.48,356.95 727.39,380.11C727.14,427.38 726.73,474.66 726.5,521.93C726.5,525.19 725.33,526.83 722.56,528.56C707.71,537.81 693.07,547.39 678.35,556.85L673.32,560.09L673.32,316.15C673.32,285.73 652.32,265.72 624.47,260.91C618.67,259.91 612.76,259.56 606.74,258.91L606.74,225.81L789.99,225.81L789.99,258.13ZM278.03,537.96C281.87,529.52 285.51,521.51 289.33,513.09L318.44,525.93C318.55,529.49 317.44,531.08 313.44,531.73C302.82,533.49 292.33,536.02 281.77,538.18C280.519,538.239 279.265,538.165 278.03,537.96ZM530.44,437.28C522.44,452.72 514.77,467.87 506.79,482.89C506.1,484.19 503.79,485.22 502.14,485.34C495.48,485.79 492.25,488.34 490.43,494.56C489.919,495.975 488.787,497.082 487.36,497.56C455.66,503.92 423.94,510.187 392.2,516.36C376.44,519.46 360.68,522.58 344.9,525.56C343.54,525.82 340.83,525.35 340.74,524.85C340.17,521.77 335.16,520.9 337.28,516.36C346.07,497.52 354.53,478.52 363.1,459.57C366.36,452.36 369.37,445.01 373.01,438C374.403,435.309 376.627,433.138 379.35,431.81C406.01,420.6 433.97,416.63 462.7,418.38C483.96,419.774 504.761,425.204 523.99,434.38C526.04,435.27 528.1,436.21 530.44,437.28ZM291.55,509.3C309.89,477.66 335.13,453.8 368.45,436.96C363.62,447.87 359.2,457.87 354.75,467.87C347.75,483.69 340.68,499.53 333.47,515.28C332.84,516.65 330.88,517.49 329.41,518.35C328.76,518.72 327.47,518.19 327.01,518.63C321.16,524.13 315.58,520.89 310.01,518.23C304.02,515.37 298.07,512.44 291.55,509.3ZM534.38,439.16C539.04,442.02 543.44,444.56 547.64,447.42C548.993,448.331 549.946,449.728 550.3,451.32C551.51,462.12 552.45,472.95 553.51,484.14C540.58,486.84 527.81,489.57 515.02,492.14C512.27,492.68 509.09,487.85 510.45,485.21C517.13,472.27 523.94,459.39 530.69,446.48C531.83,444.27 532.91,442.06 534.38,439.16ZM557.44,483.2C556.44,473.1 555.44,463.2 554.44,453.4C565.51,460.32 575.07,468.02 583.59,478.47L557.44,483.2ZM666.06,410.31L666.06,431.02C653,435.02 639.78,438.84 626.66,443.02C611.91,447.7 597.13,452.32 582.66,457.65C576.15,460.04 570.93,460 565.66,455.33C562.47,452.53 558.66,450.41 554.76,447.7C591.1,433.19 627.79,420.09 666.06,410.31ZM404.22,263.35L489.44,263.35C489.18,268.12 489.01,272.69 488.67,277.25C487.52,292.73 486.25,308.25 485.16,323.7C484.4,334.41 483.96,345.15 483.16,355.86C482.02,371.15 480.62,386.41 479.44,401.7C479.19,404.99 479.44,408.31 479.44,412.34C458.574,408.866 437.245,409.255 416.52,413.49C412.38,363.44 408.33,313.75 404.22,263.35ZM334.01,168.44L558.01,168.44L558.01,199.67C554.63,199.67 552.48,199.86 550.37,199.67C542.48,198.83 537.37,202.42 533.29,208.97C526.87,219.16 519.86,228.97 512.89,238.81C509.21,244.01 504.63,246.95 497.48,246.87C463.48,246.48 429.48,246.54 395.54,246.87C388.34,246.93 383.8,244 379.92,238.44C371.81,226.8 363.7,215.13 354.92,203.97C352.79,201.27 348.28,200.2 344.66,198.97C342.56,198.28 340.03,198.75 337.71,198.86C334.95,198.99 333.87,197.86 333.91,195.05C334.09,186.34 334.01,177.68 334.01,168.44ZM473.49,33.44C481.39,50.44 470.23,62.07 464.15,75.53C470.99,76.03 477.21,74.66 482.04,70.86C492.26,62.86 502.53,54.64 511.57,45.34C529.05,27.34 547.57,11.15 571.29,1.96C575.29,0.43 579.68,0.18 584.29,0.02C567.29,16.13 562.68,37.16 558.29,58.44C555.4,72.44 552.47,86.44 548.01,99.95C542.27,117.31 529.95,129.87 513.9,138.22C505.04,142.82 495.38,145.9 486.01,149.48C484.26,150.15 482.16,149.93 479.16,150.22C482.16,144.68 484.89,140.08 487.16,135.22C491.248,126.874 492.589,117.444 490.99,108.29C490.42,105.11 489.36,104.13 486.4,105.52C485.96,105.73 485.33,105.64 484.98,105.92C471.98,116.21 455.78,114.85 440.84,118.03C430.11,120.32 418.84,121.82 412.84,132.66C410.23,137.36 408.77,142.74 407.09,147.9C405.86,151.67 404.32,152.9 399.94,151.9C380.1,147.22 362.94,127.72 360.37,106.99C358.15,89.11 365.73,76.35 380.37,67.38C395.37,58.22 411.84,53.53 429.29,51.38C441.54,49.85 453.53,46.51 464.4,40.28C467.52,38.44 470.25,35.88 473.49,33.44Z" style="fill-rule:nonzero;"/>
        </g>
    </g>
</svg>
