<svg width="1" height="1" viewBox="0 0 1 1" fill="none" xmlns="http://www.w3.org/2000/svg">
<g clip-path="url(#clip0)">
<path d="M0.173158 0.659877C0.173158 0.665948 0.172679 0.671948 0.173308 0.677849C0.173837 0.682742 0.171481 0.685348 0.168266 0.688153C0.15294 0.701502 0.137214 0.714452 0.122677 0.72861C0.11415 0.736918 0.106432 0.746583 0.103426 0.758684C0.102499 0.762131 0.102131 0.765704 0.102338 0.769267C0.103337 0.781459 0.113161 0.784414 0.122517 0.78724C0.142646 0.79331 0.163453 0.792761 0.184041 0.791882C0.213656 0.790624 0.242591 0.784354 0.271406 0.777664C0.32073 0.766202 0.369025 0.751205 0.416691 0.734282C0.446644 0.723631 0.476265 0.712119 0.505553 0.699745C0.538222 0.685917 0.570452 0.6711 0.602553 0.655913C0.628682 0.643522 0.654672 0.630682 0.679963 0.616684C0.706921 0.601707 0.73353 0.586051 0.75928 0.569158C0.788445 0.550027 0.81692 0.529759 0.844867 0.508871C0.861841 0.496221 0.878105 0.482312 0.889158 0.463771C0.892703 0.45778 0.895828 0.450931 0.896617 0.444171C0.898614 0.427268 0.891005 0.41921 0.874651 0.414787C0.861891 0.411352 0.848761 0.411951 0.835711 0.413399C0.828103 0.414248 0.820505 0.415226 0.812637 0.416175V0.395866C0.819626 0.394868 0.826555 0.39329 0.833505 0.393151C0.849989 0.392831 0.866603 0.391863 0.882708 0.396885C0.894191 0.400459 0.905463 0.404733 0.912023 0.415676C0.914667 0.420019 0.916368 0.42487 0.917015 0.429914C0.919471 0.452349 0.913401 0.472577 0.90104 0.491438C0.889328 0.50941 0.87508 0.525086 0.859325 0.539224C0.843569 0.553362 0.826755 0.566013 0.810221 0.579102C0.808232 0.580485 0.807127 0.582829 0.807325 0.585243C0.807405 0.602875 0.807954 0.620538 0.807205 0.638161C0.806387 0.657261 0.80455 0.676322 0.802762 0.695372C0.799707 0.727951 0.79153 0.759403 0.780537 0.790135C0.768555 0.823583 0.752031 0.854655 0.730055 0.882592C0.720816 0.894493 0.71079 0.905761 0.700042 0.91632C0.681076 0.934718 0.659736 0.950501 0.63659 0.963247C0.613236 0.976157 0.588664 0.986061 0.562774 0.991842C0.54646 0.995467 0.529676 0.997234 0.513011 0.998832C0.500788 0.99991 0.488511 1.00024 0.476248 0.99983C0.447094 0.999161 0.418907 0.99352 0.3913 0.983855C0.358711 0.972472 0.328667 0.956767 0.302118 0.934771C0.28824 0.923279 0.274162 0.911717 0.26224 0.898287C0.250199 0.884679 0.240514 0.868923 0.23029 0.853756C0.224419 0.84502 0.219656 0.835545 0.214165 0.826539C0.213125 0.825002 0.211487 0.823969 0.209652 0.823693C0.196602 0.822874 0.183462 0.823104 0.170512 0.821586C0.14646 0.818771 0.123016 0.813659 0.101539 0.801388C0.0809412 0.789626 0.0784651 0.772742 0.0857638 0.751665C0.0903566 0.738405 0.0986039 0.727083 0.108119 0.716899C0.117634 0.706714 0.127289 0.69667 0.137673 0.687434C0.148377 0.677919 0.160019 0.669462 0.171271 0.660566C0.17186 0.660239 0.172497 0.660008 0.173158 0.659877ZM0.755096 0.619799C0.742705 0.627377 0.731443 0.633608 0.720929 0.640896C0.71377 0.645889 0.703326 0.646967 0.7011 0.656712H0.691664L0.691545 0.65808L0.699532 0.662074C0.690956 0.684449 0.678954 0.704278 0.661681 0.72222C0.659954 0.705656 0.658386 0.69051 0.656809 0.675363H0.654652C0.654282 0.676941 0.653564 0.678528 0.653653 0.680096C0.653793 0.684699 0.654113 0.689311 0.654592 0.693894C0.655421 0.701882 0.656719 0.70987 0.657228 0.717857C0.657448 0.721342 0.657448 0.726124 0.655401 0.728251C0.640943 0.743228 0.62371 0.75447 0.604759 0.763127C0.581933 0.773633 0.55712 0.779131 0.531992 0.779252C0.522756 0.779312 0.513521 0.778104 0.504285 0.777515C0.498674 0.777165 0.49442 0.775058 0.491685 0.769737C0.489278 0.765054 0.486063 0.760811 0.483288 0.756318C0.48162 0.753612 0.480023 0.753452 0.478026 0.756038L0.489718 0.77376C0.487461 0.77376 0.485864 0.77415 0.484566 0.773701C0.476808 0.771025 0.469179 0.767989 0.461391 0.765463C0.458606 0.764555 0.455151 0.763716 0.452545 0.764555C0.435192 0.770146 0.418089 0.776476 0.400716 0.781998C0.383502 0.787469 0.366099 0.792322 0.348736 0.797334C0.338752 0.800219 0.328707 0.802875 0.318603 0.805651C0.318606 0.806589 0.31873 0.807521 0.318972 0.808427C0.324963 0.821756 0.330175 0.835565 0.337344 0.848265C0.348956 0.868843 0.364731 0.886116 0.383113 0.901133C0.406566 0.920283 0.431737 0.936279 0.460723 0.945534C0.473373 0.949528 0.486173 0.953831 0.499223 0.955768C0.512273 0.957705 0.525472 0.956966 0.538622 0.957066C0.554218 0.957166 0.569434 0.954231 0.584261 0.949698C0.618777 0.939144 0.647403 0.919664 0.671206 0.892546C0.684555 0.877227 0.696177 0.860485 0.705863 0.842624C0.721478 0.814148 0.732441 0.783785 0.740199 0.752344C0.746539 0.726644 0.751282 0.700584 0.75252 0.674025C0.753279 0.656402 0.754178 0.63868 0.755096 0.619799ZM0.508429 0.784074H0.547568C0.547568 0.790195 0.547808 0.795716 0.547498 0.801198C0.547139 0.807758 0.54612 0.814288 0.545711 0.820848C0.544932 0.833368 0.544483 0.845899 0.543714 0.858419C0.543414 0.863142 0.542526 0.867835 0.541897 0.872547C0.541198 0.877759 0.538332 0.881164 0.53309 0.881783C0.525103 0.882781 0.519771 0.880215 0.517504 0.874225C0.516191 0.870694 0.515374 0.866998 0.515078 0.863242C0.5142 0.852558 0.51396 0.841825 0.512991 0.831152C0.511713 0.816914 0.509996 0.802716 0.508488 0.788498C0.508388 0.787026 0.508368 0.785549 0.508429 0.784074ZM0.105044 0.254406V0.225451H0.358651V0.256243C0.351901 0.25824 0.344832 0.259737 0.338143 0.262303C0.321628 0.268634 0.311114 0.280825 0.308359 0.298168C0.305916 0.313137 0.304631 0.328271 0.304515 0.343438C0.304205 0.45127 0.304385 0.559103 0.304325 0.666876C0.304325 0.682143 0.303326 0.697419 0.303656 0.712675C0.303896 0.725655 0.305303 0.738705 0.306162 0.751725C0.306262 0.753212 0.306162 0.75472 0.306162 0.757346C0.281201 0.763456 0.25614 0.769847 0.230949 0.775618C0.221044 0.777884 0.21082 0.778733 0.200746 0.78029C0.196921 0.780879 0.195274 0.779552 0.193756 0.775658C0.186093 0.756402 0.181484 0.736068 0.180098 0.715391C0.178959 0.696553 0.17834 0.677682 0.17824 0.658779C0.178001 0.607029 0.17824 0.555289 0.178121 0.503539C0.177991 0.460007 0.177442 0.416464 0.177292 0.372922C0.177292 0.358005 0.17829 0.343068 0.178021 0.328151C0.177931 0.318765 0.176978 0.309406 0.175175 0.300195C0.170333 0.276501 0.154937 0.263252 0.131613 0.258699C0.122966 0.257022 0.11419 0.255873 0.105044 0.254406ZM0.450668 0.713903C0.43662 0.719465 0.42352 0.724776 0.410281 0.729719C0.40818 0.730209 0.405965 0.7297 0.40429 0.728341C0.392563 0.717173 0.382568 0.704318 0.374636 0.6902C0.369095 0.680146 0.364322 0.669652 0.359659 0.659148C0.358501 0.656552 0.358012 0.652728 0.35905 0.650242C0.364821 0.636413 0.371151 0.622814 0.377332 0.609166C0.378105 0.607696 0.37895 0.606266 0.379868 0.604882L0.450668 0.713903ZM0.422272 0.53552L0.523595 0.581698L0.528647 0.596935C0.512812 0.627617 0.496088 0.660047 0.479344 0.692457C0.478745 0.693625 0.477556 0.694593 0.477267 0.695801C0.474561 0.706784 0.464467 0.707873 0.456299 0.711337C0.455431 0.711697 0.453034 0.709929 0.452166 0.708601C0.438737 0.688063 0.425457 0.667425 0.412098 0.646837C0.402862 0.632599 0.393627 0.618371 0.384211 0.604253C0.382154 0.601178 0.381865 0.598562 0.383392 0.595197C0.39113 0.578084 0.398649 0.560871 0.406417 0.543777C0.406916 0.542679 0.408813 0.54169 0.410141 0.54157C0.416531 0.540991 0.418318 0.540262 0.422272 0.53552ZM0.63037 0.63197L0.480472 0.702331L0.479234 0.700764C0.48155 0.69654 0.483946 0.692357 0.486163 0.688073C0.501053 0.659291 0.515907 0.630483 0.530724 0.601647C0.532042 0.599071 0.5332 0.597294 0.536525 0.597514C0.538382 0.597644 0.540838 0.597174 0.542096 0.595986C0.546589 0.591753 0.550413 0.593889 0.554956 0.595986C0.579858 0.607518 0.604879 0.618761 0.62984 0.630103L0.63037 0.63197ZM0.353908 0.564725C0.361237 0.576027 0.368615 0.58729 0.375794 0.598672C0.376473 0.59975 0.376263 0.601887 0.375684 0.603185C0.369444 0.617163 0.363054 0.631142 0.356085 0.64512C0.348649 0.61911 0.347378 0.591721 0.35237 0.565134L0.353908 0.564725ZM0.579389 0.507863C0.588135 0.50942 0.592368 0.506525 0.594924 0.497948C0.595304 0.49665 0.597251 0.495222 0.598689 0.494953C0.610371 0.492497 0.622102 0.49028 0.634513 0.487864C0.635202 0.492497 0.636091 0.497099 0.63651 0.501752C0.637908 0.51615 0.639056 0.530567 0.640444 0.544955C0.642181 0.562927 0.644088 0.580959 0.645885 0.598961C0.646564 0.605691 0.647283 0.612411 0.647633 0.61916C0.6475 0.620824 0.646696 0.622364 0.645406 0.623424C0.639236 0.628416 0.633195 0.627417 0.626166 0.624122C0.602363 0.61279 0.57824 0.602157 0.554277 0.591273C0.551282 0.589925 0.548437 0.588977 0.548506 0.584434C0.548506 0.581708 0.54627 0.578952 0.544583 0.575188C0.555755 0.553452 0.567597 0.530597 0.579389 0.507863ZM0.652016 0.620159C0.651607 0.617882 0.651147 0.616045 0.650958 0.614168C0.649759 0.602027 0.648571 0.589886 0.647463 0.577744C0.646724 0.569687 0.646245 0.561619 0.645466 0.553572C0.644328 0.54196 0.64297 0.530378 0.641792 0.518776C0.640793 0.508791 0.639795 0.498807 0.639146 0.488822C0.639086 0.487914 0.641033 0.486246 0.642271 0.485987C0.649979 0.484339 0.657727 0.482861 0.665525 0.481663C0.667251 0.481566 0.668935 0.48224 0.670118 0.4835C0.686912 0.504318 0.699073 0.527612 0.705573 0.553552C0.708129 0.563696 0.708988 0.57427 0.710715 0.584634C0.711344 0.588448 0.709457 0.590075 0.706252 0.591723C0.68834 0.600948 0.670577 0.610404 0.652016 0.620159ZM0.309397 0.608786C0.309397 0.601707 0.309327 0.594808 0.309467 0.587819C0.30954 0.586579 0.310145 0.585427 0.311124 0.584664C0.323475 0.577465 0.335906 0.570406 0.349066 0.562897C0.348257 0.571294 0.347608 0.578763 0.346749 0.586201C0.346541 0.587488 0.34582 0.588637 0.344752 0.589386C0.33363 0.595856 0.322437 0.602167 0.311244 0.608497C0.310647 0.608686 0.310024 0.608784 0.309397 0.608786ZM0.378819 0.595227C0.370612 0.582806 0.362645 0.571504 0.355665 0.559602C0.354088 0.556907 0.356045 0.552184 0.356254 0.54839C0.356534 0.543527 0.35935 0.54208 0.363863 0.541301C0.374167 0.539544 0.384331 0.537027 0.394585 0.534961C0.39764 0.534342 0.401225 0.533892 0.402483 0.537676C0.402999 0.539851 0.40277 0.542138 0.401834 0.544166C0.395703 0.558364 0.389363 0.572463 0.383043 0.586581C0.381845 0.589267 0.380467 0.591872 0.378819 0.595227ZM0.423141 0.529599C0.439835 0.526324 0.456526 0.523049 0.473213 0.519774C0.491085 0.51624 0.508951 0.512698 0.52681 0.509151C0.540449 0.506425 0.554158 0.504019 0.567657 0.500714C0.57188 0.499715 0.573158 0.501952 0.574396 0.504228C0.575145 0.505606 0.574676 0.508222 0.573857 0.5098C0.567377 0.52246 0.560668 0.535001 0.554058 0.547591C0.549994 0.555339 0.54607 0.563197 0.541837 0.570825C0.541018 0.572293 0.538782 0.573151 0.537014 0.57382C0.535247 0.574489 0.532891 0.57388 0.531842 0.574919C0.527299 0.579392 0.523345 0.577155 0.518683 0.574999C0.492184 0.562778 0.465535 0.550856 0.438966 0.538775C0.433515 0.536299 0.428193 0.533563 0.422801 0.530947C0.422961 0.530478 0.423031 0.530028 0.423141 0.529599ZM0.870817 0.257711C0.86254 0.259508 0.853843 0.260257 0.845975 0.263352C0.829002 0.270071 0.815353 0.280865 0.810121 0.299516C0.809085 0.302959 0.808507 0.306525 0.808404 0.310119C0.808254 0.333243 0.808404 0.356378 0.808314 0.379502C0.808064 0.426699 0.807655 0.473905 0.807425 0.521102C0.807425 0.524357 0.806257 0.525995 0.803491 0.527722C0.788664 0.536958 0.774047 0.546523 0.75935 0.555968L0.754327 0.559203V0.315641C0.754327 0.285268 0.73336 0.265289 0.705553 0.260486C0.699762 0.259488 0.693861 0.259138 0.68785 0.258489V0.225441H0.870817V0.257711ZM0.359649 0.537107C0.363483 0.52868 0.367118 0.520683 0.370932 0.512276L0.399997 0.525096C0.400106 0.52865 0.398998 0.530238 0.395004 0.530887C0.384401 0.532644 0.373927 0.53517 0.363383 0.537327C0.362134 0.537386 0.360882 0.537312 0.359649 0.537107ZM0.611669 0.436583C0.603681 0.451999 0.596023 0.467126 0.588055 0.482123C0.587366 0.483421 0.58506 0.484449 0.583412 0.484569C0.576763 0.485018 0.573538 0.487564 0.57172 0.493775C0.57121 0.495187 0.57008 0.496293 0.568655 0.49677C0.537004 0.50312 0.505333 0.509377 0.473642 0.515541C0.457907 0.518636 0.442171 0.521751 0.426416 0.524727C0.425058 0.524986 0.422352 0.524517 0.422262 0.524018C0.421693 0.520942 0.416691 0.520074 0.418807 0.515541C0.427584 0.49673 0.436031 0.477759 0.444588 0.458839C0.447842 0.45164 0.450848 0.444301 0.454482 0.437302C0.455873 0.434615 0.458094 0.432448 0.460812 0.431122C0.487431 0.419929 0.515348 0.415965 0.544033 0.417712C0.56526 0.419104 0.586029 0.424526 0.605228 0.433688C0.607275 0.434576 0.609332 0.435515 0.611669 0.436583ZM0.373148 0.508492C0.39146 0.476901 0.416661 0.453078 0.449929 0.436264C0.445107 0.447157 0.440694 0.457141 0.43625 0.467126C0.429261 0.482921 0.422202 0.498737 0.415003 0.514462C0.414374 0.51583 0.412417 0.516669 0.41095 0.517528C0.410301 0.517897 0.409013 0.517368 0.408553 0.517807C0.402712 0.523299 0.397141 0.520064 0.39158 0.517408C0.385599 0.514552 0.379658 0.511627 0.373148 0.508492ZM0.615602 0.43846C0.620255 0.441316 0.624648 0.443852 0.628842 0.446708C0.630193 0.447617 0.631144 0.449012 0.631498 0.450601C0.632706 0.461385 0.633644 0.472198 0.634703 0.483371C0.621793 0.486067 0.609043 0.488792 0.596272 0.491358C0.593527 0.491897 0.590352 0.487075 0.591709 0.484439C0.598379 0.471519 0.605179 0.458659 0.611918 0.445769C0.613056 0.443562 0.614135 0.441356 0.615602 0.43846ZM0.638627 0.482432C0.637628 0.472348 0.63663 0.462463 0.635631 0.452678C0.646684 0.459588 0.656229 0.467276 0.664736 0.477709L0.638627 0.482432ZM0.747079 0.409655V0.430333C0.734039 0.434327 0.720839 0.438141 0.70774 0.442314C0.693012 0.446987 0.678255 0.4516 0.663808 0.456922C0.657308 0.459308 0.652096 0.459268 0.646834 0.454605C0.643649 0.45181 0.639845 0.449693 0.635951 0.446987C0.672235 0.4325 0.708868 0.41942 0.747079 0.409655ZM0.485644 0.262922H0.570732C0.570472 0.267685 0.570303 0.272248 0.569963 0.276801C0.568815 0.292257 0.567547 0.307753 0.566459 0.323179C0.5657 0.333872 0.56526 0.344596 0.564462 0.355289C0.563323 0.370556 0.561926 0.385792 0.560747 0.401058C0.560498 0.404343 0.560747 0.407658 0.560747 0.411682C0.539914 0.408213 0.518618 0.408602 0.497925 0.41283C0.493791 0.362857 0.489748 0.313244 0.485644 0.262922ZM0.415543 0.168159H0.639196V0.199341C0.635821 0.199341 0.633674 0.199531 0.631568 0.199341C0.62369 0.198502 0.618588 0.202087 0.614514 0.208627C0.608104 0.218801 0.601105 0.228596 0.594146 0.23842C0.590471 0.243612 0.585898 0.246548 0.57876 0.246468C0.544812 0.246079 0.510865 0.246138 0.476977 0.246468C0.469788 0.246528 0.465255 0.243602 0.461382 0.238051C0.453284 0.226429 0.445187 0.214777 0.43642 0.203634C0.434293 0.200939 0.42979 0.19987 0.426176 0.198642C0.424079 0.197953 0.421553 0.198422 0.419237 0.198532C0.416481 0.198662 0.415403 0.197534 0.415443 0.194728C0.415622 0.186032 0.415543 0.177385 0.415543 0.168159ZM0.554807 0.0333683C0.562694 0.050342 0.551552 0.061954 0.545481 0.0753931C0.552311 0.0758924 0.558521 0.0745245 0.563343 0.0707304C0.573548 0.0627427 0.583802 0.0545355 0.592828 0.0452499C0.610281 0.0272777 0.628772 0.0111128 0.652455 0.001937C0.656449 0.000409365 0.660832 0.000159752 0.665435 0C0.648461 0.0160851 0.643859 0.0370825 0.639475 0.0583296C0.63659 0.0723079 0.633664 0.0862862 0.629211 0.0997753C0.62348 0.117108 0.611179 0.129649 0.595154 0.137986C0.586308 0.142579 0.576663 0.145654 0.567307 0.149229C0.56556 0.149898 0.563463 0.149678 0.560468 0.149968C0.563463 0.144436 0.566189 0.139843 0.568456 0.134991C0.572537 0.126658 0.573876 0.117242 0.57228 0.108102C0.57171 0.104927 0.570652 0.103949 0.567697 0.105337C0.567257 0.105546 0.566628 0.105457 0.566279 0.105736C0.553299 0.11601 0.537124 0.114652 0.522207 0.117827C0.511494 0.120114 0.500241 0.121611 0.494251 0.132435C0.491645 0.137127 0.490187 0.142499 0.488509 0.147651C0.487281 0.151415 0.485744 0.152643 0.481371 0.151645C0.461561 0.146972 0.444428 0.127502 0.441862 0.106804C0.439645 0.0889521 0.447213 0.0762119 0.461831 0.0672557C0.476808 0.0581099 0.493252 0.0534272 0.510675 0.0512805C0.522906 0.0497529 0.534878 0.046418 0.545731 0.0401977C0.548846 0.0383605 0.551572 0.0358045 0.554807 0.0333683Z" fill="white"/>
</g>
<defs>
<clipPath id="clip0">
<rect width="1" height="1" fill="white"/>
</clipPath>
</defs>
</svg>
