<?xml version="1.0" encoding="UTF-8" standalone="no"?>
<!DOCTYPE svg PUBLIC "-//W3C//DTD SVG 1.1//EN" "http://www.w3.org/Graphics/SVG/1.1/DTD/svg11.dtd">
<svg width="100%" height="100%" viewBox="0 0 923 417" version="1.1" xmlns="http://www.w3.org/2000/svg" xmlns:xlink="http://www.w3.org/1999/xlink" xml:space="preserve" xmlns:serif="http://www.serif.com/" style="fill-rule:evenodd;clip-rule:evenodd;stroke-linejoin:round;stroke-miterlimit:2;">
    <g transform="matrix(1,0,0,1,-2871.61,-1056.52)">
        <g transform="matrix(0.578169,0,0,0.569451,3928.09,517.685)">
            <path d="M-1029.44,1676.76L-1033.21,1669.05C-1061.17,1619.28 -1094.85,1611.41 -1161.79,1611.41L-1414.58,1611.41L-1414.58,1626.37L-1827.3,1626.37L-1798.02,1586L-1827.3,1545.9L-1525.55,1545.9L-1525.55,1520.62L-1161.79,1520.62C-1109.44,1520.62 -1057.79,1530.18 -1029.44,1571.1C-1001.09,1530.18 -949.441,1520.62 -897.086,1520.62L-533.327,1520.62L-533.327,1545.9L-231.578,1545.9L-260.856,1586L-231.578,1626.37L-644.298,1626.37L-644.298,1611.41L-897.086,1611.41C-964.026,1611.41 -997.711,1619.28 -1025.67,1669.05L-1029.44,1676.76ZM-1025.31,1657.59L-1025.31,1657.74C-997.237,1613.65 -962.593,1605.91 -897.086,1605.91C-897.086,1605.91 -572.149,1605.91 -538.827,1605.91C-538.827,1605.91 -538.827,1526.12 -538.827,1526.12C-572.149,1526.12 -897.086,1526.12 -897.086,1526.12C-945.526,1526.12 -993.536,1534.09 -1021.49,1569.59L-1021.49,1569.59C-1022.67,1571.09 -1023.81,1572.63 -1024.91,1574.22L-1029.44,1580.35L-1034.84,1572.98C-1035.24,1572.43 -1035.64,1571.88 -1036.04,1571.35L-1036.04,1571.34C-1063.78,1534.35 -1112.57,1526.12 -1161.79,1526.12C-1161.79,1526.12 -1486.73,1526.12 -1520.05,1526.12C-1520.05,1526.12 -1520.05,1605.91 -1520.05,1605.91C-1486.73,1605.91 -1161.79,1605.91 -1161.79,1605.91C-1096.29,1605.91 -1061.64,1613.65 -1033.56,1657.74L-1033.56,1657.59L-1029.44,1663.63L-1025.31,1657.59ZM-813.196,1536.33C-808.96,1536.33 -805.016,1536.92 -801.362,1538.1C-797.709,1539.28 -794.379,1541.05 -791.372,1543.42C-788.01,1546.07 -785.463,1549.19 -783.734,1552.79C-782.004,1556.39 -781.139,1560.37 -781.139,1564.73C-781.139,1567.73 -781.559,1570.55 -782.4,1573.2C-783.241,1575.85 -784.502,1578.35 -786.183,1580.69C-788.996,1584.6 -792.778,1587.65 -797.531,1589.85C-802.284,1592.04 -807.505,1593.14 -813.196,1593.14C-817.431,1593.14 -821.416,1592.55 -825.15,1591.36C-828.884,1590.18 -832.19,1588.46 -835.068,1586.2C-838.43,1583.55 -840.976,1580.41 -842.706,1576.79C-844.436,1573.16 -845.301,1569.14 -845.301,1564.73C-845.301,1560.35 -844.444,1556.35 -842.73,1552.75C-841.017,1549.16 -838.495,1546.04 -835.165,1543.42C-832.19,1541.08 -828.852,1539.31 -825.15,1538.12C-821.448,1536.92 -817.463,1536.33 -813.196,1536.33ZM-1203.76,1536.33C-1199.53,1536.33 -1195.58,1536.92 -1191.93,1538.1C-1188.28,1539.28 -1184.94,1541.05 -1181.94,1543.42C-1178.58,1546.07 -1176.03,1549.19 -1174.3,1552.79C-1172.57,1556.39 -1171.7,1560.37 -1171.7,1564.73C-1171.7,1567.73 -1172.12,1570.55 -1172.97,1573.2C-1173.81,1575.85 -1175.07,1578.35 -1176.75,1580.69C-1179.56,1584.6 -1183.34,1587.65 -1188.1,1589.85C-1192.85,1592.04 -1198.07,1593.14 -1203.76,1593.14C-1208,1593.14 -1211.98,1592.55 -1215.72,1591.36C-1219.45,1590.18 -1222.76,1588.46 -1225.63,1586.2C-1229,1583.55 -1231.54,1580.41 -1233.27,1576.79C-1235,1573.16 -1235.87,1569.14 -1235.87,1564.73C-1235.87,1560.35 -1235.01,1556.35 -1233.3,1552.75C-1231.58,1549.16 -1229.06,1546.04 -1225.73,1543.42C-1222.76,1541.08 -1219.42,1539.31 -1215.72,1538.12C-1212.01,1536.92 -1208.03,1536.33 -1203.76,1536.33ZM-1362.39,1536.33C-1358.16,1536.33 -1354.22,1536.92 -1350.56,1538.1C-1346.91,1539.28 -1343.58,1541.05 -1340.57,1543.42C-1337.21,1546.07 -1334.66,1549.19 -1332.93,1552.79C-1331.2,1556.39 -1330.34,1560.37 -1330.34,1564.73C-1330.34,1567.73 -1330.76,1570.55 -1331.6,1573.2C-1332.44,1575.85 -1333.7,1578.35 -1335.38,1580.69C-1338.19,1584.6 -1341.98,1587.65 -1346.73,1589.85C-1351.48,1592.04 -1356.7,1593.14 -1362.39,1593.14C-1366.63,1593.14 -1370.62,1592.55 -1374.35,1591.36C-1378.08,1590.18 -1381.39,1588.46 -1384.27,1586.2C-1387.63,1583.55 -1390.18,1580.41 -1391.91,1576.79C-1393.64,1573.16 -1394.5,1569.14 -1394.5,1564.73C-1394.5,1560.35 -1393.64,1556.35 -1391.93,1552.75C-1390.22,1549.16 -1387.69,1546.04 -1384.37,1543.42C-1381.39,1541.08 -1378.05,1539.31 -1374.35,1538.12C-1370.65,1536.92 -1366.66,1536.33 -1362.39,1536.33ZM-714.844,1537.7L-690.498,1537.7L-690.498,1540.93L-696.657,1541.41L-698.355,1542.55L-698.355,1571.74C-698.355,1577.39 -696.956,1581.48 -694.16,1584.02C-691.363,1586.55 -686.861,1587.82 -680.653,1587.82C-674.51,1587.82 -670.032,1586.54 -667.22,1583.98C-664.407,1581.42 -663,1577.34 -663,1571.74L-663,1543.1L-664.892,1541.64L-670.857,1540.93L-670.857,1537.7L-649.858,1537.7L-649.858,1540.93L-655.823,1541.64L-657.617,1543.1L-657.617,1572.45C-657.617,1576.31 -657.957,1579.27 -658.636,1581.32C-659.315,1583.37 -660.43,1585.15 -661.982,1586.67C-663.954,1588.59 -666.743,1590.1 -670.348,1591.19C-673.953,1592.28 -678.018,1592.82 -682.545,1592.82C-687.103,1592.82 -691.177,1592.28 -694.766,1591.19C-698.355,1590.1 -701.135,1588.59 -703.107,1586.67C-704.692,1585.13 -705.815,1583.34 -706.478,1581.32C-707.141,1579.3 -707.472,1576.34 -707.472,1572.45L-707.472,1542.55L-709.17,1541.41L-714.844,1540.93L-714.844,1537.7ZM-642.438,1590.22L-642.438,1576.04L-636.569,1576.04L-635.406,1585.3L-634.096,1586.67C-632.641,1587.28 -630.976,1587.74 -629.101,1588.05C-627.226,1588.37 -625.189,1588.53 -622.99,1588.53C-618.367,1588.53 -614.705,1587.65 -612.006,1585.91C-609.306,1584.16 -607.956,1581.8 -607.956,1578.84C-607.956,1574.71 -612.709,1571.01 -622.214,1567.73C-623.249,1567.36 -624.041,1567.08 -624.591,1566.9C-631.38,1564.51 -635.874,1562.28 -638.073,1560.22C-640.271,1558.16 -641.371,1555.49 -641.371,1552.2C-641.371,1547.58 -639.277,1543.84 -635.09,1540.99C-630.903,1538.14 -625.35,1536.72 -618.432,1536.72C-615.651,1536.72 -612.863,1536.91 -610.066,1537.29C-607.269,1537.67 -604.416,1538.24 -601.506,1539L-601.506,1551.49L-606.695,1551.49L-608.199,1543.81L-609.654,1542.47C-610.915,1541.89 -612.289,1541.47 -613.776,1541.19C-615.263,1540.91 -616.88,1540.78 -618.626,1540.78C-622.764,1540.78 -626.046,1541.65 -628.47,1543.4C-630.895,1545.14 -632.108,1547.51 -632.108,1550.51C-632.108,1552.69 -631.259,1554.49 -629.562,1555.92C-627.864,1557.36 -624.073,1559.08 -618.189,1561.11C-617.639,1561.29 -616.815,1561.55 -615.716,1561.89C-609.928,1563.73 -605.758,1565.68 -603.204,1567.73C-601.749,1568.88 -600.657,1570.21 -599.93,1571.7C-599.203,1573.2 -598.839,1574.83 -598.839,1576.59C-598.839,1581.45 -601.183,1585.37 -605.871,1588.35C-610.559,1591.33 -616.783,1592.82 -624.542,1592.82C-628.002,1592.82 -631.259,1592.6 -634.314,1592.15C-637.37,1591.7 -640.077,1591.06 -642.438,1590.22ZM-780.994,1537.7L-757.861,1537.7L-757.861,1540.93L-763.632,1541.41L-764.699,1542.55L-746.027,1583.21L-728.083,1542.55L-729.053,1541.41L-735.212,1540.93L-735.212,1537.7L-715.426,1537.7L-715.426,1540.93L-721.585,1541.88L-744.427,1592.23L-751.313,1592.23L-774.641,1541.88L-780.994,1540.93L-780.994,1537.7ZM-1323.11,1591.84L-1323.11,1588.53L-1317.15,1587.9L-1315.35,1586.36L-1315.35,1542.55L-1316.61,1541.41L-1323.21,1540.93L-1323.21,1537.7L-1302.11,1537.7L-1302.11,1539.87L-1283.44,1580.37L-1264.58,1540.19L-1264.58,1537.7L-1243.34,1537.7L-1243.34,1540.93L-1249.59,1541.41L-1250.8,1542.55L-1250.8,1586.99L-1249.59,1588.13L-1243.34,1588.53L-1243.34,1591.84L-1267.05,1591.84L-1267.05,1588.53L-1260.5,1588.13L-1259.53,1586.99L-1259.53,1541.49L-1283.05,1591.84L-1287.32,1591.84L-1309.97,1542.31L-1309.97,1586.36L-1308.18,1587.9L-1302.11,1588.53L-1302.11,1591.84L-1323.11,1591.84ZM-1468.75,1537.7L-1444.65,1537.7L-1444.65,1540.93L-1450.81,1541.41L-1452.5,1542.55L-1452.5,1561.58L-1418.31,1561.58L-1418.31,1542.55L-1420.01,1541.41L-1426.17,1540.93L-1426.17,1537.7L-1402.02,1537.7L-1402.02,1540.93L-1407.69,1541.41L-1409.39,1542.55L-1409.39,1586.99L-1407.69,1588.13L-1402.02,1588.53L-1402.02,1591.84L-1426.17,1591.84L-1426.17,1588.53L-1420.01,1588.13L-1418.31,1586.99L-1418.31,1565.28L-1452.5,1565.28L-1452.5,1586.99L-1450.81,1588.13L-1444.65,1588.53L-1444.65,1591.84L-1468.75,1591.84L-1468.75,1588.53L-1463.12,1588.13L-1461.43,1586.99L-1461.43,1542.55L-1463.12,1541.41L-1468.75,1540.93L-1468.75,1537.7ZM-917.513,1591.84L-917.513,1588.53L-911.451,1587.9L-909.656,1586.36L-909.656,1542.55L-911.451,1541.41L-917.804,1540.93L-917.804,1537.7L-899.132,1537.7L-899.132,1539.71L-865.233,1581.04L-865.233,1543.1L-867.027,1541.64L-872.992,1540.93L-872.992,1537.7L-852.139,1537.7L-852.139,1540.93L-858.104,1541.64L-859.898,1543.1L-859.898,1591.84L-866.445,1591.84L-904.273,1546.02L-904.273,1586.36L-902.479,1587.9L-896.514,1588.53L-896.514,1591.84L-917.513,1591.84ZM-813.196,1540.7C-819.856,1540.7 -825.15,1542.86 -829.078,1547.18C-833.007,1551.5 -834.971,1557.35 -834.971,1564.73C-834.971,1572.09 -832.991,1577.94 -829.03,1582.3C-825.069,1586.66 -819.791,1588.84 -813.196,1588.84C-806.665,1588.84 -801.427,1586.66 -797.483,1582.28C-793.538,1577.91 -791.566,1572.06 -791.566,1564.73C-791.566,1557.4 -793.538,1551.57 -797.483,1547.22C-801.427,1542.87 -806.665,1540.7 -813.196,1540.7ZM-1203.76,1540.7C-1210.42,1540.7 -1215.72,1542.86 -1219.64,1547.18C-1223.57,1551.5 -1225.54,1557.35 -1225.54,1564.73C-1225.54,1572.09 -1223.56,1577.94 -1219.6,1582.3C-1215.63,1586.66 -1210.36,1588.84 -1203.76,1588.84C-1197.23,1588.84 -1191.99,1586.66 -1188.05,1582.28C-1184.1,1577.91 -1182.13,1572.06 -1182.13,1564.73C-1182.13,1557.4 -1184.1,1551.57 -1188.05,1547.22C-1191.99,1542.87 -1197.23,1540.7 -1203.76,1540.7ZM-1362.39,1540.7C-1369.06,1540.7 -1374.35,1542.86 -1378.28,1547.18C-1382.21,1551.5 -1384.17,1557.35 -1384.17,1564.73C-1384.17,1572.09 -1382.19,1577.94 -1378.23,1582.3C-1374.27,1586.66 -1368.99,1588.84 -1362.39,1588.84C-1355.87,1588.84 -1350.63,1586.66 -1346.68,1582.28C-1342.74,1577.91 -1340.77,1572.06 -1340.77,1564.73C-1340.77,1557.4 -1342.74,1551.57 -1346.68,1547.22C-1350.63,1542.87 -1355.87,1540.7 -1362.39,1540.7ZM-1029.72,1534.39C-1054.09,1495.27 -1110.13,1484.51 -1188.85,1484.51L-1827.3,1484.51L-1483.56,1192.52L-1382.57,1192.52L-1479.83,1201.95L-1654.83,1399.87L-1165.1,1399.87C-1077.12,1399.87 -1060.18,1406.39 -1029.44,1439.95L-1028.72,1439.17C-998.433,1406.29 -981.073,1399.87 -893.778,1399.87L-404.046,1399.87L-574.684,1201.95L-753.189,1192.52L-570.185,1192.52L-231.578,1484.51L-870.026,1484.51C-949.055,1484.51 -1005.22,1495.35 -1029.44,1534.86L-1029.72,1534.39ZM-1211.71,1088.31L-1120.34,1088.31L-1205.34,1257.64C-1235.74,1313.6 -1260.43,1326.23 -1295.66,1326.23L-1469.69,1326.23L-1427.76,1263.01L-1347.29,1263.01C-1316.91,1263.01 -1295.66,1255.09 -1280.56,1228.07L-1211.71,1088.31ZM-850.715,1064.51L-812.452,992.731L-897.578,992.731C-974.852,989.468 -1029.44,1011.46 -1050.73,1056.96L-1176.03,1326.23L-1067.77,1326.23L-951.72,1088.31C-942.142,1071.24 -930.336,1064.51 -903.576,1064.51L-850.715,1064.51ZM-864.281,1088.31L-978.479,1326.23L-873.812,1326.23L-759.732,1088.31L-864.281,1088.31ZM-1427.76,1088.31L-1337.38,1087.26L-1305.36,1145.49C-1296.67,1161.31 -1288.15,1175.42 -1273.93,1175.42L-1305.36,1236.4C-1331.29,1236.4 -1349.93,1214.52 -1367.78,1186.8L-1427.76,1088.31ZM-819.216,1076.27C-798.23,1053.54 -793.811,1043.63 -746.976,1038.65C-688.948,1032.47 -622.793,1050.59 -592.56,1011.25C-597.973,1032.69 -630.827,1055.7 -669.77,1055.01C-722.558,1054.08 -788.339,1048.99 -819.216,1076.27ZM-804.254,1043.76C-783.269,1021.03 -778.849,1011.12 -732.014,1006.13C-673.986,999.962 -607.831,1018.07 -577.599,978.74C-583.011,1000.18 -615.865,1023.19 -654.808,1022.5C-707.596,1021.57 -773.377,1016.48 -804.254,1043.76ZM-787.282,1011.25C-766.297,988.519 -761.877,978.608 -715.042,973.625C-657.014,967.451 -590.859,985.564 -560.627,946.229C-566.039,967.669 -598.894,990.684 -637.836,989.992C-690.624,989.054 -756.405,983.964 -787.282,1011.25Z"/>
        </g>
    </g>
</svg>
